<svg width="122" height="26" viewBox="0 0 122 26" fill="none" xmlns="http://www.w3.org/2000/svg">
<path d="M103.584 1.86328L103.776 1.30273C104.314 1.78581 104.824 2.15039 105.307 2.39648C105.799 2.64258 106.296 2.76562 106.797 2.76562C107.417 2.76562 108.16 2.69271 109.026 2.54688C109.892 2.39193 110.849 2.31445 111.897 2.31445L113.907 2.42383C114.435 2.49674 114.914 2.81576 115.342 3.38086C115.698 3.86393 115.875 4.2832 115.875 4.63867C115.875 4.93945 115.397 5.37695 114.44 5.95117C112.991 6.8444 111.733 7.76042 110.666 8.69922C111.058 8.86328 111.405 9.08203 111.705 9.35547C112.015 9.62891 112.312 9.96159 112.594 10.3535H114.7C116.75 10.3535 118.437 10.6771 119.758 11.3242C121.052 11.9258 121.7 12.6641 121.7 13.5391C121.7 13.8216 121.627 14.0267 121.481 14.1543C121.344 14.2819 121.134 14.3457 120.852 14.3457C119.621 14.4277 118.355 14.5599 117.051 14.7422C116.623 14.7786 116.368 14.7969 116.286 14.7969L114.495 14.6055C115.169 14.3776 115.853 14.1315 116.545 13.8672C117.238 13.5938 117.926 13.2884 118.61 12.9512C117.826 12.6868 117.092 12.5091 116.409 12.418C115.734 12.3268 115.078 12.2812 114.44 12.2812H113.414C113.578 12.6914 113.702 13.0924 113.784 13.4844C113.866 13.8763 113.907 14.2591 113.907 14.6328C113.907 17.3945 113.351 19.7552 112.239 21.7148C111.209 23.5469 110.06 24.4538 108.793 24.4355C107.226 23.3327 105.954 22.3848 104.979 21.5918C104.013 20.7988 103.47 19.8145 103.352 18.6387C104.254 19.3861 105.189 19.974 106.155 20.4023C107.13 20.8307 108.128 21.0996 109.149 21.209C109.75 21.0267 110.338 20.3203 110.912 19.0898C111.532 17.7773 111.842 16.4512 111.842 15.1113C111.842 14.6647 111.778 14.2363 111.651 13.8262C111.532 13.4069 111.373 12.974 111.172 12.5273C110.306 12.6458 109.409 12.8555 108.479 13.1562C107.549 13.4479 106.569 13.8353 105.539 14.3184C105.202 14.4915 104.883 14.6556 104.582 14.8105C104.291 14.9564 104.004 15.1022 103.721 15.248C103.156 15.5488 102.65 15.7995 102.203 16C101.757 16.1914 101.356 16.2871 101 16.2871C100.371 16.2871 99.7699 16.1641 99.1957 15.918C98.6306 15.6719 98.1429 15.3255 97.7328 14.8789L97.5551 14.209L98.7308 14.291C99.46 14.291 100.882 13.8809 102.996 13.0605C105.813 11.9759 108.21 11.2103 110.188 10.7637C110.06 10.5267 109.714 10.3398 109.149 10.2031C108.575 10.0755 108.137 9.89779 107.836 9.66992L107.672 8.91797C107.672 8.79036 107.704 8.63542 107.768 8.45312C107.832 8.26172 107.927 8.04297 108.055 7.79688C108.62 7.63281 109.276 7.25 110.024 6.64844C110.771 6.05599 111.592 5.24479 112.485 4.21484L111.705 4.13281C110.995 4.13281 109.946 4.35612 108.561 4.80273C107.686 5.08529 107.107 5.22656 106.825 5.22656C106.214 5.22656 105.617 4.94401 105.034 4.37891C104.405 3.76823 103.922 2.92969 103.584 1.86328Z" fill="#B92928"/>
<path d="M69.0847 8.41211L71.0125 8.13867C72.325 7.7832 73.5782 7.50521 74.7722 7.30469C75.9662 7.09505 77.1056 6.97201 78.1902 6.93555L78.4363 6.8125C79.0378 7.11328 79.4936 7.42318 79.8035 7.74219C80.1225 8.0612 80.282 8.38021 80.282 8.69922L80.2273 9C81.0841 9.03646 81.8998 9.17773 82.6746 9.42383C83.4493 9.66992 84.2195 10.0345 84.9851 10.5176L85.573 9.36914L85.0671 8.86328L84.821 8.08398C84.0919 8.24805 83.5222 8.42122 83.1121 8.60352C82.7019 8.77669 82.433 8.86328 82.3054 8.86328C82.0958 8.86328 81.836 8.68555 81.5261 8.33008C81.2162 7.97461 81.0613 7.6875 81.0613 7.46875C81.0613 7.20443 81.2071 7.02214 81.4988 6.92188C81.7904 6.8125 82.0867 6.55273 82.3875 6.14258C82.9434 5.39518 83.3718 4.6888 83.6726 4.02344C83.9734 3.42188 84.1238 2.94336 84.1238 2.58789C84.1238 2.33268 84.0828 2.04102 84.0007 1.71289C83.9278 1.38477 83.8367 1.02474 83.7273 0.632812L84.2878 0.605469C84.8438 0.888021 85.2813 1.24805 85.6003 1.68555C85.9194 2.12305 86.0789 2.60156 86.0789 3.12109C86.0789 3.49479 85.9467 3.96419 85.6824 4.5293C85.4819 4.99414 85.1401 5.64583 84.657 6.48438C85.5502 6.3112 86.3614 6.11523 87.0906 5.89648C87.8197 5.66862 88.435 5.38607 88.9363 5.04883L89.155 4.99414C89.7748 5.07617 90.2442 5.21745 90.5632 5.41797C90.8822 5.60938 91.0417 5.8418 91.0417 6.11523C91.0417 6.4707 90.8048 6.73503 90.3308 6.9082C89.866 7.07227 89.1778 7.25 88.2664 7.44141C88.1752 7.45964 88.0704 7.48242 87.9519 7.50977C87.8425 7.53711 87.7332 7.5599 87.6238 7.57812L86.2429 7.79688C86.3796 7.97005 86.5255 8.125 86.6804 8.26172C86.8445 8.39844 87.0177 8.51693 87.2 8.61719C87.364 8.83594 87.4871 9.03646 87.5691 9.21875C87.6602 9.39193 87.7058 9.54232 87.7058 9.66992C87.7058 9.8431 87.6147 10.0983 87.4324 10.4355C87.2592 10.7728 86.9949 11.1738 86.6394 11.6387L90.2214 14.2363C90.9141 14.5007 91.5567 14.7695 92.1492 15.043C92.7507 15.3073 93.2839 15.6445 93.7488 16.0547L93.1882 16.6426C92.8692 16.7611 92.5593 16.8522 92.2585 16.916C91.9669 16.9798 91.6707 17.0117 91.3699 17.0117C90.6042 17.0117 89.9526 16.9115 89.4148 16.7109C88.8861 16.5013 88.4167 16.1732 88.0066 15.7266C87.9337 15.6719 87.8608 15.599 87.7878 15.5078C87.7149 15.4076 87.6329 15.3027 87.5417 15.1934C87.3139 14.9108 87.0359 14.5827 86.7078 14.209C86.3796 13.8353 85.9832 13.4342 85.5183 13.0059C84.9441 13.6803 84.3334 14.1771 83.6863 14.4961C83.0391 14.806 82.351 15.0111 81.6218 15.1113H81.0066C80.7149 15.1113 80.4506 15.0885 80.2136 15.043C79.9766 14.9883 79.7579 14.888 79.5574 14.7422C79.2201 14.4961 79.0059 14.2318 78.9148 13.9492C78.8236 13.6576 78.7781 13.3431 78.7781 13.0059V12.7598C79.0515 13.0332 79.3113 13.2474 79.5574 13.4023C79.8035 13.5482 80.0815 13.6211 80.3914 13.6211C81.0111 13.6211 81.6355 13.4707 82.2644 13.1699C82.9024 12.86 83.504 12.3952 84.0691 11.7754C83.6134 11.5475 83.1895 11.3516 82.7976 11.1875C82.4057 11.0234 82.0548 10.9004 81.7449 10.8184C81.3894 10.7454 81.0567 10.6543 80.7468 10.5449C80.4369 10.4355 80.1316 10.0618 79.8308 9.42383L77.9578 11.0234C78.1492 11.2057 78.2996 11.3743 78.4089 11.5293C78.5183 11.6751 78.573 11.821 78.573 11.9668C78.573 12.3223 78.4226 12.541 78.1218 12.623C77.8302 12.696 77.3835 12.7598 76.782 12.8145C76.4083 12.8327 75.9753 12.8646 75.4832 12.9102C74.991 12.9557 74.435 13.0332 73.8152 13.1426C73.1954 15.5762 72.3751 17.4355 71.3542 18.7207C70.3243 19.9694 69.1759 20.5938 67.9089 20.5938C67.7631 20.5938 67.6036 20.5664 67.4304 20.5117C67.2664 20.457 67.0795 20.375 66.8699 20.2656L68.6609 18.8848C68.9252 18.6296 69.1576 18.3424 69.3582 18.0234C69.5678 17.7044 69.7638 17.3763 69.946 17.0391C70.5658 15.918 71.0079 15.0293 71.2722 14.373C71.6095 13.5892 71.7781 12.9466 71.7781 12.4453C71.7781 12.1081 71.7371 11.7617 71.655 11.4062C71.5821 11.0508 71.5092 10.668 71.4363 10.2578L72.0515 10.3125L73.282 11.4609C73.7286 11.4062 74.1023 11.3288 74.4031 11.2285C74.7039 11.1283 74.9363 10.9915 75.1003 10.8184C75.3647 10.7272 75.6062 10.5996 75.825 10.4355C76.0528 10.2624 76.2716 10.0482 76.4812 9.79297L77.2058 8.67188C76.3673 8.70833 75.4923 8.85417 74.5808 9.10938C73.6785 9.35547 72.7123 9.67448 71.6824 10.0664H71.2722C70.8803 10.0117 70.5339 9.91602 70.2332 9.7793C69.9324 9.63346 69.6407 9.43294 69.3582 9.17773L69.0847 8.41211ZM73.3093 17.7637L74.1296 17.709C74.558 17.8184 74.9363 17.9551 75.2644 18.1191C75.6016 18.2741 75.9115 18.4746 76.1941 18.7207C76.2488 17.7637 76.6954 17.0801 77.5339 16.6699C78.1355 16.36 79.4252 16.0365 81.4031 15.6992L83.3035 15.5488C83.586 15.5488 83.8777 15.5807 84.1785 15.6445C84.4792 15.6992 84.7846 15.7812 85.0945 15.8906L85.655 16.2051C86.0287 16.4238 86.3113 16.6745 86.5027 16.957C86.7032 17.2396 86.8445 17.5951 86.9265 18.0234L85.1902 20.1426L83.8914 21.3457C84.7937 21.4095 85.4636 21.6191 85.9011 21.9746C86.3386 22.321 86.5756 22.8587 86.6121 23.5879L85.6277 23.9297H84.8757L84.4792 23.6699C83.9779 23.5605 83.5404 23.4694 83.1667 23.3965C82.7931 23.3236 82.474 23.2871 82.2097 23.2871L80.364 23.4512C80.0906 23.4512 79.8627 23.4056 79.6804 23.3145C79.5072 23.2233 79.3614 23.0547 79.2429 22.8086V21.8789C79.8445 21.5872 80.3914 21.3047 80.8835 21.0312C81.3757 20.7578 81.7996 20.4251 82.155 20.0332L83.782 17.6816L83.0574 17.5723L82.0457 17.7637C81.3712 17.8184 80.7605 17.9642 80.2136 18.2012C79.6667 18.4382 79.1108 18.5658 78.5457 18.584L78.0125 18.4336C77.7937 18.4336 77.6296 18.5703 77.5203 18.8438C77.42 19.1172 77.3699 19.5319 77.3699 20.0879C77.3699 20.6712 77.4747 21.3275 77.6843 22.0566C77.9031 22.7767 78.2358 23.5697 78.6824 24.4355C78.4819 24.6543 78.2996 24.8229 78.1355 24.9414C77.9806 25.069 77.8484 25.1328 77.739 25.1328C77.5476 25.1328 77.2833 25.0417 76.946 24.8594C76.6179 24.6862 76.3126 24.3854 76.03 23.957L75.2097 20.1973C75.0821 19.8053 74.8451 19.4271 74.4988 19.0625C74.1524 18.6888 73.7559 18.2559 73.3093 17.7637ZM73.5691 1.4668L73.7058 0.960938C74.8269 1.91797 76.1348 2.48763 77.6296 2.66992C78.0216 2.73372 78.2813 2.78385 78.4089 2.82031C78.5912 2.91146 78.769 3.10286 78.9421 3.39453C79.1244 3.67708 79.2156 3.96875 79.2156 4.26953L79.1609 4.85742C78.3406 4.93034 77.2878 5.10807 76.0027 5.39062C74.9363 5.61849 74.198 5.73242 73.7878 5.73242L73.446 5.70508L75.4148 4.07812C74.795 3.77734 74.3484 3.4401 74.075 3.06641C73.8106 2.69271 73.642 2.15951 73.5691 1.4668Z" fill="#B92928"/>
<path d="M30.9703 10.5723L31.4489 10.2305L32.1188 10.2031C32.611 10.2031 33.0439 10.2897 33.4176 10.4629C33.7913 10.627 34.2015 10.8867 34.6481 11.2422C34.7392 10.9961 34.8258 10.7591 34.9078 10.5312C34.9899 10.2943 35.0719 10.0755 35.1539 9.875C35.4638 8.97266 35.7692 8.28451 36.0699 7.81055C36.3707 7.33659 36.9404 6.98568 37.7789 6.75781C39.2737 6.36589 40.6455 6.07878 41.8942 5.89648C43.1429 5.70508 44.2731 5.60938 45.2848 5.60938C46.178 5.60938 47.053 5.68229 47.9098 5.82812C48.7757 5.96484 49.6552 6.16536 50.5485 6.42969L51.5875 7.26367L52.1754 8.08398L52.3395 8.97266L51.8063 12.8418C51.788 12.8965 51.7698 13.0241 51.7516 13.2246C51.7334 13.416 51.6969 13.6712 51.6422 13.9902C51.5875 14.3092 51.5192 14.6921 51.4371 15.1387C51.3642 15.5853 51.2731 16.0957 51.1637 16.6699C50.6806 19.0397 50.2249 20.7396 49.7965 21.7695C49.3043 22.8906 48.762 23.4512 48.1696 23.4512C47.7776 23.4512 47.4632 23.3053 47.2262 23.0137C46.9983 22.7311 46.7887 22.2799 46.5973 21.6602L46.0367 21.0449C45.4808 20.8717 44.9384 20.735 44.4098 20.6348C43.8903 20.5345 43.3798 20.4844 42.8785 20.4844H41.5934L37.9977 21.0449L37.7516 21.8242L37.4098 21.9609C36.3525 21.8151 35.6416 21.2728 35.277 20.334C34.9124 19.3861 34.5615 18.0645 34.2242 16.3691C33.9417 15.0202 33.6045 13.8763 33.2125 12.9375C32.8206 11.9987 32.0732 11.2103 30.9703 10.5723ZM37.3278 19.0898L38.2574 18.6387L39.9938 17.1758C39.8206 16.957 39.6793 16.6927 39.5699 16.3828C39.4606 16.0729 39.3785 15.722 39.3239 15.3301L40.8004 16.3145L41.2242 15.8906L41.2789 14.3457C40.7959 14.5007 40.372 14.6419 40.0074 14.7695C39.6429 14.8971 39.292 14.9609 38.9547 14.9609C38.6539 14.9609 38.344 14.9017 38.025 14.7832C37.7151 14.6647 37.3733 14.4915 36.9996 14.2637L36.5758 13.6484C36.8948 13.4479 37.624 13.1973 38.7633 12.8965C39.8024 12.5957 40.6409 12.3359 41.2789 12.1172V10.9141C41.1513 10.4583 40.9782 10.0846 40.7594 9.79297C40.5498 9.49219 40.3948 9.20052 40.2946 8.91797L40.3219 8.58984C39.8935 8.75391 39.4697 8.84049 39.0504 8.84961C38.6311 8.85872 38.2164 8.86328 37.8063 8.86328H37.4098C36.9632 9.5013 36.6259 10.2669 36.3981 11.1602C36.1793 12.0534 36.0699 12.8008 36.0699 13.4023C36.0699 13.8125 36.1565 14.446 36.3297 15.3027C36.5485 16.4785 36.8811 17.7409 37.3278 19.0898ZM46.4606 19.6777L47.4723 19.9238C47.8642 19.2858 48.2197 18.0371 48.5387 16.1777C48.8851 14.0632 49.1357 11.4746 49.2907 8.41211C49.081 8.24805 48.8623 8.12956 48.6344 8.05664C48.4157 7.97461 48.165 7.91536 47.8824 7.87891L46.1188 7.74219C45.5992 7.74219 44.902 7.80599 44.027 7.93359C43.0882 8.05208 42.0035 8.22982 40.7731 8.4668C41.6754 8.63997 42.3681 8.9681 42.8512 9.45117C43.3343 9.93424 43.5758 10.4857 43.5758 11.1055L43.5485 11.6387L44.3278 11.6113C45.2119 11.6113 45.9228 11.7891 46.4606 12.1445C46.9619 12.4544 47.2125 12.8464 47.2125 13.3203C47.2125 13.6302 46.8388 14.013 46.0914 14.4688C44.9521 15.1706 44.0088 15.9043 43.2614 16.6699L43.0153 18.2148H43.3297C43.9586 18.2148 44.4964 18.2832 44.943 18.4199C45.3987 18.5475 45.9046 18.9668 46.4606 19.6777ZM43.3571 14.5508L44.4508 13.5391L43.4391 13.7305L43.3571 14.5508ZM39.9391 18.666L41.1969 18.4336L40.8004 18.1328L39.9391 18.666Z" fill="#B92928"/>
<path d="M3.92188 15.9453L3.64844 15.3027C4.76953 15.3027 5.83594 15.1979 6.84766 14.9883C7.86849 14.7695 8.85742 14.5462 9.81445 14.3184L11.7969 13.9629V12.4727C11.7604 12.1354 11.651 11.821 11.4688 11.5293C11.2956 11.2285 11.0677 10.9004 10.7852 10.5449L11.3457 10.3535L12.1934 10.4355C12.7493 10.6361 13.1641 10.8503 13.4375 11.0781C13.7201 11.2969 13.8932 11.6204 13.957 12.0488L13.6699 13.7578L17.9219 13.5938L17.2793 12.6777H17.4297C17.9128 12.6777 18.3548 12.7461 18.7559 12.8828C19.1569 13.0195 19.6081 13.2656 20.1094 13.6211L20.5332 13.8809L20.9297 14.4414L20.8066 14.7422C20.4967 14.9883 20.2051 15.1296 19.9316 15.166C19.6582 15.2025 19.3802 15.2207 19.0977 15.2207C18.8242 15.2207 18.5371 15.207 18.2363 15.1797C17.9355 15.1523 17.6165 15.1387 17.2793 15.1387C16.8691 15.1387 16.4362 15.1478 15.9805 15.166C15.5247 15.1842 15.0645 15.2025 14.5996 15.2207L13.9844 15.3301L19.043 18.666C19.9635 19.2402 21.1986 19.8099 22.748 20.375C23.623 20.694 24.2292 20.9447 24.5664 21.127L25.2637 21.4961L24.6211 22.1934C24.3568 22.3574 24.0697 22.4805 23.7598 22.5625C23.459 22.6354 23.1126 22.6719 22.7207 22.6719C22.6387 22.6719 22.5566 22.6764 22.4746 22.6855C22.3926 22.6947 22.3242 22.6992 22.2695 22.6992C21.1484 22.6992 20.2507 22.4805 19.5762 22.043C18.9108 21.5964 18.2409 21.0677 17.5664 20.457L13.6426 17.2852L13.752 22.6445C13.752 23.1458 13.7018 23.6107 13.6016 24.0391C13.5013 24.4674 13.3372 24.8867 13.1094 25.2969L12.4121 25.2148L11.3457 24.5449L11.3184 24.3809L9.86914 23.875V23.7246C9.08529 23.2233 8.45182 22.7767 7.96875 22.3848C7.49479 21.9928 7.20312 21.5098 7.09375 20.9355C7.82292 21.2728 8.5612 21.569 9.30859 21.8242C10.056 22.0703 10.8672 22.2298 11.7422 22.3027L11.7969 21.6875C11.7969 21.4049 11.7923 21.1315 11.7832 20.8672C11.7741 20.5938 11.7695 20.3249 11.7695 20.0605C11.7695 19.86 11.7741 19.6003 11.7832 19.2812C11.7923 18.9622 11.7969 18.5794 11.7969 18.1328C11.7969 17.8138 11.7969 17.554 11.7969 17.3535V16.957C10.056 18.6888 8.2832 20.0241 6.47852 20.9629C4.91081 21.7832 3.58464 22.1934 2.5 22.1934C2.16276 22.1934 1.85286 22.1523 1.57031 22.0703C1.29688 21.9792 1.0918 21.8698 0.955078 21.7422C2.62305 21.1497 4.22266 20.3659 5.75391 19.3906C7.28516 18.4062 8.75716 17.2305 10.1699 15.8633L6.47852 16.957C6.14128 16.9753 5.82682 16.957 5.53516 16.9023C5.24349 16.8477 4.96094 16.7428 4.6875 16.5879L3.92188 15.9453ZM2.02148 6.32031L2.36328 5.92383L3.53906 5.70508C3.83984 5.70508 4.13607 5.77799 4.42773 5.92383C4.72852 6.06966 5.04753 6.27474 5.38477 6.53906L5.78125 7.41406L5.97266 9.58789L8.21484 8.83594C8.0599 8.6901 7.95052 8.48503 7.88672 8.2207C7.82292 7.95638 7.7819 7.62826 7.76367 7.23633L7.42188 4.37891C7.40365 3.75 7.22135 3.23047 6.875 2.82031C6.53776 2.41016 6.0319 1.9681 5.35742 1.49414L5.80859 1.16602L6.39648 1.11133C7.02539 1.11133 7.64062 1.29818 8.24219 1.67188C8.85286 2.04557 9.1901 2.45573 9.25391 2.90234L9.36328 4.85742L10.9492 4.24219L10.8125 3.73633L11.209 3.51758C11.5645 3.57227 11.9199 3.67708 12.2754 3.83203C12.6309 3.97786 12.9772 4.16927 13.3145 4.40625L13.5605 4.91211L13.5059 5.25391C12.959 5.47266 12.4395 5.64128 11.9473 5.75977C11.4551 5.86914 10.9264 5.92383 10.3613 5.92383L9.47266 5.89648L9.71875 8.35742C10.1927 8.30273 10.6348 8.21159 11.0449 8.08398C11.4551 7.94727 11.8379 7.76953 12.1934 7.55078L13.3145 6.08789L13.4785 6.85352C13.4785 7.18164 13.3919 7.57357 13.2188 8.0293C13.0547 8.47591 12.804 8.87695 12.4668 9.23242C10.8444 9.73372 9.32227 10.2214 7.90039 10.6953C6.48763 11.1693 5.2207 11.8073 4.09961 12.6094L3.33398 13.2656L2.74609 13.0605L1.80273 12.3906L1.48828 11.6387L1.7207 11.2695C2.52279 11.1784 3.16536 10.9733 3.64844 10.6543C4.11328 10.3535 4.3457 10.0436 4.3457 9.72461C4.3457 9.04102 4.14974 8.38477 3.75781 7.75586C3.36589 7.12695 2.78711 6.64844 2.02148 6.32031ZM14.873 1.08398L15.5977 1.52148C16.0352 2.06836 16.2995 2.57422 16.3906 3.03906C16.4818 3.50391 16.5273 4.00065 16.5273 4.5293V4.77539C17.1107 4.7207 17.6803 4.59766 18.2363 4.40625C18.7923 4.20573 19.3802 3.93685 20 3.59961V3.51758C20 3.3444 19.9453 3.16667 19.8359 2.98438C19.7357 2.79297 19.6035 2.56966 19.4395 2.31445L20.0547 2.13672C20.7474 2.25521 21.3717 2.59245 21.9277 3.14844C22.4199 3.61328 22.666 3.97786 22.666 4.24219L22.6387 4.50195C22.2012 4.89388 21.6087 5.20833 20.8613 5.44531C20.2142 5.67318 19.3665 5.86914 18.3184 6.0332H17.3066L16.4727 5.81445V7.01758C16.4727 7.44596 16.5182 7.77409 16.6094 8.00195C16.7005 8.2207 16.8874 8.37565 17.1699 8.4668C17.4707 8.56706 17.8854 8.61719 18.4141 8.61719C18.9518 8.61719 19.6673 8.61719 20.5605 8.61719H21.0938L21.2578 8.41211C22.0052 8.44857 22.6022 8.53516 23.0488 8.67188C23.4954 8.79948 23.8874 9.12305 24.2246 9.64258V10.2031L23.5547 10.5996L22.2148 10.709C21.5586 10.8457 20.9798 10.9915 20.4785 11.1465C19.9772 11.3014 19.5078 11.3789 19.0703 11.3789L17.9902 11.3242L20.1094 10.2852H18.3184L18.127 10.1211C16.9694 10.1576 16.0898 9.86589 15.4883 9.24609C14.8958 8.61719 14.5996 7.69661 14.5996 6.48438L14.873 1.08398Z" fill="#B92928"/>
</svg>
