<?xml version="1.0" encoding="UTF-8"?>
<svg id="_レイヤー_2" data-name="レイヤー 2" xmlns="http://www.w3.org/2000/svg" viewBox="0 0 367.13 27.31">
  <defs>
    <style>
      .cls-1 {
        fill: #fff;
      }

      .cls-2 {
        fill: #fff;
      }
    </style>
  </defs>
  <g id="_レイヤー_1-2" data-name="レイヤー 1">
    <g id="first_view" data-name="first view">
      <g>
        <polygon class="cls-1" points="353.49 27.31 367.13 2.86 359.66 0 353.49 27.31"/>
        <g>
          <path class="cls-2" d="M20.46,5.85l4.85-.15c.13-.4.31-.7.54-.89.23-.19.52-.26.89-.21.27.07.46.18.59.34.12.16.19.38.19.66,1.53-.1,3.11-.15,4.74-.16s2.71.05,3.26.16c.22.1.36.25.44.46s.08.42.01.64c-.07.22-.19.39-.38.53-.18.13-.39.2-.62.2l-7.6.08-.08,1.1c.63-.05,1.3-.03,2,.07.7.1,1.44.26,2.23.48.17-.23.48-.29.94-.17.46.12.75.38.86.8,1.15.7,2.04,1.6,2.68,2.71.63,1.11.95,2.35.95,3.71-.05,1.17-.29,2.15-.72,2.94-.43.79-1.11,1.61-2.03,2.46-.45.45-.98.77-1.6.95-.62.18-1.03,0-1.23-.55-.07-.2-.05-.4.04-.59.09-.19.22-.37.38-.53s.37-.35.62-.56c.26-.22.44-.37.54-.45.75-.68,1.27-1.42,1.56-2.2.29-.78.37-1.67.24-2.65-.13-.58-.31-1.07-.54-1.46s-.55-.8-.96-1.21c-.1,1.47-.32,2.8-.66,3.99-.34,1.19-.9,2.25-1.69,3.16-.78.8-1.61,1.4-2.48,1.81s-1.87.61-3,.61c-1.77-.08-3.19-.73-4.26-1.92-1.08-1.2-1.67-2.68-1.79-4.43-.12-1.73.35-3.15,1.41-4.24,1.06-1.09,2.45-1.88,4.16-2.36l.15-1.4-4.48.15c-.27,0-.49-.05-.66-.16s-.3-.29-.36-.54c-.05-.28,0-.54.15-.77s.39-.37.73-.4ZM31.21,11.33c-.77-.3-1.49-.51-2.16-.64-.68-.12-1.35-.15-2.01-.06-.05.93-.05,1.82,0,2.65.05.83.16,1.67.33,2.52.13.52.17.93.11,1.23-.06.3-.28.52-.66.67-.27.03-.49.02-.66-.04-.18-.06-.32-.18-.44-.36-.25-.5-.44-1.43-.58-2.79-.13-1.36-.2-2.52-.2-3.49-1.08.35-1.9.89-2.46,1.61-.56.73-.84,1.65-.84,2.79,0,.95.25,1.84.74,2.66s1.19,1.37,2.09,1.64c1.25.32,2.36.17,3.34-.43s1.75-1.48,2.31-2.62c.3-.75.53-1.55.69-2.39.16-.84.3-1.83.41-2.96Z"/>
          <path class="cls-2" d="M48.71,19.58c-.1-.32-.23-.88-.39-1.69-.16-.81-.26-1.35-.31-1.61-.12-.72-.28-1.2-.5-1.44-.22-.24-.58-.36-1.08-.36-.67,0-1.35.23-2.04.7-.69.47-1.37,1.07-2.04,1.8-.17.68-.31,1.39-.44,2.12s-.26,1.57-.41,2.5c-.07.23-.21.43-.44.59-.23.16-.47.24-.73.24s-.48-.08-.67-.25c-.19-.17-.29-.41-.29-.73.15-1.43.39-2.88.71-4.32.33-1.45.74-2.93,1.24-4.45.48-1.53.92-2.82,1.32-3.88.4-1.05.83-2.01,1.27-2.88.13-.3.33-.51.58-.64s.5-.17.76-.12c.26.04.46.15.61.32.15.18.21.4.17.66-.53,1.37-1.03,2.65-1.5,3.85-.47,1.2-.93,2.48-1.4,3.85.97-.77,1.96-1.25,2.99-1.45,1.02-.2,1.99.08,2.89.83.37.33.62.75.77,1.24.15.49.28,1.13.38,1.91.1.78.2,1.43.3,1.94s.29.95.57,1.34c.58.77,1.26.86,2.03.29.77-.58,1.19-1.35,1.27-2.34.13-.85.12-1.65-.04-2.39-.16-.74-.43-1.54-.81-2.39-.23-.58-.15-1.01.24-1.29.39-.28.83-.26,1.31.04.25.18.53.61.84,1.28.31.67.5,1.23.59,1.7.17,1.27.15,2.49-.05,3.68-.2,1.18-.66,2.16-1.38,2.92-.5.62-1.14,1.03-1.92,1.25-.78.22-1.52.19-2.23-.08-.5-.2-.94-.51-1.31-.94-.38-.42-.67-1.03-.89-1.81Z"/>
          <path class="cls-2" d="M70.99,20.13c.77-.23,1.34-.53,1.73-.9.38-.37.6-.93.65-1.7.15-1.22.19-2.44.11-3.66-.07-1.23-.3-2.35-.66-3.39-.17-.48-.4-.83-.7-1.04s-.73-.34-1.27-.39l-4.77-.07c.03,1.35-.08,2.7-.34,4.05s-.65,2.67-1.16,3.95l-1.55,3.52c-.28.53-.61.99-.98,1.36s-.75.5-1.15.36c-.33-.13-.55-.34-.66-.62s-.05-.59.19-.93l1.95-4.17c.57-1.17.98-2.38,1.23-3.65s.34-2.56.27-3.88h-.7c-.1,0-.39,0-.86.01-.48,0-.89,0-1.24,0-.35,0-.67-.05-.95-.12-.28-.07-.48-.19-.58-.34-.15-.23-.18-.47-.09-.71.09-.24.25-.43.49-.56.25-.13.84-.2,1.76-.21.93,0,1.65-.01,2.16-.01v-.8c0-.23.03-.45.1-.65.07-.2.19-.36.36-.47.18-.12.41-.16.71-.12.37.1.6.35.71.75.11.4.19.81.24,1.22,1.4,0,2.58.01,3.55.04s1.9.14,2.8.34c.55.12,1.01.35,1.39.7s.68.76.9,1.24c.22.48.4.96.51,1.46s.23,1.07.33,1.7c.08.9.14,1.74.17,2.51.03.77,0,1.59-.09,2.44-.09.85-.3,1.62-.61,2.32-.32.7-.77,1.23-1.35,1.6-.7.37-1.66.69-2.88.98-1.22.28-1.96.19-2.23-.27-.13-.3-.16-.55-.08-.75.08-.2.25-.37.51-.5.26-.13.54-.24.84-.33.3-.08.71-.18,1.23-.3ZM74.99,7.98l-1.8-1.98c-.2-.22-.31-.46-.33-.73s.09-.47.33-.6c.4-.27.84-.19,1.32.23.48.42.88.78,1.2,1.1l.55.62c.28.3.52.64.7,1.02.18.38.16.7-.08.95-.28.27-.6.31-.95.12-.35-.18-.67-.43-.95-.75Z"/>
          <path class="cls-2" d="M80.04,12.75c.03-1.15.15-2.5.35-4.06.2-1.56.4-2.48.6-2.76.22-.47.59-.65,1.11-.56.52.09.83.39.91.89-.07.55-.15,1.21-.24,1.99-.09.77-.2,1.73-.31,2.86-.1,1.02-.16,2.07-.19,3.17-.03,1.1.04,2.18.19,3.25.02.25.07.65.16,1.21.09.56.15,1,.19,1.31.03.32.03.62-.02.91-.05.29-.18.5-.4.64-.32.23-.64.29-.98.17-.33-.12-.56-.36-.67-.73-.27-1.05-.47-2.32-.61-3.82s-.17-2.99-.09-4.48ZM96.19,9.78h-1.55c.37,1.93.49,3.61.38,5.04-.12,1.42-.67,2.75-1.65,3.96-.75.82-1.78,1.6-3.09,2.34-1.31.74-2.47,1.2-3.49,1.36-.27,0-.5-.08-.7-.24-.2-.16-.33-.36-.39-.61-.06-.25,0-.5.17-.75.18-.25.48-.45.91-.6,1.2-.5,2.24-1.02,3.11-1.56.88-.54,1.56-1.2,2.06-1.96.53-.87.8-1.89.8-3.06s-.16-2.48-.48-3.91h-7.15c-.45,0-.78-.1-.99-.3-.21-.2-.3-.45-.29-.74.02-.29.13-.55.34-.76.21-.22.47-.33.79-.33h6.65c-.07-.17-.19-.44-.36-.81-.18-.38-.3-.68-.38-.92-.08-.24-.08-.46,0-.66.07-.2.27-.34.59-.43.35-.13.68-.12.99.04.31.16.57.4.77.73s.39.67.55,1.04c.16.37.3.71.44,1.02.32,0,.83,0,1.55.02.72.02,1.17.12,1.35.3.42.37.51.77.27,1.2-.23.43-.64.63-1.23.6Z"/>
          <path class="cls-2" d="M100.36,19.73c.43-.67.8-1.25,1.1-1.75.3-.5.57-.96.8-1.38.63-1.2,1.13-2.57,1.49-4.11.36-1.54.49-3.1.39-4.69-.03-.42.04-.73.21-.94.17-.21.4-.31.66-.31s.51.1.73.29c.22.19.36.46.42.81.07.52.08,1.26.02,2.23-.05.97-.13,1.79-.25,2.48-.17.83-.39,1.67-.67,2.52-.28.85-.61,1.68-.98,2.5-.32.6-.64,1.18-.96,1.74-.33.56-.63,1.05-.91,1.49-.23.33-.5.55-.81.66-.31.11-.59.1-.85-.01s-.43-.31-.51-.59c-.08-.28-.04-.59.12-.94ZM112.44,9.45c.75,1.55,1.35,2.88,1.81,3.98s.93,2.28,1.41,3.55c.25.55.51,1.25.79,2.11s.38,1.41.31,1.66c-.08.52-.4.79-.96.81-.56.02-.97-.25-1.24-.81l-.55-1.43c-.67-1.97-1.37-3.84-2.1-5.62-.73-1.78-1.52-3.51-2.38-5.17-.03-.08-.14-.29-.31-.62-.17-.33-.31-.63-.4-.89-.09-.26-.12-.5-.09-.72.03-.23.17-.4.42-.51.62-.28,1.13-.12,1.55.49.42.61.78,1.25,1.1,1.94-.17-.65-.16-1.22.02-1.72s.57-.92,1.15-1.25c.9-.48,1.79-.46,2.67.07.88.53,1.33,1.32,1.33,2.35,0,.6-.18,1.11-.53,1.54-.35.42-.8.72-1.35.89-.52.13-.99.14-1.41.01-.43-.12-.85-.34-1.26-.64ZM115.99,7.65c.03-.52-.15-.96-.54-1.33-.39-.37-.85-.52-1.36-.47-.47.1-.82.31-1.06.64-.24.33-.36.68-.36,1.08s.14.74.41,1.04c.27.3.66.48,1.16.55.47.03.86-.08,1.19-.35.32-.27.51-.65.56-1.15Z"/>
          <path class="cls-2" d="M122.01,6.7l10.5-.07c.8.03,1.29.32,1.47.86.18.54.17,1.28-.05,2.21-.33,1.3-.73,2.5-1.17,3.6-.45,1.1-.93,1.98-1.43,2.65.58.4,1.4,1.03,2.44,1.88,1.04.85,1.72,1.48,2.04,1.9.17.17.25.37.24.6,0,.23-.09.44-.24.62-.15.18-.35.29-.6.33-.25.03-.52-.04-.8-.23-.95-.78-1.78-1.48-2.5-2.07-.72-.6-1.4-1.11-2.05-1.53-1.18,1.02-2.52,1.88-4.01,2.58-1.49.7-2.98,1.2-4.46,1.5-.37.05-.68.01-.93-.11s-.41-.3-.48-.51c-.07-.22-.04-.44.08-.66.12-.23.33-.4.62-.51.55-.15,1.06-.3,1.54-.44s.98-.31,1.51-.51c1.1-.4,2.17-.95,3.21-1.64,1.04-.69,1.93-1.53,2.66-2.51.6-.83,1.08-1.77,1.45-2.81.37-1.04.62-2.11.75-3.21l-9.65.07c-.48,0-.83-.1-1.05-.31-.22-.21-.31-.45-.27-.71.03-.27.16-.5.39-.7.23-.2.49-.28.79-.25Z"/>
          <path class="cls-2" d="M152.21,18.4l-1.25-1.02c-1.3.97-2.69,1.83-4.16,2.6-1.47.77-2.96,1.39-4.46,1.88-.73.17-1.26.19-1.59.07s-.53-.38-.61-.77c0-.23.07-.42.2-.58.13-.15.3-.27.51-.36.21-.09.5-.19.86-.3.37-.11.6-.17.7-.19,1.15-.38,2.33-.9,3.54-1.54,1.21-.64,2.35-1.39,3.44-2.24-.9-.77-1.82-1.52-2.75-2.25-.93-.73-1.68-1.31-2.25-1.72-.18-.17-.28-.37-.29-.6,0-.23.06-.44.21-.61.15-.17.36-.28.64-.32s.58.02.91.19c1.03.78,2.04,1.55,3.03,2.31s1.62,1.27,1.92,1.54c.67-.92,1.15-1.87,1.44-2.85s.44-2.1.44-3.35c-1.47-.18-2.9-.33-4.29-.45-1.39-.12-2.84-.22-4.34-.32-.3,1.27-.67,2.45-1.12,3.56s-.99,1.99-1.62,2.64c-.17.2-.38.34-.64.43-.26.08-.5.09-.74.02-.23-.07-.41-.2-.52-.41-.12-.21-.11-.49.02-.84.05-.17.28-.55.7-1.15.42-.6.71-1.05.88-1.35.25-.6.45-1.19.61-1.76.16-.57.26-1.14.31-1.69.05-.53.16-.92.33-1.15.17-.23.51-.35,1.03-.35.8.05,2.54.18,5.22.39,2.68.21,4.37.37,5.05.49.63.1,1.02.33,1.16.7.14.37.2,1.2.16,2.5-.18,1.27-.47,2.42-.85,3.46-.38,1.04-.91,2-1.58,2.89.12.12.52.45,1.2,1,.68.55,1.09.95,1.22,1.2.15.3.16.56.04.79s-.35.4-.66.54c-.35.07-.67,0-.97-.21-.3-.21-.66-.47-1.08-.79Z"/>
          <path class="cls-2" d="M159.11,7.18c.03-.67.31-1.1.83-1.3.52-.2.92-.05,1.2.45.15.32.2,1.16.15,2.53-.05,1.37-.07,2.14-.07,2.32-.05,1.52-.08,2.82-.08,3.9s.05,2.13.15,3.15c.07,1.37.11,2.3.12,2.8s-.12.9-.42,1.2c-.2.15-.42.22-.67.2s-.47-.11-.65-.27c-.13-.12-.23-.25-.3-.39-.07-.14-.1-.27-.1-.39-.2-1.03-.31-2.99-.33-5.86s.04-5.65.17-8.34ZM171.19,7.03l4.15.08c.42,0,.72.09.92.26.2.18.3.38.29.62,0,.24-.11.45-.3.64-.19.18-.42.27-.69.27h-3.38c.28.57.53,1.16.74,1.79s.41,1.34.61,2.14c.83.38,1.6.82,2.29,1.31.69.49.97,1,.84,1.51-.13.3-.32.48-.55.52-.23.05-.48.02-.75-.07-.27-.1-.57-.26-.91-.48-.34-.22-.55-.34-.61-.38.03,1.2-.09,2.25-.38,3.15-.28.9-.81,1.71-1.58,2.42-1.35,1.02-2.87,1.42-4.55,1.2-1.68-.22-2.97-.98-3.85-2.3-.8-1.23-1.06-2.53-.77-3.88.28-1.35,1.07-2.38,2.35-3.1.82-.48,1.76-.75,2.84-.79,1.07-.04,2.2.06,3.36.31-.18-.63-.38-1.22-.59-1.75-.21-.53-.46-1.08-.76-1.62l-6.1.08c-.38-.03-.67-.14-.86-.33-.19-.18-.28-.39-.28-.62s.11-.43.31-.6c.2-.17.48-.25.83-.25l4.92-.07c-.37-.33-.66-.68-.89-1.03-.22-.35-.21-.66.04-.92.28-.27.58-.38.89-.33.31.05.61.2.91.44.3.24.57.52.81.84.24.32.47.62.69.92ZM171.81,14.4c-1.4-.47-2.86-.61-4.38-.44s-2.42.9-2.7,2.16c-.32,1.47.11,2.58,1.28,3.35,1.17.77,2.42.85,3.75.25.93-.45,1.55-1.15,1.85-2.11.3-.96.37-2.03.2-3.21Z"/>
          <path class="cls-2" d="M181.96,4.75c.08-.2.21-.34.39-.43.17-.08.41-.12.71-.12.25,0,.46.11.62.34.17.22.25.45.25.69h3.6c.08,0,.3,0,.66-.03.36-.02.65,0,.86.03s.42.1.6.21c.18.11.32.27.4.49.03.23.03.42-.02.56-.05.14-.2.27-.45.39-.27.05-.58.07-.92.07h-1.35c0,.32-.02.64-.06.98-.04.33-.1.63-.19.9-.15.28-.35.45-.61.5-.26.05-.52.02-.79-.1-.28-.12-.43-.37-.45-.76s0-.9.05-1.51h-1.33c-.08.58-.28,1.11-.59,1.59-.31.47-.69.86-1.14,1.16-.18.1-.4.15-.64.15s-.46-.06-.66-.18c-.2-.12-.33-.28-.38-.5-.05-.22,0-.47.17-.75.65-.58,1.04-1.12,1.17-1.61s.16-1.18.08-2.06ZM182.21,10.23l4.7-.3,10.67-.55c.3-.05.58-.02.84.07.26.1.45.28.56.55.05.28.03.51-.05.69-.08.17-.22.3-.41.38-.19.07-.4.13-.64.16s-.58.07-1.02.1l-6.5.33c.33.08.54.28.64.6.09.32.14.77.14,1.35l6.75-.15c.32-.05.6,0,.85.16.25.16.41.37.47.62.07.26.03.51-.12.76s-.42.44-.8.57l-7.38.15c-.08.47-.22.95-.41,1.44s-.42.95-.69,1.39c-.38.65-.97,1.29-1.76,1.93-.79.63-1.56,1.09-2.31,1.38-.85.32-1.61.55-2.28.7-.67.15-1.32.23-1.95.23-.27-.03-.48-.12-.64-.27s-.25-.33-.26-.55c-.02-.22.05-.43.21-.64s.41-.37.76-.49l2.1-.55c.72-.15,1.37-.41,1.95-.79s1.14-.82,1.67-1.34c.35-.37.63-.73.84-1.09.21-.36.37-.78.49-1.26l-6.35.08c-.52,0-.91-.05-1.17-.16-.27-.11-.45-.34-.55-.69-.05-.25,0-.48.15-.69.15-.21.38-.35.7-.41l7.55-.23.08-1.9-7.45.4c-.27,0-.47-.07-.61-.2s-.25-.3-.34-.5c-.08-.42.04-.73.38-.95.33-.22.73-.32,1.2-.32ZM192.71,4.6l.15.62,5.35.07c.3,0,.55.08.76.25.21.17.33.35.35.56.03.21-.05.4-.24.58-.18.17-.45.29-.8.34h-1.17c.08.35.11.7.07,1.05-.03.35-.14.6-.32.75-.23.18-.48.27-.73.25-.25-.02-.47-.12-.67-.32l-.47-1.65h-2.35c-.25.55-.66,1.08-1.22,1.59-.57.51-1.15.85-1.75,1.01-.28.03-.53,0-.74-.1-.21-.1-.35-.25-.43-.45-.07-.2-.06-.41.04-.62.1-.22.32-.4.65-.55.7-.53,1.18-1.01,1.43-1.44.25-.43.32-1,.22-1.71.07-.4.33-.63.78-.69.45-.06.82.1,1.1.46ZM194.84,18.4l3.12,2.02c.43.28.78.62,1.05,1.01.27.39.23.76-.1,1.11-.27.22-.58.32-.94.31s-.7-.11-1.01-.31l-3.78-2.5-1.95-1.17c-.27-.18-.45-.36-.54-.54s-.1-.36-.01-.56c.15-.43.42-.67.8-.73.38-.05.8,0,1.25.18.45.17.87.38,1.26.62s.67.43.84.55Z"/>
          <path class="cls-2" d="M204.61,5.6h1.88c.05-.37.12-.67.21-.9.09-.23.29-.38.59-.42.25-.1.52-.1.81.01.29.11.44.31.44.61l.08.7h2.12c.18,0,.35.02.49.05.14.03.29.08.44.12-.38-.5-.44-.89-.17-1.16.27-.27.77-.39,1.5-.34l3.62-.08,3.75.08c.37,0,.68.02.95.08.27.05.4.23.4.55,0,.38-.15.65-.45.8-.3.15-.65.23-1.05.23h-2.2l-.47,1.4c.93-.05,1.7,0,2.3.14s1.02.39,1.25.74c.18.27.32.65.41,1.15s.16,1.24.21,2.22l.22,5.48c0,.58-.02,1.06-.06,1.43-.04.37-.18.65-.41.85-.25.12-.5.13-.75.05s-.47-.25-.65-.5h-1.35l.33.45,1.58,2.05c.1.15.19.3.26.45.08.15.11.32.11.5-.12.4-.3.64-.56.73-.26.08-.59.05-.99-.1-.32-.12-.72-.48-1.2-1.09-.48-.61-.9-1.19-1.25-1.74-.17-.25-.27-.45-.31-.6-.04-.15-.04-.32.01-.5h-.95c.15.4.13.79-.06,1.16-.19.38-.54.77-1.04,1.19l-1.55,1.32c-.3.23-.7.32-1.19.26-.49-.06-.75-.33-.79-.81,0-.13.04-.27.11-.41.08-.14.2-.26.36-.36l2.35-2.2h-1.8c-.28.03-.55-.02-.79-.16-.24-.14-.32-.37-.24-.69l.47-2.12.55-5.17s0-.27-.02-.67c-.02-.4-.01-.78.01-1.12.03-.35.08-.68.18-.98.09-.3.22-.5.39-.6.22-.2.73-.32,1.54-.35.81-.03,1.29-.05,1.44-.05l.55-1.25c-.28,0-.92,0-1.9.02s-1.76-.02-2.32-.1c.45.55.49.96.12,1.24-.37.27-.88.41-1.55.41l-.55,1.65c.4-.07.77-.08,1.1-.04.33.04.57.21.7.51.13.28.13.56,0,.84-.13.27-.42.49-.85.64l-6.05.15.47,5.03c.17,1.02.21,2.23.14,3.65s-.35,2.38-.84,2.88c-.38.3-.75.33-1.1.1-.35-.23-.48-.58-.4-1.05l.55-2.75-.48-5.57-.22-1.33c-.02-.1-.05-.32-.1-.65-.05-.33-.08-.62-.09-.85,0-.23,0-.45.04-.64.03-.19.11-.34.23-.44.15-.17.44-.25.86-.25h.79c0-.47.02-.85.06-1.15.04-.3.15-.57.34-.8-.7.03-1.25-.02-1.66-.16s-.59-.45-.54-.94c.03-.32.17-.53.42-.64.25-.11.66-.16,1.23-.16ZM208.46,13.7l-1.72.62c-.25.12-.5.13-.76.04-.26-.09-.43-.26-.51-.51-.08-.37-.03-.63.15-.8.18-.17.47-.32.88-.45l2.75-1.03c.28-.05.53-.05.74.01.21.06.35.21.44.46.07.25.04.46-.08.64-.12.17-.28.32-.49.42-.21.11-.47.22-.79.33s-.52.2-.6.26ZM210.09,21.23l-1,.62-1.5,1.02c-.2.1-.4.15-.59.15s-.39-.05-.59-.15c-.22-.13-.36-.3-.42-.49-.07-.19-.06-.4.02-.61l.62-.62,2.05-1.35c.32-.15.76-.33,1.34-.55.58-.22,1.02-.11,1.34.32.15.25.13.51-.05.79s-.59.56-1.22.86ZM206.49,16.2c.6-.43,1.33-.8,2.19-1.1.86-.3,1.46-.28,1.81.07.3.33.33.67.09,1-.24.33-.62.63-1.12.89s-1.03.45-1.56.59c-.53.13-.89.17-1.08.12-.43-.13-.67-.37-.71-.7-.04-.33.09-.62.39-.88ZM206.26,7.5l.08,1.88,1.88-.08.4-1.73-2.35-.07ZM214.34,17.15h1.88l3.85-.17-.07-4.7c-.05-1-.12-1.76-.23-2.27-.1-.52-.34-.77-.72-.77l-4.95-.25v1.17l3.92.08.55.1c.25.17.4.34.45.51s.01.34-.11.49c-.12.15-.33.26-.6.34-.28.07-.58.1-.91.06h-3.38l-.15,1.32h.7l3.15-.15c.37,0,.71.06,1.03.17.32.12.47.35.45.7-.07.22-.21.38-.42.5-.22.12-.47.2-.75.24-.28.04-.62.07-1.01.08-.39,0-.63.02-.71.04h-2.1l-.47-.15-.25,2.2c0,.2.06.33.19.39.12.06.35.09.69.09Z"/>
          <path class="cls-2" d="M225.69,19.5c.05-3.98.09-6.68.11-8.08.03-1.4.09-2.77.19-4.1,0-.5.09-.94.28-1.31s.48-.54.9-.49c.4.03.68.24.84.61.16.38.22.9.19,1.59-.1,3.25-.17,5.73-.21,7.45-.04,1.72-.05,3.23-.01,4.55,0,.68-.07,1.29-.21,1.81-.14.52-.46.79-.96.79-.32,0-.56-.1-.73-.3s-.28-.45-.34-.76c-.06-.31-.08-.66-.06-1.06.02-.4.02-.63.02-.7ZM228.81,15.88c0-.27.07-.5.2-.7.13-.2.3-.33.51-.4.21-.07.42-.06.64.01.22.07.39.23.53.46.28.88.6,1.62.95,2.21.35.59.85,1.09,1.5,1.49,1.37.78,2.77.98,4.2.58,1.43-.4,2.77-1.17,4.02-2.3.13-.17.31-.27.53-.31s.43-.03.65.05.38.22.49.42c.11.21.13.46.06.76-.23.62-.74,1.22-1.53,1.8-.78.58-1.61,1.03-2.47,1.35-1.4.47-2.83.61-4.28.44-1.45-.17-2.72-.71-3.8-1.61-.57-.52-1.07-1.18-1.5-1.99-.43-.81-.67-1.56-.7-2.26ZM234.61,5.78c1.85,0,3.35.02,4.5.08,1.15.05,1.95.18,2.4.4.42.2.64.55.66,1.04.03.49-.22,1.24-.74,2.24-.25.65-.57,1.21-.95,1.67-.38.47-.82.57-1.32.3-.4-.22-.57-.51-.53-.89.05-.38.25-.9.6-1.56l.55-1c-1.4-.05-2.6-.09-3.59-.11s-1.96-.01-2.91.04c-.08,0-.32,0-.72.01-.4,0-.75,0-1.05-.04-.3-.03-.57-.12-.8-.25-.23-.13-.37-.33-.4-.6-.05-.2-.03-.39.06-.58.09-.18.23-.33.41-.45.13-.12.49-.2,1.06-.24.57-.04,1.5-.06,2.76-.06Z"/>
          <path class="cls-2" d="M253.16,6.95h2.6c.35,0,.64.13.88.4s.28.57.15.92c-.1.18-.24.32-.41.41-.17.09-.4.14-.69.14h-2.6c-.15.92-.42,1.91-.81,2.98-.39,1.07-.98,2.45-1.76,4.15-.18.33-.35.62-.49.85-.14.23-.3.45-.48.65-.17.2-.36.35-.55.45s-.4.13-.61.1c-.6-.13-.88-.45-.85-.96s.22-1.02.55-1.54c.83-1.52,1.46-2.74,1.89-3.66.43-.92.7-1.93.84-3.01-.15-.02-.48-.02-.99,0-.51.02-.95,0-1.31-.02-.37-.03-.67-.13-.92-.3s-.38-.43-.38-.77c.07-.3.18-.49.35-.58s.42-.12.75-.12h2.6v-.69c0-.31,0-.56.03-.75.02-.19.06-.36.12-.5s.17-.23.3-.26c.25-.18.52-.26.81-.22s.52.18.69.45c.12.23.2.5.24.81.04.31.06.67.06,1.09ZM262.59,13.78l1.47.85c.32.15.52.37.61.65.09.28.07.55-.06.8s-.35.4-.64.46c-.29.06-.62-.03-.99-.26.15,1.1.06,2.1-.26,3.01-.32.91-.95,1.63-1.86,2.16-1.53.8-3.22,1.05-5.05.75-1.83-.3-3.13-1.2-3.9-2.7-.5-.98-.63-2.02-.39-3.1.24-1.08.76-1.96,1.56-2.62.82-.73,1.87-1.16,3.15-1.27s2.53,0,3.75.32c-.2-.47-.38-.89-.54-1.26-.16-.38-.26-.71-.31-1.01-.13-.5-.02-.85.34-1.05.36-.2.8-.13,1.31.2.22.1.47.49.75,1.18.28.68.63,1.65,1.05,2.9ZM260.46,15.33c-1.02-.67-2.25-.95-3.69-.86-1.44.09-2.43.67-2.96,1.74-.33.58-.41,1.2-.24,1.86.17.66.56,1.16,1.16,1.51.7.42,1.48.65,2.35.69.87.04,1.68-.11,2.45-.46.8-.33,1.25-.95,1.34-1.85.09-.9-.05-1.77-.41-2.62ZM264.06,7.65c.32.1.54.27.67.52s.16.5.09.75-.24.44-.49.56-.55.14-.9.04c-1.07-.45-1.96-.8-2.67-1.04-.72-.24-1.49-.5-2.33-.76-.35-.08-.62-.23-.8-.45-.18-.22-.28-.45-.28-.7s.09-.46.28-.62c.18-.17.45-.25.8-.25.72.1,1.64.35,2.76.75,1.12.4,2.08.8,2.86,1.2Z"/>
          <path class="cls-2" d="M271.89,5.7l9.55-.47c.6-.05,1.11,0,1.54.17.43.17.7.48.81.92.03.33-.02.63-.16.9s-.35.48-.61.65c-.38.17-1.21.54-2.49,1.12-1.28.58-2.28,1.07-3.01,1.48,2.35-.18,4.35.38,6,1.7,1.65,1.32,2.22,3.16,1.7,5.52-.63,2.37-2.45,3.88-5.44,4.54-2.99.66-5.6.45-7.81-.64-1.27-.7-1.92-1.69-1.95-2.96-.03-1.27.56-2.22,1.77-2.84,1.25-.75,2.66-.98,4.24-.67,1.57.3,2.78,1.02,3.61,2.17.17.2.26.44.29.71.03.28-.03.52-.16.74-.13.22-.31.35-.53.41s-.45.01-.7-.14c-.5-.6-.97-1.07-1.41-1.4s-.96-.55-1.56-.65c-.92-.17-1.71-.12-2.38.14-.67.26-1.05.66-1.15,1.21-.05.48.08.88.38,1.18.3.3.78.56,1.43.77,1.17.38,2.47.52,3.91.4,1.44-.12,2.72-.54,3.84-1.27.7-.45,1.2-1.07,1.5-1.86.3-.79.3-1.58,0-2.36-.6-1.5-1.8-2.42-3.59-2.75-1.79-.33-3.55-.25-5.26.25-.68.17-1.3.34-1.84.51-.54.17-1.08.37-1.61.59-.37.07-.66.02-.89-.12-.23-.15-.37-.35-.43-.61s-.03-.51.09-.75c.12-.24.31-.4.58-.49,1.52-.77,2.96-1.48,4.33-2.14,1.37-.66,3.04-1.46,5.02-2.41l-8.25.55c-.37.03-.66-.03-.88-.19-.22-.16-.34-.4-.38-.74.03-.4.2-.69.49-.86.29-.17.76-.28,1.41-.31Z"/>
          <path class="cls-2" d="M291.91,10.33l11.85-.1c.7.03,1.19.28,1.48.74.28.46.41,1.01.39,1.66-.02.65-.12,1.29-.29,1.92-.17.63-.35,1.21-.55,1.73-.85,1.6-2.15,2.85-3.89,3.74-1.74.89-3.66,1.5-5.76,1.84-1.07.15-1.84.16-2.31.04-.47-.12-.75-.43-.84-.91.02-.47.18-.75.49-.86.31-.11.78-.19,1.41-.24,1.38-.18,2.67-.46,3.88-.84s2.26-.9,3.17-1.59c.83-.63,1.44-1.37,1.81-2.2s.6-1.83.69-2.98l-12.15.15c-.43,0-.76-.08-.99-.24-.23-.16-.34-.41-.34-.76.03-.47.22-.77.58-.9.35-.13.81-.2,1.38-.2ZM303.51,7.98l-11.75.07c-.4,0-.7-.11-.9-.32-.2-.22-.29-.47-.28-.76.02-.29.13-.54.34-.74.21-.2.49-.3.84-.3l12.62-.07c.52,0,.88.08,1.09.25.21.17.31.42.31.77-.05.5-.23.81-.55.92-.32.12-.89.18-1.73.18Z"/>
          <path class="cls-2" d="M317.99,10.78c-.8-.43-1.83-.88-3.08-1.34s-2.37-.82-3.35-1.09c-.4-.08-.67-.28-.81-.59-.14-.31-.13-.64.04-.99.23-.37.59-.53,1.08-.5.48.03,1.02.1,1.6.2.78.22,1.84.59,3.16,1.12,1.33.53,2.23.97,2.71,1.3.23.22.36.47.38.75.02.28-.05.54-.21.76-.16.22-.38.38-.66.46s-.57.05-.85-.1ZM312.36,22c-.45.03-.8-.02-1.06-.18-.26-.15-.42-.35-.49-.6s-.04-.5.09-.75.32-.43.59-.53c.73-.13,1.45-.28,2.16-.45.71-.17,1.43-.38,2.16-.62,1.25-.53,2.35-1.07,3.3-1.61.95-.54,1.83-1.34,2.65-2.39.55-.73,1-1.37,1.34-1.91.34-.54.73-1.21,1.16-2.01.18-.37.41-.62.69-.77.28-.15.6-.13.96.05.32.18.5.43.55.75s0,.67-.15,1.07c-.67,1.37-1.52,2.73-2.57,4.09-1.05,1.36-2.1,2.35-3.15,2.96-1.03.65-2.42,1.28-4.16,1.9-1.74.62-3.1.95-4.06,1Z"/>
          <path class="cls-2" d="M338.04,8.13c-1.6.08-2.83.14-3.68.16-.85.02-1.62.02-2.3-.01-.37-.03-.65-.14-.85-.31s-.3-.38-.31-.62c0-.24.07-.46.24-.66.17-.2.4-.32.7-.35,1.45,0,3.12-.05,5.02-.14,1.9-.09,3.57-.25,5-.49.18-.03.57-.1,1.15-.21.58-.11,1.04-.19,1.38-.24.33-.05.67-.07,1.01-.06.34,0,.58.07.71.19.15.07.26.2.33.41s.08.41.05.61c-.12.28-.3.49-.56.61-.26.12-.67.23-1.24.31l-4.47.55c.15.4.3.9.45,1.5.15.6.32,1.28.5,2.05h3.85c.72,0,1.25.02,1.59.05.34.03.62.14.84.32.25.18.35.44.3.77-.05.33-.2.58-.45.73-.15.08-.33.14-.54.18s-.45.05-.71.05l-4.48-.08c.25,1.2.31,2.23.19,3.09s-.55,1.71-1.29,2.56c-.63.65-1.41,1.2-2.33,1.66-.92.46-1.89.82-2.92,1.09-.55.1-1.03.15-1.44.16-.41,0-.69-.1-.84-.34-.23-.38-.27-.71-.1-.98.17-.27.48-.46.95-.57l1.88-.55c.88-.33,1.65-.72,2.29-1.15.64-.43,1.11-.97,1.41-1.6.2-.57.29-1.07.26-1.52-.02-.45-.11-1.07-.26-1.85l-7.85.08c-.3-.03-.53-.12-.69-.27s-.26-.33-.3-.52c-.04-.2-.02-.4.08-.59.09-.19.24-.33.44-.41.27-.1.62-.17,1.05-.2.43-.03.88-.05,1.35-.05s1.28,0,2.44.01c1.16,0,2.19.01,3.09.01-.12-.57-.25-1.12-.4-1.68-.15-.55-.33-1.12-.52-1.7Z"/>
        </g>
        <polygon class="cls-1" points="13.63 27.31 0 2.86 7.47 0 13.63 27.31"/>
      </g>
    </g>
  </g>
</svg>