<svg width="250" height="52" viewBox="0 0 250 52" fill="none" xmlns="http://www.w3.org/2000/svg">
<path d="M9.67599 22.4976L9.66409 18.6915L9.6403 13.244L9.62841 9.53906L14.7309 9.61043L14.8082 13.9993L14.8499 19.7501L14.8737 22.4619C20.7433 23.3004 24.7159 25.0369 26.5774 28.6349C29.1286 33.5828 27.9273 37.0142 25.6734 40.1661C23.8596 42.6995 20.6125 44.2041 17.5141 44.5609C21.9922 40.3267 22.8248 31.6024 21.6235 32.4945C21.1477 32.8453 19.9048 34.4272 18.3764 35.9854C17.5498 36.8239 16.3426 37.9717 15.1353 39.0124L15.0937 42.8304L9.78898 43.1277L9.77708 41.0938C8.93261 41.6766 7.93946 41.6469 6.91063 41.6469C3.62194 41.6588 -0.457698 38.6615 0.0418493 33.0535C0.339199 29.6875 2.89641 24.1687 9.67004 22.4916L9.67599 22.4976Z" fill="white"/>
<path d="M33.6721 18.0669L27.2493 17.1154C26.8925 17.0618 26.6665 16.5682 26.7498 16.0152C26.833 15.4621 27.1898 15.0518 27.5467 15.1053L33.9694 16.0568C34.3262 16.1103 34.5522 16.6039 34.469 17.157C34.3857 17.7101 34.0289 18.1204 33.6721 18.0669Z" fill="white"/>
<path d="M33.1785 21.3914L26.7558 20.4398C26.399 20.3863 26.173 19.8927 26.2562 19.3396C26.3395 18.7866 26.6963 18.3762 27.0531 18.4297L33.4759 19.3813C33.8327 19.4348 34.0587 19.9284 33.9754 20.4815C33.8922 21.0345 33.5353 21.4449 33.1785 21.3914Z" fill="white"/>
<path d="M32.6909 24.71L26.2681 23.7584C25.9113 23.7049 25.6853 23.2113 25.7686 22.6582C25.8518 22.1052 26.2086 21.6948 26.5655 21.7483L32.9882 22.6999C33.345 22.7534 33.571 23.247 33.4878 23.8001C33.4045 24.3531 33.0477 24.7635 32.6909 24.71Z" fill="white"/>
<path d="M28.0463 16.2116L27.065 22.8484C26.9817 23.4015 26.6249 23.8118 26.2681 23.7583C25.9113 23.7048 25.6853 23.2112 25.7686 22.6581L26.7498 16.0213C26.8331 15.4682 27.1899 15.0579 27.5467 15.1114C27.9035 15.1649 28.1295 15.6585 28.0463 16.2116Z" fill="white"/>
<path d="M27.2494 17.1212L25.1084 16.806C24.7516 16.7525 24.5256 16.2589 24.6089 15.7058C24.6921 15.1528 25.049 14.7424 25.4058 14.796L27.5467 15.1111C27.9035 15.1647 28.1295 15.6583 28.0463 16.2113C27.963 16.7644 27.6062 17.1748 27.2494 17.1212Z" fill="white"/>
<path d="M26.268 23.7582L24.1271 23.443C23.7703 23.3895 23.5443 22.8959 23.6276 22.3428C23.7108 21.7897 24.0676 21.3794 24.4245 21.4329L26.5654 21.7481C26.9222 21.8016 27.1482 22.2952 27.0649 22.8483C26.9817 23.4014 26.6249 23.8117 26.268 23.7582Z" fill="white"/>
<path d="M25.1382 16.8062L24.9717 16.7943H25.0252L24.8527 16.8002H24.9063L24.7338 16.824L24.7873 16.8121L24.6149 16.8597L24.6684 16.8418L24.4959 16.9073L24.5494 16.8835L24.3829 16.9727L24.4365 16.9429L24.2699 17.05L24.3175 17.0143L24.1569 17.1392L24.2045 17.0976L24.0499 17.2403L24.0975 17.1927L23.9488 17.3533L23.9904 17.3057L23.8477 17.4782L23.8893 17.4247L23.7525 17.615L23.7942 17.5555L23.6693 17.7577L23.705 17.6923L23.592 17.9064L23.6277 17.8409L23.5206 18.0669L23.5503 17.9956L23.4552 18.2334L23.4849 18.1621L23.4017 18.4059L23.4255 18.3286L23.3541 18.5784L23.3719 18.5011L23.3125 18.7568L23.3303 18.6795L23.2827 18.9411L23.2946 18.8638L23.2649 19.1255V19.0482L23.253 19.3099V19.2325V19.4942V19.4169L23.2589 19.6726V19.5953L23.2768 19.851V19.7737L23.3006 20.0235L23.2887 19.9521L23.3363 20.19L23.3184 20.1186L23.3779 20.3506L23.36 20.2852L23.4314 20.5052L23.4076 20.4398L23.4909 20.6479L23.4611 20.5885L23.5563 20.7847L23.5266 20.7252L23.6336 20.9036L23.5979 20.8501L23.7169 21.0166L23.6812 20.9691L23.8061 21.1177L23.7644 21.0761L23.9012 21.2069L23.8596 21.1713L24.0023 21.2843L23.9547 21.2545L24.1034 21.3497L24.0558 21.3259L24.2105 21.4032L24.1629 21.3854L24.3235 21.4389L24.2759 21.427L24.4424 21.4627C24.7992 21.54 25.0074 22.0455 24.9122 22.5985C24.8171 23.1516 24.4543 23.5382 24.0975 23.4609L23.931 23.4252C23.931 23.4252 23.8953 23.4192 23.8834 23.4133L23.7228 23.3598C23.7228 23.3598 23.6931 23.3479 23.6752 23.3419L23.5206 23.2646C23.5206 23.2646 23.4909 23.2468 23.473 23.2408L23.3244 23.1457C23.3244 23.1457 23.2946 23.1278 23.2768 23.1159L23.1341 23.0029C23.1341 23.0029 23.1043 22.9792 23.0924 22.9673L22.9556 22.8364C22.9556 22.8364 22.9259 22.8067 22.914 22.7948L22.7891 22.6461C22.7891 22.6461 22.7653 22.6164 22.7535 22.5985L22.6345 22.432C22.6345 22.432 22.6107 22.3963 22.5988 22.3785L22.4918 22.2001C22.4918 22.2001 22.468 22.1644 22.462 22.1406L22.3669 21.9444C22.3669 21.9444 22.3491 21.9027 22.3372 21.8849L22.2539 21.6768C22.2539 21.6768 22.2361 21.6351 22.2301 21.6113L22.1588 21.3913C22.1588 21.3913 22.1469 21.3437 22.1409 21.3259L22.0814 21.094C22.0814 21.094 22.0695 21.0464 22.0636 21.0226L22.016 20.7847C22.016 20.7847 22.0041 20.7371 22.0041 20.7133L21.9684 20.4636C21.9684 20.4636 21.9625 20.416 21.9625 20.3863L21.9387 20.1305C21.9387 20.1305 21.9387 20.077 21.9387 20.0532V19.7975C21.9387 19.7975 21.9268 19.744 21.9268 19.7202V19.4585C21.9268 19.4585 21.9328 19.405 21.9328 19.3812L21.9506 19.1195C21.9506 19.1195 21.9506 19.066 21.9566 19.0422L21.9863 18.7806C21.9863 18.7806 21.9922 18.727 21.9982 18.7033L22.0458 18.4416C22.0458 18.4416 22.0577 18.3881 22.0636 18.3643L22.1231 18.1086C22.1231 18.1086 22.135 18.055 22.1409 18.0312L22.2123 17.7815C22.2123 17.7815 22.2242 17.7339 22.2361 17.7042L22.3193 17.4603C22.3193 17.4603 22.3372 17.4128 22.3491 17.389L22.4442 17.1511C22.4442 17.1511 22.462 17.1035 22.4739 17.0797L22.581 16.8537C22.581 16.8537 22.6048 16.8062 22.6167 16.7883L22.7297 16.5742C22.7297 16.5742 22.7535 16.5326 22.7653 16.5088L22.8902 16.3066C22.8902 16.3066 22.914 16.265 22.9319 16.2471L23.0686 16.0568C23.0686 16.0568 23.0984 16.0212 23.1103 16.0033L23.253 15.8309C23.253 15.8309 23.2827 15.7952 23.2946 15.7833L23.4433 15.6227C23.4433 15.6227 23.473 15.593 23.4909 15.5751L23.6455 15.4324C23.6455 15.4324 23.6752 15.4027 23.6931 15.3908L23.8536 15.2659C23.8536 15.2659 23.8893 15.2421 23.9012 15.2302L24.0677 15.1232C24.0677 15.1232 24.1034 15.1053 24.1213 15.0934L24.2878 15.0042C24.2878 15.0042 24.3235 14.9864 24.3413 14.9804L24.5138 14.915C24.5138 14.915 24.5494 14.9031 24.5673 14.8972L24.7397 14.8496C24.7397 14.8496 24.7754 14.8437 24.7933 14.8377L24.9657 14.8139C24.9657 14.8139 25.0014 14.8139 25.0193 14.8139H25.1917C25.1917 14.8139 25.2274 14.808 25.2452 14.8139L25.4118 14.8258C25.7745 14.8555 26.0124 15.3313 25.941 15.8903C25.8756 16.4493 25.5248 16.8716 25.1679 16.8418L25.1382 16.8062Z" fill="white"/>
<path d="M22.7891 21.7124L22.6106 22.0395L3.63973 19.3931C2.60495 19.3752 1.9151 17.8707 2.18271 16.039C2.45627 14.2073 3.55052 12.9703 4.54962 13.2498L23.586 15.8784C23.693 15.9081 23.36 18.3405 23.2767 18.8935C23.1934 19.4466 22.902 21.7124 22.7891 21.7124Z" fill="white"/>
<path d="M26.613 17.0262V17.0203L25.1322 16.8002L25.0014 16.7883H24.8824L24.7635 16.8062L24.6446 16.8419L24.5256 16.8894L24.4067 16.9489L24.2937 17.0203L24.1807 17.1095L24.0736 17.2106L23.9666 17.3236L23.8655 17.4484L23.7703 17.5793L23.6811 17.722L23.5979 17.8707L23.5265 18.0313L23.4611 18.1918L23.4016 18.3643L23.3541 18.5427L23.3124 18.7211L23.2827 18.8995L23.2589 19.0779L23.247 19.2623V19.4407L23.253 19.6191L23.2708 19.7975L23.2946 19.97L23.3303 20.1365L23.3719 20.2971L23.4254 20.4517L23.4849 20.6004L23.5503 20.7371L23.6276 20.862L23.7109 20.975L23.8001 21.0821L23.8952 21.1772L23.9963 21.2545L24.1034 21.3199L24.2104 21.3735L24.3234 21.4151L24.4542 21.4448L25.935 21.6649C25.935 21.6649 25.941 21.6649 25.9469 21.653L26.6308 17.0262H26.613Z" fill="white"/>
<path d="M9.95545 30.3713C9.0634 30.3297 8.35571 31.6678 8.21298 32.4885C8.05836 33.3865 8.29624 34.0882 9.31912 34.1358C10.342 34.1834 11.9001 32.9166 13.0063 31.7927C14.0767 30.7103 14.6774 29.7766 15.284 28.5991" stroke="white" stroke-width="6" stroke-miterlimit="10" stroke-linecap="round"/>
<path d="M53.1425 36.3003C53.1425 36.3003 54.1892 43.3118 53.4875 46.5291C52.7857 49.7464 49.5922 51.6554 45.9407 50.6444C42.2833 49.6334 42.2655 44.858 39.6547 44.1146C38.2631 43.7221 35.3967 44.9769 33.6542 47.665C32.1972 49.913 30.877 49.9784 29.1167 49.8118C27.3563 49.6453 25.7804 47.8315 25.7804 47.8315L37.4127 21.1235L42.0752 23.2169C42.0752 23.2169 36.7467 35.5926 36.7645 36.7582C36.7823 37.7097 40.2851 33.2435 43.437 34.6827C47.2253 36.4133 45.8515 39.4343 48.2719 40.0171C50.6924 40.6 53.1425 36.2943 53.1425 36.2943V36.3003Z" fill="white"/>
<path d="M44.8881 46.3687C44.8881 46.3687 45.2212 47.5581 46.5652 48.2242C47.9092 48.8843 49.3722 48.2836 50.2285 47.6949C51.0849 47.1061 52.0959 45.3696 51.5012 43.5974" stroke="white" stroke-width="3" stroke-miterlimit="10" stroke-linecap="round"/>
<path d="M54.7126 36.4377L53.2853 24.6448C52.5716 25.7212 51.3703 26.417 50.5734 26.7203C47.707 27.8205 43.0327 24.9005 43.0327 24.9005C45.2271 21.9805 48.1292 17.6571 51.8639 16.3903L51.3941 12.7984L56.0982 11.5376L56.794 15.2247C67.1834 13.7558 67.8554 24.2225 68.8605 34.8141L62.5448 34.939C62.6161 28.3081 61.736 21.0409 58.6911 22.7893L60.8558 35.9619L54.7185 36.4377H54.7126Z" fill="white"/>
<path d="M45.2271 24.4901C45.233 24.6745 45.5363 24.9599 46.4521 25.2275C46.9517 25.3702 47.3382 25.4654 47.9686 25.4476C48.4444 25.4297 49.2115 25.0313 49.1818 24.2046C49.1521 23.378 48.4027 23.0331 47.8913 23.045C47.2431 23.0688 46.6603 23.5564 46.1726 23.7348C45.2925 24.056 45.2271 24.3117 45.233 24.4901H45.2271Z" fill="white"/>
<path d="M81.1707 19.7324C81.7713 18.5965 81.7059 17.2525 81.1172 15.9858C80.5284 14.725 79.4163 13.5475 77.9177 12.7565C76.419 11.9656 74.742 11.8169 73.4455 11.9299C72.6011 12.0429 70.4601 11.9418 69.2945 11.5315C68.1289 11.1211 66.88 10.6929 64.7808 9.2716C62.6339 7.81458 62.063 7.46371 61.3672 7.07716C60.3621 6.52409 59.2619 7.11879 58.8397 7.91568C58.4175 8.71258 58.1796 10.4848 58.8516 10.8416C58.8754 10.8535 68.1468 15.2186 68.1468 15.2186C68.4084 15.3554 69.2767 15.3375 69.6276 16.075C69.6097 16.7172 69.9903 16.973 70.3709 17.7342C71.0013 18.8701 72.0718 20.1724 73.5704 20.9634C75.0691 21.7543 76.6688 22.016 78.0426 21.79C79.4163 21.564 80.57 20.8623 81.1647 19.7264L81.1707 19.7324Z" fill="white"/>
<path d="M81.3758 19.6935C82.1341 17.5195 80.3153 14.9083 77.3134 13.8612C74.3114 12.814 71.2631 13.7275 70.5048 15.9014C69.7465 18.0753 71.5653 20.6865 74.5673 21.7337C77.5692 22.7808 80.6175 21.8674 81.3758 19.6935Z" fill="white"/>
<path d="M97.8581 31.5489L96.0859 36.9844L82.5268 29.3485L83.8708 25.5305L97.8581 31.5489Z" fill="white"/>
<path d="M87.3141 22.4919L93.8618 23.1877C95.3366 23.3483 96.306 24.3712 96.1989 25.8996C95.515 35.8073 88.9793 45.0073 85.2862 45.941C83.8232 46.3097 79.7079 46.1788 79.9815 42.6106L80.0885 41.219C87.2903 44.2223 87.9683 23.2829 87.3141 22.4919Z" fill="white"/>
<path d="M91.0309 25.3283C91.0309 25.3283 93.4395 25.2926 93.7963 25.6197C94.0818 25.8814 94.058 27.4692 93.826 28.6229C93.5941 29.7588 93.2194 31.1207 93.2194 31.1207" stroke="white" stroke-width="3" stroke-miterlimit="10" stroke-linecap="round"/>
<path d="M80.2253 36.0389L80.2788 38.4593C81.0816 39.0897 82.4851 38.0965 81.2065 39.3276C79.8565 40.624 77.0615 42.5984 75.5628 42.8125C72.6072 43.2288 71.0372 40.0174 71.614 38.0787C72.3633 35.5631 74.3853 27.9688 74.1831 25.0072C73.9809 22.0456 72.9818 20.7848 72.1671 20.3091C71.7805 20.0831 73.6955 20.9097 76.5679 18.7866C79.4462 16.6635 82.0332 17.9481 81.4622 19.0423C79.131 21.4806 78.1557 23.5859 77.4183 26.4107C76.0445 31.6738 75.8899 34.4986 75.8483 35.575C75.7829 37.1153 76.7165 37.591 77.3648 37.3353C78.126 37.038 79.2975 36.4195 80.2312 36.0448L80.2253 36.0389Z" fill="white"/>
<path d="M116.995 51.067L105.464 45.7206C105.464 45.7206 114.468 34.0467 116.995 12.6672L123.745 14.1421C123.745 14.1421 125.642 41.5696 116.995 51.067Z" fill="white"/>
<path d="M159.16 43.7283L138.803 49.0152L131.893 21.5639L146.409 19.084L159.16 43.7283Z" fill="white"/>
<path d="M177.262 27.4751C182.466 30.4308 185.362 32.1197 185.362 32.1197L177.393 41.6349L157.138 20.535L160.254 18.1919C160.533 18.1919 166.064 20.9572 170.56 23.4193C172.112 21.4449 173.165 19.9343 173.884 17.0263L154.057 14.5047L151.797 0L193.997 2.24796C193.997 2.24796 189.43 16.9906 177.262 27.4692V27.4751Z" fill="white"/>
<path d="M195.555 35.0991C197.696 35.2775 199.433 36.0923 199.73 33.8384C199.914 32.5479 198.065 33.1307 195.633 33.987L196.513 24.5789L194.449 24.6681C192.867 24.7335 191.517 23.5203 191.428 21.9384C191.327 20.2673 192.659 18.8638 194.324 18.8638H196.929L197.173 15.4146L203.066 16.146L202.751 18.8638H206.979C208.436 18.8638 209.62 20.0473 209.62 21.5043C209.62 22.9137 208.514 24.0734 207.104 24.1388L202.091 24.3707L201.812 26.6365C206.73 26.8804 210.774 31.8342 208.157 37.4779C205.261 43.7163 194.746 40.9272 195.228 38.1202L195.561 35.0932L195.555 35.0991Z" fill="white"/>
<path d="M202.061 37.8886C202.061 37.8886 203.405 38.1919 204.779 36.824C205.552 36.0569 205.927 35.1827 205.921 34.3798C205.915 33.577 205.743 32.679 205.225 32.2627" stroke="white" stroke-width="3" stroke-miterlimit="10" stroke-linecap="round"/>
<path d="M226.129 22.7115C228.412 23.4251 229.762 25.0487 229.762 27.2788C229.762 29.2175 228.965 30.3593 228.276 30.9659C226.896 32.2148 224.642 32.5062 223.708 31.3882L223.387 30.5139C225.617 29.5327 225.879 28.1233 225.671 27.3799C225.564 27.1123 225.403 26.9041 225.165 26.7436L222.192 26.69C221.954 26.7673 221.716 26.8209 221.448 26.9041L222.537 36.2171L218.659 36.6394L217.518 28.8666C217.518 28.8666 217.517 28.8666 217.512 28.8666C216.542 29.3424 215.371 28.9023 214.931 27.9211L214.699 27.3977C214.276 26.4522 214.681 25.346 215.609 24.8881C216.144 24.6264 216.631 24.3945 216.857 24.2696L216.405 21.1117L220.729 20.636L220.967 22.6818C221.288 22.6044 221.579 22.5212 221.894 22.4677L226.117 22.7055L226.129 22.7115Z" fill="white"/>
<path d="M224.291 27.6179C223.827 28.3851 223.381 28.7181 222.929 28.6408C222.299 28.5338 222.239 27.6477 222.216 27.0292L222.031 22.8603C221.966 21.445 223.114 20.2674 224.535 20.2972L225.808 20.321C226.533 20.3329 226.747 21.1476 226.605 21.9564C226.462 22.7652 225.498 23.128 225.195 24.7396C224.892 26.3512 224.523 27.2373 224.297 27.6179H224.291Z" fill="white"/>
<path d="M223.084 24.9358C223.203 24.9536 223.75 23.8475 223.911 22.8841C223.97 22.5094 223.875 21.7304 223.595 21.6828C223.316 21.6352 222.977 22.3132 222.912 22.7176C222.751 23.6869 222.965 24.918 223.078 24.9358H223.084Z" fill="white"/>
<path d="M231.749 41.7241L229.762 40.9212L238.659 17.4365L244.172 19.6429L241.068 27.4096C245.296 27.8973 245.956 33.5053 245.938 36.0804C245.915 38.7208 246.331 41.0104 249.762 40.5228L250 41.4802C248.067 45.2685 242.299 44.3764 241.282 40.8201C240.699 38.7862 239.319 37.8347 237.089 37.7336L235.912 40.1362C235.156 41.6824 233.337 42.3782 231.743 41.73L231.749 41.7241Z" fill="white"/>
<path d="M241.115 30.5916C241.115 30.5916 242.15 30.877 242.709 32.2032C243.268 33.5294 243.119 34.5285 243.119 34.5285" fill="white"/>
<path d="M241.115 30.5916C241.115 30.5916 242.15 30.877 242.709 32.2032C243.268 33.5294 243.119 34.5285 243.119 34.5285" stroke="white" stroke-width="3" stroke-miterlimit="10" stroke-linecap="round"/>
</svg>
