<?xml version="1.0" encoding="UTF-8"?>
<svg id="_レイヤー_2" data-name="レイヤー 2" xmlns="http://www.w3.org/2000/svg" viewBox="0 0 213.07 211.59">
  <g id="_レイヤー_1-2" data-name="レイヤー 1">
    <g>
      <path fill="#ccc" d="M56.98,32.84l-1.26,1.04-.54-.65-6.99,5.78.55.66-1.26,1.04-4.46-5.39c-.69,1.47-1.45,2.89-2.28,4.23l-1.34-.83c1.61-2.61,2.88-5.32,3.8-8.16l-3.86.11-.02-1.57,4.37-.12c.64-2.3.94-4.27,1.06-6.27l-6.15,5.09c-.31,2-.84,3.93-1.41,5.74l-1.48-.44c1.08-3.4,1.5-6.42,1.59-9.41l1.6-.07c0,.52-.07,1.23-.15,2.03l6.35-5.25,1.34.47c.2,3.44-.62,7.46-2.35,11.92l7.63-6.33,5.26,6.36ZM54.23,32.08l-2.8-3.38-6.99,5.78,2.8,3.38,6.99-5.78Z"/>
      <path fill="#ccc" d="M69.07,10.81l-7.65,3.91,1.81,3.55,5.56-2.84,4.34,8.49-1.4.72-.5-.97-9.54,4.87.53,1.03-1.38.71-4.37-8.55,5.37-2.74-1.81-3.55-7.71,3.94-.67-1.31,7.71-3.94-1.77-3.46,1.4-.72,1.77,3.46,7.65-3.91.67,1.31ZM70.54,22.34l-2.48-4.86-9.54,4.87,2.48,4.86,9.54-4.87Z"/>
      <path fill="#ccc" d="M91.38,7.77l-3.89,1,4.24,2.49-.79,1.24-1.73-1.01-4.02,1.4.48,1.87,5.04-1.3.35,1.36-5.04,1.3.48,1.87,6.96-1.79.35,1.36-15.56,4-.35-1.36,7.16-1.84-.48-1.87-5.17,1.33-.35-1.36,5.17-1.33-.45-1.75-5.72,1.97-.47-1.4,2.37-.81.81-2.66-4.37,1.13c.74,3.06.97,7.12.33,10.22l-1.47-.25c.62-3.09.33-6.96-.45-10.01l-1.79-6.96,15.5-3.99,1.18,4.58-14.01,3.61.37,1.42,14.97-3.85.36,1.38ZM87.87,4.2l-.47-1.81-12.53,3.22.47,1.81,12.53-3.22ZM87.67,10.54l-1.32-.77.5-.84-4.35,1.12-.79,2.5,5.97-2.01Z"/>
      <path fill="#ccc" d="M100.6,3.84c-.68,3.94-2.3,8.5-4.58,11.8l-1.32-.86c2.07-3,3.75-7.58,4.34-11.18l1.57.24ZM111.02,13.97l-1.38.69-5.14-10.65,1.38-.67,5.14,10.63ZM109.58,4.22c-1.17.05-2.16-.85-2.22-2.02-.05-1.15.85-2.14,2.02-2.2,1.15-.05,2.14.85,2.2,2,.05,1.18-.85,2.16-2,2.22ZM109.42.8c-.76.04-1.28.61-1.24,1.36.04.76.61,1.3,1.36,1.26s1.25-.63,1.22-1.38c-.04-.75-.58-1.28-1.34-1.24Z"/>
      <path fill="#ccc" d="M129.05,17.11l-1.27.88-4.38-6.31c-2.55,1.98-5.3,3.37-8.28,4.19l-.38-1.46c4.98-1.38,9.37-4.61,12.41-8.76l-9.37-1.49.24-1.49,10.51,1.67.56,1.15c-1,1.71-2.48,3.45-4.49,5.22l4.45,6.4Z"/>
      <path fill="#ccc" d="M150.57,12.85c-1.41,1.87-3.35,3.55-5.86,5.07l1.56,2.35-1.25.8-1.59-2.43c-2.73,1.39-5.57,2.1-8.53,2.16l-.04-1.5c2.65-.05,5.21-.71,7.71-1.96l-2.3-3.51,1.23-.81,2.38,3.6c1.81-1.09,3.43-2.4,4.85-3.93l-6.57-2.5c-1.73,1.07-3.53,2-5.39,2.78l-.57-1.39c3.46-1.47,6.1-3.09,8.56-5.12l1.01,1.13c-.51.46-1.2.98-2.04,1.58l6.53,2.49.34,1.18Z"/>
      <path fill="#ccc" d="M162.91,33.25l-1.51.3-1.48-7.53c-3.12.79-6.2.96-9.26.52l.24-1.49c5.11.74,10.43-.47,14.88-3.05l-7.99-5.12.82-1.27,8.96,5.75.05,1.28c-1.6,1.17-3.66,2.17-6.2,2.98l1.5,7.65Z"/>
      <path fill="#ccc" d="M181.81,41.46l-4.53-4.44c-2.87,2.81-6.9,3.5-10.65,2.2l.49-1.43c3.19,1.1,6.64.57,9.07-1.85l-5.21-5.1,1.03-1.05,10.83,10.61-1.03,1.05ZM183.88,36.13l-7.5-7.35,1.03-1.05,7.5,7.35-1.03,1.05Z"/>
      <path fill="#ccc" d="M191.96,58.48l-8.08-12.03,1.24-.83,8.08,12.03-1.24.83Z"/>
      <path fill="#ccc" d="M202.82,76.05c-4.96-1.07-10.88-4.1-13.96-8.34l1.26-.92c3.07,3.94,8.24,6.69,13.04,7.74l-.34,1.52ZM198.09,67.18l-1.46-.2.56-4.42,1.45.18-.56,4.44ZM203.09,67.67l-1.47-.22.72-4.64,1.45.23-.7,4.63Z"/>
      <path fill="#ccc" d="M196.99,95.48l-.23-1.3.99-.18-1.53-8.47,1.22-.22,1.53,8.47,3.14-.57-1.45-8.06,1.2-.22,1.45,8.06,3.12-.56-1.49-8.26,1.24-.22,1.72,9.57-10.91,1.97Z"/>
      <path fill="#ccc" d="M207.19,116.89c-4.13-3.57-7.71-8.94-9.32-14.21l1.48-.47c1.62,5.02,4.91,10,8.86,13.44l-1.02,1.23ZM208.62,107.43l-1.13-1.08,3.46-3.69,1.17,1.1-3.5,3.67Z"/>
      <path fill="#ccc" d="M191.87,134.73l.38-1.59.82.19,2.08-8.83-.84-.2.38-1.59,6.81,1.6c-.34-1.59-.59-3.18-.74-4.75l1.57-.15c.3,3.05.92,5.98,1.9,8.8l3.01-2.42.96,1.24-3.41,2.74c.88,2.21,1.83,3.97,2.95,5.63l1.83-7.77c-.96-1.78-1.71-3.64-2.35-5.43l1.44-.55c1.19,3.37,2.68,6.03,4.42,8.46l-1.23,1.03c-.31-.42-.69-1.02-1.11-1.71l-1.88,8.02-1.35.44c-2.23-2.62-4.02-6.32-5.33-10.92l-2.25,9.66-8.04-1.89ZM194.51,133.67l4.27,1,2.08-8.83-4.27-1-2.08,8.83Z"/>
      <path fill="#ccc" d="M195.52,159.56l3.75-7.73-3.59-1.74-2.72,5.61-8.58-4.16.69-1.42.98.48,4.67-9.63-1.04-.5.68-1.4,8.63,4.18-2.63,5.42,3.59,1.74,3.77-7.78,1.32.64-3.77,7.78,3.49,1.69-.69,1.42-3.49-1.69-3.75,7.73-1.32-.64ZM187.39,151.26l4.91,2.38,4.67-9.63-4.91-2.38-4.67,9.63Z"/>
      <path fill="#ccc" d="M179.57,175.5l2.49-3.15-4.88.58-.12-1.47,1.99-.25,2.36-3.55-1.51-1.2-3.24,4.08-1.1-.87,3.24-4.08-1.51-1.2-4.46,5.63-1.1-.87,9.98-12.59,1.1.87-4.59,5.8,1.51,1.2,3.31-4.18,1.1.87-3.31,4.18,1.42,1.12,3.37-5.03,1.22.83-1.4,2.08.96,2.61,2.8-3.54c-2.44-1.99-5.08-5.09-6.44-7.94l1.33-.69c1.38,2.83,3.94,5.75,6.41,7.71l5.63,4.46-9.94,12.55-3.7-2.94,8.99-11.34-1.15-.91-9.6,12.12-1.12-.89ZM180.85,171.05l1.52-.19.11.97,2.79-3.52-.88-2.47-3.54,5.21ZM184.52,176.22l1.46,1.16,8.04-10.14-1.47-1.16-8.04,10.14Z"/>
      <path fill="#ccc" d="M160.19,182.44l.68-1.39,10.54,5.37-.69,1.37-10.53-5.35ZM167.24,189.33c.9-.75,2.23-.64,2.99.27.74.89.62,2.22-.28,2.97-.89.74-2.22.62-2.96-.26-.75-.9-.64-2.23.25-2.97ZM169.43,191.96c.58-.49.65-1.25.16-1.83-.48-.58-1.27-.66-1.85-.18-.58.49-.62,1.26-.13,1.84.49.58,1.24.66,1.82.18ZM174.61,184.2c-1.85-3.55-3.31-8.15-3.49-12.17l1.58-.11c.17,3.64,1.6,8.3,3.31,11.52l-1.39.76Z"/>
      <path fill="#ccc" d="M143.94,190.81l.48-1.47,7.3,2.38c.84-3.11,2.19-5.89,4.07-8.34l1.19.94c-3.14,4.11-4.68,9.34-4.59,14.48l8.37-4.48.71,1.33-9.39,5.02-1.14-.58c-.24-1.97-.11-4.25.42-6.87l-7.41-2.42Z"/>
      <path fill="#ccc" d="M129.36,207.2c0-2.34.53-4.86,1.61-7.58l-2.66-.93.51-1.4,2.73.97c1.34-2.75,3.17-5.04,5.49-6.88l.93,1.17c-2.08,1.64-3.73,3.71-4.96,6.22l3.95,1.4-.49,1.39-4.07-1.44c-.78,1.96-1.29,3.99-1.49,6.06l6.75-1.97c.74-1.9,1.6-3.73,2.62-5.47l1.29.76c-1.87,3.26-3,6.15-3.73,9.25l-1.48-.29c.13-.67.37-1.51.67-2.49l-6.71,1.96-.98-.74Z"/>
      <path fill="#ccc" d="M107.2,198.41l1.03-1.16,5.73,5.11c2.01-2.52,4.36-4.51,7.07-6.01l.72,1.33c-4.52,2.5-8.03,6.68-10.01,11.43l9.46-.74.12,1.51-10.61.84-.81-.99c.57-1.9,1.61-3.94,3.14-6.12l-5.82-5.19Z"/>
      <path fill="#ccc" d="M87.17,203.33l6.29.79c.58-3.97,3.37-6.97,7.15-8.21l.48,1.44c-3.2,1.06-5.63,3.57-6.1,6.96l7.23.91-.18,1.46-15.05-1.88.18-1.46ZM88.75,208.82l10.42,1.3-.18,1.46-10.42-1.3.18-1.46Z"/>
      <path fill="#ccc" d="M68.83,195.89l13.7,4.72-.49,1.41-13.7-4.72.49-1.41Z"/>
      <path fill="#ccc" d="M49.56,188.42c4.6-2.14,11.16-3.3,16.17-1.77l-.45,1.49c-4.83-1.29-10.61-.36-15.07,1.7l-.65-1.41ZM54.4,195.27l1.31-.71,2.23,4.14-1.29.69-2.24-4.12ZM58.68,192.64l1.29-.72,2.22,3.87-1.27.73-2.24-3.88Z"/>
      <path fill="#ccc" d="M42.46,169.43l.97.9-.68.74,6.34,5.83-.84.91-6.34-5.82-2.16,2.35,6.03,5.54-.82.9-6.03-5.54-2.15,2.34,6.19,5.68-.85.93-7.16-6.58,7.5-8.17Z"/>
      <path fill="#ccc" d="M21.39,158.56c5.45.35,11.55,2.45,16.02,5.68l-.9,1.27c-4.32-3.02-9.96-4.99-15.18-5.35l.06-1.6ZM25.96,166.96l1.55.18-.52,5.03-1.6-.17.56-5.04Z"/>
      <path fill="#ccc" d="M22.81,135.06l.66,1.5-.77.34,3.68,8.29.79-.35.66,1.5-6.39,2.83c1.23,1.06,2.39,2.18,3.46,3.34l-1.16,1.06c-2.08-2.25-4.35-4.21-6.83-5.86l-.93,3.75-1.51-.41,1.06-4.24c-2.04-1.23-3.85-2.06-5.75-2.71l3.24,7.29c1.84.84,3.56,1.87,5.15,2.91l-.82,1.31c-2.98-1.96-5.78-3.18-8.63-4.07l.36-1.56c.5.15,1.17.4,1.91.69l-3.34-7.52.82-1.17c3.36.74,7.01,2.61,10.84,5.48l-4.04-9.05,7.54-3.35ZM21.34,137.5l-4.01,1.78,3.68,8.29,4.01-1.78-3.68-8.29Z"/>
      <path fill="#ccc" d="M4.9,117.51l1.69,8.42,3.91-.78-1.22-6.11,9.35-1.87.31,1.54-1.07.21,2.1,10.5,1.13-.23.3,1.52-9.41,1.88-1.18-5.91-3.91.78,1.7,8.48-1.44.29-1.7-8.48-3.81.76-.31-1.54,3.81-.76-1.69-8.42,1.44-.29ZM16.39,119.21l-5.35,1.07,2.1,10.5,5.35-1.07-2.1-10.5Z"/>
      <path fill="#ccc" d="M7.96,95.2l-.08,4.01,3.53-3.42.99,1.09-1.44,1.4.27,4.25,1.93.04.1-5.21,1.41.03-.1,5.21,1.93.04.14-7.18,1.41.03-.32,16.06-1.41-.03.15-7.39-1.93-.04-.1,5.33-1.41-.03.1-5.33-1.81-.04.36,6.04-1.47.08-.14-2.5-2.34-1.5-.09,4.51c3.15.1,7.12.98,9.93,2.42l-.64,1.35c-2.81-1.42-6.62-2.19-9.77-2.25l-7.18-.14.31-16,4.72.09-.28,14.47,1.47.03.3-15.45,1.43.03ZM3.58,97.64l-1.87-.04-.25,12.93,1.87.04.25-12.93ZM9.63,99.52l-1.09,1.07-.68-.71-.09,4.49,2.2,1.43-.34-6.29Z"/>
      <path fill="#ccc" d="M9.41,76.7c-.26,1.15-1.39,1.86-2.54,1.59-1.13-.26-1.84-1.39-1.57-2.54.26-1.13,1.39-1.84,2.52-1.58,1.15.26,1.86,1.39,1.6,2.52ZM6.63,85.25c3.62,1.71,7.57,4.49,10.14,7.58l-1.19,1.04c-2.33-2.8-6.29-5.64-9.61-7.17l.65-1.45ZM6.07,75.94c-.17.74.24,1.39.98,1.56.74.17,1.41-.24,1.58-.97.17-.74-.27-1.38-1-1.54-.74-.17-1.39.22-1.56.96ZM19.19,77.93l.3,1.51-11.64,2.1-.28-1.51,11.62-2.1Z"/>
      <path fill="#ccc" d="M27.09,61.45l.51,1.46-7.26,2.5c1.21,2.99,1.81,6.01,1.79,9.11l-1.51-.03c.02-5.17-1.91-10.27-5.08-14.32l-3.97,8.62-1.37-.63,4.46-9.67,1.26-.23c1.38,1.42,2.65,3.33,3.81,5.73l7.37-2.55Z"/>
      <path fill="#ccc" d="M28.81,39.57c1.42,1.86,2.52,4.19,3.3,7.02l2.68-.87.44,1.42-2.77.88c.6,3,.52,5.93-.22,8.8l-1.45-.37c.67-2.56.72-5.21.19-7.96l-4,1.27-.45-1.4,4.11-1.32c-.56-2.03-1.38-3.95-2.48-5.73l-4.19,5.65c.56,1.96.98,3.94,1.22,5.94l-1.49.18c-.48-3.73-1.33-6.71-2.62-9.62l1.36-.67c.3.62.62,1.42.97,2.39l4.16-5.62h1.23Z"/>
    </g>
  </g>
</svg>