<?xml version="1.0" encoding="UTF-8"?>
<svg id="_レイヤー_2" data-name="レイヤー_2" xmlns="http://www.w3.org/2000/svg" viewBox="0 0 216.46 215.21">
  <g id="_レイヤー_1-2" data-name="レイヤー_1">
    <g>
      <path fill="#ccc" d="M56.38,33.78l-1.26,1.04-.53-.65-6.97,5.77.55.66-1.26,1.04-4.45-5.37c-.69,1.47-1.45,2.88-2.27,4.22l-1.34-.82c1.6-2.6,2.86-5.31,3.78-8.14l-3.85.12-.02-1.56,4.36-.13c.63-2.29.93-4.26,1.05-6.25l-6.13,5.08c-.31,1.99-.83,3.92-1.4,5.73l-1.48-.44c1.08-3.39,1.49-6.41,1.58-9.39l1.6-.07c0,.52-.07,1.23-.15,2.03l6.32-5.24,1.34.47c.2,3.43-.61,7.44-2.33,11.89l7.6-6.33,5.25,6.34ZM53.64,33.03l-2.79-3.37-6.97,5.77,2.79,3.37,6.97-5.77Z"/>
      <path fill="#ccc" d="M68.4,11.72l-7.61,3.93,1.82,3.54,5.53-2.85,4.36,8.45-1.4.72-.5-.97-9.49,4.9.53,1.02-1.38.71-4.39-8.51,5.34-2.75-1.82-3.54-7.67,3.95-.67-1.3,7.67-3.95-1.78-3.44,1.4-.72,1.78,3.44,7.61-3.93.67,1.3ZM69.92,23.22l-2.5-4.84-9.49,4.89,2.5,4.84,9.49-4.89Z"/>
      <path fill="#ccc" d="M90.76,8.51l-3.87,1.02,4.25,2.46-.78,1.25-1.74-1-4,1.42.49,1.86,5.03-1.32.36,1.36-5.03,1.32.49,1.86,6.93-1.83.36,1.36-15.5,4.09-.36-1.36,7.13-1.88-.49-1.86-5.15,1.36-.36-1.36,5.15-1.36-.46-1.74-5.69,2-.48-1.39,2.36-.82.79-2.66-4.36,1.15c.76,3.05,1,7.1.39,10.19l-1.47-.24c.6-3.08.29-6.95-.51-9.99l-1.83-6.93,15.44-4.07,1.2,4.56-13.96,3.68.37,1.42,14.91-3.93.36,1.38ZM87.22,4.98l-.48-1.8-12.48,3.29.48,1.8,12.48-3.29ZM87.07,11.31l-1.33-.76.49-.84-4.34,1.14-.77,2.5,5.94-2.04Z"/>
      <path fill="#ccc" d="M106.3,17.45l-.26-1.46c2.35-.39,5.11-2.1,5.02-4.78-.06-1.78-1.68-2.73-3.23-3.14-1.05,3.79-4.12,8.54-8.48,8.68-1.88.06-2.87-1.31-2.93-3.09-.1-2.93,2.66-5.2,5.07-6.31-.03-.96-.04-1.89-.03-2.85l-4.56.21-.09-1.49,4.67-.22c.03-1.01.06-2.04.19-3.02l1.47.2c-.12.88-.13,1.83-.16,2.73,2.01-.13,4.1-.3,6.05-.83l.38,1.43c-2.1.55-4.31.75-6.47.88,0,.8.01,1.59.04,2.39.87-.26,1.77-.43,2.69-.46,2.93-.1,6.79,1.43,6.91,4.82.11,3.45-3.19,5.76-6.29,6.28ZM101.58,8.99c-1.65.87-3.73,2.55-3.66,4.63.03.98.33,1.67,1.4,1.65.96,0,1.98-.44,2.78-.97-.27-1.75-.41-3.53-.51-5.31ZM103.05,8.36c.07,1.61.19,3.2.39,4.79,1.34-1.43,2.38-3.43,2.93-5.31-1.13-.07-2.26.16-3.31.53Z"/>
      <path fill="#ccc" d="M132.11,15.43c-1.04,1.71-2.99,3.7-5.2,3.32-1.69-.29-2.44-1.5-2.18-3.03l.36-2.11c.33-1.94.04-2.99-.89-3.15-.83-.14-1.91.25-3.2,1.22-1.39,1.04-2.87,2.85-4.72,5.36l-1.27-.9,10.22-13.96,1.31.92-4.72,6.38c.97-.45,1.85-.62,2.63-.49,2,.34,2.53,2.22,2.25,4.02l-.49,3.1c-.11.64.29,1.07.95,1.18,1.47.25,2.95-1.58,3.65-2.69l1.31.82Z"/>
      <path fill="#ccc" d="M140.23,22.84c-.96-.38-1.67-.95-2.12-1.71l1.31-.77c.31.48.75.84,1.36,1.07,1.29.51,4.14-4.45,4.52-5.43.67-1.7.47-2.74-.56-3.15-.27-.11-1.03-.31-2.23-.63-2.35,2.9-4.75,5.83-7.37,8.52l-1.09-1.06c1.54-1.58,3.81-4.2,6.86-7.89l-3.3-.82.36-1.48c1.41.35,2.75.67,3.99,1.01.6-.73,1.48-1.83,2.65-3.3l1.22.91c-.36.51-1.1,1.43-2.23,2.82.82.21,1.34.37,1.57.46,2.18.86,2.46,2.9,1.65,4.97-.78,1.99-3.89,7.54-6.58,6.49ZM149.9,20.57l.16-.7c-.29-.52-.9-1.03-1.84-1.56l.6-1.07c.57.33,1.05.66,1.45,1.02.14-1.95-.03-3.82-.49-5.64l1.43-.38c.68,2.63.84,6.12.12,8.74l-1.44-.41Z"/>
      <path fill="#ccc" d="M157.59,25.59c-1.72.8-2.85,1.49-3.38,2.1l-.03.63-1.52.03c0-2.25,1.02-4.86,3.04-7.83,1.43-2.12,3.16-4.04,4.8-6l1.18.99c-1.62,1.9-3.25,3.83-4.71,5.86-1,1.42-1.71,2.81-2.2,4.17.63-.39,1.38-.78,2.27-1.17l.56,1.21ZM170.53,27.51c-.74-.33-1.66-.79-2.79-1.4-.27.45-.54.9-.8,1.3-2.19,3.35-4.88,5.4-8.06,6.17l-.36-1.48c2.8-.68,5.18-2.53,7.15-5.54.24-.37.46-.75.71-1.16-2.28-1.26-3.93-2.22-4.97-2.89l.81-1.25c.95.62,2.58,1.56,4.9,2.85.68-1.16,1.41-2.51,2.22-4.01l1.37.74-2.23,4c1.08.58,1.97,1.01,2.65,1.31l-.59,1.37Z"/>
      <path fill="#ccc" d="M179.36,33.08c-3.35,2.16-7.79,4.05-11.75,4.6l-.26-1.55c3.6-.5,8.09-2.36,11.13-4.36l.88,1.31ZM178.95,47.56l-1.44-.54,4.35-10.96,1.42.56-4.33,10.95ZM185.14,39.92c-.83-.83-.84-2.16-.01-2.99.81-.82,2.14-.82,2.98,0,.82.81.82,2.14.01,2.96-.83.83-2.16.84-2.98.03ZM187.54,37.5c-.54-.53-1.31-.53-1.84,0-.53.54-.54,1.32,0,1.85.54.53,1.31.5,1.84-.04s.54-1.29,0-1.82Z"/>
      <path fill="#ccc" d="M188.88,62.96l-1.5-.33,1.67-7.48c-3.17-.53-6.05-1.61-8.67-3.24l.81-1.27c4.38,2.72,9.72,3.75,14.82,3.17l-5.25-7.88,1.26-.84,5.89,8.84-.47,1.19c-1.93.43-4.21.51-6.86.24l-1.69,7.59Z"/>
      <path fill="#ccc" d="M206.62,75.91c-2.32.24-4.87-.05-7.68-.86l-.66,2.73-1.44-.37.7-2.81c-2.87-1.06-5.31-2.65-7.37-4.78l1.07-1.04c1.83,1.91,4.05,3.33,6.66,4.32l1-4.06,1.43.35-1.02,4.18c2.02.59,4.08.88,6.16.88l-2.62-6.51c-1.96-.54-3.86-1.22-5.69-2.07l.63-1.36c3.42,1.54,6.4,2.37,9.55,2.79l-.14,1.5c-.68-.06-1.53-.22-2.54-.42l2.61,6.47-.64,1.05Z"/>
      <path fill="#ccc" d="M197.45,100.06l-.29-1.61.82-.15-1.61-8.91-.85.15-.29-1.61,6.86-1.24c-.94-1.32-1.8-2.68-2.56-4.05l1.37-.76c1.48,2.67,3.22,5.1,5.23,7.29l1.79-3.41,1.37.75-2.03,3.86c1.69,1.67,3.25,2.9,4.93,3.98l-1.42-7.83c-1.59-1.25-3.01-2.65-4.3-4.03l1.1-1.07c2.43,2.61,4.85,4.45,7.4,5.99l-.72,1.43c-.45-.26-1.04-.66-1.69-1.12l1.46,8.08-1.07.94c-3.08-1.51-6.18-4.18-9.21-7.87l1.78,9.73-8.1,1.46ZM199.45,98.04l4.31-.78-1.61-8.91-4.31.78,1.61,8.91Z"/>
      <path fill="#ccc" d="M210.76,121.35l.31-8.56-3.98-.15-.23,6.22-9.5-.35.06-1.57,1.09.04.39-10.68-1.15-.04.06-1.55,9.57.35-.22,6.01,3.98.15.31-8.63,1.47.05-.31,8.62,3.87.14-.06,1.57-3.87-.14-.31,8.56-1.47-.05ZM199.99,117.04l5.44.2.39-10.68-5.44-.2-.39,10.68Z"/>
      <path fill="#ccc" d="M202.63,142.38l1-3.87-4.22,2.5-.71-1.29,1.72-1.03.72-4.19-1.87-.48-1.3,5.03-1.36-.35,1.3-5.03-1.87-.48-1.79,6.94-1.36-.35,4.02-15.51,1.36.35-1.85,7.14,1.87.48,1.33-5.15,1.36.35-1.33,5.15,1.74.45,1.04-5.94,1.45.27-.44,2.46,1.93,1.99,1.13-4.36c-3.03-.83-6.69-2.6-9.08-4.64l.93-1.17c2.4,2.03,5.91,3.65,8.96,4.44l6.94,1.79-4,15.45-4.56-1.18,3.62-13.97-1.42-.37-3.86,14.93-1.38-.36ZM202,137.8l1.31-.79.5.84,1.12-4.34-1.8-1.9-1.12,6.18ZM207.44,141.03l1.81.47,3.23-12.49-1.81-.47-3.23,12.49Z"/>
      <path fill="#ccc" d="M187.22,151.6l1.4.49c-.81,2.25-.68,5.48,1.7,6.72,1.58.82,3.21-.13,4.32-1.27-2.79-2.77-5.42-7.78-3.41-11.65.87-1.67,2.55-1.86,4.13-1.04,2.6,1.35,3.23,4.87,3.01,7.52.85.45,1.66.89,2.5,1.37l2.05-4.08,1.34.65-2.1,4.17c.86.52,1.74,1.05,2.54,1.65l-.9,1.18c-.71-.54-1.53-1.01-2.3-1.48-.87,1.81-1.75,3.72-2.25,5.68l-1.44-.37c.55-2.1,1.46-4.13,2.4-6.07-.7-.39-1.39-.77-2.1-1.14-.2.89-.49,1.75-.91,2.57-1.35,2.6-4.58,5.22-7.59,3.65-3.07-1.6-3.46-5.6-2.39-8.57ZM196.91,151.63c.05-1.86-.4-4.5-2.23-5.46-.87-.45-1.61-.53-2.12.41-.46.84-.58,1.94-.52,2.9,1.66.63,3.28,1.38,4.88,2.16ZM196.74,153.22c-1.44-.73-2.88-1.41-4.36-2.01.59,1.87,1.82,3.76,3.2,5.16.62-.96.97-2.05,1.17-3.15Z"/>
      <path fill="#ccc" d="M176.3,175.07c-.98-1.75-1.75-4.42-.33-6.16,1.08-1.33,2.51-1.39,3.71-.41l1.66,1.35c1.53,1.24,2.58,1.51,3.18.78.53-.65.73-1.79.52-3.39-.22-1.72-1.07-3.9-2.34-6.75l1.41-.67,7.13,15.77-1.45.68-3.23-7.25c-.08,1.07-.37,1.92-.87,2.53-1.28,1.58-3.18,1.12-4.6-.02l-2.46-1.95c-.5-.41-1.07-.28-1.49.24-.94,1.15-.07,3.34.55,4.5l-1.35.73Z"/>
      <path fill="#ccc" d="M163.12,188.06l.53.49c.6,0,1.34-.28,2.26-.85l.64,1.05c-.57.33-1.09.59-1.6.76,1.63,1.07,3.34,1.84,5.16,2.33l-.37,1.44c-2.62-.7-5.74-2.26-7.68-4.17l1.06-1.05ZM165.87,178.51c.79-.65,1.65-1,2.53-1.01l.03,1.52c-.57.03-1.1.25-1.6.66-1.07.88,1.86,5.79,2.52,6.6,1.15,1.41,2.16,1.75,3.02,1.05.23-.19.77-.74,1.64-1.64-1.38-3.47-2.77-6.99-3.82-10.6l1.46-.43c.62,2.12,1.8,5.38,3.52,9.84l2.33-2.48,1.12,1.04c-1,1.06-1.94,2.07-2.83,2.99.34.88.87,2.19,1.59,3.93l-1.39.62c-.27-.56-.71-1.66-1.36-3.32-.58.61-.98.99-1.17,1.15-1.82,1.48-3.74.73-5.14-.99-1.35-1.65-4.68-7.08-2.44-8.91Z"/>
      <path fill="#ccc" d="M147.02,202.66c.65-.48,1.5-1.07,2.58-1.75-.26-.45-.52-.91-.75-1.33-1.86-3.54-2.33-6.89-1.46-10.04l1.47.41c-.77,2.77-.32,5.75,1.35,8.94.2.39.43.77.67,1.19,2.21-1.37,3.85-2.35,4.95-2.92l.69,1.32c-1,.53-2.62,1.49-4.87,2.88.68,1.16,1.5,2.45,2.42,3.89l-1.31.83-2.4-3.9c-1.03.66-1.84,1.22-2.43,1.68l-.9-1.18ZM155,192.3c.14-1.9.09-3.22-.19-3.97l-.53-.34.71-1.34c1.97,1.1,3.74,3.26,5.35,6.47,1.15,2.28,1.98,4.73,2.9,7.11l-1.44.54c-.87-2.33-1.76-4.71-2.82-6.96-.75-1.57-1.62-2.86-2.57-3.95.03.74,0,1.58-.08,2.55l-1.33-.11Z"/>
      <path fill="#ccc" d="M125.36,200.18l1.18-.99,7.43,9.17-1.18.97-7.42-9.15ZM128.99,209.32c1.13-.32,2.29.33,2.62,1.46.32,1.11-.33,2.27-1.46,2.59-1.11.32-2.27-.33-2.59-1.44-.32-1.13.33-2.29,1.44-2.61ZM129.92,212.61c.73-.21,1.1-.88.89-1.61s-.89-1.12-1.61-.91c-.73.21-1.07.89-.87,1.62s.86,1.11,1.58.9ZM137.79,207.64c-.24-3.98.29-8.78,1.76-12.51l1.48.54c-1.32,3.38-1.91,8.21-1.66,11.85l-1.58.12Z"/>
      <path fill="#ccc" d="M107.07,201.24l1.03-1.15,5.69,5.13c2.02-2.5,4.38-4.48,7.08-5.96l.71,1.33c-4.52,2.47-8.04,6.61-10.05,11.34l9.44-.69.11,1.5-10.59.77-.81-.99c.58-1.89,1.62-3.92,3.17-6.09l-5.78-5.21Z"/>
      <path fill="#ccc" d="M87.09,210.39c.93-2.14,2.42-4.23,4.5-6.29l-2.06-1.91,1.02-1.07,2.11,1.98c2.32-1.98,4.91-3.34,7.77-4.09l.39,1.44c-2.56.66-4.89,1.91-7.02,3.7l3.05,2.86-1,1.08-3.15-2.94c-1.5,1.48-2.77,3.13-3.78,4.94l6.96.89c1.43-1.44,2.95-2.77,4.58-3.95l.88,1.21c-3.01,2.23-5.2,4.42-7.11,6.97l-1.24-.86c.39-.56.94-1.23,1.61-2.01l-6.92-.89-.6-1.07Z"/>
      <path fill="#ccc" d="M70.53,190.57l1.54.53-.27.79,8.56,2.95.28-.81,1.54.53-2.28,6.6c1.61-.18,3.22-.26,4.79-.25v1.57c-3.06-.01-6.04.31-8.93,1l2.1,3.23-1.33.83-2.37-3.66c-2.29.65-4.12,1.41-5.89,2.36l7.53,2.6c1.86-.78,3.78-1.33,5.62-1.78l.4,1.49c-3.46.84-6.25,2.05-8.84,3.53l-.89-1.33c.45-.27,1.09-.58,1.81-.93l-7.76-2.68-.3-1.39c2.82-1.95,6.67-3.35,11.38-4.19l-9.36-3.21,2.69-7.78ZM71.32,193.3l-1.43,4.14,8.56,2.95,1.43-4.14-8.56-2.95Z"/>
      <path fill="#ccc" d="M45.44,191.7l7.3,4.48,2.08-3.39-5.3-3.25,4.97-8.11,1.34.82-.57.93,9.1,5.59.6-.98,1.32.81-5.01,8.16-5.12-3.14-2.08,3.39,7.36,4.51-.77,1.25-7.35-4.51-2.03,3.3-1.34-.82,2.03-3.3-7.3-4.48.77-1.25ZM54.49,184.45l-2.85,4.64,9.1,5.59,2.85-4.64-9.1-5.59Z"/>
      <path fill="#ccc" d="M31.12,174.3l2.88,2.77-.11-4.9,1.47.02.05,2,3.3,2.68,1.34-1.39-3.74-3.6.97-1.01,3.74,3.6,1.34-1.39-5.16-4.97.97-1.01,11.54,11.11-.97,1.01-5.31-5.11-1.34,1.39,3.83,3.69-.97,1.01-3.83-3.69-1.25,1.3,4.67,3.82-.94,1.13-1.93-1.59-2.68.7,3.24,3.12c2.21-2.23,5.54-4.55,8.5-5.63l.56,1.38c-2.94,1.09-6.08,3.36-8.26,5.62l-4.97,5.16-11.5-11.07,3.27-3.4,10.4,10.01,1.02-1.06-11.11-10.69.99-1.03ZM29.94,179.15l-1.29,1.34,9.3,8.95,1.29-1.34-9.3-8.95ZM35.42,176l.04,1.52-.98.02,3.23,3.11,2.54-.64-4.83-4.01Z"/>
      <path fill="#ccc" d="M30.62,156.37l-1.11.98c-1.56-1.81-4.45-3.27-6.69-1.8-1.49.98-1.46,2.86-1,4.39,3.78-1.08,9.44-.93,11.83,2.71,1.03,1.58.38,3.13-1.11,4.11-2.45,1.61-5.83.44-8.03-1.05-.81.53-1.59,1.02-2.42,1.51l2.56,3.78-1.22.85-2.61-3.87c-.88.5-1.77,1.01-2.68,1.41l-.59-1.36c.82-.36,1.63-.84,2.42-1.28-1.16-1.65-2.39-3.34-3.86-4.74l1.02-1.07c1.56,1.5,2.89,3.29,4.12,5.06.68-.42,1.35-.84,2.02-1.27-.68-.61-1.29-1.28-1.8-2.05-1.61-2.45-2.32-6.55.52-8.41,2.89-1.9,6.58-.28,8.64,2.1ZM24.55,163.88c1.34-.9,2.63-1.83,3.89-2.82-1.91-.4-4.17-.25-6.06.27.53,1,1.31,1.85,2.18,2.56ZM25.86,164.8c1.6.95,4.12,1.86,5.86.72.82-.54,1.25-1.15.68-2.05-.51-.82-1.41-1.46-2.28-1.86-1.36,1.14-2.8,2.19-4.27,3.2Z"/>
      <path fill="#ccc" d="M15.49,135.38c2,0,4.71.64,5.54,2.72.63,1.6-.02,2.87-1.46,3.44l-1.99.79c-1.83.72-2.58,1.52-2.23,2.39.31.78,1.2,1.51,2.7,2.11,1.61.65,3.92.97,7.03,1.25l-.11,1.55-17.24-1.5.11-1.6,7.9.73c-.89-.59-1.49-1.26-1.78-2-.75-1.89.58-3.32,2.27-4.01l2.91-1.2c.6-.24.77-.8.52-1.42-.55-1.38-2.88-1.7-4.2-1.72l.02-1.54Z"/>
      <path fill="#ccc" d="M17.62,124.59c.17,1.01.06,1.93-.36,2.7l-1.34-.73c.25-.51.32-1.08.21-1.72-.24-1.36-5.95-1.22-6.98-1.05-1.8.31-2.59,1.02-2.4,2.12.05.29.26,1.04.62,2.23,3.7.51,7.45,1.03,11.11,1.88l-.34,1.48c-2.15-.5-5.57-1.08-10.3-1.77l1.01,3.25-1.45.46c-.43-1.39-.85-2.7-1.21-3.94-.94-.14-2.33-.32-4.2-.55l.14-1.51c.62.04,1.8.2,3.56.45-.25-.81-.38-1.34-.42-1.59-.4-2.31,1.2-3.61,3.39-3.99,2.11-.36,8.47-.59,8.96,2.26ZM10.66,117.5l-.68.22c-.29.52-.41,1.3-.37,2.38l-1.23.04c0-.66.02-1.24.12-1.76-1.74.9-3.25,2.01-4.57,3.34l-1.07-1.03c1.9-1.94,4.79-3.89,7.4-4.64l.4,1.44Z"/>
      <path fill="#ccc" d="M10.96,108.33c1.58,1.05,2.76,1.66,3.55,1.79l.55-.3.82,1.28c-1.92,1.18-4.68,1.66-8.26,1.49-2.55-.12-5.09-.6-7.62-.97l.23-1.52c2.46.39,4.96.78,7.45.96,1.74.12,3.29,0,4.7-.3-.66-.33-1.38-.78-2.18-1.32l.75-1.11ZM5.85,96.3c.1.8.2,1.83.26,3.11.52,0,1.05,0,1.53,0,4,.12,7.15,1.35,9.46,3.66l-1.08,1.08c-2.03-2.03-4.85-3.1-8.45-3.21-.44-.01-.88,0-1.36,0,.11,2.6.16,4.51.12,5.75l-1.49-.05c.03-1.13-.01-3.02-.12-5.66-1.34.02-2.87.1-4.57.2l-.08-1.55,4.57-.17c-.07-1.22-.16-2.21-.27-2.94l1.47-.21Z"/>
      <path fill="#ccc" d="M8.84,77.35c-.27,1.14-1.41,1.84-2.55,1.57-1.12-.27-1.82-1.4-1.55-2.54.27-1.12,1.4-1.82,2.52-1.55,1.14.27,1.84,1.41,1.57,2.53ZM6,85.85c3.59,1.74,7.51,4.54,10.05,7.65l-1.19,1.03c-2.3-2.81-6.23-5.68-9.52-7.24l.67-1.44ZM5.52,76.56c-.17.73.23,1.39.96,1.56.73.17,1.41-.22,1.58-.96.17-.73-.25-1.37-.99-1.55s-1.39.21-1.56.94ZM18.59,78.66l.29,1.51-11.63,1.99-.27-1.51,11.61-2Z"/>
      <path fill="#ccc" d="M26.6,62.2l.5,1.46-7.26,2.45c1.19,2.99,1.76,6.01,1.73,9.09l-1.51-.04c.06-5.16-1.83-10.25-4.97-14.32l-4.02,8.57-1.37-.64,4.51-9.62,1.26-.22c1.37,1.43,2.62,3.34,3.76,5.74l7.37-2.49Z"/>
      <path fill="#ccc" d="M28.47,40.29c1.41,1.86,2.49,4.19,3.26,7.01l2.68-.85.43,1.42-2.76.86c.58,3,.5,5.92-.26,8.78l-1.45-.38c.68-2.55.75-5.2.23-7.94l-4,1.25-.44-1.4,4.11-1.3c-.55-2.03-1.36-3.95-2.44-5.72l-4.2,5.62c.55,1.96.96,3.93,1.19,5.94l-1.49.17c-.46-3.72-1.3-6.7-2.57-9.61l1.36-.66c.3.62.61,1.42.96,2.39l4.18-5.59h1.23Z"/>
    </g>
  </g>
</svg>