<?xml version="1.0" encoding="UTF-8"?>
<svg id="_レイヤー_2" data-name="レイヤー 2" xmlns="http://www.w3.org/2000/svg" viewBox="0 0 857.42 14.17">
  <defs>
    <style>
      .cls-1 {
        fill: #aaa;
      }
    </style>
  </defs>
  <g id="_レイヤー_2-2" data-name=" レイヤー 2">
    <g id="Layer_1" data-name="Layer 1">
      <g>
        <g>
          <path class="cls-1" d="M831.32,7.08h-.04c-1.39-.55-20.02-4.96-28.25-5.62-2.89-.23-6.73-.06-9,2-1.11,1-1.56,2.31-1.52,3.63-.05,1.32.41,2.62,1.52,3.63,2.27,2.06,6.11,2.23,9,2,8.23-.66,26.86-5.07,28.25-5.62h.04-.02.02v-.02Z"/>
          <path class="cls-1" d="M481.94,11.6V2.57l326.48,2.88v3.06l-326.48,3.08h0ZM485,5.65v2.86l156.29-1.48-156.29-1.38Z"/>
          <path class="cls-1" d="M475.32,14.17l-42.97-7.08,42.97-7.09v14.17Z"/>
          <path class="cls-1" d="M852.49,1.99c-6.55,0-6.57,10.19,0,10.19s6.56-10.19,0-10.19Z"/>
        </g>
        <g>
          <path class="cls-1" d="M26.08,7.08h.04c1.39-.55,20.02-4.96,28.25-5.62,2.89-.23,6.73-.06,9,2,1.11,1,1.56,2.31,1.52,3.63.05,1.32-.41,2.62-1.52,3.63-2.27,2.06-6.11,2.23-9,2-8.23-.66-26.86-5.07-28.25-5.62h-.04.02-.02v-.02Z"/>
          <path class="cls-1" d="M375.46,11.6L48.99,8.51v-3.06l326.48-2.88v9.03h-.01ZM216.12,7.04l156.29,1.48v-2.86l-156.29,1.38h0Z"/>
          <path class="cls-1" d="M382.09,14.17V0l42.97,7.08-42.97,7.08h0Z"/>
          <path class="cls-1" d="M4.92,1.99c6.55,0,6.57,10.19,0,10.19S-1.64,1.99,4.92,1.99Z"/>
        </g>
      </g>
    </g>
  </g>
</svg>