<?xml version="1.0" encoding="UTF-8"?>
<svg id="_レイヤー_2" data-name="レイヤー_2" xmlns="http://www.w3.org/2000/svg" viewBox="0 0 469.32 79.14">
  <defs>
    <style>
      .cls-1 {
        fill: #111;
      }
    </style>
  </defs>
  <g id="_レイヤー_4" data-name="レイヤー_4">
    <path class="cls-1" d="M146.84,23.07c-.16-.17-.31-.34-.47-.5-2.71-3.07-5.54-5.72-8.03-7.68-2.33-1.83-4.88-3.34-7.56-4.62-5.63-3.35-12.01-5.26-18.69-6.23C102.38,1.34,92.41.18,82.26.02,61.87-.32,2.15,4.37,1.91,7.23c-.62,7.34,61.92,3.63,77.59,4.2,10.49.39,21.92,2.99,22.29,5.22.72,8.52-14.77,5.5-27.9,6.04-66.04,2.69-99.9,12.93-50,13.81,17.99-.46,36.93.55,55.14-1.36,7.15-.76,16.56-1.69,23.8-.98,6.04.58,12.14,4.01,5.79,8.13-.66.43-16.52,2.85-22.77,2.78-.75,0-12.54.14-12.96.38-24.61-.26-43.31-1.36-67.65,2.2-4.78.69-6.67,5.34,5.97,6.34,16.92,1.34,35.79,1.6,52.77,1.86,14.98.23,37.58-3.64,39.29,2.03-8.99,6.15-16.13,5.56-26.85,6.66-12.56,1.29-40.92,2.83-53.48,3.91-20.23,1.77-23.93,6.45-1.57,9.03,27.09,3.13,71.38,1.93,98.19-4.64,16.73-4.1,29.9-17.06,46.45-21.93,17.53-5.17,38.22-3.86,56.43-5.76,2.15-.22,4.31-.42,6.45-.63,17.32,1.06,34.64-.17,51.97-1.38,21.97.34,43.36,2.87,65.19,8.88,20.03,5.49,41.11,9.19,61.96,7.77,7.96-.55,16.42-2.15,24.16-5.15,15.49-3.7,30.35-11.77,36.93-26.54,1.19-2.68-2.92-6.06-5.62-5.54-.95-1.93-2.52-3.87-4.52-5.69-6.8-6.25-14.92-10.69-24.39-10.81-16.95-.21-34,2.62-50.9,5.98-7.83-3.09-25.28,2.7-30.21,3.68-11.77,2.36-23.49,4.79-35.28,6.86-46.31,2.86-93.21-3.99-139.11,2.48-5.79.27-11.51.93-17.13,2.12-5.08-1.22-10.11-2.65-15.12-4.13ZM217.24,33.76c2.18.2,4.34.39,6.51.57-5.47.29-10.93.61-16.39,1.02-.44.04-.88.06-1.33.09-10.59-1.06-21.66-1.79-32.18-.17.27-.44.28-1.07.1-1.75,3.2-.56,6.4-1.06,9.6-1.48,11.28-.39,22.73.69,33.69,1.72ZM391.97,29.33c3.6-.61,7.25-1.17,10.9-1.59,4.1-.47,8.27-.49,12.44-.37-1.42.24-2.86.49-4.29.74-2.53.42-5.04.78-7.57,1.1-3.83.06-7.66.09-11.47.11ZM448.81,23.26c-.39-.13-.73-.25-1.05-.35-.15-.64-.5-1.3-.95-1.89,1.88.66,3.38,1.65,3.79,3.58-.62-.66-1.29-1.15-1.79-1.34ZM168.49,35.87c.74-.05,1.45-.07,2.11-.01-.15.03-.31.07-.46.11-.55-.03-1.1-.06-1.65-.09ZM146.47,33.45c-.01.49.14,1,.42,1.52.04.16.05.33.09.49-.2.13-.39.27-.58.41-.34-1.55-.76-3.08-1.27-4.6.39.55.77,1.1,1.14,1.66.07.18.13.34.2.53ZM128.03,46.07s-.08-.02-.11-.03c.05-.02.1-.04.15-.06-.01.04-.02.07-.03.09ZM123.75,31.82c1.88.55,3.68,1.24,5.39,2.05.02.07.03.15.04.22.05.43.06.87.08,1.3-1.1,1.54-2.78,2.82-4.86,3.89-.37-2.5-.96-4.99-1.71-7.43.35-.01.71-.02,1.06-.04ZM132.34,55.8c.17-.28.3-.58.46-.87.27-.03.54-.05.81-.07.24.17.5.33.75.47-.51.59-1.06,1.16-1.67,1.75-.97.91-2.02,1.72-3.11,2.49,1-1.15,1.94-2.38,2.76-3.77ZM356.6,40.92c.18.27.38.53.59.76-2.03-.24-4.05-.52-6.05-.85,1.81.03,3.64.05,5.46.09ZM375.66,42.11c6.5-.44,13.02-.68,19.53-.5-1.47.24-2.86.39-3.97.54-3.81.5-7.66.73-11.51.79-1.37-.24-2.71-.53-4.05-.83ZM442.88,38.4c-1.06.96-2.12,1.83-3.14,2.62.45-.71.86-1.44,1.23-2.19.63-.14,1.28-.27,1.91-.43ZM440.03,19.45c-.61.14-1.23.26-1.85.37-.25-.25-.5-.5-.76-.73.88.1,1.74.23,2.61.37ZM355.92,30.68c-3.34.24-6.67.46-10.01.7,2.87-1.16,5.92-2.14,9.05-2.98.09.72.44,1.53.97,2.28ZM66.89,28.39c4.84-.34,9.7-.67,14.55-.97.2.27,1.57,3.1,1.82,3.34-10.4.78-21.93-1.2-32.29-1.3,5.31-.33,10.62-.7,15.92-1.06ZM327.08,40.42c.89.02,1.75.03,2.64.04.25.24.51.46.8.68-.29-.06-.58-.14-.87-.2-.85-.19-1.7-.35-2.56-.52ZM411.95,41.25s.04-.07.05-.12c5.48.01,11.1-.07,16.64-.52-5.39,3.67-13.3,4.71-20.55,4.81,1.59-1.14,2.91-2.51,3.85-4.18ZM332.06,29.14c-1.56,1.03-2.79,2.1-3.62,3.23-8.52.21-17.05.44-25.57.72-1.26-.01-2.52-.03-3.78-.04,5.78-.71,11.54-1.55,17.29-2.47,5.25-.3,10.48-.8,15.68-1.44ZM364.61,49.33c1.14.09,2.26.17,3.38.27,4.45.34,11.12.97,17.99.88,2.03.31,4.04.6,6.01.85,6.33.82,13.45,1.53,20.45,1.26-15.36,2.55-31.83.23-47.83-3.26Z"/>
  </g>
</svg>