<?xml version="1.0" encoding="UTF-8"?>
<svg id="_レイヤー_2" data-name="レイヤー_2" xmlns="http://www.w3.org/2000/svg" viewBox="0 0 744.73 541.03">
  <g id="_レイヤー_4" data-name="レイヤー_4">
    <g>
      <path fill="#ccc" d="M84.83,194.08l-3.65,7.31c-18.1,35.07-30.19,60.07-36.28,75-9.4,23.38-14.7,37.01-15.92,40.91-3.65,10.88-8.44,16.32-14.36,16.32-4.18,0-7.74-1.79-10.7-5.36-2.61-3.08-3.92-6.41-3.92-9.98,0-13.96,19.23-58.04,57.68-132.23-6.96-4.87-10.44-9.74-10.44-14.61,0-3.73,1.74-6.98,5.22-9.74,2.96-2.27,6.18-3.41,9.66-3.41,2.44,0,5.65.57,9.66,1.7,28.36-50.32,44.98-82.39,49.85-96.19-4.35,2.28-9.92,5.52-16.7,9.74-3.83,2.28-7.22,3.41-10.18,3.41-3.31,0-6-1.54-8.09-4.63-1.39-2.11-2.09-4.3-2.09-6.57,0-7.63,7.05-15.83,21.14-24.59,11.31-6.98,21.84-12.82,31.58-17.53,1.57-3.9,2.52-6.57,2.87-8.04,1.74-6.17,3.57-10.31,5.48-12.42,1.91-2.11,4.87-3.17,8.87-3.17,8.18,0,12.27,4.22,12.27,12.66,12.01-3.25,22.62-5.68,31.84-7.31,9.22-1.62,17.05-2.44,23.49-2.44,16.88,0,31.15,6.01,42.8,18.02,10.96,11.36,16.44,24.11,16.44,38.23,0,24.51-10.96,49.03-32.89,73.54-18.79,20.78-42.11,37.01-69.95,48.7-24.01,9.9-48.02,14.85-72.04,14.85-5.74,0-12.96-.73-21.66-2.19ZM157.91,45.54c-5.74,16.07-15.14,36.69-28.19,61.85-16.01,30.52-26.36,50.49-31.06,59.9,9.57,1.62,16.27,2.44,20.1,2.44,19.84,0,42.98-7.46,69.43-22.4,25.58-14.61,45.59-32.71,60.03-54.3,8.87-13.15,13.31-24.84,13.31-35.07,0-9.25-3.35-16.19-10.05-20.82-6.7-4.63-16.83-6.94-30.41-6.94-10.27,0-20.66,1.26-31.19,3.77-10.53,2.52-21.19,6.37-31.97,11.57Z"/>
      <path fill="#ccc" d="M139.17,247.79c13.25-3.27,21.74,2.63,25.47,17.71,4.95,20.06,1.29,47.92-10.99,83.59-13.43,38.68-30.24,60.51-50.44,65.5-9.37,2.31-17.25-.06-23.62-7.12-3.27-3.51-5.61-8.13-7.03-13.86-4.77-19.3-2.83-42.02,5.8-68.15,8.07-24.23,19.65-44.37,34.72-60.41,8.83-9.38,17.52-15.13,26.09-17.24ZM135.08,339.52c-4.79-2.02-7.38-3.85-7.79-5.51-.3-1.21,1.47-5.16,5.3-11.87,10.78-18.82,15.02-32.91,12.71-42.26-.3-1.21-1-2.31-2.11-3.32-1.85-1.94-4.15-2.57-6.9-1.9-5.17,1.28-11.61,7.83-19.32,19.65-9.95,15.26-16.73,30.13-20.36,44.63-4.31,16.58-5.27,29.7-2.88,39.35.63,2.57,1.92,4.65,3.86,6.25,2.77,2.2,5.77,2.89,9.01,2.09,7.76-1.92,14.74-9.4,20.95-22.45,2.76-5.48,4.76-10.93,5.99-16.36,1.23-5.42,1.75-8.19,1.55-8.3Z"/>
      <path fill="#ccc" d="M236.94,251c5.66-5.56,9.91-9.49,12.78-11.8,5.88-4.65,11.97-7.76,18.28-9.31,7.11-1.76,12.92-1.15,17.42,1.81,4.5,2.97,7.71,8.29,9.61,15.98,2.61,10.56,1.78,24.2-2.49,40.93-6.51,26.41-16.83,48.48-30.97,66.21-11.91,14.94-24.34,24.01-37.26,27.2-7.11,1.76-14.77.93-22.99-2.48-11.82,47.23-21.1,94.72-27.82,142.46-1.14,11.32-4.22,17.6-9.24,18.84-2.42.6-5.22-.31-8.39-2.73-2.3-1.67-3.77-3.79-4.4-6.35-2.01-8.14,2.12-37.24,12.39-87.29,15.91-77.2,33.01-142.3,51.3-195.3,3.76-11.16,6.24-18.82,7.45-22.96,3.23-11.2,7.52-17.46,12.85-18.77s9.01,1.06,10.53,7.24c.86,3.47.07,8.62-2.35,15.46-2.83,8.7-5.05,15.65-6.68,20.85ZM205.58,358.34c4.41,2.59,9.29,3.23,14.62,1.91,15.03-3.71,28.6-20.26,40.72-49.66,4.52-10.87,7.6-21.64,9.26-32.28,1.33-8.49,1.52-14.69.55-18.61-.67-2.71-1.86-4.58-3.57-5.6-1.71-1.02-4.02-1.17-6.93-.45-7.6,1.88-15.68,9.07-24.25,21.59-8.16,12.09-14.96,27.93-20.41,47.52-4.98,18.03-8.31,29.89-9.99,35.58Z"/>
      <path fill="#ccc" d="M335.88,307.91l1.01,4.07c.82,3.32,2.42,5.97,4.79,7.94,5.42,4.58,12.73,5.73,21.95,3.46,20.2-4.99,39.98-25.23,59.33-60.73,3.46-6.13,6.8-9.6,10.03-10.4,1.78-.44,3.6,0,5.46,1.29,1.27.97,2.03,1.98,2.29,3.03,1.45,5.88-3.85,17.75-15.9,35.6-9.4,14-20.12,26.17-32.14,36.5-12.02,10.33-23.94,16.95-35.73,19.87-12.12,2.99-22.62,1.43-31.51-4.69-6.03-4.27-10.2-11.08-12.51-20.43-6.29-25.48.39-53.61,20.05-84.39,15.93-25.05,31.65-39.5,47.17-43.33,4.2-1.04,8.3-.77,12.29.8,4.98,2.13,8.11,5.76,9.38,10.88,1.97,7.99.43,18.77-4.61,32.34-10.36,28.16-30.81,50.89-61.35,68.19ZM336.85,288.95c10.42-6.41,18.3-12.68,23.65-18.8,9.3-10.94,16-22.35,20.09-34.24,1.53-4.22,1.94-7.76,1.23-10.62-.74-3.01-2.65-4.14-5.72-3.39-4.2,1.04-9.46,5.46-15.76,13.25-11.33,13.84-19.16,31.77-23.49,53.8Z"/>
      <path fill="#ccc" d="M535.32,237.52c-10.47,19.39-19.04,33.98-25.71,43.79-13.24,19.27-25.52,30.3-36.84,33.1-5.49,1.36-10.32.55-14.49-2.42-3.17-2.42-5.31-5.89-6.43-10.41-4.02-16.28.98-40.48,14.99-72.58,14.23-32.63,26.03-50.11,35.41-52.42,2.58-.64,5.11-.14,7.57,1.49,2.19,1.22,3.56,2.96,4.12,5.22.82,3.32.61,6.45-.64,9.4-1.24,2.95-5.17,9.8-11.77,20.55-7.01,11.17-13.11,22.92-18.3,35.24-5.98,13.96-8.3,23.65-6.96,29.08.78,3.17,2.79,4.35,6.02,3.55,6.46-1.6,16.55-12.81,30.27-33.64,8.58-13.16,15.15-24.06,19.7-32.7.92-1.82,4.81-10.39,11.66-25.68,6.26-13.54,10.17-21.63,11.75-24.26,3.54-6.47,7.42-10.23,11.62-11.27,2.58-.64,5.19-.16,7.81,1.43,2.42,1.48,3.95,3.5,4.59,6.07,1.08,4.38-.35,12.49-4.28,24.33-4.67,14.43-8.89,27.87-12.67,40.33-6.01,19.4-10.12,36.42-12.34,51.04,8.96-8.13,16.72-17.33,23.28-27.59,11.19-17.16,17.58-29.46,19.18-36.9,1.58-6.79,3.99-10.58,7.22-11.38,4.52-1.12,7.31.44,8.35,4.66,1.97,7.99-2.36,21.7-12.99,41.13-12.76,23.31-30.27,44.76-52.53,64.33-6.05,33.81-12.66,62.24-19.83,85.29-13.5,42.53-32.29,66.77-56.37,72.72-9.85,2.43-18.65.85-26.38-4.76-6.03-4.27-10.07-10.55-12.11-18.85-5.81-23.52,5.94-51.95,35.27-85.27,8.56-9.79,21.67-22.63,39.35-38.52,7.16-6.41,12.75-11.55,16.77-15.42,1.2-7.65,3.37-17.95,6.52-30.89,3.57-14,6.63-26.6,9.18-37.79ZM512.67,337.43c-15.12,12.37-29.79,28.32-44,47.83-14.26,20-19.74,36.71-16.42,50.13.71,2.86,2.19,5.06,4.45,6.58,3.09,2.12,6.58,2.69,10.46,1.74,12.12-2.99,22.61-18.15,31.47-45.45,1.46-4.52,4.86-19.2,10.21-44.04,1.14-5.08,2.42-10.68,3.83-16.78Z"/>
      <path fill="#ccc" d="M639.63,232.87l1.01,4.07c.82,3.32,2.42,5.97,4.79,7.94,5.42,4.58,12.73,5.73,21.95,3.46,20.2-4.99,39.98-25.23,59.33-60.73,3.46-6.13,6.8-9.6,10.03-10.4,1.78-.44,3.6,0,5.46,1.29,1.27.97,2.03,1.98,2.29,3.03,1.45,5.88-3.85,17.75-15.9,35.6-9.4,14-20.12,26.17-32.14,36.5-12.02,10.33-23.94,16.95-35.73,19.87-12.12,2.99-22.62,1.43-31.51-4.69-6.03-4.27-10.2-11.08-12.51-20.43-6.29-25.48.39-53.61,20.05-84.39,15.93-25.05,31.65-39.5,47.17-43.33,4.2-1.04,8.3-.77,12.29.8,4.98,2.13,8.11,5.76,9.38,10.88,1.97,7.99.43,18.77-4.61,32.34-10.36,28.16-30.81,50.89-61.35,68.19ZM640.61,213.91c10.42-6.41,18.3-12.68,23.65-18.8,9.3-10.94,16-22.35,20.09-34.24,1.53-4.22,1.94-7.76,1.23-10.62-.74-3.01-2.65-4.14-5.72-3.39-4.2,1.04-9.46,5.46-15.76,13.25-11.33,13.84-19.16,31.77-23.49,53.8Z"/>
    </g>
  </g>
</svg>