<?xml version="1.0" encoding="UTF-8"?>
<svg id="_レイヤー_2" data-name="レイヤー_2" xmlns="http://www.w3.org/2000/svg" viewBox="0 0 814.81 375.48">
  <g id="_レイヤー_4" data-name="レイヤー_4">
    <g>
      <path fill="#ccc" d="M88.92,248.31c2.06-7.42,6.64-25.14,13.73-53.16,6.05-23.94,16.72-59.11,32.04-105.51,8.9-26.91,17.44-49.83,25.61-68.77,4.87-11.38,10.32-18.09,16.35-20.14,3.46-1.17,6.77-.93,9.9.72,2.7,1.23,4.56,3.32,5.56,6.27,1.48,4.36,1.18,12.12-.91,23.27-.38,2.27-2.48,13.36-6.32,33.26-6.75,35.77-10.97,61.1-12.65,75.97-4.63,40.77-6.59,74.85-5.89,102.22.51,16.28,1.94,27.88,4.29,34.81.52,1.54,1.19,3.1,2.02,4.68,2.34,4.79,3.66,7.63,3.96,8.53,1.26,3.72,1.02,7.67-.71,11.83-1.44,3.78-3.7,6.19-6.77,7.23-3.59,1.22-7.26.1-11.01-3.35-3.01-2.55-5.5-6.72-7.46-12.49-12.31-36.31-6.23-117.92,18.26-244.84-20.21,44.62-38.85,105.03-55.94,181.21-3.81,16.6-7.65,28.28-11.51,35.02-3.78,6.58-8.11,10.69-12.98,12.34s-9.19.75-12.93-2.7c-2.5-2.3-4.38-5.31-5.64-9.03-10.88-32.08-8.95-89.03,5.79-170.86-8.48,17.61-15.72,37.17-21.74,58.66-10.76,39.56-18.94,79.17-24.51,118.84-2.56,19.04-5,44.12-7.32,75.23-1.07,15.82-5.39,25.01-12.97,27.58-1.92.65-3.81.36-5.66-.87-1.42-.81-2.41-2.05-2.98-3.71-.83-2.44-.71-9.92.33-22.43,2-27.43,3.91-47.32,5.73-59.67,9.35-63.12,24.87-124.75,46.53-184.89,9.08-25.11,15.63-41.64,19.67-49.59,4.24-8.16,8.41-12.94,12.52-14.33,2.57-.87,5.46-.56,8.68.92,3.86,1.69,6.39,4.27,7.56,7.74,1.31,3.85.76,11.11-1.62,21.8-6.87,30.37-11.47,63.41-13.82,99.11-1.59,32.02-.66,58.38,2.79,79.1Z"/>
      <path fill="#ccc" d="M229.53,165.04c2.18-.74,4.26-.51,6.24.67,1.5,1.07,2.5,2.3,2.98,3.71.78,2.31.23,6.79-1.67,13.44-6.34,25.19-10.07,45.41-11.19,60.67-1.38,15.78-1.91,31.7-1.62,47.76.13,7.11-2,11.41-6.36,12.89-2.57.87-4.97.54-7.2-.99-1.98-1.19-3.29-2.75-3.94-4.67-1.31-3.85-1.55-18.07-.74-42.67.59-19.37,4.54-41.88,11.86-67.55,2.31-8.37,4.23-14.1,5.76-17.19,1.48-3.22,3.44-5.24,5.88-6.07ZM241.88,81.23c5.77-1.96,9.66.02,11.66,5.92,1.83,5.39,1.03,12.31-2.4,20.77-3.26,8.12-7.39,13.02-12.39,14.72-2.44.83-4.73.61-6.88-.67-2.1-1.14-3.57-2.94-4.4-5.38-2.09-6.16-.91-13.86,3.54-23.09,3.26-6.83,6.88-10.92,10.86-12.27Z"/>
      <path fill="#ccc" d="M280.87,242.66c-.38,9.33-.5,16.8-.36,22.42.14,5.62.54,9.43,1.23,11.44.9,2.65,2.62,3.54,5.15,2.68,3.81-1.29,7.51-6.56,11.1-15.8,1.67-4.46,3.77-12.19,6.29-23.19,1-4.35,2.72-6.94,5.15-7.76,2.75-.93,4.58-.07,5.47,2.57,1.54,4.55-.57,15.53-6.35,32.94-5.98,18.19-13.63,28.86-22.94,32.02-4.02,1.36-7.87.78-11.56-1.74-2.62-1.82-4.53-4.48-5.71-7.97-2.01-5.92-2.99-14.73-2.95-26.43.04-11.69,1.06-26.25,3.06-43.68,5.24-44.36,13.14-82.13,23.68-113.31,8.38-25.02,17.55-39.22,27.49-42.59,3.17-1.08,6.18-.74,9.01,1.01,2.94,1.72,4.95,4.16,6.03,7.33,5.02,14.81.16,43.95-14.59,87.41-6.65,19.36-15.62,39.51-26.92,60.44-2.98,5.49-7.07,12.9-12.28,22.21ZM283.58,213.61c15.62-26.29,27.22-56.77,34.82-91.43,3.93-17.97,5.08-29.38,3.43-34.25-.79-2.33-2.19-3.15-4.2-2.47-5.82,1.97-12.47,17.15-19.95,45.52-6.24,23.35-10.94,50.89-14.09,82.63Z"/>
      <path fill="#ccc" d="M394.01,237.91c-1.71,8.88-3.75,16.58-6.11,23.1-4.69,12.75-11.01,20.47-18.97,23.17-6.93,2.35-13.43.91-19.5-4.33-3.87-3.41-6.79-8-8.75-13.77-4.83-14.24-5.67-31.48-2.52-51.72,3.52-22.51,10.6-41.29,21.24-56.35,6.98-9.8,14.76-16.17,23.36-19.08,5.39-1.83,10.44-1.68,15.17.44,4.08,1.91,6.75,4.72,8.01,8.44.96,2.82,1.19,7.11.71,12.85,2.84,2.04,4.61,4.09,5.3,6.14.91,2.69.62,7.73-.89,15.11-1.59,7.55-2.48,17.15-2.68,28.81-.24,12.39.78,21.91,3.04,28.58,1.83,5.39,4.93,9.27,9.32,11.65,1.2.59,4.33,1.18,9.39,1.75,3.73.45,6.25,2.6,7.55,6.45.83,2.44.6,4.73-.67,6.88-1.36,2.32-3.32,3.92-5.89,4.79-6.93,2.35-13.94,1.29-21.03-3.17-5.81-3.61-9.99-9.2-12.56-16.77-.87-2.57-2.05-6.89-3.54-12.96ZM396.59,166.43c-2.5-2.3-4.87-3.82-7.13-4.56-2.26-.74-4.41-.76-6.46-.06-9.75,3.31-17.44,15.43-23.08,36.37-6.18,23.13-7.05,41.23-2.61,54.32,1.09,3.21,2.52,5.44,4.31,6.69,1.78,1.26,3.89,1.47,6.33.64,6.16-2.09,11.12-11.07,14.9-26.94,2.18-8.75,4.3-21.27,6.36-37.57,1.4-10.63,2.63-17.77,3.68-21.42.5-1.89,1.73-4.38,3.69-7.47Z"/>
      <path fill="#ccc" d="M463.34,248.39c-.16-.04-.32-.08-.48-.14l-.15-.05-.15-.04c-1.45-.4-3.6-1.33-5.46-4.64-2.95-5.24-8.13-25.04-9.62-98.72-.74-30.82-.49-53.84.73-68.46,1.63-17.71,5.65-20.46,6.1-20.72.8-.45,2.12-.27,3.08-.04.16.04.32.08.48.12,3,.84,5.26,6.75,5.95,11.59,2.2,15.35,2.91,43.31,3.34,56.05h0c3.33,1.74,13.73-26.52,17.77-38.5,26.18-77.6,31.65-70.02,37.61-72.58,1.03-.44,8.59.85,10,3.36,1.62,2.88,3.05,8.9.63,21.24-12.94,65.43-9.69,116.02,9.64,150.34,6.64,11.78,16.29,21.33,28.67,28.38,5.88,3.3,7.03,5.14,7.14,5.34.12.22.21,1.06-.31,2.67l-.09.28-.07.29c-.51,2.13-1.44,3.44-3.12,4.38-3.03,1.71-6.42,2.08-10.36,1.15-3.18-.75-6.72-2.35-10.53-4.76-9.49-5.87-17.81-15.11-24.78-27.48-13.49-23.94-19.7-56.03-18.48-95.42.07-2.38-1.51-4.49-3.8-5.12h0c-5.99-1.63-12.29,1.35-14.81,7.03-14.06,31.66-20.51,73.48-19.18,124.54-.02,7.26-1.11,16.45-6.12,19.27-1.65.93-2.77.85-3.64.64Z"/>
      <path fill="#ccc" d="M563.85,125.38l1.17,3.46c.96,2.82,2.49,5.02,4.6,6.6,4.82,3.66,10.88,4.25,18.2,1.77,16.04-5.44,30.4-24.04,43.09-55.82,2.28-5.5,4.71-8.68,7.28-9.55,1.41-.48,2.93-.21,4.57.81,1.12.77,1.83,1.6,2.13,2.5,1.7,5-1.59,15.56-9.86,31.67-6.45,12.63-14.12,23.75-23.03,33.35-8.91,9.6-18.04,15.99-27.41,19.17s-18.32,2.5-26.11-2.31c-5.29-3.36-9.28-9.01-11.98-16.97-7.35-21.68-4.35-46.38,9-74.09,10.81-22.55,22.37-35.92,34.69-40.09,3.34-1.13,6.7-1.13,10.09.01,4.25,1.56,7.12,4.53,8.59,8.89,2.31,6.8,1.99,16.21-.95,28.22-6,24.93-20.69,45.72-44.09,62.38ZM563,108.93c7.94-6.12,13.82-11.98,17.65-17.57,6.63-9.97,11.1-20.21,13.4-30.73.88-3.73.91-6.82.08-9.26-.87-2.57-2.53-3.44-4.96-2.61-3.34,1.13-7.24,5.24-11.7,12.34-8.03,12.6-12.86,28.54-14.47,47.83Z"/>
      <path fill="#ccc" d="M677.25,93.34c6.45-1.6,11.57-1.65,15.37-.16,3.79,1.49,6.27,4.58,7.43,9.26,1.52,6.14.7,12.64-2.46,19.5-3.03,6.49-8.5,12.49-16.42,17.99-4.35,2.96-8.14,4.83-11.36,5.63-4.37,1.08-7.03-.3-7.99-4.15-.64-2.6.11-4.89,2.28-6.86.55-.47,3.86-2.23,9.96-5.28,3.64-1.79,6.73-4.48,9.26-8.09,2.22-3.09,2.98-6.04,2.28-8.85-.54-2.19-1.57-3.64-3.07-4.37-1.51-.73-3.51-.79-6.01-.17-6.04,1.5-12.09,5.59-18.16,12.29-7.06,7.61-9.65,15.21-7.77,22.8,1.34,5.41,5.77,11.49,13.3,18.24,8.33,7.32,13.26,14.06,14.78,20.19,2.27,9.16,0,17.34-6.84,24.56-4.2,4.46-9.47,7.48-15.81,9.06-9.99,2.48-18.47.77-25.46-5.12-4.9-4.19-8.22-9.78-9.95-16.75-2.01-8.12-1.62-15.45,1.18-21.99,1.8-4.31,4.16-6.83,7.07-7.55,2.6-.64,4.16.07,4.68,2.15.21.83.05,2.2-.48,4.09-1.29,5.07-1.18,10.62.32,16.65,1.26,5.1,4.15,8.97,8.67,11.6,4,2.32,8.08,2.97,12.24,1.94,4.06-1.01,6.9-3.14,8.52-6.42,1.31-2.75,1.52-5.9.64-9.44-1.08-4.37-4.99-9.42-11.71-15.16-9.24-7.87-14.83-15.71-16.76-23.51-2.58-10.4.81-21.02,10.17-31.84,9.12-10.43,19.82-17.17,32.1-20.22Z"/>
      <path fill="#ccc" d="M733.34,145.87l1.17,3.46c.96,2.82,2.49,5.02,4.6,6.6,4.82,3.66,10.88,4.25,18.2,1.77,16.04-5.44,30.4-24.04,43.09-55.82,2.28-5.5,4.71-8.68,7.28-9.55,1.41-.48,2.93-.21,4.57.81,1.12.77,1.83,1.6,2.13,2.5,1.7,5-1.59,15.56-9.86,31.67-6.45,12.63-14.12,23.75-23.03,33.35-8.91,9.6-18.04,15.99-27.41,19.17-9.62,3.26-18.32,2.5-26.11-2.31-5.29-3.36-9.28-9.01-11.98-16.97-7.35-21.68-4.35-46.38,9-74.09,10.81-22.55,22.37-35.92,34.69-40.09,3.33-1.13,6.7-1.13,10.09.01,4.25,1.56,7.12,4.53,8.59,8.89,2.31,6.8,1.99,16.21-.95,28.22-6,24.93-20.69,45.72-44.09,62.38ZM732.48,129.42c7.94-6.12,13.82-11.98,17.65-17.57,6.63-9.97,11.1-20.21,13.4-30.73.88-3.73.91-6.82.08-9.26-.87-2.57-2.53-3.44-4.96-2.61-3.34,1.13-7.24,5.24-11.7,12.34-8.03,12.6-12.86,28.54-14.47,47.83Z"/>
    </g>
  </g>
</svg>