<?xml version="1.0" encoding="UTF-8"?>
<svg id="_レイヤー_2" data-name="レイヤー_2" xmlns="http://www.w3.org/2000/svg" viewBox="0 0 890.02 605.68">
  <g id="_レイヤー_4" data-name="レイヤー_4">
    <g>
      <path fill="#ccc" d="M99.92,224.85c2.91-6.81,9.54-23.1,19.88-48.88,8.82-22.03,23.49-54.16,44-96.39,11.92-24.49,22.98-45.24,33.18-62.23,6.09-10.22,12.14-15.91,18.15-17.09,3.45-.68,6.56-.02,9.34,1.95,2.42,1.52,3.92,3.74,4.49,6.68.85,4.35-.43,11.7-3.84,22.05-.65,2.12-4.07,12.41-10.27,30.87-11.01,33.21-18.26,56.79-21.76,70.74-9.62,38.24-15.85,70.45-18.68,96.61-1.59,15.57-1.71,26.81-.36,33.71.3,1.53.74,3.11,1.32,4.72,1.61,4.86,2.51,7.74,2.69,8.63.73,3.71,0,7.43-2.19,11.18-1.85,3.41-4.31,5.42-7.38,6.02-3.58.7-6.93-.83-10.06-4.6-2.54-2.82-4.38-7.1-5.5-12.85-7.09-36.16,9.15-113.11,48.7-230.86-24.95,39.92-50.43,95.07-76.45,165.45-5.75,15.33-10.9,25.95-15.45,31.89-4.44,5.78-9.09,9.15-13.94,10.1-4.86.95-8.85-.46-11.97-4.22-2.08-2.51-3.49-5.62-4.22-9.32-6.26-31.94,2.86-85.94,27.37-162-10.33,15.69-19.73,33.39-28.21,53.1-15.31,36.31-28.16,72.99-38.54,110.05-4.87,17.81-10.4,41.38-16.59,70.72-3.05,14.93-8.34,23.13-15.88,24.61-1.92.38-3.68-.14-5.28-1.55-1.25-.95-2.03-2.26-2.36-3.92-.48-2.43.59-9.54,3.19-21.32,5.41-25.87,9.77-44.57,13.09-56.1,16.98-58.92,39.63-115.64,67.96-170.15,11.86-22.76,20.22-37.66,25.07-44.72,5.08-7.23,9.67-11.25,13.76-12.05,2.55-.5,5.27.16,8.15,1.99,3.46,2.11,5.54,4.89,6.21,8.34.75,3.83-.69,10.68-4.33,20.55-10.43,28.05-19.04,58.93-25.83,92.63-5.61,30.29-8.1,55.52-7.46,75.7Z"/>
      <path fill="#ccc" d="M253.74,161.23c2.17-.43,4.12.06,5.85,1.44,1.3,1.21,2.08,2.51,2.36,3.92.45,2.3-.65,6.5-3.3,12.59-9.26,23.18-15.4,41.96-18.41,56.35-3.33,14.85-5.87,29.94-7.65,45.28-.79,6.79-3.36,10.61-7.71,11.46-2.55.5-4.8-.12-6.73-1.86-1.73-1.38-2.78-3.04-3.16-4.95-.75-3.83.84-17.41,4.75-40.74,3.04-18.37,9.68-39.31,19.93-62.82,3.27-7.67,5.83-12.89,7.68-15.64,1.82-2.88,3.95-4.56,6.38-5.03ZM276.22,82.98c5.75-1.13,9.2,1.25,10.35,7.13,1.05,5.37-.6,11.86-4.94,19.48-4.14,7.31-8.7,11.46-13.68,12.43-2.43.48-4.58-.03-6.47-1.52-1.86-1.36-3.03-3.25-3.5-5.68-1.2-6.13.9-13.31,6.33-21.54,3.98-6.09,7.95-9.52,11.91-10.3Z"/>
      <path fill="#ccc" d="M300.03,248.21c-1.88,10.72-3.18,19.33-3.89,25.84s-.83,10.98-.36,13.41c.63,3.2,2.47,4.49,5.54,3.89,4.6-.9,9.69-6.41,15.27-16.53,2.62-4.89,6.24-13.49,10.86-25.81,1.83-4.87,4.22-7.59,7.16-8.17,3.32-.65,5.3.62,5.92,3.82,1.08,5.5-3.07,17.85-12.44,37.07-9.73,20.09-20.22,31.23-31.46,33.43-4.85.95-9.22-.31-13.09-3.8-2.75-2.51-4.54-5.88-5.36-10.09-1.4-7.15-1.17-17.48.69-30.99s5.3-30.16,10.31-49.99c12.94-50.43,27.91-92.84,44.93-127.23,13.56-27.6,26.35-42.58,38.36-44.94,3.83-.75,7.25.11,10.26,2.57,3.13,2.44,5.07,5.57,5.82,9.41,3.51,17.89-6.63,50.79-30.41,98.71-10.68,21.33-24.17,43.22-40.47,65.65-4.29,5.88-10.17,13.8-17.64,23.76ZM307.67,215.07c22.12-27.95,40.25-61.36,54.4-100.22,7.33-20.14,10.42-33.16,9.27-39.03-.55-2.81-2.04-3.98-4.47-3.5-7.03,1.38-17.07,17.87-30.11,49.49-10.83,26-20.53,57.1-29.09,93.27Z"/>
      <path fill="#ccc" d="M415.56,276.17c-2.76,8.24-5.69,15.31-8.78,21.22-6.1,11.54-13.11,18.09-21.03,19.65-6.9,1.35-12.91-.85-18.02-6.62-3.25-3.74-5.44-8.49-6.57-14.24-2.78-14.18-1.37-30.71,4.21-49.59,6.24-20.99,15.38-37.97,27.43-50.95,7.9-8.45,16.13-13.51,24.69-15.19,5.37-1.05,10.16-.27,14.39,2.35,3.64,2.34,5.83,5.36,6.55,9.07.55,2.81.23,6.92-.97,12.33,2.44,2.31,3.86,4.49,4.26,6.53.53,2.68-.4,7.44-2.78,14.28-2.48,6.99-4.56,16.02-6.23,27.1-1.81,11.77-2.06,20.97-.76,27.61,1.05,5.37,3.51,9.46,7.38,12.29,1.07.72,3.98,1.68,8.72,2.87,3.49.91,5.62,3.28,6.37,7.11.48,2.43-.03,4.58-1.52,6.47-1.59,2.04-3.67,3.31-6.22,3.81-6.9,1.35-13.44-.55-19.63-5.71-5.07-4.18-8.34-10.04-9.81-17.58-.5-2.55-1.07-6.82-1.71-12.8ZM427.16,208.42c-2.08-2.51-4.15-4.26-6.2-5.25-2.05-.99-4.1-1.29-6.14-.89-9.71,1.9-18.59,12.47-26.63,31.69-8.84,21.24-11.99,38.37-9.43,51.41.63,3.2,1.71,5.51,3.25,6.93,1.54,1.42,3.52,1.9,5.95,1.42,6.13-1.2,12.01-9.12,17.64-23.76,3.2-8.06,6.82-19.71,10.86-34.97,2.69-9.95,4.78-16.59,6.24-19.93.72-1.73,2.21-3.95,4.47-6.65Z"/>
      <path fill="#ccc" d="M486.14,188.5c.99-2.08,1.93-4.13,2.8-6.16,15.43-34.76,27.44-53.85,36.03-57.27,4.72-1.88,8.11-.22,10.19,4.98,1.45,3.63,1.04,8.77-1.21,15.41-12.34,36.19-14.41,64.56-6.2,85.12,2.65,6.65,7,12.28,13.04,16.88,2.8,2.11,4.52,3.95,5.15,5.52.58,1.45.41,3.13-.51,5.04-.9,2.32-2.43,3.91-4.61,4.78-4.96,1.98-10.39.5-16.28-4.44-5.63-4.62-10.13-11.17-13.51-19.63-6.51-16.33-7.56-36.87-3.14-61.62-12.25,17.08-20.12,41.81-23.6,74.18-1.07,7.86-3.66,12.61-7.77,14.25-2.05.82-4.04.77-5.95-.15-2.37-1.02-4.08-2.86-5.15-5.52-2.61-6.53-2-26.61,1.83-60.24,2-18.18,3.94-31.57,5.84-40.18,1.94-8.48,4.55-13.38,7.81-14.68,1.57-.63,3.37-.5,5.4.37,2.37,1.02,3.99,2.61,4.86,4.79,1.06,2.66.83,7.17-.7,13.53-2.14,9.4-3.57,17.76-4.3,25.06Z"/>
      <path fill="#ccc" d="M575.73,195.78l.68,3.45c.55,2.81,1.73,5.1,3.54,6.87,4.12,4.1,9.82,5.44,17.11,4.01,15.97-3.13,32.03-19.01,48.18-47.65,2.88-4.94,5.59-7.66,8.15-8.17,1.4-.28,2.82.18,4.25,1.36.97.87,1.54,1.76,1.71,2.65.98,4.98-3.5,14.62-13.44,28.91-7.76,11.21-16.49,20.81-26.2,28.82-9.71,8.01-19.23,12.92-28.56,14.75-9.58,1.88-17.77.03-24.57-5.53-4.61-3.87-7.69-9.77-9.24-17.69-4.23-21.59,1.78-44.73,18.04-69.41,13.18-20.1,25.9-31.35,38.17-33.75,3.32-.65,6.53-.22,9.61,1.3,3.85,2.03,6.2,5.22,7.05,9.57,1.33,6.77-.18,15.69-4.51,26.76-8.9,22.97-25.56,40.9-49.97,53.78ZM577.02,180.01c8.34-4.82,14.69-9.65,19.06-14.48,7.59-8.65,13.15-17.83,16.69-27.55,1.32-3.44,1.74-6.38,1.26-8.81-.5-2.55-1.97-3.6-4.39-3.12-3.32.65-7.56,4.07-12.72,10.25-9.26,10.97-15.89,25.54-19.9,43.7Z"/>
      <path fill="#ccc" d="M720.72,91.63c7.27-3.51,13.35-4.85,18.23-4.03,4.88.83,8.59,3.88,11.14,9.15,3.34,6.92,3.98,14.85,1.94,23.79-1.98,8.48-6.99,16.97-15.03,25.47-4.43,4.6-8.47,7.77-12.1,9.53-4.93,2.38-8.43,1.4-10.53-2.94-1.41-2.93-1.08-5.84,1-8.72.53-.69,4.04-3.61,10.52-8.76,3.88-3.03,6.88-7.01,8.99-11.93,1.86-4.22,2.03-7.92.5-11.09-1.19-2.46-2.77-3.94-4.74-4.43-1.97-.49-4.37-.06-7.18,1.3-6.8,3.28-12.98,9.66-18.52,19.13-6.5,10.8-7.68,20.48-3.55,29.04,2.94,6.1,9.73,12.22,20.36,18.37,11.73,6.63,19.26,13.4,22.6,20.32,4.98,10.32,4.31,20.62-2,30.9-3.87,6.35-9.39,11.25-16.54,14.71-11.26,5.43-21.77,5.52-31.54.26-6.88-3.76-12.21-9.58-16-17.43-4.41-9.15-5.77-17.96-4.09-26.44,1.07-5.58,3.25-9.16,6.53-10.74,2.93-1.41,4.96-.95,6.1,1.4.45.94.61,2.6.45,4.99-.27,6.35,1.25,12.92,4.53,19.72,2.77,5.75,7.17,9.63,13.2,11.63,5.33,1.76,10.34,1.51,15.04-.75s7.41-5.46,8.52-9.75c.87-3.6.34-7.39-1.59-11.38-2.38-4.93-8.28-9.96-17.7-15.1-12.95-7.05-21.54-14.98-25.79-23.77-5.66-11.72-4.28-25.19,4.15-40.39,8.24-14.68,19.28-25.35,33.12-32.03Z"/>
      <path fill="#ccc" d="M783.52,193.44l.68,3.45c.55,2.81,1.73,5.1,3.54,6.87,4.12,4.1,9.82,5.44,17.11,4.01,15.97-3.13,32.03-19.01,48.18-47.65,2.88-4.94,5.59-7.66,8.15-8.17,1.4-.28,2.82.18,4.25,1.36.97.87,1.54,1.76,1.71,2.65.98,4.98-3.5,14.62-13.44,28.91-7.76,11.21-16.49,20.81-26.2,28.82-9.71,8.01-19.23,12.92-28.56,14.75-9.58,1.88-17.77.03-24.57-5.53-4.61-3.87-7.69-9.77-9.24-17.69-4.23-21.59,1.78-44.73,18.04-69.41,13.18-20.1,25.9-31.35,38.17-33.75,3.32-.65,6.53-.22,9.61,1.3,3.85,2.03,6.2,5.22,7.05,9.57,1.33,6.77-.18,15.69-4.51,26.76-8.9,22.97-25.56,40.9-49.97,53.78ZM784.81,177.66c8.34-4.82,14.69-9.65,19.06-14.48,7.59-8.65,13.15-17.83,16.69-27.55,1.32-3.44,1.74-6.38,1.26-8.81-.5-2.55-1.97-3.6-4.39-3.12-3.32.65-7.56,4.07-12.72,10.25-9.26,10.97-15.89,25.54-19.9,43.7Z"/>
      <path fill="#ccc" d="M223.76,312.43c8.56-1.68,15.74.1,21.54,5.33,4.66,4.13,7.66,9.64,9.01,16.54,2.43,12.4,1.04,27.33-4.16,44.8-4.6,15.1-11.27,29.15-20.01,42.13-5.78,8.43-10.71,13.05-14.8,13.85-2.68.53-5.44-.33-8.26-2.56-2.04-1.59-3.29-3.6-3.77-6.03-.88-4.47,2.02-10.35,8.69-17.62,9.39-10.33,16.39-20.99,21-31.98,6.83-15.93,9.29-28.76,7.39-38.47-.78-3.96-2.21-6.73-4.32-8.31-2.1-1.58-4.88-2.03-8.33-1.35-7.03,1.38-15.99,8.44-26.9,21.19-12.44,14.38-24.9,33.08-37.37,56.09-15.9,29.26-26.88,57.15-32.96,83.68-6.29,27.5-7.68,50.2-4.17,68.09,1.68,8.56,5.6,15.36,11.76,20.39,6.82,5.7,14.19,7.77,22.12,6.21,13.8-2.7,29.07-16.84,45.82-42.42,4.98-7.74,10.73-18.69,17.25-32.84,4.32-9.07,6.99-15.43,8-19.08,1.19-4.08,3.06-6.37,5.62-6.87,2.81-.55,4.48.52,5.01,3.2,1.13,5.75-3.5,20.06-13.88,42.92-8.6,19.07-19.02,35.31-31.25,48.72-13.77,15.04-27.81,23.96-42.12,26.76-14.95,2.93-27.83-1.51-38.64-13.33-6.92-7.53-11.45-16.79-13.61-27.79-5.41-27.6.8-64.97,18.63-112.12,15.22-40.13,33.02-73.54,53.4-100.23,17.66-22.96,34.09-35.94,49.3-38.92Z"/>
      <path fill="#ccc" d="M326.17,409.54c10.48-2.05,16.97,3.31,19.47,16.09,3.33,17-.31,40.07-10.92,69.21-11.59,31.6-25.37,48.96-41.34,52.09-7.41,1.45-13.52-.93-18.32-7.16-2.46-3.1-4.17-7.07-5.12-11.93-3.2-16.35-1.06-35.22,6.43-56.59,7-19.81,16.62-36.03,28.88-48.65,7.18-7.38,14.15-11.73,20.93-13.06ZM320.44,485.89c-3.7-1.93-5.68-3.59-5.96-5-.2-1.02,1.29-4.23,4.48-9.64,8.97-15.16,12.68-26.7,11.13-34.62-.2-1.02-.72-1.98-1.56-2.88-1.4-1.72-3.18-2.36-5.36-1.94-4.09.8-9.32,5.94-15.69,15.41-8.22,12.23-13.95,24.3-17.19,36.21-3.83,13.62-4.95,24.52-3.34,32.7.43,2.17,1.38,3.98,2.85,5.41,2.11,1.97,4.44,2.71,7,2.21,6.13-1.2,11.81-7.09,17.04-17.67,2.32-4.43,4.03-8.88,5.15-13.35,1.12-4.46,1.59-6.75,1.44-6.85Z"/>
      <path fill="#ccc" d="M418.02,420.55c-3.99,8.74-7.65,15.83-10.96,21.25-5.81,9.63-12.35,15.16-19.64,16.59-6.26,1.23-11.67-.63-16.22-5.58-3.2-3.48-5.34-7.97-6.42-13.47-3.23-16.48.09-36.77,9.97-60.87,4.56-11.24,9.52-20.11,14.89-26.6,4.16-5.19,7.83-8.1,11.03-8.73,1.79-.35,3.6.09,5.43,1.32,1.55,1.16,2.47,2.44,2.74,3.84.48,2.43-1.11,6.85-4.76,13.27-8.13,14.73-13.9,27.93-17.31,39.62-3.96,13.65-5.25,23.99-3.87,31.01.35,1.79,1.03,3.08,2.05,3.88,1.02.8,2.29,1.04,3.83.74,6.52-1.28,13.76-12.38,21.73-33.32,4.1-10.89,7.17-22.63,9.21-35.24,1.05-6.84,2.93-13.11,5.67-18.82,2.7-5.17,5.78-8.1,9.23-8.77,1.92-.38,3.8.12,5.66,1.48,2.01,1.47,3.23,3.28,3.66,5.45.9,4.6-1.48,15.81-7.14,33.64-3.83,12.29-5.01,22.15-3.56,29.56,1.55,7.92,4.99,14.28,10.31,19.08,1.45,1.31,5.44,3.05,11.97,5.22,3.13,1.11,5.07,3.52,5.79,7.22.45,2.3-.15,4.48-1.81,6.52-1.66,2.05-3.89,3.35-6.7,3.9-6.39,1.25-12.7-.16-18.94-4.25-5.63-3.67-9.94-9.73-12.91-18.17-.48-1.1-1.45-4.36-2.91-9.78Z"/>
      <path fill="#ccc" d="M492.36,430.65c1.36-1.86,2.66-3.71,3.89-5.54,21.6-31.3,36.93-47.84,46-49.62,4.98-.98,8.01,1.28,9.09,6.78.75,3.83-.6,8.81-4.04,14.92-18.82,33.28-26.1,60.78-21.85,82.5,1.38,7.03,4.61,13.36,9.69,19,2.36,2.59,3.71,4.72,4.04,6.37.3,1.53-.18,3.15-1.44,4.86-1.31,2.11-3.12,3.4-5.42,3.85-5.24,1.03-10.3-1.43-15.18-7.38-4.68-5.58-7.89-12.85-9.64-21.79-3.38-17.25-.61-37.63,8.32-61.14-15.2,14.52-27.51,37.37-36.92,68.54-2.51,7.53-5.93,11.71-10.28,12.56-2.17.43-4.11,0-5.82-1.25-2.14-1.44-3.48-3.56-4.04-6.37-1.35-6.9,2.96-26.52,12.95-58.86,5.33-17.49,9.72-30.3,13.17-38.41,3.48-7.98,6.94-12.31,10.39-12.98,1.66-.33,3.41.13,5.24,1.36,2.14,1.44,3.43,3.31,3.89,5.61.55,2.81-.51,7.2-3.19,13.16-3.84,8.85-6.79,16.79-8.86,23.83Z"/>
      <path fill="#ccc" d="M610.08,338.71c-6.94,17.45-12.75,36.59-17.42,57.42-6.77,29.68-8.83,51.28-6.18,64.78.75,3.84,2.13,6.6,4.13,8.27,2,1.68,4.61,2.2,7.84,1.57,7.67-1.5,15.54-10.53,23.61-27.09,5.16-10.25,9.55-20.35,13.18-30.3,1.92-5.63,4.57-8.78,7.95-9.44,1.99-.39,3.82-.03,5.47,1.08,1.5,1.14,2.38,2.4,2.65,3.78,1.11,5.68-3.85,19.79-14.88,42.34-13.17,27.11-27.11,42.11-41.84,45-7.82,1.53-15.05-.79-21.68-6.98-4.12-3.97-7.01-10.17-8.67-18.61-3.64-18.56-2.51-41.24,3.39-68.05,1.4-6.64,5.71-22.86,12.93-48.65-3.93,1.89-6.97,3.04-9.12,3.46-3.22.63-6.21.42-8.97-.63-3.8-1.49-6.01-3.84-6.64-7.06-.75-3.83.87-7.34,4.87-10.51,1.11-.85,6.59-2.96,16.44-6.33,3.56-1.33,8.64-3.84,15.25-7.53,3.47-10.72,9.65-25.55,18.52-44.49,4.95-10.53,8.45-17.43,10.52-20.7,2.93-4.55,5.78-7.11,8.54-7.65,1.99-.39,4.2.29,6.61,2.05,2.23,1.63,3.54,3.45,3.93,5.44.78,3.99-1.97,12.73-8.24,26.23-4.17,8.79-7.17,15.83-9,21.12,16.13-7.94,27.87-12.63,35.24-14.07,8.44-1.65,13.35,1.05,14.73,8.11.69,3.53-.26,6.42-2.84,8.68-1.36,1.22-5.19,2.77-11.52,4.65-2.64.36-13.65,5.54-33.04,15.55-5.35,2.8-10.6,5.66-15.76,8.58Z"/>
      <path fill="#ccc" d="M675.81,414.32c9.89-15.87,21.76-31.8,35.62-47.78,4.97-5.75,10.4-11.26,16.27-16.52,2.95-2.57,4.87-3.94,5.76-4.11,1.92-.38,4.11.66,6.58,3.09,1.45,1.31,2.3,2.6,2.55,3.88.45,2.3-1.36,5.91-5.44,10.82-11.01,12.9-15.99,21.98-14.97,27.21.58,2.94,2.52,4.08,5.85,3.43,5.49-1.08,14.06-7.46,25.7-19.17,2-1.98,3.77-3.13,5.3-3.43,1.02-.2,2.14.11,3.37.93,1.38.92,2.19,2.03,2.44,3.3.75,3.83-3.46,10.76-12.64,20.79-9.59,10.64-19.44,16.94-29.53,18.92-4.09.8-8.07.46-11.95-1.04-3.29-1.21-5.38-4.12-6.29-8.72-.63-3.19,0-7.1,1.88-11.71-8.69,9.14-18.17,23.73-28.44,43.79-5.82,12.29-11.09,27.05-15.8,44.29-1.79,6.45-4.85,10.11-9.2,10.96-4.73.93-7.53-.84-8.41-5.32-.85-4.34.58-16.7,4.28-37.06,5.48-30.26,12.71-54.3,21.69-72.12,5.53-11.04,10.79-17.04,15.77-18.02,1.66-.33,3.29-.11,4.9.63,1.91.95,3.06,2.39,3.43,4.3.38,1.92-.38,4.85-2.26,8.8-.39.74-2.94,5.68-7.64,14.83-4.27,8.67-7.22,17.01-8.83,25.02Z"/>
      <path fill="#ccc" d="M831.56,393.55c-8.75,15.65-15.86,27.39-21.36,35.23-10.91,15.41-20.84,23.99-29.79,25.74-4.34.85-8.11-.07-11.29-2.76-2.42-2.18-4-5.19-4.75-9.02-2.7-13.8,1.88-33.74,13.75-59.82,12.05-26.51,21.78-40.49,29.2-41.94,2.04-.4,4.01.14,5.89,1.63,1.68,1.13,2.71,2.65,3.08,4.57.55,2.81.3,5.42-.76,7.81-1.06,2.4-4.32,7.91-9.79,16.55-5.81,8.97-10.91,18.46-15.32,28.48-5.08,11.34-7.16,19.32-6.26,23.92.53,2.68,2.06,3.78,4.62,3.27,5.11-1,13.33-9.84,24.66-26.53,7.09-10.54,12.54-19.31,16.34-26.29.77-1.48,4.05-8.42,9.85-20.84,5.28-10.99,8.57-17.53,9.88-19.65,2.96-5.22,6.09-8.16,9.42-8.81,2.04-.4,4.07.13,6.08,1.59,1.86,1.36,3,3.13,3.43,5.3.73,3.71-.62,10.4-4.02,20.09-4.05,11.81-7.74,22.81-11.04,33.01-5.25,15.89-8.94,29.88-11.08,41.98,7.25-6.33,13.58-13.61,19.01-21.84,9.25-13.75,14.59-23.69,16.05-29.81,1.42-5.58,3.41-8.63,5.97-9.13,3.58-.7,5.72.74,6.42,4.32,1.33,6.77-2.44,17.99-11.32,33.66-10.64,18.8-24.96,35.81-42.95,51.01-5.68,27.91-11.64,51.31-17.89,70.18-11.76,34.81-27.15,54.08-46.19,57.81-7.79,1.53-14.64-.25-20.55-5.33-4.61-3.87-7.6-9.33-8.98-16.35-3.91-19.93,6.09-43.06,29.99-69.37,6.98-7.74,17.61-17.78,31.91-30.14,5.79-4.98,10.31-8.99,13.57-12.01,1.15-6.33,3.13-14.81,5.96-25.45,3.18-11.5,5.93-21.86,8.24-31.07ZM811.06,475.78c-12.19,9.55-24.13,22.11-35.81,37.67-11.73,15.96-16.48,29.63-14.26,41.01.48,2.43,1.58,4.33,3.31,5.72,2.37,1.92,5.08,2.59,8.15,1.99,9.58-1.88,18.23-13.99,25.92-36.33,1.27-3.7,4.34-15.78,9.22-36.24,1.04-4.18,2.19-8.79,3.46-13.81Z"/>
    </g>
  </g>
</svg>