<?xml version="1.0" encoding="UTF-8"?>
<svg id="_レイヤー_2" data-name="レイヤー_2" xmlns="http://www.w3.org/2000/svg" viewBox="0 0 1000 802.69">
  <defs>
    <style>
      .cls-1 {
        fill: #FFDD65;
      }

      .cls-2 {
        fill: #289900;
      }
    </style>
  </defs>
  <g id="_レイヤー_4" data-name="レイヤー_4">
    <g>
      <g>
        <path class="cls-1" d="M69.58,576.82c-.8-2.35-1.86-4.6-3.23-6.81-1.05-1.69-3.63-3.24-5.91-3.09-6.7.46-13.33,1.44-16.9,5.34-.64.28-1.27.58-1.88.93-6.56,3.71-8.9,9.58-5.86,15.85,1.37,2.84,4.42,5.06,7.7,6.64,3.73,5.25,10.13,8.52,17.87,6.12,9.15-2.82,12.45-10.6,10.42-17.78,1.61-2.32.59-5.37-2.22-7.21Z"/>
        <path class="cls-1" d="M928.03,281.1c-.8-2.35-1.85-4.59-3.23-6.81-1.05-1.68-3.63-3.24-5.91-3.09-6.7.46-13.33,1.45-16.9,5.34-.64.28-1.27.58-1.88.93-6.56,3.71-8.9,9.59-5.86,15.85,1.37,2.84,4.42,5.06,7.7,6.65,3.73,5.24,10.13,8.51,17.88,6.12,9.15-2.82,12.45-10.61,10.41-17.78,1.61-2.32.59-5.37-2.22-7.21Z"/>
        <path class="cls-1" d="M700.27,697.23s0,0-.01.01c-.05,0-.11,0-.16,0-2.71-1.98-6.92-2.3-8.67,1.1-.21.4-.35.8-.54,1.2-3.11,1.07-5.4,2.78-5.41,5.63,0,1.76,1.62,2.99,3.33,3-.02.43-.07.85-.07,1.29,0,1.71,1.35,3.71,3.14,4.45,1.52.63,3.13,1.15,4.76,1.56,1.41.97,3.23,1.47,5.22,1.26,1.12-.12,2.18-.3,3.3-.49.44-.07.84-.2,1.21-.33.54-.11,1.08-.21,1.62-.37,6.37-1.86,9.2-6.01,10.17-11.61,1.3-7.48-12.3-9.81-17.88-6.71Z"/>
        <path class="cls-1" d="M941,561.85s0,0-.01.01c-.05,0-.11,0-.16,0-2.71-1.99-6.92-2.3-8.68,1.1-.21.4-.36.8-.54,1.2-3.11,1.07-5.4,2.78-5.41,5.63,0,1.76,1.62,2.99,3.33,3-.02.43-.07.85-.07,1.29,0,1.72,1.34,3.71,3.14,4.46,1.52.63,3.13,1.15,4.76,1.56,1.41.97,3.23,1.47,5.22,1.26,1.12-.12,2.18-.3,3.3-.49.44-.08.84-.2,1.2-.33.54-.11,1.08-.21,1.62-.37,6.37-1.86,9.2-6,10.17-11.6,1.3-7.48-12.3-9.82-17.88-6.71Z"/>
        <path class="cls-1" d="M747.88,657.54c-7.34-4.03-18.33-1.77-21.73,5.35-1.37,2.86,1.36,5.5,4.51,6.28-.34,3.03.69,6.04,3.77,8.54,5.77,4.69,14.78,3.06,18.91-2.35,4.56-5.97.95-14.3-5.46-17.82Z"/>
        <path class="cls-1" d="M205.16,612.24c-.11,0-.22.01-.33.01-4.65-3.18-11.49-3.35-17.11-2.99-1.82.12-3.06.81-3.79,1.77-3.28.91-6.21,3.46-5.61,6.48,1.28,6.5,3.73,11.98,11.04,14.73,4.4,1.66,10.03.39,14.03-2.24,4.41-1.1,7.94-3.46,9.85-8.17,2.13-5.29-1.75-9.62-8.08-9.6Z"/>
        <path class="cls-1" d="M87.46,199.72c-13.75-15.68-44.63,1.06-34.8,18.48,4.2,7.46,16.16,13.26,26.03,12,3.97-.26,7.66-1.78,10.53-4.61,7.27-7.15,4.19-19.07-1.77-25.86Z"/>
        <path class="cls-1" d="M18.64,200.75c-.81-1.79-2.39-3.38-3.89-4.76-1.95-1.8-5.97-2.68-8.2-.65-1.52,1.38-2.47,2.82-3.06,4.37-1.44.39-2.67,1.4-2.83,2.99-.21,2.03-.48,4.06-.65,6.09-.17,2.08,1.61,4.53,4.19,4.68,3.59.21,7.18.4,10.77.56,2.17.09,4.59-1.73,4.72-3.64.25-3.59.45-6.33-1.04-9.64Z"/>
        <path class="cls-1" d="M967.91,634.08c.12-1.08-.19-2.23-1-3.15.1.06.2.11.3.17-.48-.59-1.09-1.05-1.83-1.37-.23-.08-.48-.13-.72-.19-.04-.04-.08-.09-.12-.13-2.29-2.21-7.52-2.52-9.27.48-.75,1.27-1.24,2.41-1.57,3.65-1.19.95-2.36,1.92-3.52,2.89-2.65,2.23-.58,6.08,2.18,7.28,3.94,1.71,8.55,2.27,12.21.4,1.19-.4,2.29-1.01,3.28-2,.47-.55.76-1.17.86-1.85,0-.32,0-.64,0-.95.37-1.71.01-3.52-.78-5.22Z"/>
        <path class="cls-1" d="M70.27,527.22c.12-1.08-.19-2.23-.99-3.15.1.06.2.11.29.17-.48-.59-1.09-1.05-1.83-1.37-.23-.08-.48-.12-.72-.19-.04-.04-.08-.09-.12-.13-2.29-2.21-7.52-2.52-9.27.48-.75,1.27-1.24,2.41-1.57,3.65-1.19.95-2.36,1.92-3.52,2.89-2.64,2.23-.58,6.08,2.18,7.28,3.94,1.71,8.55,2.27,12.21.4,1.19-.4,2.29-1.01,3.28-2,.48-.55.76-1.17.86-1.85,0-.32,0-.64,0-.95.38-1.71.02-3.52-.78-5.22Z"/>
        <path class="cls-1" d="M497.24,791.5c.12-1.08-.19-2.23-.99-3.15.09.05.19.11.29.17-.48-.6-1.09-1.05-1.83-1.38-.24-.08-.48-.12-.72-.19-.04-.04-.08-.09-.12-.13-2.29-2.21-7.52-2.52-9.27.48-.75,1.27-1.24,2.41-1.57,3.65-1.19.95-2.36,1.92-3.53,2.89-2.64,2.23-.58,6.08,2.18,7.28,3.94,1.71,8.55,2.27,12.21.4,1.19-.4,2.29-1.02,3.28-2,.47-.55.76-1.17.86-1.86,0-.31,0-.63,0-.95.38-1.71.01-3.52-.78-5.22Z"/>
        <path class="cls-1" d="M999.07,285.99c.12-1.09-.19-2.23-.99-3.15.09.05.19.11.29.17-.48-.6-1.09-1.05-1.83-1.38-.24-.08-.48-.12-.72-.19-.04-.04-.08-.09-.12-.13-2.29-2.21-7.52-2.52-9.27.48-.75,1.27-1.24,2.41-1.57,3.65-1.19.95-2.36,1.92-3.53,2.89-2.64,2.23-.58,6.08,2.18,7.28,3.94,1.71,8.56,2.27,12.21.4,1.19-.4,2.29-1.02,3.28-2,.48-.55.76-1.17.86-1.86,0-.31,0-.63,0-.95.37-1.71,0-3.52-.78-5.22Z"/>
        <path class="cls-1" d="M745.21,99.96c.12-1.08-.19-2.23-.99-3.15.1.06.19.11.29.17-.48-.59-1.09-1.05-1.83-1.38-.24-.08-.48-.12-.72-.19-.04-.04-.08-.09-.12-.13-2.29-2.21-7.52-2.52-9.27.48-.74,1.27-1.24,2.41-1.56,3.65-1.19.95-2.36,1.92-3.53,2.89-2.64,2.23-.58,6.08,2.17,7.28,3.94,1.71,8.56,2.27,12.21.4,1.19-.39,2.29-1.01,3.29-2,.47-.55.76-1.17.85-1.85,0-.32,0-.64,0-.95.37-1.71,0-3.52-.78-5.22Z"/>
        <path class="cls-1" d="M759.52,720.13c-.21-1.28-.41-2.55-.55-3.84-.06-.61-.46-1.23-.99-1.77-.02-.23-.03-.46-.08-.69-.48-2.36-3.11-3.9-5.76-3.65-2.69.25-3.7,2.31-4.12,4.45-.47.39-.89.82-1.23,1.31-.31.44-.47.89-.56,1.34-.49.51-.77,1.14-.91,1.85-.11.15-.21.29-.32.43-1.21,1.63-.61,3.93.85,5.27,1.37,1.26,4.15,2.09,5.98,1,1.03-.62,2.21-1.12,3.28-1.69.15-.02.3-.03.45-.05,2.24-.26,4.32-1.74,3.97-3.95Z"/>
      </g>
      <g>
        <path class="cls-2" d="M797.07,85.41c22.53,16.95,34.04-13.87,39.37-25.49-.57-7.2-1.76-8.23-4.37-12.76-5.35-.42-10.7-.86-16.06-1.27-14.34,7.64-27.16,10.73-30.62,28.04,3.97,5.06,4.88,8.61,11.67,11.47Z"/>
        <path class="cls-2" d="M429.66,746.51c-4.38,3.83-8.74,7.66-13.14,11.47-.47,4.25-.96,8.51-1.45,12.76,5.84,3.82,11.67,7.63,17.5,11.47,2.92-.44,5.85-.84,8.75-1.28,7.65-3.11,8.91-6.7,11.68-14.02-1.95-4.68-3.88-9.34-5.82-14.02-5.71-3.47-7.85-5.74-17.52-6.37Z"/>
        <path class="cls-2" d="M696.41,47.16c6.81-3.51,9.95-12.7,13.12-19.11-1.95-7.22-3.87-14.46-5.83-21.68-6.75-4.22-10.67-6.52-23.35-6.36-10.32,6.91-18.54,9.69-24.8,20.39,2.44,6.81,4.88,13.61,7.31,20.39,7.97,5.63,19.68,13.18,33.55,6.38Z"/>
        <path class="cls-2" d="M276.32,81.58c.99-.42,1.95-.86,2.92-1.27v-2.56c-.97-.85-1.93-1.69-2.92-2.55h-4.37c.49,2.14.97,4.25,1.46,6.37h2.91Z"/>
        <path class="cls-2" d="M498.03,692.08c-5.01-7.93-18.29-6.15-27.72-6.36-2.9,2.55-5.84,5.1-8.74,7.65-12.44,26.64,15.63,67.35,43.76,59.89,1.47-.41,2.92-.85,4.38-1.27,1.24-11.29-8.86-14.33-10.22-24.23-1.39-10.15,7.45-24.38-1.46-35.68Z"/>
        <path class="cls-2" d="M258.82,128.75v-6.39c-1.46-.85-2.93-1.7-4.38-2.53-2.44-.44-4.86-.86-7.3-1.29-6.03,4.88-10.42,7.14-13.12,15.28,2.91,2.14,5.84,4.26,8.74,6.39,7.37-3.35,10.43-6.99,16.05-11.47Z"/>
        <path class="cls-2" d="M945.85,331.39c-13.6,6.28-27.74,6.61-37.93,15.3.98,1.7,1.94,3.4,2.92,5.1,18.9,3.24,43.63-3.9,51.05-15.3-4.25-4.48-6.05-5.23-16.04-5.09Z"/>
        <path class="cls-2" d="M244.73,553.92c-2.43,1.71-4.86,3.4-7.31,5.11v5.08c2.93,1.28,5.86,2.55,8.77,3.84,1.46-1.28,2.93-2.56,4.37-3.84,2.09-2.65,3.37-1.62,1.46-5.08-2.66-3.96-2.05-3.37-7.29-5.11Z"/>
        <path class="cls-2" d="M296.73,625.81c-5.8,3.81-8.22,5.45-11.66,11.48-.57,20.73,15.48,34.47,35,36.96,2.93-2.54,5.86-5.1,8.75-7.65,8.53-17.48-12.77-40.37-32.09-40.78Z"/>
        <path class="cls-2" d="M258.51,605.89c.49,1.26.99,2.55,1.47,3.81,1.45,1.28,2.92,2.55,4.37,3.82,7.33-3.4,11.97-6.43,16.06-12.73-3.4-.44-6.82-.86-10.22-1.29-3.89,2.14-7.76,4.25-11.68,6.39Z"/>
        <path class="cls-2" d="M802.89,327.56c-7.58-35.01-2.47-50.22,4.38-79.01-8.26.85-16.53,1.7-24.79,2.55-5.84-5.96-11.67-11.9-17.51-17.85-47.97-72.72,52.86-55.93,72.93-89.21,4.26-9.05-2.03-16.08-5.82-21.68-18.07-26.66-52.95-6.98-77.31-1.26-11.87,18.32,3.12,40.16-11.67,59.91-17.65,2.99-26.16,8.55-39.38,11.47-3.88-4.24-7.78-8.5-11.67-12.75-29.48,1.04-29.76,15.26-52.51,16.57-24.62-18.72-27.66-45.7-40.85-75.19-.97-1.26-1.94-2.55-2.92-3.82-9.33,2.61-10.11,6.12-23.33,6.37-12.94-10.56-12.11-20.45-13.14-39.52-3.88-2.55-7.77-5.1-11.66-7.63-29.63,2.7-42.61,27.75-90.42,20.39-7.09-11.3-8.15-24.68-23.35-29.33-2.42,1.7-4.86,3.4-7.31,5.1-1.95,10.22-3.88,20.39-5.82,30.61-4.58,6.23-15.3,4.41-21.88,8.91-15.23,10.42-25.13,48.17-55.43,43.34-13.78-2.2-29.64-22.2-37.93-30.6h-7.29c-9.38,8.15-17.34,14.04-30.63,19.13-2.17,10.08,2.93,14.02,11.66,17.84v3.81c-14.33,16.47-18.35,36.06-30.62,56.1-13.62,14.86-27.25,29.72-40.84,44.61-15.65-3.08-18.77-13.6-32.1-19.11-1.94.83-3.89,1.68-5.83,2.53-5.3,32.81,7.71,48.79,24.8,71.38-1.25,7.87-3.96,10.87-8.75,15.29.89,7.61,2.91,9.85,7.28,14.03-4.85,8.5-9.72,16.98-14.58,25.49,11.5,10.15,18.87,23.14,26.26,36.96.08,15.21-6.23,18-17.51,22.95,1.26,6.44,6.32,7.56,7.31,11.47,1.17,4.65-4.26,12.22-2.92,19.1,12.94,6.91,22.29-.12,33.55-5.11,21.23,13.63,56.16,21.04,64.18,45.89-6.36,6.8-16.73,7.39-29.18,8.92-3.46,4.32-4.92,4.13-5.83,11.48,10.65,6.88,22.69,12.17,40.85,12.75,8.33,10.13,18.7,34.77,13.13,48.43.48.84.97,1.69,1.45,2.55,10.2-2.97,20.41-5.94,30.63-8.92,22.35,16.01,32.79,30.7,67.09,26.76,9.3,6.27,20.43,9.83,30.63,16.58,3.42,5.95,6.82,11.91,10.22,17.84,7.79,9.11,42.07,29.6,55.44,31.87h1.45c5.33-8.48,2.19-18.34,4.38-28.03,3.88-1.7,7.78-3.41,11.66-5.11,16.2,25.31,20.21,52.41,18.98,90.49,1.45,1.28,2.91,2.56,4.38,3.82h4.36c7.84-11.44,4.84-38.61,2.92-53.53,2.43-1.7,4.88-3.4,7.29-5.1,12.71,3.67,23.6,3.09,39.39,2.55,11.36,16.87-1.98,22.74-7.29,36.97.96,1.26,1.94,2.56,2.89,3.82,9.7-.85,10.42-2.76,16.06-6.37,3.56-17.93,4.02-29.47,13.14-40.79,62.16-10.95,79.29-17.17,74.38-75.2,2.93-2.12,5.84-4.26,8.75-6.36,6.35-.45,12.65-.86,18.97-1.29,24.24,22.45,42.47,32.57,78.77,45.89,1.47,1.28,2.92,2.55,4.38,3.82.49-.43.97-.83,1.47-1.27v-2.55c-15.33-13.89-34.6-26.87-56.9-34.42-6.41-9.02-8.62-21.11-4.37-33.13,13.56-7.73,40.82-1.5,49.59-15.29,4.32-10.54-8.05-17.34-13.12-24.22,5.25-8.88,13.93-16.41,23.33-21.67,21.89,2.02,43.47,18.04,61.27,8.93,1.95-1.7,3.88-3.4,5.83-5.1-10.21-6.37-20.43-12.73-30.63-19.12-26.84-32.17-4.85-61.22,14.61-86.66-2-14.57-11.91-14.75-14.61-28.05,8.3-9.6,38.24-19.81,52.53-22.94,1.94-2.11,3.87-4.25,5.82-6.37-3.42-2.14-6.81-4.25-10.2-6.36-36.25-10.94-59.12,21.15-90.44-15.32Z"/>
      </g>
      <path class="cls-1" d="M728.49,224.39c-11.61-4.56-27.35-12.11-33.81-22.59-3.93-8.85,5-23.63,6.38-32.8-1.88-1.25-3.75-2.51-5.64-3.76-4.89,3.88-9.79,7.76-14.67,11.67-14.68-.27-20.58-5.05-35.72-10.21-1.15-2.07-2.33-4.15-3.48-6.23,13.59-8.87,42.04-32.31,34.96-52.71-1.41-.94-2.83-1.9-4.24-2.85-23.25-.32-51.39,50.55-93.95,30.87.39-8.17.9-16.32,1.31-24.49-1.41-.94-2.81-1.88-4.21-2.81-3.73,3.37-7.41,6.75-11.12,10.14-7.69-.58-15.35-1.15-23.04-1.74-12.21-3.9-15.26-20.22-20.99-29.61-2.94-.01-5.89-.02-8.86-.06-1.51,9.37-3.03,18.77-4.55,28.18-8.96,19.95-77.22,29.79-90.75,27.17-23.17-30.1-23.24-62.13-42.29-94.58-1.87-1.26-3.75-2.51-5.62-3.77-8.76,18.82,32.78,72.76,9.73,88.42-4.78,3.21-12.21,1.87-19.23,6.68,4.36,25.17,1.7,42.96-23.12,72.34-49.48-4.15-45.66,25.34-87.37,41.12-20.04,7.59-99.21-11.18-123.95-16.47-1.44,1.64-2.88,3.28-4.3,4.93,29.36,25.04,88.56,16.08,126.22,39.43,2.45,14.39,7.61,40.9.83,55.19-12.31,25.95-33.63,25.55-22.92,56.86-32.47,15.27-65.82,6.27-97.49,24.63-.36.4-.71.8-1.07,1.23,1.53,1.66,3.05,3.33,4.57,4.99,27.44-.02,53.6-17.08,81.71-11.75,4.23,2.82,8.46,5.65,12.68,8.47.67,4.33,1.33,8.7,1.98,13.03-3.74,11.61-14.46,10.25-23.19,13.77-1.07,1.23-2.16,2.46-3.24,3.7-.82,5.58.31,6.78,3.08,11.8,21.25.59,40.72-.48,62.72,4.85,33,24.98,7.39,61.7,5.09,91.15,1.98,1.99,3.97,3.97,5.97,5.94,64.22-7.78,110.92-.78,75.18,69.72,1.42.95,2.83,1.89,4.22,2.82,15.43-1.12,30.24-15.27,43.25-31.57,8.46.29,10.88-.54,21.23,6.38,2.81,17.62-6.16,24.7-12.19,44.54,2.06,7.86,4.11,15.73,6.14,23.59-6.07,15.46-12.16,30.9-18.23,46.36.91,3.2,1.84,6.43,2.75,9.63,1.28.22,2.59.42,3.89.66,15.35-32.01,30.71-64.03,46.06-96.04,7.34-1.61,14.7-3.19,22.04-4.78,17.99-12.04,35.96-24.1,53.95-36.13,20,1.44,65.73,5.59,79.89,26.04,9.12,13.18,7.75,28.1,19.06,42,2.95.03,5.92.04,8.88.07,7.41-15.51-.78-38.79-.84-55.18,23.42-19.63,14.32-13.06,24.85-36.07,9.46-1.82,16.86-6.96,27.05-5.35,28.48,8.45,28.81,40.32,43.76,54.58,8.93.07,14.7-1.98,23.12-6,14.91,6.69,19.85,16.94,27.03,27.8,2.35,1.57,4.68,3.13,7.03,4.69,1.31-2.35,2.65-4.72,3.98-7.07-16.62-17.3-23.43-37.04-35.69-51.15-23.52-27.13-55.91-28.14-48.3-59.58,2.06-3.2,4.1-6.36,6.14-9.57,11.1.72,20.31,7.14,33.23,10.5,1.78.54,3.56,1.07,5.32,1.6.71-.82,1.44-1.63,2.15-2.46-.48-23.42-14.03-38.1,10.26-65.33,13.94-3.26,28.13,3.52,40.84-5.86-18.33-30.54-32.49-45.45-29.66-78.35,24.96-21.55,54.3-12.96,81.13-23.85.25-1.13.49-2.25.75-3.39-10.11-13.46-34.34-2.06-52.05-9.4-11.55-4.82-11.01-13.2-15.43-18.13-9.52-4.41-19.06-8.83-28.58-13.23-2.13-13.22,6.97-16.09,9.19-30.92,2.86-19.15,2.4-42.96,4.23-63.51,32.13-15.81,65.07-39.91,92.88-62.8-1.15-2.08-2.32-4.15-3.48-6.23-43.34,18.2-87.96,58.37-133.43,70.84Z"/>
    </g>
  </g>
</svg>