<?xml version="1.0" encoding="UTF-8"?>
<svg id="_レイヤー_2" data-name="レイヤー_2" xmlns="http://www.w3.org/2000/svg" viewBox="0 0 641.22 597.16">
  <g id="_レイヤー_4" data-name="レイヤー_4">
    <g>
      <path fill="#ccc" d="M176.69,179.33c-32.97,6.72-67.14,17.13-102.51,31.21-1.28,2.56-2.56,5.2-3.84,7.92-22.09,42.41-36.97,82.58-44.65,120.51-1.6,8.96-5.2,13.44-10.8,13.44-4.16,0-7.84-2.08-11.04-6.24-2.56-3.2-3.84-6.64-3.84-10.32,0-4.48,2-13.8,6-27.97s8.16-26.61,12.48-37.33c1.6-4,6.64-15.68,15.12-35.05,2.08-4.64,4.16-9.52,6.24-14.64-3.36,1.28-8.01,3.2-13.92,5.76-2.56,1.12-4.88,1.68-6.96,1.68-4.96,0-7.44-3.76-7.44-11.28,0-4.96,2.08-8.72,6.24-11.28,3.2-2.08,8.88-4.56,17.04-7.44,8.64-3.2,15.44-5.84,20.41-7.92,3.2-5.6,9.28-17.12,18.25-34.57,1.6-3.2,6.96-12.32,16.08-27.37,26.08-43.85,43.05-75.06,50.89-93.63,7.2-16.8,11.68-26.32,13.44-28.57,3.2-4.16,7.04-6.24,11.52-6.24,7.52,0,11.28,3.68,11.28,11.04,0,16.8-22.89,62.18-68.66,136.12-7.52,12.16-13.05,22.73-16.56,31.69l12-3.36c32.65-9.44,62.33-17.68,89.07-24.73,18.4-33.93,40.97-71.54,67.7-112.83,4.64-7.36,7.36-11.92,8.16-13.68,3.84-6.88,7.92-10.32,12.24-10.32,3.68,0,6.72,1.52,9.12,4.56,1.92,2.56,2.88,5.36,2.88,8.4,0,5.76-3.12,14.01-9.36,24.73-1.44,2.56-8.01,12.81-19.69,30.73-20.49,31.69-33.37,52.9-38.65,63.62,4.64-.48,8.16-.72,10.56-.72,12.64,0,18.97,3.12,18.97,9.36,0,3.84-2,7.6-6,11.28-3.04,2.88-6.4,4.32-10.08,4.32h-9.36c-3.84,0-9.6.72-17.28,2.16-33.93,60.5-56.1,113.55-66.5,159.17-2.56,10.24-6.56,15.36-12,15.36-4.16,0-8.08-2.64-11.76-7.92-2.4-3.68-3.6-7.6-3.6-11.76,0-15.36,19.6-64.66,58.82-147.88Z"/>
      <path fill="#ccc" d="M291.92,287.36c-5.28,9.28-10.48,17.13-15.6,23.53-10.08,12.48-20.09,18.73-30.01,18.73-8.64,0-15.36-4.08-20.17-12.24-3.04-5.28-4.56-11.52-4.56-18.73,0-17.77,5.6-37.37,16.8-58.82,12.48-23.85,27.52-42.17,45.13-54.98,11.52-8.32,22.64-12.48,33.37-12.48,6.72,0,12.32,2.08,16.8,6.24,3.84,3.68,5.76,7.84,5.76,12.48,0,3.52-1.36,8.4-4.08,14.64,2.4,3.36,3.6,6.32,3.6,8.88,0,3.36-2.24,8.88-6.72,16.56-4.64,7.84-9.28,18.25-13.92,31.21-4.96,13.77-7.44,24.81-7.44,33.13,0,6.72,2,12.24,6,16.56,1.12,1.12,4.4,2.96,9.84,5.52,4,1.92,6,5.28,6,10.08,0,3.04-1.12,5.52-3.36,7.44-2.4,2.08-5.2,3.12-8.4,3.12-8.64,0-16.08-3.84-22.33-11.52-5.12-6.24-7.68-14.08-7.68-23.53,0-3.2.32-8.48.96-15.84ZM321.93,208.38c-1.92-3.52-4-6.12-6.24-7.8-2.24-1.68-4.64-2.52-7.2-2.52-12.17,0-25.37,10.65-39.61,31.93-15.69,23.53-23.53,43.45-23.53,59.78,0,4,.76,7.04,2.28,9.12,1.52,2.08,3.8,3.12,6.84,3.12,7.68,0,16.64-8.16,26.89-24.49,5.76-8.96,12.88-22.17,21.37-39.61,5.6-11.36,9.68-18.88,12.24-22.57,1.28-1.92,3.6-4.24,6.96-6.96Z"/>
      <path fill="#ccc" d="M389.87,247.03c13.44-14.08,25.29-25.12,35.53-33.13,15.52-12,25.93-18.01,31.21-18.01,2.56,0,4.8.96,6.72,2.88,1.76,1.76,2.64,3.68,2.64,5.76,0,3.04-2.8,8.01-8.4,14.88-8.64,10.89-14.64,20.17-18.01,27.85,37.45-37.61,63.06-56.42,76.82-56.42,2.88,0,5.36.88,7.44,2.64,2.24,1.92,3.36,4.32,3.36,7.2,0,4.48-3.44,10.24-10.32,17.28-30.25,31.21-45.37,56.82-45.37,76.82,0,8.16,1.44,14.01,4.32,17.52l6.24,7.92c1.28,1.44,1.92,3.28,1.92,5.52,0,2.56-1.04,4.96-3.12,7.2-2.4,2.56-5.12,3.84-8.16,3.84-5.28,0-10.17-3.36-14.64-10.08-5.44-8-8.16-17.44-8.16-28.33,0-14.56,4.16-29.29,12.48-44.17,2.88-5.28,7.68-12.32,14.4-21.13-13.61,10.24-27.45,24.33-41.53,42.25-9.6,12.16-18.25,25.77-25.93,40.81-3.68,7.2-8.01,10.8-12.96,10.8-5.44,0-8.16-3.04-8.16-9.12,0-6.56,4.48-20.08,13.44-40.57,5.12-11.68,11.44-24.01,18.97-36.97-27.37,21.13-47.94,49.78-61.7,85.94-3.36,8.01-7.84,12-13.44,12-2.56,0-4.64-.96-6.24-2.88-1.76-1.92-2.64-4.24-2.64-6.96,0-9.44,5.28-26.49,15.84-51.13,11.04-26.08,23.53-49.53,37.45-70.34,9.6-14.56,17.04-21.85,22.33-21.85,4.8,0,7.2,2.56,7.2,7.68,0,2.24-2.96,7.84-8.88,16.8-10.41,16.8-17.28,29.29-20.65,37.45Z"/>
      <path fill="#ccc" d="M593.69,287.36c-5.28,9.28-10.48,17.13-15.6,23.53-10.08,12.48-20.09,18.73-30.01,18.73-8.64,0-15.36-4.08-20.17-12.24-3.04-5.28-4.56-11.52-4.56-18.73,0-17.77,5.6-37.37,16.8-58.82,12.48-23.85,27.52-42.17,45.13-54.98,11.52-8.32,22.64-12.48,33.37-12.48,6.72,0,12.32,2.08,16.8,6.24,3.84,3.68,5.76,7.84,5.76,12.48,0,3.52-1.36,8.4-4.08,14.64,2.4,3.36,3.6,6.32,3.6,8.88,0,3.36-2.24,8.88-6.72,16.56-4.64,7.84-9.28,18.25-13.92,31.21-4.96,13.77-7.44,24.81-7.44,33.13,0,6.72,2,12.24,6,16.56,1.12,1.12,4.4,2.96,9.84,5.52,4,1.92,6,5.28,6,10.08,0,3.04-1.12,5.52-3.36,7.44-2.4,2.08-5.2,3.12-8.4,3.12-8.64,0-16.08-3.84-22.33-11.52-5.12-6.24-7.68-14.08-7.68-23.53,0-3.2.32-8.48.96-15.84ZM623.7,208.38c-1.92-3.52-4-6.12-6.24-7.8-2.24-1.68-4.64-2.52-7.2-2.52-12.17,0-25.37,10.65-39.61,31.93-15.69,23.53-23.53,43.45-23.53,59.78,0,4,.76,7.04,2.28,9.12,1.52,2.08,3.8,3.12,6.84,3.12,7.68,0,16.64-8.16,26.89-24.49,5.76-8.96,12.88-22.17,21.37-39.61,5.6-11.36,9.68-18.88,12.24-22.57,1.28-1.92,3.6-4.24,6.96-6.96Z"/>
      <path fill="#ccc" d="M262.88,371.86c7.18,0,12.7,2.57,16.56,7.72,3.11,4.08,4.66,9.01,4.66,14.79,0,10.4-3.49,22.25-10.45,35.54-6.11,11.47-13.72,21.76-22.83,30.88-6.01,5.9-10.72,8.84-14.15,8.84-2.25,0-4.34-1.13-6.27-3.38-1.4-1.61-2.09-3.43-2.09-5.47,0-3.75,3.27-8.04,9.81-12.86,9.22-6.86,16.56-14.37,22.03-22.51,8.04-11.79,12.06-21.76,12.06-29.91,0-3.32-.72-5.79-2.17-7.4-1.45-1.61-3.62-2.41-6.51-2.41-5.9,0-14.26,4.29-25.09,12.86-12.33,9.65-25.36,22.78-39.08,39.4-17.48,21.12-30.77,41.92-39.88,62.39-9.44,21.23-14.15,39.35-14.15,54.35,0,7.18,2.09,13.29,6.27,18.33,4.61,5.68,10.24,8.52,16.88,8.52,11.58,0,26.16-9.01,43.74-27.02,5.25-5.47,11.63-13.4,19.14-23.8,4.93-6.65,8.09-11.36,9.49-14.15,1.61-3.11,3.48-4.66,5.63-4.66,2.36,0,3.54,1.13,3.54,3.38,0,4.82-6.01,15.65-18.01,32.48-9.97,14.05-20.96,25.52-32.97,34.41-13.51,9.97-26.27,14.96-38.27,14.96s-22.25-5.63-29.11-16.88c-4.39-7.18-6.59-15.38-6.59-24.6,0-23.16,10.93-52.37,32.8-87.64,18.65-30.02,38.32-54.19,59.02-72.52,17.9-15.76,33.23-23.64,45.99-23.64Z"/>
      <path fill="#ccc" d="M294.72,512.89c7.93-8.25,15.86-15.17,23.8-20.74,10.18-7.08,17.47-10.61,21.87-10.61,1.82,0,3.59.75,5.31,2.25,1.93,1.72,2.89,3.7,2.89,5.95,0,2.89-2.31,7.4-6.91,13.51-8.9,11.79-15.65,22.51-20.26,32.16-4.08,8.36-6.11,14.05-6.11,17.05s1.39,4.34,4.18,4.34c5.79,0,15.54-10.29,29.27-30.88,2.79-4.18,5.31-6.27,7.56-6.27s3.38,1.29,3.38,3.86c0,4.18-4.08,12.17-12.22,23.96-7.08,10.29-14.47,18.17-22.19,23.64-5.47,3.75-10.4,5.63-14.79,5.63-4.61,0-7.94-1.98-9.97-5.95-1.29-2.47-1.93-5.2-1.93-8.2,0-9.54,3.38-20.42,10.13-32.64,1.61-2.89,6.43-11.15,14.47-24.76-21.87,11.04-40.36,34.9-55.48,71.56-1.4,4.18-3.54,6.27-6.43,6.27-2.04,0-3.7-.7-4.99-2.09-1.29-1.5-1.93-3.32-1.93-5.47,0-3.54,3.43-13.56,10.29-30.07,12.76-30.66,24.66-56.6,35.7-77.83,11.04-21.44,23.32-43.68,36.83-66.74,3.22-5.57,5.73-9.33,7.56-11.26,1.82-1.93,3.75-2.89,5.79-2.89,1.93,0,3.59,1.02,4.99,3.06,1.07,1.5,1.61,3.22,1.61,5.15,0,3-1.72,7.02-5.15,12.06-11.58,17.91-23.1,37.58-34.57,59.02-12.33,22.94-19.89,38.59-22.67,46.96Z"/>
      <path fill="#ccc" d="M405.84,552.13c-3.54,6.22-7.02,11.47-10.45,15.76-6.75,8.36-13.46,12.54-20.1,12.54-5.79,0-10.29-2.73-13.51-8.2-2.04-3.54-3.06-7.72-3.06-12.54,0-11.9,3.75-25.03,11.26-39.4,8.36-15.97,18.44-28.25,30.23-36.83,7.72-5.57,15.17-8.36,22.35-8.36,4.5,0,8.25,1.39,11.26,4.18,2.57,2.47,3.86,5.25,3.86,8.36,0,2.36-.91,5.63-2.73,9.81,1.61,2.25,2.41,4.24,2.41,5.95,0,2.25-1.5,5.95-4.5,11.1-3.11,5.25-6.22,12.22-9.33,20.91-3.32,9.22-4.99,16.62-4.99,22.19,0,4.5,1.34,8.2,4.02,11.1.75.75,2.95,1.99,6.59,3.7,2.68,1.29,4.02,3.54,4.02,6.75,0,2.04-.75,3.7-2.25,4.99-1.61,1.39-3.49,2.09-5.63,2.09-5.79,0-10.77-2.57-14.96-7.72-3.43-4.18-5.15-9.43-5.15-15.76,0-2.14.21-5.68.64-10.61ZM425.94,499.22c-1.29-2.36-2.68-4.1-4.18-5.23-1.5-1.13-3.11-1.69-4.82-1.69-8.15,0-16.99,7.13-26.53,21.39-10.51,15.76-15.76,29.11-15.76,40.04,0,2.68.51,4.72,1.53,6.11,1.02,1.39,2.54,2.09,4.58,2.09,5.15,0,11.15-5.47,18.01-16.4,3.86-6,8.63-14.85,14.31-26.53,3.75-7.61,6.48-12.65,8.2-15.12.86-1.29,2.41-2.84,4.66-4.66Z"/>
      <path fill="#ccc" d="M473.54,523.51c1.39-1.29,2.73-2.57,4.02-3.86,22.4-21.87,37.41-32.8,45.03-32.8,4.18,0,6.27,2.31,6.27,6.91,0,3.22-1.88,7.02-5.63,11.42-20.48,23.91-30.71,44.97-30.71,63.2,0,5.9,1.61,11.53,4.82,16.88,1.5,2.47,2.25,4.4,2.25,5.79,0,1.29-.64,2.52-1.93,3.7-1.4,1.5-3.06,2.25-4.99,2.25-4.4,0-8.1-2.79-11.1-8.36-2.89-5.25-4.34-11.63-4.34-19.14,0-14.47,5.47-30.5,16.4-48.08-14.58,9.33-28.14,25.84-40.68,49.53-3.22,5.68-6.65,8.52-10.29,8.52-1.82,0-3.32-.64-4.5-1.93-1.5-1.5-2.25-3.43-2.25-5.79,0-5.79,6.59-20.96,19.78-45.51,7.08-13.29,12.65-22.94,16.72-28.95,4.07-5.89,7.56-8.84,10.45-8.84,1.39,0,2.73.64,4.02,1.93,1.5,1.5,2.25,3.22,2.25,5.15,0,2.36-1.56,5.74-4.66,10.13-4.5,6.54-8.15,12.49-10.93,17.85Z"/>
    </g>
  </g>
</svg>