<?xml version="1.0" encoding="UTF-8"?>
<svg id="_レイヤー_2" data-name="レイヤー_2" xmlns="http://www.w3.org/2000/svg" viewBox="0 0 1000 739.64">
  <defs>
    <style>
      .cls-1 {
        fill: #111;
      }

      .cls-2 {
        fill: #cf2734;
      }

      .cls-3 {
        fill: #ffca00;
      }

      .cls-4 {
        fill: #f4f2f2;
      }

      .cls-5 {
        fill: #ffe100;
      }

      .cls-6 {
        fill: #555;
      }

      .cls-7 {
        fill: #009344;
      }
    </style>
  </defs>
  <g id="_レイヤー_4" data-name="レイヤー_4">
    <g>
      <g>
        <path class="cls-3" d="M69.58,466.39c-.8-1.76-1.86-3.44-3.23-5.09-1.05-1.26-3.63-2.43-5.91-2.31-6.7.35-13.33,1.08-16.9,3.99-.64.21-1.27.43-1.88.7-6.56,2.78-8.9,7.16-5.86,11.84,1.37,2.12,4.42,3.78,7.7,4.97,3.73,3.92,10.13,6.37,17.87,4.58,9.15-2.11,12.45-7.92,10.42-13.29,1.61-1.74.59-4.01-2.22-5.39Z"/>
        <path class="cls-3" d="M928.03,245.35c-.8-1.76-1.85-3.43-3.23-5.09-1.05-1.26-3.63-2.43-5.91-2.31-6.7.35-13.33,1.08-16.9,3.99-.64.21-1.27.43-1.88.69-6.56,2.78-8.9,7.17-5.86,11.84,1.37,2.12,4.42,3.79,7.7,4.97,3.73,3.92,10.13,6.36,17.88,4.58,9.15-2.11,12.45-7.93,10.41-13.29,1.61-1.73.59-4.01-2.22-5.39Z"/>
        <path class="cls-3" d="M700.27,556.39s0,0-.01,0c-.05,0-.11,0-.16,0-2.71-1.48-6.92-1.72-8.67.82-.21.3-.35.6-.54.9-3.11.8-5.4,2.08-5.41,4.21,0,1.31,1.62,2.24,3.33,2.24-.02.32-.07.64-.07.97,0,1.28,1.35,2.78,3.14,3.33,1.52.47,3.13.86,4.76,1.17,1.41.72,3.23,1.1,5.22.94,1.12-.09,2.18-.23,3.3-.37.44-.06.84-.15,1.21-.25.54-.08,1.08-.16,1.62-.27,6.37-1.39,9.2-4.49,10.17-8.68,1.3-5.59-12.3-7.34-17.88-5.02Z"/>
        <path class="cls-3" d="M941,455.2s0,0-.01,0c-.05,0-.11,0-.16,0-2.71-1.49-6.92-1.72-8.68.82-.21.3-.36.6-.54.9-3.11.8-5.4,2.08-5.41,4.21,0,1.31,1.62,2.24,3.33,2.24-.02.32-.07.64-.07.96,0,1.28,1.34,2.78,3.14,3.33,1.52.47,3.13.86,4.76,1.17,1.41.73,3.23,1.1,5.22.94,1.12-.09,2.18-.23,3.3-.37.44-.06.84-.15,1.2-.25.54-.08,1.08-.16,1.62-.28,6.37-1.39,9.2-4.49,10.17-8.67,1.3-5.59-12.3-7.34-17.88-5.02Z"/>
        <path class="cls-3" d="M747.88,526.73c-7.34-3.01-18.33-1.32-21.73,4-1.37,2.14,1.36,4.11,4.51,4.69-.34,2.26.69,4.51,3.77,6.39,5.77,3.51,14.78,2.29,18.91-1.75,4.56-4.46.95-10.69-5.46-13.32Z"/>
        <path class="cls-3" d="M205.16,492.87c-.11,0-.22,0-.33.01-4.65-2.38-11.49-2.51-17.11-2.23-1.82.09-3.06.61-3.79,1.32-3.28.68-6.21,2.59-5.61,4.84,1.28,4.86,3.73,8.95,11.04,11.01,4.4,1.24,10.03.29,14.03-1.67,4.41-.83,7.94-2.58,9.85-6.1,2.13-3.95-1.75-7.19-8.08-7.18Z"/>
        <path class="cls-3" d="M87.46,184.51c-13.75-11.72-44.63.8-34.8,13.81,4.2,5.57,16.16,9.91,26.03,8.97,3.97-.19,7.66-1.33,10.53-3.45,7.27-5.35,4.19-14.26-1.77-19.33Z"/>
        <path class="cls-3" d="M18.64,185.28c-.81-1.34-2.39-2.52-3.89-3.56-1.95-1.35-5.97-2-8.2-.49-1.52,1.03-2.47,2.11-3.06,3.27-1.44.29-2.67,1.05-2.83,2.24-.21,1.52-.48,3.03-.65,4.55-.17,1.56,1.61,3.39,4.19,3.5,3.59.16,7.18.3,10.77.42,2.17.07,4.59-1.29,4.72-2.72.25-2.69.45-4.73-1.04-7.21Z"/>
        <path class="cls-3" d="M967.91,509.19c.12-.81-.19-1.67-1-2.35.1.04.2.09.3.13-.48-.44-1.09-.79-1.83-1.03-.23-.06-.48-.09-.72-.15-.04-.03-.08-.07-.12-.1-2.29-1.65-7.52-1.88-9.27.36-.75.95-1.24,1.8-1.57,2.73-1.19.71-2.36,1.43-3.52,2.16-2.65,1.67-.58,4.55,2.18,5.44,3.94,1.28,8.55,1.69,12.21.3,1.19-.3,2.29-.76,3.28-1.5.47-.41.76-.87.86-1.39,0-.24,0-.48,0-.71.37-1.28.01-2.63-.78-3.9Z"/>
        <path class="cls-3" d="M70.27,429.32c.12-.81-.19-1.67-.99-2.35.1.04.2.09.29.13-.48-.44-1.09-.79-1.83-1.03-.23-.06-.48-.09-.72-.15-.04-.03-.08-.07-.12-.09-2.29-1.65-7.52-1.88-9.27.36-.75.95-1.24,1.8-1.57,2.73-1.19.71-2.36,1.43-3.52,2.16-2.64,1.67-.58,4.55,2.18,5.44,3.94,1.28,8.55,1.69,12.21.3,1.19-.3,2.29-.76,3.28-1.5.48-.41.76-.87.86-1.39,0-.24,0-.48,0-.71.38-1.28.02-2.63-.78-3.9Z"/>
        <path class="cls-3" d="M497.24,626.86c.12-.81-.19-1.67-.99-2.35.09.04.19.08.29.13-.48-.44-1.09-.79-1.83-1.03-.24-.06-.48-.09-.72-.14-.04-.03-.08-.07-.12-.1-2.29-1.65-7.52-1.88-9.27.36-.75.95-1.24,1.8-1.57,2.73-1.19.71-2.36,1.43-3.53,2.16-2.64,1.67-.58,4.54,2.18,5.44,3.94,1.28,8.55,1.69,12.21.3,1.19-.3,2.29-.76,3.28-1.49.47-.41.76-.88.86-1.39,0-.23,0-.47,0-.71.38-1.28.01-2.63-.78-3.9Z"/>
        <path class="cls-3" d="M999.07,249c.12-.81-.19-1.67-.99-2.35.09.04.19.08.29.13-.48-.45-1.09-.79-1.83-1.03-.24-.06-.48-.09-.72-.14-.04-.03-.08-.07-.12-.1-2.29-1.65-7.52-1.88-9.27.36-.75.95-1.24,1.8-1.57,2.73-1.19.71-2.36,1.43-3.53,2.16-2.64,1.67-.58,4.54,2.18,5.44,3.94,1.28,8.56,1.69,12.21.3,1.19-.3,2.29-.76,3.28-1.5.48-.41.76-.87.86-1.39,0-.23,0-.47,0-.71.37-1.28,0-2.63-.78-3.9Z"/>
        <path class="cls-3" d="M745.21,109.94c.12-.81-.19-1.67-.99-2.35.1.04.19.09.29.13-.48-.44-1.09-.79-1.83-1.03-.24-.06-.48-.09-.72-.15-.04-.03-.08-.07-.12-.1-2.29-1.65-7.52-1.88-9.27.36-.74.95-1.24,1.8-1.56,2.73-1.19.71-2.36,1.43-3.53,2.16-2.64,1.67-.58,4.55,2.17,5.44,3.94,1.28,8.56,1.69,12.21.3,1.19-.29,2.29-.76,3.29-1.49.47-.41.76-.87.85-1.39,0-.24,0-.48,0-.71.37-1.28,0-2.63-.78-3.9Z"/>
        <path class="cls-3" d="M759.52,573.51c-.21-.95-.41-1.91-.55-2.87-.06-.45-.46-.92-.99-1.32-.02-.17-.03-.34-.08-.51-.48-1.77-3.11-2.91-5.76-2.73-2.69.19-3.7,1.73-4.12,3.32-.47.29-.89.62-1.23.98-.31.33-.47.66-.56,1-.49.38-.77.85-.91,1.38-.11.11-.21.22-.32.32-1.21,1.22-.61,2.93.85,3.94,1.37.94,4.15,1.56,5.98.75,1.03-.46,2.21-.83,3.28-1.26.15-.01.3-.02.45-.04,2.24-.19,4.32-1.3,3.97-2.95Z"/>
      </g>
      <g>
        <path class="cls-5" d="M797.07,99.07c22.53,12.67,34.04-10.37,39.37-19.05-.57-5.38-1.76-6.15-4.37-9.53-5.35-.31-10.7-.64-16.06-.95-14.34,5.71-27.16,8.02-30.62,20.96,3.97,3.78,4.88,6.44,11.67,8.57Z"/>
        <path class="cls-5" d="M429.66,593.23c-4.38,2.86-8.74,5.73-13.14,8.57-.47,3.18-.96,6.36-1.45,9.54,5.84,2.85,11.67,5.7,17.5,8.57,2.92-.33,5.85-.63,8.75-.96,7.65-2.33,8.91-5.01,11.68-10.48-1.95-3.5-3.88-6.98-5.82-10.48-5.71-2.59-7.85-4.29-17.52-4.76Z"/>
        <path class="cls-5" d="M696.41,70.48c6.81-2.62,9.95-9.49,13.12-14.29-1.95-5.4-3.87-10.81-5.83-16.21-6.75-3.16-10.67-4.88-23.35-4.76-10.32,5.16-18.54,7.24-24.8,15.24,2.44,5.09,4.88,10.17,7.31,15.24,7.97,4.21,19.68,9.85,33.55,4.77Z"/>
        <path class="cls-5" d="M276.32,96.2c.99-.31,1.95-.64,2.92-.95v-1.91c-.97-.63-1.93-1.26-2.92-1.9h-4.37c.49,1.6.97,3.18,1.46,4.76h2.91Z"/>
        <path class="cls-5" d="M498.03,552.55c-5.01-5.93-18.29-4.6-27.72-4.76-2.9,1.91-5.84,3.81-8.74,5.72-12.44,19.91,15.63,50.35,43.76,44.77,1.47-.31,2.92-.63,4.38-.95,1.24-8.44-8.86-10.71-10.22-18.11-1.39-7.59,7.45-18.22-1.46-26.67Z"/>
        <path class="cls-5" d="M258.82,131.46v-4.78c-1.46-.64-2.93-1.27-4.38-1.89-2.44-.33-4.86-.64-7.3-.96-6.03,3.64-10.42,5.33-13.12,11.42,2.91,1.6,5.84,3.18,8.74,4.78,7.37-2.51,10.43-5.22,16.05-8.57Z"/>
        <path class="cls-5" d="M945.85,282.94c-13.6,4.69-27.74,4.94-37.93,11.43.98,1.27,1.94,2.54,2.92,3.81,18.9,2.42,43.63-2.91,51.05-11.44-4.25-3.35-6.05-3.91-16.04-3.81Z"/>
        <path class="cls-5" d="M244.73,449.27c-2.43,1.28-4.86,2.54-7.31,3.82v3.8c2.93.96,5.86,1.91,8.77,2.87,1.46-.96,2.93-1.91,4.37-2.87,2.09-1.98,3.37-1.21,1.46-3.8-2.66-2.96-2.05-2.52-7.29-3.82Z"/>
        <path class="cls-5" d="M296.73,503.01c-5.8,2.85-8.22,4.07-11.66,8.58-.57,15.49,15.48,25.77,35,27.62,2.93-1.9,5.86-3.81,8.75-5.72,8.53-13.07-12.77-30.17-32.09-30.48Z"/>
        <path class="cls-5" d="M258.51,488.12c.49.94.99,1.91,1.47,2.85,1.45.95,2.92,1.91,4.37,2.85,7.33-2.54,11.97-4.81,16.06-9.51-3.4-.33-6.82-.64-10.22-.97-3.89,1.6-7.76,3.18-11.68,4.78Z"/>
        <path class="cls-5" d="M802.89,280.07c-7.58-26.17-2.47-37.54,4.38-59.06-8.26.64-16.53,1.27-24.79,1.91-5.84-4.45-11.67-8.89-17.51-13.34-47.97-54.36,52.86-41.8,72.93-66.69,4.26-6.76-2.03-12.02-5.82-16.2-18.07-19.92-52.95-5.21-77.31-.94-11.87,13.69,3.12,30.02-11.67,44.78-17.65,2.23-26.16,6.39-39.38,8.57-3.88-3.17-7.78-6.36-11.67-9.53-29.48.78-29.76,11.41-52.51,12.39-24.62-13.99-27.66-34.16-40.85-56.21-.97-.94-1.94-1.91-2.92-2.85-9.33,1.95-10.11,4.57-23.33,4.76-12.94-7.89-12.11-15.29-13.14-29.54-3.88-1.9-7.77-3.81-11.66-5.71-29.63,2.02-42.61,20.74-90.42,15.24-7.09-8.44-8.15-18.45-23.35-21.92-2.42,1.27-4.86,2.54-7.31,3.81-1.95,7.64-3.88,15.24-5.82,22.88-4.58,4.66-15.3,3.3-21.88,6.66-15.23,7.79-25.13,36.01-55.43,32.4-13.78-1.65-29.64-16.59-37.93-22.87h-7.29c-9.38,6.09-17.34,10.5-30.63,14.3-2.17,7.54,2.93,10.48,11.66,13.33v2.85c-14.33,12.31-18.35,26.95-30.62,41.93-13.62,11.11-27.25,22.22-40.84,33.35-15.65-2.3-18.77-10.16-32.1-14.29-1.94.62-3.89,1.25-5.83,1.89-5.3,24.53,7.71,36.47,24.8,53.36-1.25,5.88-3.96,8.12-8.75,11.43.89,5.69,2.91,7.37,7.28,10.49-4.85,6.35-9.72,12.7-14.58,19.05,11.5,7.59,18.87,17.3,26.26,27.63.08,11.37-6.23,13.46-17.51,17.15,1.26,4.82,6.32,5.65,7.31,8.57,1.17,3.48-4.26,9.14-2.92,14.28,12.94,5.17,22.29-.09,33.55-3.82,21.23,10.19,56.16,15.73,64.18,34.3-6.36,5.08-16.73,5.52-29.18,6.67-3.46,3.23-4.92,3.09-5.83,8.58,10.65,5.15,22.69,9.1,40.85,9.53,8.33,7.57,18.7,25.99,13.13,36.2.48.63.97,1.26,1.45,1.9,10.2-2.22,20.41-4.44,30.63-6.67,22.35,11.97,32.79,22.95,67.09,20,9.3,4.68,20.43,7.35,30.63,12.39,3.42,4.45,6.82,8.9,10.22,13.33,7.79,6.81,42.07,22.13,55.44,23.82h1.45c5.33-6.34,2.19-13.71,4.38-20.95,3.88-1.27,7.78-2.55,11.66-3.82,16.2,18.92,20.21,39.18,18.98,67.64,1.45.96,2.91,1.91,4.38,2.86h4.36c7.84-8.55,4.84-28.86,2.92-40.01,2.43-1.27,4.88-2.54,7.29-3.81,12.71,2.74,23.6,2.31,39.39,1.91,11.36,12.61-1.98,17-7.29,27.63.96.94,1.94,1.91,2.89,2.85,9.7-.64,10.42-2.06,16.06-4.76,3.56-13.4,4.02-22.03,13.14-30.49,62.16-8.18,79.29-12.83,74.38-56.21,2.93-1.58,5.84-3.18,8.75-4.76,6.35-.33,12.65-.64,18.97-.96,24.24,16.78,42.47,24.34,78.77,34.3,1.47.95,2.92,1.9,4.38,2.85.49-.32.97-.62,1.47-.95v-1.9c-15.33-10.38-34.6-20.09-56.9-25.73-6.41-6.74-8.62-15.78-4.37-24.77,13.56-5.78,40.82-1.12,49.59-11.43,4.32-7.88-8.05-12.96-13.12-18.1,5.25-6.64,13.93-12.27,23.33-16.2,21.89,1.51,43.47,13.48,61.27,6.67,1.95-1.27,3.88-2.54,5.83-3.81-10.21-4.76-20.43-9.52-30.63-14.29-26.84-24.05-4.85-45.76,14.61-64.77-2-10.89-11.91-11.02-14.61-20.96,8.3-7.18,38.24-14.81,52.53-17.15,1.94-1.58,3.87-3.17,5.82-4.76-3.42-1.6-6.81-3.18-10.2-4.76-36.25-8.18-59.12,15.81-90.44-11.45Z"/>
      </g>
      <path class="cls-3" d="M728.49,202.96c-11.61-3.41-27.35-9.05-33.81-16.88-3.93-6.62,5-17.66,6.38-24.52-1.88-.94-3.75-1.88-5.64-2.81-4.89,2.9-9.79,5.8-14.67,8.72-14.68-.2-20.58-3.78-35.72-7.63-1.15-1.55-2.33-3.1-3.48-4.66,13.59-6.63,42.04-24.15,34.96-39.4-1.41-.71-2.83-1.42-4.24-2.13-23.25-.24-51.39,37.79-93.95,23.08.39-6.11.9-12.2,1.31-18.3-1.41-.7-2.81-1.41-4.21-2.1-3.73,2.52-7.41,5.05-11.12,7.58-7.69-.43-15.35-.86-23.04-1.3-12.21-2.92-15.26-15.11-20.99-22.14-2.94,0-5.89-.02-8.86-.04-1.51,7.01-3.03,14.03-4.55,21.06-8.96,14.91-77.22,22.27-90.75,20.31-23.17-22.5-23.24-46.44-42.29-70.69-1.87-.94-3.75-1.88-5.62-2.81-8.76,14.07,32.78,54.39,9.73,66.09-4.78,2.4-12.21,1.4-19.23,4.99,4.36,18.81,1.7,32.12-23.12,54.07-49.48-3.1-45.66,18.94-87.37,30.73-20.04,5.67-99.21-8.36-123.95-12.31-1.44,1.23-2.88,2.46-4.3,3.68,29.36,18.72,88.56,12.02,126.22,29.47,2.45,10.76,7.61,30.57.83,41.25-12.31,19.4-33.63,19.1-22.92,42.5-32.47,11.41-65.82,4.69-97.49,18.41-.36.3-.71.6-1.07.92,1.53,1.24,3.05,2.49,4.57,3.73,27.44-.02,53.6-12.77,81.71-8.78,4.23,2.11,8.46,4.22,12.68,6.33.67,3.24,1.33,6.5,1.98,9.74-3.74,8.68-14.46,7.66-23.19,10.29-1.07.92-2.16,1.84-3.24,2.76-.82,4.17.31,5.07,3.08,8.82,21.25.44,40.72-.36,62.72,3.63,33,18.67,7.39,46.12,5.09,68.14,1.98,1.49,3.97,2.97,5.97,4.44,64.22-5.82,110.92-.58,75.18,52.11,1.42.71,2.83,1.42,4.22,2.11,15.43-.84,30.24-11.41,43.25-23.59,8.46.22,10.88-.4,21.23,4.77,2.81,13.17-6.16,18.46-12.19,33.29,2.06,5.87,4.11,11.76,6.14,17.63-6.07,11.56-12.16,23.1-18.23,34.65.91,2.39,1.84,4.8,2.75,7.2,1.28.16,2.59.31,3.89.49,15.35-23.93,30.71-47.86,46.06-71.79,7.34-1.2,14.7-2.38,22.04-3.57,17.99-9,35.96-18.01,53.95-27.01,20,1.08,65.73,4.18,79.89,19.47,9.12,9.85,7.75,21,19.06,31.4,2.95.02,5.92.03,8.88.05,7.41-11.59-.78-28.99-.84-41.24,23.42-14.67,14.32-9.76,24.85-26.96,9.46-1.36,16.86-5.2,27.05-4,28.48,6.32,28.81,30.14,43.76,40.8,8.93.05,14.7-1.48,23.12-4.49,14.91,5,19.85,12.67,27.03,20.78,2.35,1.17,4.68,2.34,7.03,3.51,1.31-1.76,2.65-3.53,3.98-5.28-16.62-12.93-23.43-27.68-35.69-38.23-23.52-20.28-55.91-21.03-48.3-44.54,2.06-2.39,4.1-4.76,6.14-7.15,11.1.53,20.31,5.34,33.23,7.85,1.78.4,3.56.8,5.32,1.19.71-.61,1.44-1.22,2.15-1.84-.48-17.51-14.03-28.48,10.26-48.83,13.94-2.44,28.13,2.63,40.84-4.38-18.33-22.83-32.49-33.97-29.66-58.57,24.96-16.11,54.3-9.69,81.13-17.82.25-.85.49-1.68.75-2.53-10.11-10.06-34.34-1.54-52.05-7.02-11.55-3.6-11.01-9.87-15.43-13.55-9.52-3.3-19.06-6.6-28.58-9.89-2.13-9.88,6.97-12.03,9.19-23.12,2.86-14.31,2.4-32.11,4.23-47.47,32.13-11.82,65.07-29.83,92.88-46.94-1.15-1.55-2.32-3.11-3.48-4.66-43.34,13.6-87.96,43.63-133.43,52.95Z"/>
      <path class="cls-6" d="M434.12,683.57c-.16-.17-.31-.34-.47-.5-2.71-3.07-5.54-5.72-8.03-7.68-2.33-1.83-4.88-3.34-7.56-4.62-5.63-3.35-12.01-5.26-18.69-6.23-9.71-2.7-19.68-3.86-29.83-4.03-20.39-.33-80.11,4.35-80.35,7.21-.62,7.34,61.92,3.63,77.59,4.2,10.49.39,21.92,2.99,22.29,5.22.72,8.52-14.77,5.5-27.9,6.04-66.04,2.69-99.9,12.93-50,13.81,17.99-.46,36.93.55,55.14-1.36,7.15-.76,16.56-1.69,23.8-.98,6.04.58,12.14,4.01,5.79,8.13-.66.43-16.52,2.85-22.77,2.78-.75,0-12.54.14-12.96.38-24.61-.26-43.31-1.36-67.65,2.2-4.78.69-6.67,5.34,5.97,6.34,16.92,1.34,35.79,1.6,52.77,1.86,14.98.23,37.58-3.64,39.29,2.03-8.99,6.15-16.13,5.56-26.85,6.66-12.56,1.29-40.92,2.83-53.48,3.91-20.23,1.77-23.93,6.45-1.57,9.03,27.09,3.13,71.38,1.93,98.19-4.64,16.73-4.1,29.9-17.06,46.45-21.93,17.53-5.17,38.22-3.86,56.43-5.76,2.15-.22,4.31-.42,6.45-.63,17.32,1.06,34.64-.17,51.97-1.38,21.97.34,43.36,2.87,65.19,8.88,20.03,5.49,41.11,9.19,61.96,7.77,7.96-.55,16.42-2.15,24.16-5.15,15.49-3.7,30.35-11.77,36.93-26.54,1.19-2.68-2.92-6.06-5.62-5.54-.95-1.93-2.52-3.87-4.52-5.69-6.8-6.25-14.92-10.69-24.39-10.81-16.95-.21-34,2.62-50.9,5.98-7.83-3.09-25.28,2.7-30.21,3.68-11.77,2.36-23.49,4.79-35.28,6.86-46.31,2.86-93.21-3.99-139.11,2.48-5.79.27-11.51.93-17.13,2.12-5.08-1.22-10.11-2.65-15.12-4.13ZM504.52,694.25c2.18.2,4.34.39,6.51.57-5.47.29-10.93.61-16.39,1.02-.44.04-.88.06-1.33.09-10.59-1.06-21.66-1.79-32.18-.17.27-.44.28-1.07.1-1.75,3.2-.56,6.4-1.06,9.6-1.48,11.28-.39,22.73.69,33.69,1.72ZM679.25,689.82c3.6-.61,7.25-1.17,10.9-1.59,4.1-.47,8.27-.49,12.44-.37-1.42.24-2.86.49-4.29.74-2.53.42-5.04.78-7.57,1.1-3.83.06-7.66.09-11.47.11ZM736.09,683.75c-.39-.13-.73-.25-1.05-.35-.15-.64-.5-1.3-.95-1.89,1.88.66,3.38,1.65,3.79,3.58-.62-.66-1.29-1.15-1.79-1.34ZM455.77,696.36c.74-.05,1.45-.07,2.11-.01-.15.03-.31.07-.46.11-.55-.03-1.1-.06-1.65-.09ZM433.75,693.94c-.01.49.14,1,.42,1.52.04.16.05.33.09.49-.2.13-.39.27-.58.41-.34-1.55-.76-3.08-1.27-4.6.39.55.77,1.1,1.14,1.66.07.18.13.34.2.53ZM415.31,706.57s-.08-.02-.11-.03c.05-.02.1-.04.15-.06-.01.04-.02.07-.03.09ZM411.03,692.32c1.88.55,3.68,1.24,5.39,2.05.02.07.03.15.04.22.05.43.06.87.08,1.3-1.1,1.54-2.78,2.82-4.86,3.89-.37-2.5-.96-4.99-1.71-7.43.35-.01.71-.02,1.06-.04ZM419.62,716.3c.17-.28.3-.58.46-.87.27-.03.54-.05.81-.07.24.17.5.33.75.47-.51.59-1.06,1.16-1.67,1.75-.97.91-2.02,1.72-3.11,2.49,1-1.15,1.94-2.38,2.76-3.77ZM643.88,701.42c.18.27.38.53.59.76-2.03-.24-4.05-.52-6.05-.85,1.81.03,3.64.05,5.46.09ZM662.94,702.6c6.5-.44,13.02-.68,19.53-.5-1.47.24-2.86.39-3.97.54-3.81.5-7.66.73-11.51.79-1.37-.24-2.71-.53-4.05-.83ZM730.16,698.9c-1.06.96-2.12,1.83-3.14,2.62.45-.71.86-1.44,1.23-2.19.63-.14,1.28-.27,1.91-.43ZM727.31,679.94c-.61.14-1.23.26-1.85.37-.25-.25-.5-.5-.76-.73.88.1,1.74.23,2.61.37ZM643.2,691.18c-3.34.24-6.67.46-10.01.7,2.87-1.16,5.92-2.14,9.05-2.98.09.72.44,1.53.97,2.28ZM354.17,688.89c4.84-.34,9.7-.67,14.55-.97.2.27,1.57,3.1,1.82,3.34-10.4.78-21.93-1.2-32.29-1.3,5.31-.33,10.62-.7,15.92-1.06ZM614.36,700.91c.89.02,1.75.03,2.64.04.25.24.51.46.8.68-.29-.06-.58-.14-.87-.2-.85-.19-1.7-.35-2.56-.52ZM699.23,701.75s.04-.07.05-.12c5.48.01,11.1-.07,16.64-.52-5.39,3.67-13.3,4.71-20.55,4.81,1.59-1.14,2.91-2.51,3.85-4.18ZM619.34,689.63c-1.56,1.03-2.79,2.1-3.62,3.23-8.52.21-17.05.44-25.57.72-1.26-.01-2.52-.03-3.78-.04,5.78-.71,11.54-1.55,17.29-2.47,5.25-.3,10.48-.8,15.68-1.44ZM651.89,709.83c1.14.09,2.26.17,3.38.27,4.45.34,11.12.97,17.99.88,2.03.31,4.04.6,6.01.85,6.33.82,13.45,1.53,20.45,1.26-15.36,2.55-31.83.23-47.83-3.26Z"/>
      <g>
        <path class="cls-1" d="M171.72,224.85c2.91-6.81,9.54-23.1,19.88-48.88,8.82-22.03,23.49-54.16,44-96.39,11.92-24.49,22.98-45.24,33.18-62.23,6.09-10.22,12.14-15.91,18.15-17.09,3.45-.68,6.56-.02,9.34,1.95,2.42,1.52,3.92,3.74,4.49,6.68.85,4.35-.43,11.7-3.84,22.05-.65,2.12-4.07,12.41-10.27,30.87-11.01,33.21-18.26,56.79-21.76,70.74-9.62,38.24-15.85,70.45-18.68,96.61-1.59,15.57-1.71,26.81-.36,33.71.3,1.53.74,3.11,1.32,4.72,1.61,4.86,2.51,7.74,2.69,8.63.73,3.71,0,7.43-2.19,11.18-1.85,3.41-4.31,5.42-7.38,6.02-3.58.7-6.93-.83-10.06-4.6-2.54-2.82-4.38-7.1-5.5-12.85-7.09-36.16,9.15-113.11,48.7-230.86-24.95,39.92-50.43,95.07-76.45,165.45-5.75,15.33-10.9,25.95-15.45,31.89-4.44,5.78-9.09,9.15-13.94,10.1-4.86.95-8.85-.46-11.97-4.22-2.08-2.51-3.49-5.62-4.22-9.32-6.26-31.94,2.86-85.94,27.37-162-10.33,15.69-19.73,33.39-28.21,53.1-15.31,36.31-28.16,72.99-38.54,110.05-4.87,17.81-10.4,41.38-16.59,70.72-3.05,14.93-8.34,23.13-15.88,24.61-1.92.38-3.68-.14-5.28-1.55-1.25-.95-2.03-2.26-2.36-3.92-.48-2.43.59-9.54,3.19-21.32,5.41-25.87,9.77-44.57,13.09-56.1,16.98-58.92,39.63-115.64,67.96-170.15,11.86-22.76,20.22-37.66,25.07-44.72,5.08-7.23,9.67-11.25,13.76-12.05,2.55-.5,5.27.16,8.15,1.99,3.46,2.11,5.54,4.89,6.21,8.34.75,3.83-.69,10.68-4.33,20.55-10.43,28.05-19.04,58.93-25.83,92.63-5.61,30.29-8.1,55.52-7.46,75.7Z"/>
        <path class="cls-1" d="M325.54,161.23c2.17-.43,4.12.06,5.85,1.44,1.3,1.21,2.08,2.51,2.36,3.92.45,2.3-.65,6.5-3.3,12.59-9.26,23.18-15.4,41.96-18.41,56.35-3.33,14.85-5.87,29.94-7.65,45.28-.79,6.79-3.36,10.61-7.71,11.46-2.55.5-4.8-.12-6.73-1.86-1.73-1.38-2.78-3.04-3.16-4.95-.75-3.83.84-17.41,4.75-40.74,3.04-18.37,9.68-39.31,19.93-62.82,3.27-7.67,5.83-12.89,7.68-15.64,1.82-2.88,3.95-4.56,6.38-5.03ZM348.02,82.98c5.75-1.13,9.2,1.25,10.35,7.13,1.05,5.37-.6,11.86-4.94,19.48-4.14,7.31-8.7,11.46-13.68,12.43-2.43.48-4.58-.03-6.47-1.52-1.86-1.36-3.03-3.25-3.5-5.68-1.2-6.13.9-13.31,6.33-21.54,3.98-6.09,7.95-9.52,11.91-10.3Z"/>
        <path class="cls-1" d="M371.83,248.21c-1.88,10.72-3.18,19.33-3.89,25.84s-.83,10.98-.36,13.41c.63,3.2,2.47,4.49,5.54,3.89,4.6-.9,9.69-6.41,15.27-16.53,2.62-4.89,6.24-13.49,10.86-25.81,1.83-4.87,4.22-7.59,7.16-8.17,3.32-.65,5.3.62,5.92,3.82,1.08,5.5-3.07,17.85-12.44,37.07-9.73,20.09-20.22,31.23-31.46,33.43-4.85.95-9.22-.31-13.09-3.8-2.75-2.51-4.54-5.88-5.36-10.09-1.4-7.15-1.17-17.48.69-30.99s5.3-30.16,10.31-49.99c12.94-50.43,27.91-92.84,44.93-127.23,13.56-27.6,26.35-42.58,38.36-44.94,3.83-.75,7.25.11,10.26,2.57,3.13,2.44,5.07,5.57,5.82,9.41,3.51,17.89-6.63,50.79-30.41,98.71-10.68,21.33-24.17,43.22-40.47,65.65-4.29,5.88-10.17,13.8-17.64,23.76ZM379.47,215.07c22.12-27.95,40.25-61.36,54.4-100.22,7.33-20.14,10.42-33.16,9.27-39.03-.55-2.81-2.04-3.98-4.47-3.5-7.03,1.38-17.07,17.87-30.11,49.49-10.83,26-20.53,57.1-29.09,93.27Z"/>
        <path class="cls-1" d="M487.35,276.17c-2.76,8.24-5.69,15.31-8.78,21.22-6.1,11.54-13.11,18.09-21.03,19.65-6.9,1.35-12.91-.85-18.02-6.62-3.25-3.74-5.44-8.49-6.57-14.24-2.78-14.18-1.37-30.71,4.21-49.59,6.24-20.99,15.38-37.97,27.43-50.95,7.9-8.45,16.13-13.51,24.69-15.19,5.37-1.05,10.16-.27,14.39,2.35,3.64,2.34,5.83,5.36,6.55,9.07.55,2.81.23,6.92-.97,12.33,2.44,2.31,3.86,4.49,4.26,6.53.53,2.68-.4,7.44-2.78,14.28-2.48,6.99-4.56,16.02-6.23,27.1-1.81,11.77-2.06,20.97-.76,27.61,1.05,5.37,3.51,9.46,7.38,12.29,1.07.72,3.98,1.68,8.72,2.87,3.49.91,5.62,3.28,6.37,7.11.48,2.43-.03,4.58-1.52,6.47-1.59,2.04-3.67,3.31-6.22,3.81-6.9,1.35-13.44-.55-19.63-5.71-5.07-4.18-8.34-10.04-9.81-17.58-.5-2.55-1.07-6.82-1.71-12.8ZM498.96,208.42c-2.08-2.51-4.15-4.26-6.2-5.25-2.05-.99-4.1-1.29-6.14-.89-9.71,1.9-18.59,12.47-26.63,31.69-8.84,21.24-11.99,38.37-9.43,51.41.63,3.2,1.71,5.51,3.25,6.93,1.54,1.42,3.52,1.9,5.95,1.42,6.13-1.2,12.01-9.12,17.64-23.76,3.2-8.06,6.82-19.71,10.86-34.97,2.69-9.95,4.78-16.59,6.24-19.93.72-1.73,2.21-3.95,4.47-6.65Z"/>
        <path class="cls-1" d="M557.94,188.5c.99-2.08,1.93-4.13,2.8-6.16,15.43-34.76,27.44-53.85,36.03-57.27,4.72-1.88,8.11-.22,10.19,4.98,1.45,3.63,1.04,8.77-1.21,15.41-12.34,36.19-14.41,64.56-6.2,85.12,2.65,6.65,7,12.28,13.04,16.88,2.8,2.11,4.52,3.95,5.15,5.52.58,1.45.41,3.13-.51,5.04-.9,2.32-2.43,3.91-4.61,4.78-4.96,1.98-10.39.5-16.28-4.44-5.63-4.62-10.13-11.17-13.51-19.63-6.51-16.33-7.56-36.87-3.14-61.62-12.25,17.08-20.12,41.81-23.6,74.18-1.07,7.86-3.66,12.61-7.77,14.25-2.05.82-4.04.77-5.95-.15-2.37-1.02-4.08-2.86-5.15-5.52-2.61-6.53-2-26.61,1.83-60.24,2-18.18,3.94-31.57,5.84-40.18,1.94-8.48,4.55-13.38,7.81-14.68,1.57-.63,3.37-.5,5.4.37,2.37,1.02,3.99,2.61,4.86,4.79,1.06,2.66.83,7.17-.7,13.53-2.14,9.4-3.57,17.76-4.3,25.06Z"/>
        <path class="cls-1" d="M647.53,195.78l.68,3.45c.55,2.81,1.73,5.1,3.54,6.87,4.12,4.1,9.82,5.44,17.11,4.01,15.97-3.13,32.03-19.01,48.18-47.65,2.88-4.94,5.59-7.66,8.15-8.17,1.4-.28,2.82.18,4.25,1.36.97.87,1.54,1.76,1.71,2.65.98,4.98-3.5,14.62-13.44,28.91-7.76,11.21-16.49,20.81-26.2,28.82-9.71,8.01-19.23,12.92-28.56,14.75-9.58,1.88-17.77.03-24.57-5.53-4.61-3.87-7.69-9.77-9.24-17.69-4.23-21.59,1.78-44.73,18.04-69.41,13.18-20.1,25.9-31.35,38.17-33.75,3.32-.65,6.53-.22,9.61,1.3,3.85,2.03,6.2,5.22,7.05,9.57,1.33,6.77-.18,15.69-4.51,26.76-8.9,22.97-25.56,40.9-49.97,53.78ZM648.82,180.01c8.34-4.82,14.69-9.65,19.06-14.48,7.59-8.65,13.15-17.83,16.69-27.55,1.32-3.44,1.74-6.38,1.26-8.81-.5-2.55-1.97-3.6-4.39-3.12-3.32.65-7.56,4.07-12.72,10.25-9.26,10.97-15.89,25.54-19.9,43.7Z"/>
        <path class="cls-1" d="M792.51,91.63c7.27-3.51,13.35-4.85,18.23-4.03,4.88.83,8.59,3.88,11.14,9.15,3.34,6.92,3.98,14.85,1.94,23.79-1.98,8.48-6.99,16.97-15.03,25.47-4.43,4.6-8.47,7.77-12.1,9.53-4.93,2.38-8.43,1.4-10.53-2.94-1.41-2.93-1.08-5.84,1-8.72.53-.69,4.04-3.61,10.52-8.76,3.88-3.03,6.88-7.01,8.99-11.93,1.86-4.22,2.03-7.92.5-11.09-1.19-2.46-2.77-3.94-4.74-4.43-1.97-.49-4.37-.06-7.18,1.3-6.8,3.28-12.98,9.66-18.52,19.13-6.5,10.8-7.68,20.48-3.55,29.04,2.94,6.1,9.73,12.22,20.36,18.37,11.73,6.63,19.26,13.4,22.6,20.32,4.98,10.32,4.31,20.62-2,30.9-3.87,6.35-9.39,11.25-16.54,14.71-11.26,5.43-21.77,5.52-31.54.26-6.88-3.76-12.21-9.58-16-17.43-4.41-9.15-5.77-17.96-4.09-26.44,1.07-5.58,3.25-9.16,6.53-10.74,2.93-1.41,4.96-.95,6.1,1.4.45.94.61,2.6.45,4.99-.27,6.35,1.25,12.92,4.53,19.72,2.77,5.75,7.17,9.63,13.2,11.63,5.33,1.76,10.34,1.51,15.04-.75s7.41-5.46,8.52-9.75c.87-3.6.34-7.39-1.59-11.38-2.38-4.93-8.28-9.96-17.7-15.1-12.95-7.05-21.54-14.98-25.79-23.77-5.66-11.72-4.28-25.19,4.15-40.39,8.24-14.68,19.28-25.35,33.12-32.03Z"/>
        <path class="cls-1" d="M855.32,193.44l.68,3.45c.55,2.81,1.73,5.1,3.54,6.87,4.12,4.1,9.82,5.44,17.11,4.01,15.97-3.13,32.03-19.01,48.18-47.65,2.88-4.94,5.59-7.66,8.15-8.17,1.4-.28,2.82.18,4.25,1.36.97.87,1.54,1.76,1.71,2.65.98,4.98-3.5,14.62-13.44,28.91-7.76,11.21-16.49,20.81-26.2,28.82-9.71,8.01-19.23,12.92-28.56,14.75-9.58,1.88-17.77.03-24.57-5.53-4.61-3.87-7.69-9.77-9.24-17.69-4.23-21.59,1.78-44.73,18.04-69.41,13.18-20.1,25.9-31.35,38.17-33.75,3.32-.65,6.53-.22,9.61,1.3,3.85,2.03,6.2,5.22,7.05,9.57,1.33,6.77-.18,15.69-4.51,26.76-8.9,22.97-25.56,40.9-49.97,53.78ZM856.61,177.66c8.34-4.82,14.69-9.65,19.06-14.48,7.59-8.65,13.15-17.83,16.69-27.55,1.32-3.44,1.74-6.38,1.26-8.81-.5-2.55-1.97-3.6-4.39-3.12-3.32.65-7.56,4.07-12.72,10.25-9.26,10.97-15.89,25.54-19.9,43.7Z"/>
        <path class="cls-1" d="M295.56,312.43c8.56-1.68,15.74.1,21.54,5.33,4.66,4.13,7.66,9.64,9.01,16.54,2.43,12.4,1.04,27.33-4.16,44.8-4.6,15.1-11.27,29.15-20.01,42.13-5.78,8.43-10.71,13.05-14.8,13.85-2.68.53-5.44-.33-8.26-2.56-2.04-1.59-3.29-3.6-3.77-6.03-.88-4.47,2.02-10.35,8.69-17.62,9.39-10.33,16.39-20.99,21-31.98,6.83-15.93,9.29-28.76,7.39-38.47-.78-3.96-2.21-6.73-4.32-8.31-2.1-1.58-4.88-2.03-8.33-1.35-7.03,1.38-15.99,8.44-26.9,21.19-12.44,14.38-24.9,33.08-37.37,56.09-15.9,29.26-26.88,57.15-32.96,83.68-6.29,27.5-7.68,50.2-4.17,68.09,1.68,8.56,5.6,15.36,11.76,20.39,6.82,5.7,14.19,7.77,22.12,6.21,13.8-2.7,29.07-16.84,45.82-42.42,4.98-7.74,10.73-18.69,17.25-32.84,4.32-9.07,6.99-15.43,8-19.08,1.19-4.08,3.06-6.37,5.62-6.87,2.81-.55,4.48.52,5.01,3.2,1.13,5.75-3.5,20.06-13.88,42.92-8.6,19.07-19.02,35.31-31.25,48.72-13.77,15.04-27.81,23.96-42.12,26.76-14.95,2.93-27.83-1.51-38.64-13.33-6.92-7.53-11.45-16.79-13.61-27.79-5.41-27.6.8-64.97,18.63-112.12,15.22-40.13,33.02-73.54,53.4-100.23,17.66-22.96,34.09-35.94,49.3-38.92Z"/>
        <path class="cls-1" d="M397.97,409.54c10.48-2.05,16.97,3.31,19.47,16.09,3.33,17-.31,40.07-10.92,69.21-11.59,31.6-25.37,48.96-41.34,52.09-7.41,1.45-13.52-.93-18.32-7.16-2.46-3.1-4.17-7.07-5.12-11.93-3.2-16.35-1.06-35.22,6.43-56.59,7-19.81,16.62-36.03,28.88-48.65,7.18-7.38,14.15-11.73,20.93-13.06ZM392.24,485.89c-3.7-1.93-5.68-3.59-5.96-5-.2-1.02,1.29-4.23,4.48-9.64,8.97-15.16,12.68-26.7,11.13-34.62-.2-1.02-.72-1.98-1.56-2.88-1.4-1.72-3.18-2.36-5.36-1.94-4.09.8-9.32,5.94-15.69,15.41-8.22,12.23-13.95,24.3-17.19,36.21-3.83,13.62-4.95,24.52-3.34,32.7.43,2.17,1.38,3.98,2.85,5.41,2.11,1.97,4.44,2.71,7,2.21,6.13-1.2,11.81-7.09,17.04-17.67,2.32-4.43,4.03-8.88,5.15-13.35,1.12-4.46,1.59-6.75,1.44-6.85Z"/>
        <path class="cls-1" d="M489.82,420.55c-3.99,8.74-7.65,15.83-10.96,21.25-5.81,9.63-12.35,15.16-19.64,16.59-6.26,1.23-11.67-.63-16.22-5.58-3.2-3.48-5.34-7.97-6.42-13.47-3.23-16.48.09-36.77,9.97-60.87,4.56-11.24,9.52-20.11,14.89-26.6,4.16-5.19,7.83-8.1,11.03-8.73,1.79-.35,3.6.09,5.43,1.32,1.55,1.16,2.47,2.44,2.74,3.84.48,2.43-1.11,6.85-4.76,13.27-8.13,14.73-13.9,27.93-17.31,39.62-3.96,13.65-5.25,23.99-3.87,31.01.35,1.79,1.03,3.08,2.05,3.88,1.02.8,2.29,1.04,3.83.74,6.52-1.28,13.76-12.38,21.73-33.32,4.1-10.89,7.17-22.63,9.21-35.24,1.05-6.84,2.93-13.11,5.67-18.82,2.7-5.17,5.78-8.1,9.23-8.77,1.92-.38,3.8.12,5.66,1.48,2.01,1.47,3.23,3.28,3.66,5.45.9,4.6-1.48,15.81-7.14,33.64-3.83,12.29-5.01,22.15-3.56,29.56,1.55,7.92,4.99,14.28,10.31,19.08,1.45,1.31,5.44,3.05,11.97,5.22,3.13,1.11,5.07,3.52,5.79,7.22.45,2.3-.15,4.48-1.81,6.52-1.66,2.05-3.89,3.35-6.7,3.9-6.39,1.25-12.7-.16-18.94-4.25-5.63-3.67-9.94-9.73-12.91-18.17-.48-1.1-1.45-4.36-2.91-9.78Z"/>
        <path class="cls-1" d="M564.16,430.65c1.36-1.86,2.66-3.71,3.89-5.54,21.6-31.3,36.93-47.84,46-49.62,4.98-.98,8.01,1.28,9.09,6.78.75,3.83-.6,8.81-4.04,14.92-18.82,33.28-26.1,60.78-21.85,82.5,1.38,7.03,4.61,13.36,9.69,19,2.36,2.59,3.71,4.72,4.04,6.37.3,1.53-.18,3.15-1.44,4.86-1.31,2.11-3.12,3.4-5.42,3.85-5.24,1.03-10.3-1.43-15.18-7.38-4.68-5.58-7.89-12.85-9.64-21.79-3.38-17.25-.61-37.63,8.32-61.14-15.2,14.52-27.51,37.37-36.92,68.54-2.51,7.53-5.93,11.71-10.28,12.56-2.17.43-4.11,0-5.82-1.25-2.14-1.44-3.48-3.56-4.04-6.37-1.35-6.9,2.96-26.52,12.95-58.86,5.33-17.49,9.72-30.3,13.17-38.41,3.48-7.98,6.94-12.31,10.39-12.98,1.66-.33,3.41.13,5.24,1.36,2.14,1.44,3.43,3.31,3.89,5.61.55,2.81-.51,7.2-3.19,13.16-3.84,8.85-6.79,16.79-8.86,23.83Z"/>
        <path class="cls-1" d="M681.88,338.71c-6.94,17.45-12.75,36.59-17.42,57.42-6.77,29.68-8.83,51.28-6.18,64.78.75,3.84,2.13,6.6,4.13,8.27,2,1.68,4.61,2.2,7.84,1.57,7.67-1.5,15.54-10.53,23.61-27.09,5.16-10.25,9.55-20.35,13.18-30.3,1.92-5.63,4.57-8.78,7.95-9.44,1.99-.39,3.82-.03,5.47,1.08,1.5,1.14,2.38,2.4,2.65,3.78,1.11,5.68-3.85,19.79-14.88,42.34-13.17,27.11-27.11,42.11-41.84,45-7.82,1.53-15.05-.79-21.68-6.98-4.12-3.97-7.01-10.17-8.67-18.61-3.64-18.56-2.51-41.24,3.39-68.05,1.4-6.64,5.71-22.86,12.93-48.65-3.93,1.89-6.97,3.04-9.12,3.46-3.22.63-6.21.42-8.97-.63-3.8-1.49-6.01-3.84-6.64-7.06-.75-3.83.87-7.34,4.87-10.51,1.11-.85,6.59-2.96,16.44-6.33,3.56-1.33,8.64-3.84,15.25-7.53,3.47-10.72,9.65-25.55,18.52-44.49,4.95-10.53,8.45-17.43,10.52-20.7,2.93-4.55,5.78-7.11,8.54-7.65,1.99-.39,4.2.29,6.61,2.05,2.23,1.63,3.54,3.45,3.93,5.44.78,3.99-1.97,12.73-8.24,26.23-4.17,8.79-7.17,15.83-9,21.12,16.13-7.94,27.87-12.63,35.24-14.07,8.44-1.65,13.35,1.05,14.73,8.11.69,3.53-.26,6.42-2.84,8.68-1.36,1.22-5.19,2.77-11.52,4.65-2.64.36-13.65,5.54-33.04,15.55-5.35,2.8-10.6,5.66-15.76,8.58Z"/>
        <path class="cls-1" d="M747.61,414.32c9.89-15.87,21.76-31.8,35.62-47.78,4.97-5.75,10.4-11.26,16.27-16.52,2.95-2.57,4.87-3.94,5.76-4.11,1.92-.38,4.11.66,6.58,3.09,1.45,1.31,2.3,2.6,2.55,3.88.45,2.3-1.36,5.91-5.44,10.82-11.01,12.9-15.99,21.98-14.97,27.21.58,2.94,2.52,4.08,5.85,3.43,5.49-1.08,14.06-7.46,25.7-19.17,2-1.98,3.77-3.13,5.3-3.43,1.02-.2,2.14.11,3.37.93,1.38.92,2.19,2.03,2.44,3.3.75,3.83-3.46,10.76-12.64,20.79-9.59,10.64-19.44,16.94-29.53,18.92-4.09.8-8.07.46-11.95-1.04-3.29-1.21-5.38-4.12-6.29-8.72-.63-3.19,0-7.1,1.88-11.71-8.69,9.14-18.17,23.73-28.44,43.79-5.82,12.29-11.09,27.05-15.8,44.29-1.79,6.45-4.85,10.11-9.2,10.96-4.73.93-7.53-.84-8.41-5.32-.85-4.34.58-16.7,4.28-37.06,5.48-30.26,12.71-54.3,21.69-72.12,5.53-11.04,10.79-17.04,15.77-18.02,1.66-.33,3.29-.11,4.9.63,1.91.95,3.06,2.39,3.43,4.3.38,1.92-.38,4.85-2.26,8.8-.39.74-2.94,5.68-7.64,14.83-4.27,8.67-7.22,17.01-8.83,25.02Z"/>
        <path class="cls-1" d="M903.36,393.55c-8.75,15.65-15.86,27.39-21.36,35.23-10.91,15.41-20.84,23.99-29.79,25.74-4.34.85-8.11-.07-11.29-2.76-2.42-2.18-4-5.19-4.75-9.02-2.7-13.8,1.88-33.74,13.75-59.82,12.05-26.51,21.78-40.49,29.2-41.94,2.04-.4,4.01.14,5.89,1.63,1.68,1.13,2.71,2.65,3.08,4.57.55,2.81.3,5.42-.76,7.81-1.06,2.4-4.32,7.91-9.79,16.55-5.81,8.97-10.91,18.46-15.32,28.48-5.08,11.34-7.16,19.32-6.26,23.92.53,2.68,2.06,3.78,4.62,3.27,5.11-1,13.33-9.84,24.66-26.53,7.09-10.54,12.54-19.31,16.34-26.29.77-1.48,4.05-8.42,9.85-20.84,5.28-10.99,8.57-17.53,9.88-19.65,2.96-5.22,6.09-8.16,9.42-8.81,2.04-.4,4.07.13,6.08,1.59,1.86,1.36,3,3.13,3.43,5.3.73,3.71-.62,10.4-4.02,20.09-4.05,11.81-7.74,22.81-11.04,33.01-5.25,15.89-8.94,29.88-11.08,41.98,7.25-6.33,13.58-13.61,19.01-21.84,9.25-13.75,14.59-23.69,16.05-29.81,1.42-5.58,3.41-8.63,5.97-9.13,3.58-.7,5.72.74,6.42,4.32,1.33,6.77-2.44,17.99-11.32,33.66-10.64,18.8-24.96,35.81-42.95,51.01-5.68,27.91-11.64,51.31-17.89,70.18-11.76,34.81-27.15,54.08-46.19,57.81-7.79,1.53-14.64-.25-20.55-5.33-4.61-3.87-7.6-9.33-8.98-16.35-3.91-19.93,6.09-43.06,29.99-69.37,6.98-7.74,17.61-17.78,31.91-30.14,5.79-4.98,10.31-8.99,13.57-12.01,1.15-6.33,3.13-14.81,5.96-25.45,3.18-11.5,5.93-21.86,8.24-31.07ZM882.86,475.78c-12.19,9.55-24.13,22.11-35.81,37.67-11.73,15.96-16.48,29.63-14.26,41.01.48,2.43,1.58,4.33,3.31,5.72,2.37,1.92,5.08,2.59,8.15,1.99,9.58-1.88,18.23-13.99,25.92-36.33,1.27-3.7,4.34-15.78,9.22-36.24,1.04-4.18,2.19-8.79,3.46-13.81Z"/>
      </g>
      <g>
        <path class="cls-2" d="M113.91,596.7c0-.11,0-.21,0-.32,0-.04,0-.09,0-.13,0-.1,0-.21-.01-.31,0-.04,0-.07,0-.11,0-.14-.02-.28-.03-.42,0-.03,0-.06,0-.08,0-.11-.02-.23-.03-.34,0-.04,0-.09-.01-.13-.01-.1-.02-.21-.04-.31,0-.04,0-.08-.01-.12-.02-.14-.04-.29-.06-.43,0-.02,0-.04,0-.05-.02-.13-.04-.25-.06-.38,0-.05-.02-.09-.02-.14-.02-.11-.04-.21-.06-.32,0-.04-.02-.09-.03-.13-.03-.15-.06-.3-.09-.44-.08-.35-.17-.69-.27-1.03-3.19-10.45-18.65-19.36-31.98-16.36-.19.04-.37.09-.56.13-.03,0-.07.02-.1.02-.19.05-.37.1-.56.15,0,0-.01,0-.02,0-.52.14-1.03.3-1.54.48-2,11.01-.77,27.96,10.78,52.91,3.96-4.58,8.6-8.5,12.78-12.36,1.9-1.75,3.71-3.49,5.32-5.27,0,0,0,0,0,0,.31-.34.61-.69.91-1.04,0,0,.02-.02.02-.03.29-.34.57-.69.84-1.03.01-.01.02-.03.03-.04.08-.11.16-.21.25-.32,0,0,.01-.02.02-.03.18-.23.35-.46.51-.69.01-.02.03-.04.04-.05.07-.1.14-.2.21-.3.01-.02.02-.03.04-.05.16-.23.32-.46.47-.69.01-.02.03-.04.04-.06.06-.1.12-.19.19-.29.01-.02.03-.05.04-.07.15-.23.29-.46.42-.7.01-.02.02-.04.04-.06.06-.1.11-.19.16-.29.02-.03.03-.05.04-.08.06-.11.12-.21.17-.32,0,0,0-.02.01-.03.06-.12.12-.24.19-.36.01-.02.02-.04.03-.06.05-.1.1-.19.14-.29.01-.03.03-.06.04-.09.05-.1.09-.2.14-.3,0-.02.02-.04.03-.06.05-.12.11-.24.16-.36,0-.02.02-.04.02-.06.04-.1.08-.2.13-.3.01-.03.03-.07.04-.1.04-.1.08-.19.11-.29.01-.03.02-.05.03-.08.05-.12.09-.25.13-.37,0-.01,0-.03.01-.04.04-.11.07-.22.11-.32.01-.03.02-.07.03-.1.03-.09.06-.19.09-.28,0-.03.02-.06.03-.1.04-.12.07-.25.11-.38,0,0,0,0,0-.01.03-.12.06-.24.09-.36,0-.04.02-.07.03-.11.02-.09.04-.19.06-.28,0-.04.02-.07.02-.11.03-.12.05-.25.08-.37,0,0,0,0,0-.01.02-.13.05-.26.07-.39,0-.04.01-.07.02-.11.02-.1.03-.19.04-.29,0-.04.01-.08.02-.12.01-.11.03-.22.04-.34,0-.02,0-.04,0-.06.01-.13.03-.26.04-.4,0-.03,0-.07,0-.1,0-.1.01-.2.02-.3,0-.04,0-.08,0-.12,0-.11.01-.21.01-.32,0-.03,0-.06,0-.09,0-.13,0-.27,0-.41,0-.03,0-.06,0-.1Z"/>
        <path class="cls-7" d="M49.81,586.26s-.02,0-.04,0c-.06,0-.12.01-.17.02-.11.01-.22.03-.33.05-.06,0-.12.02-.18.03-.11.02-.22.04-.33.06-.06.01-.12.02-.17.03-.12.02-.23.04-.35.07-.05,0-.1.02-.15.03-.17.03-.34.07-.5.11-.8.18-1.57.39-2.31.63-.37.12-.73.25-1.09.39-1.96.75-3.7,1.73-5.23,2.89-.28.21-.55.43-.81.65-.26.22-.52.45-.77.69-.87.82-1.65,1.71-2.34,2.66-.1.14-.19.27-.29.41-2.27,3.31-3.47,7.28-3.53,11.51,0,.53,0,1.06.03,1.6.05,1.07.18,2.16.38,3.25.04.2.07.4.12.59.03.17.07.33.11.5.03.11.05.23.08.34,0,.03.02.07.03.1.02.08.04.16.06.24.01.04.02.08.03.11.02.09.05.17.08.26,0,.03.02.06.02.08.03.11.07.23.11.34,0,.03.02.05.03.08.03.09.06.18.09.26.01.04.03.07.04.11.03.08.06.16.09.24.01.04.03.07.04.11.04.11.08.21.12.32,0,0,0,.01,0,.02.05.11.09.22.14.34.01.03.03.07.04.1.03.08.07.16.11.24.02.04.03.07.05.11.04.08.08.17.12.25.01.03.03.06.04.09.05.11.11.22.16.33.01.02.02.05.03.07.04.09.09.18.14.27.02.04.04.07.06.11.04.08.08.16.13.23.02.04.04.07.06.11.05.1.11.2.16.29,0,.01.01.02.02.04.06.11.13.22.19.33.02.03.04.06.06.1.05.08.1.16.14.24.02.04.04.07.07.11.05.08.1.16.15.24.02.03.04.06.06.09.07.11.14.22.21.32.01.02.03.04.04.06.06.09.12.18.18.26.02.04.05.07.07.11.05.08.11.15.16.23.02.03.05.07.07.1.07.09.13.18.2.27.01.02.02.03.04.05.08.11.16.21.24.32.02.03.05.06.07.09.06.08.12.15.18.23.03.04.06.07.08.11.06.08.12.15.18.23.02.03.05.06.07.09.08.1.17.21.26.31.01.02.03.03.04.05.07.09.15.18.22.26.03.03.06.07.09.1.06.07.13.15.19.22.03.03.06.07.09.1.07.08.15.17.22.25.02.02.04.04.05.06.09.1.19.21.28.31.03.03.05.06.08.09.07.07.14.15.21.22.03.04.07.07.1.11.07.07.14.15.21.22.03.03.06.06.09.09.1.1.2.2.29.3.01.01.03.03.04.04.09.09.17.17.26.26.03.03.07.07.1.1.07.07.14.14.21.21.04.03.07.07.11.1.08.08.16.15.24.23.02.02.05.05.07.07.1.1.21.2.31.29.03.03.06.06.09.09.08.07.15.14.23.21.04.04.08.07.12.11.07.07.15.13.22.2.04.03.07.07.11.1.11.1.22.19.33.29.01.01.03.03.04.04.1.08.19.17.29.25.04.03.08.07.12.1.08.06.15.13.23.19.04.04.08.07.13.11.08.07.17.14.25.21.03.03.07.05.1.08.11.09.23.19.34.28.04.03.07.06.11.09.08.07.16.13.25.2.05.04.09.07.14.11.08.06.15.12.23.18.04.03.09.07.13.1.1.08.21.16.31.24.03.02.06.05.09.07.1.08.21.16.31.24.05.03.09.07.14.1.08.06.16.12.23.18.05.04.1.07.15.11.08.06.17.12.25.18.04.03.08.06.13.09.07.05.14.1.21.15.05.04.1.07.15.11.04.03.08.06.13.09.08.06.17.12.25.18.05.04.1.07.16.11.08.06.16.11.23.17.05.04.1.07.15.11.09.07.19.13.29.2.05.04.1.07.15.11.1.07.21.14.31.21.05.04.11.07.16.11.08.05.15.1.23.16.06.04.11.08.17.11.08.05.16.11.24.16.05.03.1.07.16.1.12.08.25.16.37.24.05.03.1.07.15.1.08.05.16.11.25.16.06.04.12.08.18.11.08.05.15.1.23.14.06.04.12.07.18.11.09.05.17.11.26.16.07.04.14.09.21.13.1.06.2.13.31.19.06.04.12.07.18.11.07.05.15.09.22.14.06.04.13.08.19.12.07.04.15.09.22.13.06.04.12.07.19.11.12.07.25.15.37.22.06.04.12.07.18.11.08.04.15.09.23.13.07.04.13.08.2.12.07.04.14.08.21.12.07.04.14.08.2.12.08.04.15.09.23.13.1.06.2.11.3.17.09.05.18.1.27.15.07.04.14.08.21.12.07.04.14.08.21.11.07.04.14.08.22.12.07.04.14.07.21.11.07.04.14.08.22.12.08.04.17.09.25.13.11.06.23.12.34.18.07.04.13.07.2.11.08.04.15.08.23.12.06.03.13.07.19.1.08.04.15.08.23.12.06.03.13.07.19.1.14.07.28.15.43.22.06.03.12.06.18.09.08.04.16.08.24.12.06.03.12.06.18.09.08.04.16.08.24.12.06.03.12.06.18.09.08.04.16.08.24.12.05.03.1.05.16.08.16.08.32.15.47.23.05.03.11.05.16.08.08.04.17.08.25.12.06.03.11.05.17.08.09.04.17.08.26.12.05.02.1.05.16.07.3.14.6.28.9.42.05.02.1.05.15.07.09.04.18.08.27.12.05.02.1.05.15.07.09.04.18.08.27.12.04.02.07.03.11.05.18.08.37.16.55.24.04.02.08.04.12.05.07.03.15.06.22.1-11.7-24.29-13.82-41.27-12.49-52.71Z"/>
        <path class="cls-4" d="M78.4,575.91c-6.99,2.4-12.87,7.66-16.04,14.16-1.84-1.99-4.17-3.14-6.68-3.65,0,0,0,0,0,0-.02,0-.03,0-.05,0-.11-.02-.22-.04-.33-.06-.05,0-.11-.02-.16-.03-.11-.02-.22-.04-.33-.05-.05,0-.1-.02-.16-.02-.11-.02-.23-.03-.34-.04-.05,0-.1-.01-.16-.02-.11-.01-.23-.02-.34-.03-.05,0-.1,0-.15-.01-.12,0-.23-.01-.35-.02-.05,0-.1,0-.16,0-.12,0-.23,0-.35-.01-.05,0-.1,0-.16,0-.12,0-.23,0-.35,0-.05,0-.11,0-.16,0-.12,0-.23,0-.35,0-.05,0-.11,0-.16,0-.12,0-.23.01-.35.02-.05,0-.11,0-.16,0-.11,0-.23.02-.34.02-.06,0-.11,0-.17.01-.11,0-.22.02-.34.03-.06,0-.12.01-.17.02-.1.01-.2.02-.3.04-1.34,11.44.79,28.42,12.49,52.71.02,0,.04.02.05.02.05.02.1.04.15.06.09.04.18.08.27.12.04.02.09.04.13.05.31.13.62.26.93.39.04.02.08.04.13.05.09.04.19.08.28.12.04.02.09.04.13.05.1.04.19.08.29.12.02,0,.04.02.06.02.21.09.42.17.64.25.02,0,.04.02.06.02.1.04.19.08.29.11.04.02.08.03.12.05.1.04.19.07.29.11.03.01.07.03.1.04.32.12.64.24.95.36.03.01.07.03.1.04.1.04.19.07.28.11.04.01.08.03.12.04.1.04.19.07.29.11.02,0,.03.01.05.02.22.08.45.16.67.24,0,0,0,0,.01,0,4.36,1.55,8.46,2.66,11.87,3.24,1.38-5.84,4.26-10.66,7.76-14.9.28-.34.56-.67.85-1.01-11.55-24.95-12.78-41.91-10.78-52.91Z"/>
      </g>
    </g>
  </g>
</svg>