<?xml version="1.0" encoding="UTF-8"?>
<svg id="_レイヤー_2" data-name="レイヤー_2" xmlns="http://www.w3.org/2000/svg" viewBox="0 0 674.61 528.28">
  <g id="_レイヤー_4" data-name="レイヤー_4">
    <g>
      <path fill="#ccc" d="M59.46,358.96c.17-6.13.32-20.71.44-43.73.09-19.67,1.61-48.9,4.56-87.71,1.73-22.51,3.94-41.87,6.62-58.08,1.58-9.73,4.51-15.96,8.78-18.7,2.45-1.57,5.05-2.02,7.79-1.34,2.33.43,4.16,1.69,5.5,3.78,1.98,3.09,3.23,9.15,3.76,18.17.14,1.83.64,10.81,1.49,26.93,1.63,28.95,3.22,49.34,4.77,61.16,4.23,32.41,9.24,59.13,15.02,80.16,3.51,12.49,6.85,21.19,9.99,26.09.7,1.09,1.52,2.17,2.46,3.23,2.72,3.25,4.29,5.2,4.7,5.83,1.69,2.64,2.26,5.73,1.72,9.28-.39,3.2-1.67,5.49-3.85,6.89-2.55,1.63-5.6,1.47-9.15-.48-2.82-1.4-5.54-4.14-8.16-8.23-16.48-25.71-27.41-89.98-32.78-192.8-7.08,38.37-9.92,88.64-8.53,150.82.23,13.57-.5,23.33-2.19,29.28-1.66,5.81-4.22,9.82-7.67,12.03-3.45,2.21-6.96,2.34-10.52.39-2.37-1.3-4.4-3.27-6.09-5.9-14.56-22.72-23.97-67.12-28.25-133.21-3.18,15.24-5.04,31.75-5.57,49.52-.74,32.65.53,64.84,3.81,96.57,1.67,15.21,4.59,35.07,8.75,59.57,2.2,12.43.62,20.37-4.74,23.8-1.36.87-2.88,1.01-4.54.41-1.25-.35-2.26-1.12-3.01-2.3-1.11-1.73-2.45-7.53-4.04-17.41-3.71-21.59-6.04-37.34-7-47.23-4.86-50.59-4.67-101.21.56-151.86,2.21-21.15,4.11-35.19,5.7-42.11,1.71-7.12,4.03-11.62,6.94-13.48,1.82-1.16,4.11-1.48,6.89-.95,3.31.57,5.76,2.08,7.33,4.53,1.75,2.73,2.72,8.45,2.92,17.16.51,24.8,3.28,51.23,8.3,79.28,4.9,25.06,10.67,45.27,17.31,60.62Z"/>
      <path fill="#ccc" d="M135.42,215.95c1.56-.96,3.22-1.16,4.96-.59,1.36.56,2.35,1.34,2.97,2.35,1.02,1.65,1.38,5.23,1.1,10.73-.44,20.68.27,37.05,2.11,49.09,1.74,12.49,4.16,24.95,7.25,37.37,1.36,5.5.48,9.21-2.64,11.14-1.84,1.13-3.76,1.3-5.77.51-1.74-.57-3.04-1.55-3.89-2.92-1.7-2.76-4.42-13.76-8.17-33-2.99-15.14-3.93-33.33-2.82-54.55.31-6.91.78-11.7,1.41-14.37.58-2.76,1.74-4.68,3.49-5.76ZM130.09,148.69c4.13-2.55,7.5-1.71,10.11,2.52,2.38,3.86,2.99,9.38,1.84,16.55-1.08,6.88-3.42,11.42-7,13.63-1.75,1.08-3.57,1.31-5.46.7-1.84-.51-3.3-1.64-4.37-3.39-2.72-4.41-3.17-10.6-1.36-18.56,1.32-5.88,3.4-9.7,6.25-11.46Z"/>
      <path fill="#ccc" d="M181.07,203.91c-.87,8.98-1.4,16.18-1.57,21.6-.18,5.42,0,9.13.56,11.1.72,2.6,2.33,3.55,4.82,2.86,3.74-1.04,7.6-5.91,11.57-14.63,1.86-4.21,4.3-11.55,7.34-22.02,1.2-4.14,3-6.54,5.39-7.21,2.7-.75,4.42.18,5.14,2.78,1.24,4.47-1.4,14.95-7.92,31.42-6.77,17.22-14.72,27.09-23.88,29.63-3.95,1.09-7.64.33-11.06-2.31-2.43-1.9-4.12-4.57-5.07-8-1.61-5.82-2.08-14.38-1.4-25.65s2.46-25.26,5.34-41.96c7.48-42.5,17.16-78.5,29.04-108,9.45-23.67,19.07-36.86,28.85-39.57,3.12-.86,6-.37,8.64,1.47,2.74,1.82,4.55,4.28,5.41,7.4,4.03,14.56-2.25,42.4-18.86,83.51-7.47,18.31-17.23,37.25-29.27,56.83-3.17,5.14-7.52,12.05-13.06,20.75ZM185.28,176.04c16.5-24.5,29.36-53.27,38.58-86.28,4.78-17.11,6.5-28.06,5.18-32.85-.63-2.29-1.94-3.16-3.92-2.61-5.72,1.59-12.97,15.86-21.74,42.81-7.29,22.18-13.33,48.49-18.11,78.93Z"/>
      <path fill="#ccc" d="M285.35,131c-1.76,6.98-3.73,13.02-5.9,18.1-4.3,9.93-9.68,15.79-16.13,17.57-5.62,1.56-10.72.11-15.31-4.33-2.93-2.89-5.04-6.67-6.34-11.35-3.2-11.54-3.09-25.29.33-41.25,3.82-17.74,10.29-32.36,19.43-43.85,5.99-7.48,12.47-12.19,19.44-14.12,4.37-1.21,8.38-.87,12.04,1.03,3.16,1.7,5.16,4.06,5.99,7.08.63,2.29.63,5.71-.02,10.25,2.17,1.75,3.48,3.46,3.94,5.12.61,2.18.14,6.18-1.39,11.97-1.61,5.93-2.75,13.53-3.43,22.79-.75,9.84-.37,17.46,1.13,22.87,1.21,4.37,3.5,7.6,6.88,9.68.93.53,3.39,1.13,7.39,1.82,2.94.53,4.85,2.35,5.72,5.47.55,1.98.26,3.79-.84,5.44-1.19,1.78-2.82,2.97-4.9,3.54-5.62,1.56-11.14.4-16.58-3.47-4.45-3.13-7.53-7.77-9.23-13.91-.58-2.08-1.32-5.57-2.23-10.47ZM290.63,74.27c-1.88-1.94-3.7-3.26-5.46-3.95-1.76-.69-3.47-.8-5.13-.34-7.91,2.19-14.57,11.49-19.99,27.88-5.96,18.11-7.46,32.47-4.53,43.08.72,2.6,1.76,4.44,3.12,5.52,1.36,1.08,3.03,1.34,5.01.8,4.99-1.38,9.35-8.3,13.06-20.75,2.13-6.86,4.38-16.72,6.75-29.59,1.59-8.39,2.89-14.01,3.89-16.87.48-1.48,1.58-3.4,3.27-5.78Z"/>
      <path fill="#ccc" d="M343.34,85.03c1-1.62,1.96-3.23,2.86-4.82,15.86-27.24,27.48-41.88,34.86-43.93,4.06-1.12,6.7.55,7.94,5.02.86,3.12.07,7.32-2.39,12.59-13.44,28.7-17.71,51.89-12.81,69.57,1.59,5.72,4.66,10.75,9.22,15.08,2.12,1.99,3.37,3.66,3.74,5.01.35,1.25.05,2.62-.88,4.11-.95,1.83-2.36,3.01-4.23,3.52-4.27,1.18-8.6-.53-13.01-5.13-4.22-4.32-7.34-10.12-9.36-17.4-3.89-14.04-2.89-31.06,2.99-51.06-11.64,12.97-20.36,32.63-26.16,58.99-1.59,6.38-4.16,10.05-7.69,11.03-1.77.49-3.4.27-4.89-.66-1.86-1.05-3.11-2.72-3.74-5.01-1.56-5.62.76-22.1,6.96-49.47,3.29-14.8,6.1-25.66,8.44-32.58,2.37-6.81,4.95-10.61,7.76-11.39,1.35-.37,2.83-.11,4.42.79,1.86,1.05,3.05,2.52,3.57,4.39.63,2.29.03,5.98-1.8,11.08-2.61,7.56-4.55,14.31-5.81,20.26Z"/>
      <path fill="#ccc" d="M421.22,141.82l.78,2.81c.63,2.29,1.75,4.11,3.36,5.45,3.66,3.13,8.46,3.87,14.39,2.23,13-3.6,25.26-17.75,36.79-42.45,2.06-4.27,4.14-6.69,6.22-7.27,1.14-.32,2.34-.03,3.6.85.86.66,1.38,1.35,1.58,2.08,1.12,4.06-1.97,12.3-9.27,24.74-5.7,9.75-12.3,18.25-19.82,25.48-7.52,7.23-15.07,11.9-22.66,14.01-7.8,2.16-14.68,1.16-20.66-3.01-4.05-2.91-6.97-7.59-8.76-14.04-4.87-17.58-1.37-37.08,10.5-58.51,9.61-17.45,19.41-27.55,29.4-30.32,2.7-.75,5.38-.59,8.02.46,3.31,1.44,5.45,3.92,6.43,7.46,1.53,5.51.85,12.98-2.03,22.4-5.9,19.55-18.52,35.43-37.87,47.62ZM421.28,128.7c6.59-4.51,11.53-8.91,14.83-13.18,5.72-7.63,9.74-15.57,12.04-23.83.87-2.93,1.03-5.38.48-7.36-.58-2.08-1.85-2.85-3.83-2.3-2.71.75-5.99,3.84-9.86,9.28-6.96,9.66-11.51,22.12-13.66,37.38Z"/>
      <path fill="#ccc" d="M547.25,42.62c6.45-1.79,11.6-1.98,15.46-.59,3.86,1.4,6.44,4.43,7.73,9.11,1.7,6.14,1.05,12.7-1.94,19.69-2.87,6.62-8.21,12.8-16.03,18.55-4.3,3.1-8.06,5.09-11.28,5.98-4.37,1.21-7.09-.11-8.15-3.96-.72-2.6-.02-4.92,2.1-6.97.54-.48,3.83-2.35,9.87-5.59,3.62-1.9,6.65-4.7,9.1-8.4,2.15-3.17,2.83-6.16,2.05-8.97-.61-2.18-1.68-3.62-3.21-4.32-1.54-.69-3.55-.7-6.05,0-6.03,1.67-12.01,5.96-17.94,12.87-6.9,7.85-9.29,15.57-7.19,23.16,1.5,5.41,6.13,11.41,13.89,17.99,8.58,7.14,13.73,13.78,15.43,19.91,2.54,9.15.47,17.45-6.2,24.9-4.1,4.61-9.32,7.79-15.66,9.55-9.98,2.77-18.57,1.28-25.76-4.45-5.05-4.09-8.54-9.62-10.47-16.58-2.25-8.11-2.05-15.5.58-22.17,1.7-4.39,4-6.99,6.91-7.79,2.6-.72,4.19-.04,4.76,2.04.23.83.11,2.21-.37,4.13-1.15,5.14-.89,10.72.78,16.75,1.41,5.1,4.43,8.91,9.05,11.44,4.09,2.23,8.21,2.76,12.37,1.61,4.06-1.12,6.85-3.35,8.39-6.69,1.24-2.81,1.37-5.98.39-9.51-1.21-4.37-5.28-9.34-12.2-14.93-9.52-7.67-15.35-15.4-17.52-23.2-2.88-10.4.24-21.17,9.35-32.33,8.89-10.75,19.47-17.83,31.75-21.23Z"/>
      <path fill="#ccc" d="M607.67,78.4l.78,2.81c.63,2.29,1.75,4.11,3.36,5.45,3.66,3.13,8.46,3.87,14.39,2.23,13-3.6,25.26-17.75,36.79-42.45,2.06-4.27,4.14-6.69,6.22-7.27,1.14-.32,2.34-.03,3.6.85.86.66,1.38,1.35,1.58,2.08,1.12,4.06-1.97,12.3-9.27,24.74-5.7,9.75-12.3,18.25-19.82,25.48-7.52,7.23-15.07,11.9-22.66,14.01-7.8,2.16-14.68,1.16-20.66-3.01-4.05-2.91-6.97-7.59-8.76-14.04-4.87-17.58-1.37-37.08,10.5-58.51,9.61-17.45,19.41-27.55,29.4-30.32,2.7-.75,5.38-.59,8.02.46,3.31,1.44,5.45,3.92,6.43,7.46,1.53,5.51.85,12.98-2.03,22.4-5.9,19.55-18.52,35.43-37.87,47.62ZM607.73,65.28c6.59-4.51,11.53-8.91,14.83-13.18,5.72-7.63,9.74-15.57,12.04-23.83.87-2.93,1.03-5.38.48-7.36-.58-2.08-1.85-2.85-3.83-2.3-2.71.75-5.99,3.84-9.86,9.28-6.96,9.66-11.51,22.12-13.66,37.38Z"/>
      <path fill="#ccc" d="M269.06,340.43l7.16-3.4c26.27-12.95,44.86-20.94,55.78-23.97,7.91-2.19,12.74-.09,14.52,6.31,1.11,4.02.29,7.15-2.46,9.4-1.86,1.6-5.32,3.23-10.4,4.91-31.94,11.01-55.6,21.69-70.98,32.03-3.91,11.76-8.5,32.96-13.79,63.61-3.02,17.86-4.74,34.08-5.16,48.65,2.61-1.8,5.15-3.59,7.64-5.36,16.83-11.42,29.38-19.29,37.64-23.6,11.04-5.49,21.71-9.66,32-12.51,6.78-1.88,12.02-2.45,15.74-1.73,3.27.58,5.44,2.82,6.52,6.71s.03,6.95-3.13,9.18c-1.49.95-5.3,2.35-11.41,4.17-32.77,10.97-60.12,27.33-82.06,49.08-2.87,2.82-5.49,4.56-7.88,5.22-3.51.97-7.16.03-10.92-2.85-3.22-2.35-5.26-5.09-6.13-8.23-.87-3.13-.12-15.78,2.26-37.92,3.54-33.54,10.61-71.17,21.21-112.89,3.12-12.62,9.7-34.23,19.73-64.85,2.22-7.1,4.35-14.04,6.39-20.82-5.37.14-8.8-2.49-10.29-7.89-1.11-4.01.08-7.52,3.57-10.52,5.69-4.82,17.42-11.24,35.19-19.28,26.55-11.95,49.48-20.6,68.81-25.96,10.92-3.02,17.18-1.65,18.77,4.12,1.11,4.02.17,7.93-2.83,11.73-1.5,1.9-4.32,3.43-8.46,4.57-.25.07-1.71.41-4.38,1.01-1.88.52-3.95,1.1-6.21,1.72-9.03,2.5-21.83,7.06-38.37,13.67-14.36,5.73-26.43,11.65-36.23,17.74,1.77,1.54,2.82,2.87,3.13,4,.59,2.14-1,7.85-4.78,17.13l-5.18,16.43c-7.64,22.66-12.65,39.45-15.02,50.37Z"/>
      <path fill="#ccc" d="M450.47,370.72c11.24-14.17,19.12-26.42,23.63-36.75,6.74-15.05,11.17-26.98,13.27-35.79,1.16-4.01,2.85-6.32,5.1-6.94,3.16-.88,5.16.2,6,3.23.99,3.56.12,10.17-2.58,19.86-8.53,29.59-25.73,58.1-51.59,85.54-6.1,34.3-11.07,57.79-14.92,70.49-10.29,33.48-23.47,52.44-39.53,56.89-8.42,2.33-15.39.72-20.91-4.84-3.16-3.24-5.42-7.29-6.77-12.16-5.73-20.67,2.08-44.18,23.43-70.51,3.34-4.33,17.66-18.93,42.95-43.8,2.4-13.85,4.21-24.7,5.44-32.56-9.81,18.32-19.26,28.73-28.35,31.25-5.66,1.57-10.88-.1-15.64-5.02-3.03-3.27-5.12-6.95-6.25-11.03-2.63-9.48-2.11-22.73,1.53-39.77,5.11-24.53,13.71-45.2,25.78-62.01,10.15-14.01,20.23-22.41,30.24-25.18,5.14-1.42,10.07-.73,14.82,2.06,3.19,1.81,5.47,5.15,6.82,10.02,1.68,6.06,1.71,14.13.12,24.21,3.83,2.06,5.95,3.81,6.35,5.26.26.92-.04,2.42-.88,4.5-2.21,5.86-5.4,16.6-9.58,32.22-3.73,13.66-6.55,27.27-8.46,40.84ZM423.03,422.13c-15.34,12.19-27.57,27.63-36.72,46.33-4.25,8.69-6.62,17.29-7.1,25.79-.13,2.59.02,4.67.46,6.25.47,1.71,1.29,3.12,2.44,4.21,2.11,1.97,4.48,2.59,7.11,1.86,8.17-2.26,15.29-13.67,21.36-34.2,5.28-17.77,9.43-34.52,12.45-50.24ZM436.44,325.48c-2.39-1.46-3.7-2.59-3.91-3.38-.33-1.19.24-2.97,1.7-5.36,4.83-8.14,8.34-16.2,10.53-24.18,1.79-6.31,2.28-10.98,1.44-14.01-.99-3.56-3.13-4.88-6.42-3.96-5.66,1.57-12.27,9.21-19.81,22.93-8.97,16.24-14.76,33.23-17.36,50.96-1.24,8.85-1.27,15.38-.1,19.59.66,2.37,1.67,4,3.06,4.9,1.38.89,3.06,1.07,5.04.52,4.61-1.28,9.75-7.8,15.42-19.58,3.59-7.51,6.42-14.68,8.51-21.5,1.44-4.51,2.08-6.81,1.91-6.91Z"/>
      <path fill="#ccc" d="M603.8,305.94c15.74-13.26,27.29-25.13,34.65-35.62,10.92-15.26,18.55-27.55,22.88-36.9,2.19-4.2,4.61-6.4,7.25-6.59,3.72-.26,5.71,1.39,5.96,4.96.29,4.19-2.16,11.37-7.36,21.55-16.2,31.05-41.81,58.95-76.84,83.69-14.55,36.85-25.4,61.92-32.57,75.2-19.04,34.99-38.01,53.15-56.93,54.48-9.92.7-17.32-2.68-22.21-10.12-2.79-4.32-4.4-9.35-4.8-15.09-1.71-24.34,12.31-48.77,42.05-73.3,4.7-4.07,23.96-17.11,57.77-39.12,5.81-14.9,10.28-26.58,13.42-35.06-15.08,18.2-27.97,27.67-38.66,28.42-6.66.47-12.1-2.57-16.3-9.14-2.64-4.33-4.13-8.9-4.47-13.71-.78-11.16,2.78-25.82,10.69-43.98,11.25-26.18,25.49-47.28,42.75-63.3,14.49-13.32,27.62-20.4,39.4-21.23,6.05-.43,11.4,1.46,16.05,5.65,3.15,2.74,4.93,6.98,5.33,12.71.5,7.13-1.28,16.14-5.34,27.02,3.8,3.16,5.77,5.59,5.89,7.3.08,1.09-.59,2.69-2,4.81-3.78,6.03-9.77,17.28-17.96,33.75-7.25,14.38-13.47,28.91-18.67,43.61ZM561.59,357.05c-19.85,10.12-36.98,24.57-51.4,43.34-6.71,8.73-11.29,17.77-13.75,27.14-.73,2.86-1.04,5.21-.9,7.07.14,2.01.73,3.76,1.77,5.25,1.9,2.67,4.4,3.9,7.5,3.68,9.61-.68,20.13-11.78,31.54-33.3,9.91-18.61,18.32-36.34,25.24-53.19ZM598.39,252.34c-2.34-2.17-3.53-3.72-3.6-4.65-.1-1.4.94-3.26,3.11-5.59,7.23-7.99,12.96-16.18,17.2-24.58,3.43-6.63,5.02-11.72,4.77-15.29-.29-4.19-2.38-6.14-6.25-5.87-6.67.47-15.75,7.5-27.26,21.08-13.67,16.07-23.96,33.7-30.87,52.88-3.38,9.59-4.89,16.86-4.54,21.82.2,2.79.96,4.84,2.3,6.15,1.34,1.31,3.17,1.88,5.5,1.72,5.42-.38,12.63-6.5,21.61-18.35,5.7-7.56,10.48-14.91,14.34-22.04,2.63-4.7,3.86-7.13,3.7-7.27Z"/>
    </g>
  </g>
</svg>