<?xml version="1.0" encoding="UTF-8"?>
<svg id="_レイヤー_2" data-name="レイヤー 2" xmlns="http://www.w3.org/2000/svg" viewBox="0 0 1141.31 543.89">
  <g id="_レイヤー_4" data-name="レイヤー 4">
    <g>
      <path fill="#ccc" d="M91.97,132.28l-4.42,4.71c-21.63,22.5-36.48,38.74-44.55,48.7-12.53,15.62-19.71,24.78-21.55,27.46-5.32,7.44-10.08,10.46-14.29,9.08-2.97-.97-5.06-3.17-6.27-6.58-1.08-2.96-1.18-5.8-.29-8.52,3.49-10.64,28.18-39.75,74.07-87.32-3.73-5.34-4.99-9.86-3.77-13.57.93-2.84,2.98-4.91,6.15-6.21,2.67-1.04,5.24-1.16,7.72-.35,1.73.57,3.88,1.75,6.44,3.55,32.75-31.74,52.58-52.3,59.49-61.68-3.66.72-8.43,1.89-14.31,3.53-3.29.84-5.99.91-8.09.22-2.35-.77-3.88-2.58-4.6-5.41-.46-1.93-.41-3.76.16-5.5,1.91-5.81,8.97-10.42,21.18-13.81,9.79-2.68,18.73-4.68,26.84-6,2.09-2.6,3.44-4.42,4.05-5.45,2.78-4.3,5.11-7.03,7-8.19,1.89-1.16,4.25-1.28,7.1-.34,5.81,1.91,7.67,6.08,5.56,12.51,9.35.33,17.5.95,24.47,1.86,6.96.92,12.73,2.12,17.31,3.62,12,3.94,20.64,11.84,25.93,23.72,4.95,11.22,5.67,22.21,2.13,32.97-6.13,18.68-20.05,34.81-41.77,48.38-18.56,11.46-39.2,18.39-61.91,20.8-19.55,1.95-37.86.12-54.93-5.48-4.08-1.34-9.04-3.58-14.86-6.72ZM181.07,36.12c-8.1,10.91-19.94,24.43-35.51,40.56-19.02,19.53-31.37,32.33-37.06,38.41,6.4,3.47,10.96,5.65,13.68,6.54,14.1,4.63,32.42,4.33,54.97-.88,21.84-5.17,40.59-14.3,56.26-27.38,9.6-7.95,15.67-15.82,18.23-23.62,2.31-7.05,1.67-13.12-1.94-18.21-3.61-5.09-10.23-9.21-19.88-12.38-7.3-2.4-15.01-3.86-23.12-4.4-8.12-.54-16.66-.08-25.62,1.36Z"/>
      <path fill="#ccc" d="M182.94,220.91l-1.1,3.34c-.89,2.72-.99,5.3-.27,7.72,1.59,5.59,5.91,9.54,12.97,11.86,15.46,5.07,37.24-.94,65.32-18.04,4.93-2.91,8.63-3.95,11.1-3.14,1.36.45,2.38,1.53,3.04,3.26.42,1.24.48,2.29.2,3.15-1.58,4.83-10.2,11.04-25.85,18.65-12.24,5.99-24.56,10.1-36.94,12.34-12.38,2.24-23.09,1.88-32.12-1.08-9.28-3.04-15.52-8.66-18.73-16.83-2.13-5.63-1.93-12.28.58-19.95,6.86-20.91,23.41-38.16,49.66-51.75,21.32-11.1,37.91-14.7,49.79-10.8,3.22,1.05,5.8,3,7.75,5.83,2.36,3.65,2.86,7.59,1.48,11.79-2.15,6.56-7.82,13.6-17.01,21.14-18.99,15.7-42.28,23.2-69.87,22.51ZM191.77,207.77c9.63-.13,17.54-1.24,23.7-3.32,10.85-3.84,20.19-9.13,28.03-15.88,2.83-2.36,4.63-4.71,5.4-7.07.81-2.47.04-4.1-2.31-4.87-3.22-1.06-8.59-.14-16.11,2.73-13.44,5.04-26.34,14.52-38.71,28.41Z"/>
      <path fill="#ccc" d="M346.84,204.99c6.13-1.55,10.63-2.54,13.51-2.97,5.88-.81,11.24-.42,16.06,1.16,5.44,1.79,9.01,4.7,10.7,8.75,1.68,4.05,1.5,9.23-.57,15.54-2.84,8.66-9.28,18.06-19.32,28.2-15.7,16.09-32.03,27.45-49,34.08-14.3,5.59-26.4,6.76-36.3,3.51-5.45-1.79-10.13-5.65-14.08-11.61-28.19,28.71-54.81,58.69-79.86,89.94-5.65,7.6-10.39,10.78-14.22,9.52-1.86-.61-3.31-2.46-4.35-5.54-.79-2.18-.84-4.32-.15-6.42,2.19-6.68,17.48-25.72,45.86-57.1,43.83-48.38,83.21-87.61,118.15-117.67,7.3-6.37,12.24-10.79,14.82-13.23,6.97-6.62,12.49-9.26,16.58-7.92,4.2,1.38,5.48,4.61,3.81,9.68-.93,2.85-3.68,6.19-8.23,10.04-5.62,5.01-10.09,9.02-13.41,12.05ZM279.82,268.31c1.79,3.74,4.72,6.28,8.81,7.62,11.51,3.77,27.6-2.25,48.27-18.08,7.67-5.84,14.35-12.21,20.04-19.12,4.54-5.5,7.34-9.85,8.4-13.07.73-2.23.75-4.07.07-5.53-.69-1.46-2.14-2.55-4.37-3.28-5.82-1.91-14.25-.22-25.3,5.06-10.6,5.16-21.92,13.57-33.97,25.24-11.07,10.76-18.38,17.82-21.95,21.17Z"/>
      <path fill="#ccc" d="M387.45,288l-1.1,3.34c-.89,2.72-.99,5.3-.27,7.72,1.59,5.59,5.91,9.54,12.96,11.86,15.46,5.07,37.24-.94,65.32-18.04,4.93-2.91,8.63-3.95,11.1-3.14,1.36.45,2.38,1.53,3.04,3.26.42,1.24.48,2.29.2,3.15-1.58,4.83-10.2,11.04-25.85,18.65-12.24,5.99-24.56,10.1-36.94,12.34-12.38,2.24-23.09,1.88-32.12-1.08-9.28-3.04-15.52-8.66-18.73-16.83-2.13-5.63-1.93-12.28.58-19.95,6.86-20.91,23.41-38.16,49.66-51.75,21.32-11.1,37.91-14.7,49.79-10.8,3.22,1.05,5.8,3,7.75,5.83,2.36,3.65,2.86,7.59,1.48,11.79-2.15,6.56-7.82,13.61-17.01,21.14-18.99,15.7-42.28,23.2-69.87,22.51ZM396.28,274.86c9.63-.13,17.54-1.24,23.7-3.32,10.85-3.84,20.19-9.13,28.03-15.88,2.83-2.36,4.63-4.71,5.4-7.07.81-2.47.04-4.1-2.31-4.87-3.22-1.06-8.59-.14-16.11,2.73-13.44,5.04-26.35,14.52-38.71,28.41Z"/>
      <path fill="#ccc" d="M519.39,303.12c16.38-9.01,34.52-17.11,54.42-24.29,7.15-2.59,14.57-4.74,22.27-6.47,3.83-.8,6.17-1.06,7.04-.77,1.86.61,3.27,2.58,4.23,5.91.63,1.85.74,3.4.33,4.63-.73,2.23-4.08,4.49-10.04,6.78-15.91,5.88-24.69,11.36-26.36,16.43-.93,2.85.21,4.8,3.42,5.85,5.32,1.75,15.92.36,31.79-4.17,2.71-.75,4.81-.89,6.3-.4.99.32,1.81,1.14,2.48,2.46.75,1.48.92,2.84.51,4.07-1.22,3.71-8.28,7.7-21.19,11.96-13.57,4.59-25.24,5.29-35.01,2.08-3.96-1.3-7.26-3.55-9.91-6.75-2.28-2.67-2.69-6.23-1.22-10.68,1.01-3.09,3.47-6.19,7.37-9.3-12.05,3.72-27.45,11.83-46.21,24.31-11.08,7.88-22.89,18.19-35.43,30.93-4.71,4.76-9.17,6.45-13.38,5.07-4.58-1.5-6.16-4.42-4.74-8.75,1.38-4.2,8.66-14.29,21.84-30.25,19.57-23.73,37.62-41.17,54.16-52.33,10.22-6.93,17.74-9.6,22.57-8.01,1.61.53,2.93,1.51,3.97,2.95,1.2,1.76,1.5,3.57.89,5.43-.61,1.86-2.7,4.05-6.27,6.58-.7.46-5.34,3.53-13.92,9.21-7.96,5.48-14.61,11.31-19.93,17.51Z"/>
      <path fill="#ccc" d="M692.66,295c10.14,3.33,13.19,11.18,9.13,23.55-5.4,16.46-19.85,34.81-43.34,55.05-25.55,21.91-46.06,30.32-61.52,25.25-7.17-2.35-11.34-7.42-12.49-15.2-.64-3.91-.18-8.21,1.36-12.92,5.2-15.84,16.28-31.25,33.26-46.23,15.78-13.87,32.11-23.31,48.97-28.34,9.87-2.93,18.08-3.32,24.64-1.17ZM650.34,358.82c-2.28-3.49-3.2-5.91-2.75-7.27.32-.99,3.2-3.06,8.62-6.22,15.23-8.84,24.11-17.1,26.62-24.77.32-.99.34-2.08.05-3.27-.38-2.18-1.62-3.62-3.73-4.31-3.96-1.3-11.03.63-21.22,5.78-13.15,6.65-24.04,14.38-32.69,23.19-10,10.01-16.3,18.98-18.89,26.9-.69,2.11-.74,4.14-.16,6.12.88,2.75,2.55,4.54,5.03,5.35,5.94,1.95,13.77-.42,23.5-7.09,4.19-2.74,7.86-5.78,11.01-9.13,3.15-3.35,4.69-5.11,4.61-5.27Z"/>
      <path fill="#ccc" d="M725.12,367.73c2.09-.96,4.13-1.93,6.1-2.93,34.14-16.76,55.6-23.7,64.38-20.81,4.82,1.58,6.36,5.04,4.62,10.35-1.22,3.71-4.82,7.39-10.82,11.04-32.68,19.84-52.47,40.27-59.37,61.31-2.23,6.81-2.51,13.91-.82,21.31.8,3.42.93,5.93.41,7.53-.49,1.48-1.7,2.66-3.63,3.54-2.18,1.2-4.38,1.44-6.61.71-5.07-1.67-8.29-6.28-9.64-13.85-1.35-7.16-.61-15.07,2.23-23.73,5.48-16.7,17.86-33.13,37.13-49.28-20.36,5.24-42.26,19.16-65.7,41.76-5.86,5.34-10.9,7.32-15.1,5.94-2.1-.69-3.59-2-4.47-3.93-1.16-2.3-1.3-4.81-.41-7.53,2.19-6.68,15.54-21.69,40.05-45.03,13.2-12.66,23.28-21.69,30.26-27.07,6.93-5.26,12.07-7.35,15.41-6.25,1.61.53,2.91,1.78,3.91,3.75,1.16,2.3,1.38,4.56.65,6.79-.89,2.72-3.97,6.03-9.22,9.93-7.67,5.84-14.13,11.33-19.38,16.46Z"/>
      <path fill="#ccc" d="M872.63,359.18c9.77,3.21,12.98,9.94,9.61,20.21-2.96,9.03-9.47,16.97-19.53,23.81-7.72,5.14-13.62,7.04-17.7,5.71-3.47-1.14-4.55-3.68-3.25-7.64.69-2.1,1.73-3.61,3.13-4.52.53-.37,2.48-1.31,5.85-2.81,2.92-1.37,6.24-3.78,9.97-7.21,2.54-2.32,4.1-4.34,4.67-6.08.65-1.98-.14-3.33-2.37-4.06-2.6-.85-7.23-.11-13.89,2.23-10.57,3.8-22.35,11.31-35.34,22.53-13.45,11.76-21.55,21.84-24.31,30.26-.89,2.72-.88,5.4.04,8.03,1.29,3.99,3.92,6.63,7.88,7.93,7.79,2.56,18.59.75,32.4-5.4,11.75-5.33,22.08-11.12,30.98-17.38,4.72-3.52,8.25-4.9,10.6-4.13,1.36.45,2.39,1.47,3.1,3.07.58,1.56.67,2.96.27,4.2-1.5,4.58-10.3,11.56-26.4,20.94-25.5,14.66-45.86,19.49-61.08,14.5-9.16-3-15.07-8.57-17.75-16.71-1.88-5.96-1.75-12.22.4-18.78,4.22-12.87,14.43-26.03,30.63-39.49,15.58-12.84,31.74-21.99,48.48-27.47,9.78-3.09,17.65-3.67,23.59-1.72Z"/>
      <path fill="#ccc" d="M956.72,391.08c2.1.69,3.57,2.06,4.41,4.12.54,1.69.59,3.21.15,4.57-.73,2.23-3.74,5.35-9.04,9.37-19.4,15.7-33.94,29.09-43.6,40.17-10.16,11.33-19.76,23.26-28.8,35.78-4.01,5.54-8.11,7.62-12.32,6.24-2.47-.81-4.13-2.45-4.96-4.92-.83-2.05-.95-4.01-.34-5.87,1.22-3.71,9.24-14.78,24.05-33.22,11.63-14.55,27.65-29.57,48.08-45.07,6.61-5.1,11.39-8.39,14.34-9.89,3-1.62,5.67-2.04,8.02-1.27ZM1014.57,333.79c5.57,1.83,7.42,5.59,5.55,11.28-1.71,5.2-6.31,10.06-13.83,14.58-7.19,4.36-13.19,5.75-18.02,4.16-2.35-.77-3.98-2.26-4.9-4.48-.96-2.09-1.05-4.32-.28-6.67,1.95-5.94,7.29-11.17,16.05-15.7,6.45-3.36,11.59-4.42,15.43-3.16Z"/>
      <path fill="#ccc" d="M976.96,450.34c2.09-.96,4.13-1.93,6.1-2.93,34.14-16.76,55.6-23.7,64.38-20.81,4.83,1.58,6.36,5.04,4.62,10.35-1.22,3.71-4.83,7.39-10.82,11.04-32.68,19.84-52.47,40.27-59.37,61.31-2.23,6.81-2.51,13.91-.82,21.31.8,3.42.93,5.93.41,7.53-.49,1.48-1.7,2.66-3.63,3.54-2.18,1.2-4.38,1.44-6.61.71-5.08-1.67-8.29-6.28-9.64-13.85-1.35-7.16-.61-15.07,2.23-23.73,5.48-16.7,17.86-33.13,37.13-49.28-20.36,5.24-42.26,19.16-65.7,41.76-5.86,5.34-10.9,7.32-15.1,5.94-2.1-.69-3.59-2-4.47-3.93-1.16-2.3-1.3-4.81-.41-7.53,2.19-6.68,15.54-21.69,40.05-45.03,13.2-12.66,23.28-21.69,30.26-27.07,6.93-5.26,12.07-7.35,15.41-6.25,1.61.53,2.91,1.78,3.91,3.75,1.16,2.3,1.38,4.56.65,6.79-.89,2.72-3.97,6.03-9.22,9.93-7.67,5.84-14.13,11.33-19.38,16.46Z"/>
      <path fill="#ccc" d="M1130.45,438.61c10.14,3.33,13.19,11.18,9.13,23.55-5.4,16.46-19.85,34.81-43.34,55.05-25.55,21.91-46.06,30.32-61.52,25.25-7.17-2.35-11.34-7.42-12.49-15.2-.63-3.91-.18-8.21,1.36-12.92,5.19-15.84,16.28-31.25,33.26-46.23,15.78-13.87,32.11-23.31,48.97-28.34,9.87-2.93,18.08-3.32,24.64-1.17ZM1088.13,502.43c-2.28-3.49-3.2-5.91-2.75-7.27.32-.99,3.2-3.06,8.62-6.22,15.23-8.84,24.11-17.1,26.63-24.77.32-.99.34-2.08.05-3.27-.38-2.18-1.62-3.62-3.73-4.31-3.96-1.3-11.03.63-21.22,5.78-13.15,6.65-24.04,14.38-32.69,23.19-10,10.01-16.3,18.98-18.89,26.9-.69,2.11-.74,4.14-.16,6.12.88,2.75,2.55,4.54,5.03,5.35,5.94,1.95,13.77-.42,23.5-7.09,4.19-2.74,7.86-5.78,11.01-9.13,3.15-3.35,4.69-5.11,4.61-5.27Z"/>
    </g>
  </g>
</svg>