<?xml version="1.0" encoding="UTF-8"?>
<svg id="_レイヤー_2" data-name="レイヤー 2" xmlns="http://www.w3.org/2000/svg" viewBox="0 0 468.99 31.52">
  <defs>
    <style>
      .cls-1 {
        fill: #aaa;
      }
    </style>
  </defs>
  <g id="Layer_1" data-name="Layer 1">
    <g>
      <path class="cls-1" d="M376,23.79H93c-.55,0-1-.45-1-1s.45-1,1-1h283c.55,0,1,.45,1,1s-.45,1-1,1Z"/>
      <path class="cls-1" d="M83.29,19.81c-1.88-1.43-3.01-3.64-3.06-6,.07-2.31,1.22-4.46,3.1-5.8,2.63-1.83,6.15-1.76,9-3.16,2.06-1.01,3.69-2.73,4.59-4.85.32,2.14-1,4.23-2.65,5.59-1.77,1.23-3.66,2.28-5.65,3.13-1.99.84-3.67,2.27-4.82,4.09-.98,2.2-1.16,4.68-.51,7"/>
      <path class="cls-1" d="M81.45,21.91c-1.85.19-3.39-1.7-4-3.46s-.59-3.68-1.15-5.46c-.47-1.52-1.35-2.88-2.53-3.95-.77-.77-1.77-1.27-2.85-1.42-2.17-.2-4.13,1.77-4.46,3.93-.19,2.19.53,4.36,2,6,3.1,3.83,8.14,5.52,12.93,4.34"/>
      <path class="cls-1" d="M76.86,24.97c-.64,1.41-3,1.32-4.88.75s-3.6-1.65-5.45-2.26c-1.51-.51-3.11-.67-4.69-.45-.96.09-1.86.52-2.53,1.22-1.13,1.41-.2,3.9,1.61,5.34,1.84,1.35,4.08,2.04,6.36,1.94,4.78-.08,8.67-2.49,9.58-6.54"/>
      <path class="cls-1" d="M64.11,5.03c.12.73.77,1.25,1.5,1.21.72-.05,1.37-.46,1.74-1.08.85-1.46.49-3.32-.85-4.35-1.39-.95-3.24-.87-4.54.19-.52.43-.91.99-1.13,1.63-.19.65-.24,1.33-.16,2,.23,2.69,1.35,5.23,3.19,7.21-.84-2.3-.74-4.84.27-7.07"/>
      <path class="cls-1" d="M68.59,21.3c-1.64-.55-3.12-1.49-4.31-2.75-1.6-1.69-2.44-3.94-3.55-6-1.28-2.26-2.85-4.35-4.67-6.2-.85-.92-1.81-1.73-2.85-2.41-2.56-1.56-5.64-2.01-8.54-1.25-2.19.53-4.16,1.75-5.61,3.47-1.45,1.74-2.14,3.99-1.93,6.24.18,1.29.58,2.53,1.19,3.68.52,1.1,1.24,2.1,2.11,2.94.88.84,2.03,1.35,3.25,1.43,2.27-.05,4.22-1.66,4.7-3.88.19-.74.14-1.52-.13-2.24-.68-1.33-2.19-2.01-3.63-1.64-1.4.42-2.52,1.49-3,2.87-.65-1.17-1.03-2.47-1.11-3.81-.07-1.35.5-2.66,1.54-3.53,1.1-.69,2.39-1,3.68-.89,3.52,0,7.2,1,9.71,3.45-2.01-.39-4.04.53-5.08,2.29,1.18-.57,2.56-.5,3.68.18,1.09.69,2.06,1.53,2.9,2.51,2.07,2.16,4.38,4.24,7.23,5.14,1.4.45,2.89.59,4.35.41"/>
      <path class="cls-1" d="M21.55,20.81c1.75,1.7,4.42,2.01,6.51.76-.48,1.43-.05,3.01,1.09,4,.12.12.28.19.45.21.2-.03.38-.14.5-.31.99-1.07,1.72-2.36,2.11-3.77,1.53,1.99,4.23,2.68,6.53,1.67-1.81-.42-3.28-1.74-3.9-3.49-.58-1.75-.54-3.64.11-5.36-3.1,4.09-8.05,6.35-13.17,6"/>
      <path class="cls-1" d="M19.29,18.81c-3-1-5.35-3.64-6.94-6.37-.71-1.22-1.33-2.5-2.15-3.64-.79-1.18-1.91-2.1-3.22-2.64-.71-.23-1.45-.37-2.2-.39-1.3-.2-2.63.13-3.68.91-1.3,1.7-1.46,4-.42,5.87.41.65,1.14,1.04,1.91,1,.74-.15,1.37-.63,1.71-1.3.37-.64.57-1.36.88-2,.07-.16.17-.33.34-.36.09,0,.18,0,.26.05,3.39,1.28,5.2,4.93,8.13,7.05,1.6,1.08,3.46,1.71,5.38,1.82"/>
      <path class="cls-1" d="M36.75,3.54c-.3.59-.66,1.14-1.08,1.65-1.03,1.16-2.46,1.87-4,2-1.54.12-3.04-.53-4-1.74-.31-.37-.5-.84-.54-1.32-.04-.31,0-.63.09-.93.19-.52.54-.97,1-1.29.49-.25,1.06-.25,1.55,0,.49.25.88.64,1.14,1.12.35.63.44,1.55-.16,1.94,1.72.67,4.36-.59,6-1.42"/>
      <path class="cls-1" d="M58.63,7.72c.23-.38.42-.79.56-1.22.31-.99.22-2.07-.24-3-.49-.94-1.4-1.57-2.45-1.7-.34-.04-.69.02-1,.17-.19.09-.36.22-.5.38-.23.29-.38.63-.41,1,.02.37.22.72.54.91.32.19.68.28,1.05.25.49,0,1.06-.3,1.07-.78,1,.75,1.22,2.73,1.34,4"/>
      <path class="cls-1" d="M24.08,12.44c1.02-1.31.99-3.16-.07-4.44-1.11-1.23-2.88-1.63-4.41-1-1.5.69-2.49,2.15-2.57,3.8-.05,1.63.7,3.19,2,4.18,1.86,1.22,4.18,1.49,6.28.75,2.06-.75,3.98-1.85,5.66-3.26,1.89-1.26,3.5-2.92,4.7-4.85-1.67,1.33-3.46,2.51-5.35,3.51-1.87,1-3.99,1.47-6.11,1.36"/>
      <circle class="cls-1" cx="87" cy="22.79" r="3"/>
      <path class="cls-1" d="M385.7,19.81c1.88-1.43,3.01-3.64,3.06-6-.07-2.31-1.22-4.46-3.11-5.8-2.62-1.83-6.15-1.76-9-3.16-2.06-1.02-3.69-2.74-4.59-4.85-.31,2.14,1,4.23,2.66,5.59,1.77,1.23,3.66,2.28,5.65,3.13,2,.83,3.69,2.26,4.84,4.09.99,2.2,1.18,4.68.52,7"/>
      <path class="cls-1" d="M387.54,21.91c1.85.19,3.39-1.7,4-3.46s.59-3.68,1.14-5.46c.48-1.52,1.35-2.88,2.53-3.95.78-.77,1.78-1.27,2.86-1.42,2.17-.2,4.13,1.77,4.46,3.93.18,2.2-.57,4.38-2.06,6-3.1,3.84-8.14,5.53-12.92,4.34"/>
      <path class="cls-1" d="M392.13,24.97c.63,1.41,3,1.32,4.88.75s3.6-1.65,5.45-2.26c1.51-.52,3.11-.67,4.69-.45.96.09,1.86.52,2.53,1.22,1.13,1.41.2,3.9-1.62,5.34-1.83,1.35-4.07,2.04-6.35,1.94-4.79-.08-8.67-2.49-9.58-6.54"/>
      <path class="cls-1" d="M404.88,5.03c-.13.72-.77,1.24-1.51,1.21-.72-.05-1.37-.46-1.74-1.08-.85-1.46-.48-3.32.86-4.35,1.39-.95,3.24-.87,4.54.19.52.43.91.99,1.13,1.63.19.65.24,1.33.16,2-.23,2.69-1.35,5.23-3.19,7.21.84-2.3.74-4.84-.27-7.07"/>
      <path class="cls-1" d="M400.4,21.3c1.64-.55,3.12-1.49,4.31-2.75,1.6-1.69,2.44-3.94,3.55-6,1.27-2.26,2.84-4.35,4.66-6.2.85-.92,1.81-1.74,2.85-2.43,2.56-1.56,5.64-2.01,8.54-1.25,2.19.53,4.15,1.75,5.61,3.47,1.44,1.74,2.14,3.99,1.93,6.24-.17,1.29-.58,2.54-1.2,3.68-.52,1.1-1.23,2.09-2.1,2.94-.88.84-2.03,1.35-3.25,1.43-2.27-.05-4.22-1.66-4.7-3.88-.19-.74-.14-1.52.13-2.24.68-1.33,2.19-2.01,3.63-1.64,1.41.41,2.53,1.48,3,2.87.66-1.17,1.04-2.47,1.12-3.81.07-1.35-.5-2.66-1.54-3.53-1.1-.69-2.39-1-3.68-.89-3.53,0-7.2,1-9.71,3.45,2.01-.39,4.04.53,5.08,2.29-1.18-.57-2.56-.5-3.68.18-1.09.68-2.07,1.53-2.9,2.51-2.07,2.16-4.38,4.24-7.23,5.14-1.4.45-2.89.59-4.35.41"/>
      <path class="cls-1" d="M447.44,20.81c-1.75,1.7-4.42,2.01-6.51.76.48,1.43.05,3.01-1.09,4-.12.12-.28.19-.45.21-.2-.03-.38-.14-.5-.31-1-1.06-1.73-2.34-2.13-3.74-1.53,1.99-4.23,2.68-6.53,1.67,1.81-.42,3.28-1.74,3.9-3.49.58-1.75.54-3.64-.11-5.36,3.1,4.09,8.05,6.35,13.17,6"/>
      <path class="cls-1" d="M449.69,18.81c3-1,5.36-3.64,6.95-6.37.71-1.22,1.33-2.5,2.15-3.64.79-1.18,1.91-2.1,3.22-2.64.71-.22,1.45-.34,2.2-.35,1.3-.2,2.63.13,3.68.91,1.3,1.7,1.46,4,.42,5.87-.41.65-1.14,1.04-1.91,1-.74-.15-1.37-.63-1.71-1.3-.37-.64-.57-1.36-.88-2-.07-.16-.17-.33-.34-.36-.09,0-.19,0-.27.05-3.38,1.28-5.19,4.93-8.12,7.05-1.6,1.09-3.46,1.73-5.39,1.86"/>
      <path class="cls-1" d="M432.21,3.54c.3.59.66,1.14,1.08,1.65,1.01,1.15,2.43,1.86,3.95,2,1.54.12,3.04-.53,4-1.74.31-.38.49-.84.54-1.32.04-.31,0-.63-.09-.93-.18-.52-.51-.96-.95-1.29-.49-.25-1.07-.25-1.56,0-.48.25-.88.64-1.13,1.12-.35.63-.44,1.55.16,1.94-1.72.67-4.36-.59-6-1.42"/>
      <path class="cls-1" d="M410.36,7.72c-.23-.38-.42-.79-.56-1.22-.31-.99-.22-2.07.24-3,.49-.94,1.4-1.57,2.45-1.7.34-.05.69.01,1,.17.2.09.37.22.51.38.23.29.38.63.41,1-.02.37-.22.72-.54.91-.32.19-.68.28-1.05.25-.49,0-1.06-.3-1.07-.78-1,.75-1.22,2.73-1.34,4"/>
      <path class="cls-1" d="M444.91,12.44c-1.02-1.31-1-3.16.06-4.44,1.12-1.23,2.88-1.63,4.42-1,1.5.69,2.49,2.15,2.57,3.8.04,1.64-.73,3.2-2.05,4.18-1.86,1.22-4.19,1.49-6.29.75-2.06-.75-3.97-1.85-5.65-3.26-1.9-1.26-3.5-2.91-4.7-4.85,1.67,1.33,3.46,2.51,5.35,3.51,1.9,1.01,4.04,1.47,6.19,1.34"/>
      <circle class="cls-1" cx="381.99" cy="22.79" r="3"/>
    </g>
  </g>
</svg>