<?xml version="1.0" encoding="UTF-8"?>
<svg id="_レイヤー_2" data-name="レイヤー 2" xmlns="http://www.w3.org/2000/svg" viewBox="0 0 468.99 31.57">
  <defs>
    <style>
      .cls-1 {
        fill: #aaa;
      }
    </style>
  </defs>
  <g id="Layer_1" data-name="Layer 1">
    <g>
      <path class="cls-1" d="M376,9.73H93c-.55,0-1-.45-1-1s.45-1,1-1h283c.55,0,1,.45,1,1s-.45,1-1,1Z"/>
      <path class="cls-1" d="M83.29,11.76c-1.88,1.43-3.01,3.64-3.06,6,.07,2.31,1.22,4.46,3.1,5.8,2.63,1.84,6.15,1.76,9,3.16,2.06,1.02,3.69,2.74,4.59,4.85.32-2.13-1-4.23-2.65-5.58-1.76-1.23-3.64-2.27-5.62-3.1-2-.85-3.69-2.3-4.85-4.14-.98-2.2-1.16-4.68-.51-7"/>
      <path class="cls-1" d="M81.45,9.61c-1.85-.19-3.39,1.7-4,3.46s-.59,3.69-1.15,5.47c-.47,1.52-1.35,2.88-2.53,3.95-.77.76-1.77,1.25-2.84,1.4-2.17.21-4.13-1.76-4.46-3.92-.19-2.19.53-4.36,2-6,3.1-3.83,8.14-5.53,12.93-4.35"/>
      <path class="cls-1" d="M76.86,6.55c-.64-1.41-3-1.32-4.88-.75s-3.6,1.66-5.45,2.27c-1.51.51-3.11.66-4.69.44-.96-.08-1.86-.51-2.53-1.21-1.13-1.42-.2-3.9,1.61-5.35,1.84-1.35,4.08-2.04,6.36-1.94,4.78.09,8.67,2.49,9.58,6.54"/>
      <path class="cls-1" d="M64.11,26.5c.12-.73.76-1.25,1.5-1.22.72.06,1.37.46,1.74,1.08.85,1.46.49,3.32-.85,4.35-1.39.95-3.24.87-4.54-.19-.52-.43-.91-.99-1.13-1.63-.19-.65-.24-1.33-.16-2,.23-2.69,1.35-5.22,3.19-7.2-.84,2.3-.74,4.84.27,7.07"/>
      <path class="cls-1" d="M68.59,10.23c-1.64.54-3.12,1.48-4.31,2.74-1.6,1.7-2.44,3.94-3.55,6-1.28,2.26-2.85,4.35-4.67,6.2-.85.92-1.81,1.73-2.85,2.42-2.56,1.56-5.64,2.01-8.54,1.24-2.19-.53-4.16-1.75-5.61-3.47-1.45-1.74-2.15-3.99-1.93-6.24.18-1.28.58-2.53,1.19-3.67.52-1.1,1.23-2.1,2.11-2.94.88-.85,2.03-1.36,3.25-1.44,2.28.06,4.22,1.67,4.7,3.89.19.74.14,1.52-.13,2.23-.67,1.33-2.18,2.02-3.63,1.64-1.4-.42-2.52-1.49-3-2.87-.65,1.17-1.03,2.47-1.11,3.81-.06,1.36.51,2.66,1.54,3.54,1.1.69,2.39,1,3.68.88,3.52,0,7.2-1,9.71-3.45-2.01.39-4.04-.53-5.08-2.29,1.18.58,2.57.51,3.68-.18,1.09-.68,2.07-1.53,2.9-2.51,2.07-2.16,4.38-4.24,7.23-5.14,1.41-.44,2.89-.58,4.35-.41"/>
      <path class="cls-1" d="M21.55,10.75c1.75-1.69,4.42-2,6.51-.76-.49-1.43-.05-3.01,1.09-4,.12-.12.28-.2.45-.21.2.03.38.13.5.3.99,1.06,1.71,2.35,2.11,3.74,1.54-1.98,4.23-2.67,6.53-1.67-1.81.42-3.28,1.74-3.9,3.49-.58,1.75-.54,3.64.11,5.36-3.1-4.09-8.05-6.34-13.17-6"/>
      <path class="cls-1" d="M19.29,12.68c-3,1-5.35,3.63-6.94,6.36-.71,1.22-1.33,2.5-2.15,3.64-.79,1.18-1.91,2.11-3.22,2.65-.71.23-1.45.36-2.2.38-1.3.2-2.63-.13-3.68-.91-1.3-1.69-1.46-4-.42-5.86.4-.66,1.14-1.04,1.91-1,.74.14,1.37.62,1.71,1.29.37.64.57,1.36.88,2,.07.15.17.33.34.35.08.03.18.03.26,0,3.39-1.28,5.2-4.94,8.13-7,1.59-1.09,3.45-1.73,5.38-1.86"/>
      <path class="cls-1" d="M36.75,27.99c-.29-.59-.66-1.14-1.08-1.65-1.03-1.16-2.46-1.87-4-2-1.54-.12-3.04.53-4,1.73-.27.38-.43.82-.46,1.29-.04.31-.01.63.09.93.19.52.54.97,1,1.29.49.25,1.06.25,1.55,0,.49-.25.88-.65,1.14-1.13.35-.62.44-1.55-.16-1.94,1.72-.66,4.36.6,6,1.43"/>
      <path class="cls-1" d="M58.63,23.8c.24.38.43.79.58,1.22.31.99.22,2.07-.24,3-.48.94-1.4,1.58-2.45,1.7-.34.05-.69,0-1-.17-.19-.08-.37-.22-.5-.38-.23-.28-.38-.63-.41-1,.02-.38.22-.72.54-.92.32-.19.69-.28,1.06-.25.49,0,1.06.3,1.07.79,1-.76,1.22-2.74,1.34-4"/>
      <path class="cls-1" d="M24.08,19.08c1.02,1.32,1,3.17-.07,4.45-1.11,1.24-2.88,1.64-4.41,1-1.5-.69-2.49-2.15-2.57-3.8-.04-1.63.7-3.18,2-4.17,1.86-1.22,4.18-1.5,6.28-.76,2.06.75,3.98,1.86,5.66,3.27,1.91,1.25,3.53,2.89,4.75,4.82-1.67-1.33-3.46-2.51-5.35-3.52-1.89-1-4.02-1.46-6.16-1.34"/>
      <circle class="cls-1" cx="87" cy="8.73" r="3"/>
      <path class="cls-1" d="M385.7,11.76c1.88,1.43,3.01,3.64,3.06,6-.07,2.31-1.22,4.46-3.11,5.8-2.62,1.84-6.15,1.76-9,3.16-2.06,1.02-3.68,2.74-4.59,4.85-.31-2.13,1-4.23,2.66-5.58,1.76-1.23,3.64-2.27,5.62-3.1,2.01-.85,3.71-2.3,4.87-4.15.99-2.2,1.18-4.68.52-7"/>
      <path class="cls-1" d="M387.54,9.61c1.85-.19,3.39,1.7,4,3.46s.59,3.69,1.14,5.47c.48,1.52,1.35,2.88,2.53,3.95.78.76,1.78,1.25,2.85,1.4,2.17.21,4.13-1.76,4.46-3.92.18-2.2-.57-4.38-2.06-6-3.1-3.83-8.13-5.53-12.92-4.35"/>
      <path class="cls-1" d="M392.13,6.55c.63-1.41,3-1.32,4.88-.75s3.6,1.66,5.45,2.27c1.51.51,3.11.66,4.69.44.96-.08,1.86-.51,2.53-1.21,1.13-1.42.2-3.9-1.62-5.35-1.83-1.35-4.07-2.04-6.35-1.94-4.79.09-8.67,2.49-9.58,6.54"/>
      <path class="cls-1" d="M404.88,26.5c-.13-.73-.77-1.25-1.51-1.22-.72.06-1.37.46-1.74,1.08-.85,1.46-.48,3.32.86,4.35,1.39.95,3.24.87,4.54-.19.54-.42.95-.99,1.18-1.63.19-.65.24-1.33.16-2-.23-2.69-1.35-5.22-3.19-7.2.84,2.3.74,4.84-.27,7.07"/>
      <path class="cls-1" d="M400.4,10.23c1.64.54,3.12,1.48,4.31,2.74,1.6,1.7,2.44,3.94,3.55,6,1.27,2.26,2.84,4.35,4.66,6.2.85.92,1.81,1.74,2.85,2.44,2.56,1.56,5.64,2.01,8.54,1.24,2.19-.53,4.15-1.75,5.61-3.47,1.45-1.74,2.14-3.99,1.93-6.24-.17-1.29-.58-2.53-1.2-3.67-.51-1.1-1.23-2.1-2.1-2.94-.88-.85-2.03-1.36-3.25-1.44-2.28.06-4.22,1.67-4.7,3.89-.19.74-.14,1.52.13,2.23.67,1.33,2.18,2.02,3.63,1.64,1.41-.41,2.53-1.48,3-2.87.65,1.17,1.04,2.47,1.12,3.81.06,1.36-.51,2.66-1.54,3.54-1.1.69-2.39,1-3.68.88-3.53,0-7.2-1-9.71-3.45,2.01.39,4.04-.53,5.08-2.29-1.18.58-2.57.51-3.68-.18-1.09-.68-2.07-1.53-2.9-2.51-2.07-2.16-4.38-4.24-7.23-5.14-1.41-.44-2.89-.58-4.35-.41"/>
      <path class="cls-1" d="M447.44,10.75c-1.75-1.69-4.42-2-6.51-.76.49-1.43.05-3.01-1.09-4-.12-.12-.28-.2-.45-.21-.2.03-.38.13-.5.3-1,1.06-1.73,2.34-2.13,3.74-1.54-1.99-4.24-2.68-6.55-1.67,1.81.42,3.28,1.74,3.9,3.49.58,1.75.54,3.64-.11,5.36,3.1-4.09,8.05-6.34,13.17-6"/>
      <path class="cls-1" d="M449.69,12.68c3,1,5.36,3.63,6.95,6.36.71,1.22,1.33,2.5,2.15,3.64.78,1.19,1.91,2.11,3.22,2.65.71.23,1.45.36,2.2.38,1.3.2,2.63-.13,3.68-.91,1.3-1.69,1.46-4,.42-5.86-.4-.66-1.14-1.04-1.91-1-.74.14-1.37.62-1.71,1.29-.37.64-.57,1.36-.88,2-.07.15-.17.33-.34.35-.09.02-.18.02-.27,0-3.38-1.28-5.19-4.94-8.12-7-1.6-1.09-3.46-1.73-5.39-1.86"/>
      <path class="cls-1" d="M432.21,27.99c.29-.59.65-1.15,1.08-1.65,1.01-1.15,2.43-1.86,3.95-2,1.54-.12,3.04.53,4,1.73.3.38.49.84.54,1.32.04.31.01.63-.09.93-.18.52-.51.96-.95,1.29-.49.25-1.07.25-1.56,0-.49-.25-.88-.64-1.13-1.13-.35-.62-.44-1.55.16-1.94-1.72-.66-4.36.6-6,1.43"/>
      <path class="cls-1" d="M410.36,23.8c-.23.38-.42.79-.56,1.22-.31.99-.22,2.07.24,3,.48.94,1.4,1.58,2.45,1.7.34.06.69,0,1-.17.2-.08.37-.22.51-.38.23-.28.38-.63.41-1-.02-.38-.22-.72-.54-.92-.32-.19-.68-.28-1.05-.25-.49,0-1.06.3-1.07.79-1-.76-1.22-2.74-1.34-4"/>
      <path class="cls-1" d="M444.91,19.08c-1.02,1.31-1,3.16.06,4.45,1.11,1.23,2.88,1.64,4.42,1,1.5-.69,2.49-2.15,2.57-3.8.03-1.64-.73-3.19-2.05-4.17-1.86-1.22-4.19-1.5-6.29-.76-2.06.75-3.97,1.86-5.65,3.27-1.9,1.26-3.5,2.91-4.7,4.85,1.67-1.33,3.46-2.51,5.35-3.52,1.9-1,4.04-1.47,6.19-1.34"/>
      <circle class="cls-1" cx="381.99" cy="8.73" r="3"/>
    </g>
  </g>
</svg>