<?xml version="1.0" encoding="UTF-8"?>
<svg id="_レイヤー_2" data-name="レイヤー_2" xmlns="http://www.w3.org/2000/svg" viewBox="0 0 82.69 70.2">
  <defs>
    <style>
      .cls-1 {
        fill: #cf2734;
      }

      .cls-2 {
        fill: #f4f2f2;
      }

      .cls-3 {
        fill: #009344;
      }
    </style>
  </defs>
  <g id="_レイヤー_4" data-name="レイヤー_4">
    <g>
      <path class="cls-1" d="M82.69,22.16c0-.11,0-.21,0-.32,0-.04,0-.09,0-.13,0-.1,0-.21-.01-.31,0-.04,0-.07,0-.11,0-.14-.02-.28-.03-.42,0-.03,0-.06,0-.08,0-.11-.02-.23-.03-.34,0-.04,0-.09-.01-.13-.01-.1-.02-.21-.04-.31,0-.04,0-.08-.01-.12-.02-.14-.04-.29-.06-.43,0-.02,0-.04,0-.05-.02-.13-.04-.25-.06-.38,0-.05-.02-.09-.02-.14-.02-.11-.04-.21-.06-.32,0-.04-.02-.09-.03-.13-.03-.15-.06-.3-.09-.44-.08-.35-.17-.69-.27-1.03C78.75,6.5,63.29-2.41,49.96.59c-.19.04-.37.09-.56.13-.03,0-.07.02-.1.02-.19.05-.37.1-.56.15,0,0-.01,0-.02,0-.52.14-1.03.3-1.54.48-2,11.01-.77,27.96,10.78,52.91,3.96-4.58,8.6-8.5,12.78-12.36,1.9-1.75,3.71-3.49,5.32-5.27,0,0,0,0,0,0,.31-.34.61-.69.91-1.04,0,0,.02-.02.02-.03.29-.34.57-.69.84-1.03.01-.01.02-.03.03-.04.08-.11.16-.21.25-.32,0,0,.01-.02.02-.03.18-.23.35-.46.51-.69.01-.02.03-.04.04-.05.07-.1.14-.2.21-.3.01-.02.02-.03.04-.05.16-.23.32-.46.47-.69.01-.02.03-.04.04-.06.06-.1.12-.19.19-.29.01-.02.03-.05.04-.07.15-.23.29-.46.42-.7.01-.02.02-.04.04-.06.06-.1.11-.19.16-.29.02-.03.03-.05.04-.08.06-.11.12-.21.17-.32,0,0,0-.02.01-.03.06-.12.12-.24.19-.36.01-.02.02-.04.03-.06.05-.1.1-.19.14-.29.01-.03.03-.06.04-.09.05-.1.09-.2.14-.3,0-.02.02-.04.03-.06.05-.12.11-.24.16-.36,0-.02.02-.04.02-.06.04-.1.08-.2.13-.3.01-.03.03-.07.04-.1.04-.1.08-.19.11-.29.01-.03.02-.05.03-.08.05-.12.09-.25.13-.37,0-.01,0-.03.01-.04.04-.11.07-.22.11-.32.01-.03.02-.07.03-.1.03-.09.06-.19.09-.28,0-.03.02-.06.03-.1.04-.12.07-.25.11-.38,0,0,0,0,0-.01.03-.12.06-.24.09-.36,0-.04.02-.07.03-.11.02-.09.04-.19.06-.28,0-.04.02-.07.02-.11.03-.12.05-.25.08-.37,0,0,0,0,0-.01.02-.13.05-.26.07-.39,0-.04.01-.07.02-.11.02-.1.03-.19.04-.29,0-.04.01-.08.02-.12.01-.11.03-.22.04-.34,0-.02,0-.04,0-.06.01-.13.03-.26.04-.4,0-.03,0-.07,0-.1,0-.1.01-.2.02-.3,0-.04,0-.08,0-.12,0-.11.01-.21.01-.32,0-.03,0-.06,0-.09,0-.13,0-.27,0-.41,0-.03,0-.06,0-.1Z"/>
      <path class="cls-3" d="M18.6,11.72s-.02,0-.04,0c-.06,0-.12.01-.17.02-.11.01-.22.03-.33.05-.06,0-.12.02-.18.03-.11.02-.22.04-.33.06-.06.01-.12.02-.17.03-.12.02-.23.04-.35.07-.05,0-.1.02-.15.03-.17.03-.34.07-.5.11-.8.18-1.57.39-2.31.63-.37.12-.73.25-1.09.39-1.96.75-3.7,1.73-5.23,2.89-.28.21-.55.43-.81.65-.26.22-.52.45-.77.69-.87.82-1.65,1.71-2.34,2.66-.1.14-.19.27-.29.41C1.26,23.73.07,27.71,0,31.94c0,.53,0,1.06.03,1.6.05,1.07.18,2.16.38,3.25.04.2.07.4.12.59.03.17.07.33.11.5.03.11.05.23.08.34,0,.03.02.07.03.1.02.08.04.16.06.24.01.04.02.08.03.11.02.09.05.17.08.26,0,.03.02.06.02.08.03.11.07.23.11.34,0,.03.02.05.03.08.03.09.06.18.09.26.01.04.03.07.04.11.03.08.06.16.09.24.01.04.03.07.04.11.04.11.08.21.12.32,0,0,0,.01,0,.02.05.11.09.22.14.34.01.03.03.07.04.1.03.08.07.16.11.24.02.04.03.07.05.11.04.08.08.17.12.25.01.03.03.06.04.09.05.11.11.22.16.33.01.02.02.05.03.07.04.09.09.18.14.27.02.04.04.07.06.11.04.08.08.16.13.23.02.04.04.07.06.11.05.1.11.2.16.29,0,.01.01.02.02.04.06.11.13.22.19.33.02.03.04.06.06.1.05.08.1.16.14.24.02.04.04.07.07.11.05.08.1.16.15.24.02.03.04.06.06.09.07.11.14.22.21.32.01.02.03.04.04.06.06.09.12.18.18.26.02.04.05.07.07.11.05.08.11.15.16.23.02.03.05.07.07.1.07.09.13.18.2.27.01.02.02.03.04.05.08.11.16.21.24.32.02.03.05.06.07.09.06.08.12.15.18.23.03.04.06.07.08.11.06.08.12.15.18.23.02.03.05.06.07.09.08.1.17.21.26.31.01.02.03.03.04.05.07.09.15.18.22.26.03.03.06.07.09.1.06.07.13.15.19.22.03.03.06.07.09.1.07.08.15.17.22.25.02.02.04.04.05.06.09.1.19.21.28.31.03.03.05.06.08.09.07.07.14.15.21.22.03.04.07.07.1.11.07.07.14.15.21.22.03.03.06.06.09.09.1.1.2.2.29.3.01.01.03.03.04.04.09.09.17.17.26.26.03.03.07.07.1.1.07.07.14.14.21.21.04.03.07.07.11.1.08.08.16.15.24.23.02.02.05.05.07.07.1.1.21.2.31.29.03.03.06.06.09.09.08.07.15.14.23.21.04.04.08.07.12.11.07.07.15.13.22.2.04.03.07.07.11.1.11.1.22.19.33.29.01.01.03.03.04.04.1.08.19.17.29.25.04.03.08.07.12.1.08.06.15.13.23.19.04.04.08.07.13.11.08.07.17.14.25.21.03.03.07.05.1.08.11.09.23.19.34.28.04.03.07.06.11.09.08.07.16.13.25.2.05.04.09.07.14.11.08.06.15.12.23.18.04.03.09.07.13.1.1.08.21.16.31.24.03.02.06.05.09.07.1.08.21.16.31.24.05.03.09.07.14.1.08.06.16.12.23.18.05.04.1.07.15.11.08.06.17.12.25.18.04.03.08.06.13.09.07.05.14.1.21.15.05.04.1.07.15.11.04.03.08.06.13.09.08.06.17.12.25.18.05.04.1.07.16.11.08.06.16.11.23.17.05.04.1.07.15.11.09.07.19.13.29.2.05.04.1.07.15.11.1.07.21.14.31.21.05.04.11.07.16.11.08.05.15.1.23.16.06.04.11.08.17.11.08.05.16.11.24.16.05.03.1.07.16.1.12.08.25.16.37.24.05.03.1.07.15.1.08.05.16.11.25.16.06.04.12.08.18.11.08.05.15.1.23.14.06.04.12.07.18.11.09.05.17.11.26.16.07.04.14.09.21.13.1.06.2.13.31.19.06.04.12.07.18.11.07.05.15.09.22.14.06.04.13.08.19.12.07.04.15.09.22.13.06.04.12.07.19.11.12.07.25.15.37.22.06.04.12.07.18.11.08.04.15.09.23.13.07.04.13.08.2.12.07.04.14.08.21.12.07.04.14.08.2.12.08.04.15.09.23.13.1.06.2.11.3.17.09.05.18.1.27.15.07.04.14.08.21.12.07.04.14.08.21.11.07.04.14.08.22.12.07.04.14.07.21.11.07.04.14.08.22.12.08.04.17.09.25.13.11.06.23.12.34.18.07.04.13.07.2.11.08.04.15.08.23.12.06.03.13.07.19.1.08.04.15.08.23.12.06.03.13.07.19.1.14.07.28.15.43.22.06.03.12.06.18.09.08.04.16.08.24.12.06.03.12.06.18.09.08.04.16.08.24.12.06.03.12.06.18.09.08.04.16.08.24.12.05.03.1.05.16.08.16.08.32.15.47.23.05.03.11.05.16.08.08.04.17.08.25.12.06.03.11.05.17.08.09.04.17.08.26.12.05.02.1.05.16.07.3.14.6.28.9.42.05.02.1.05.15.07.09.04.18.08.27.12.05.02.1.05.15.07.09.04.18.08.27.12.04.02.07.03.11.05.18.08.37.16.55.24.04.02.08.04.12.05.07.03.15.06.22.1-11.7-24.29-13.82-41.27-12.49-52.71Z"/>
      <path class="cls-2" d="M47.19,1.38c-6.99,2.4-12.87,7.66-16.04,14.16-1.84-1.99-4.17-3.14-6.68-3.65,0,0,0,0,0,0-.02,0-.03,0-.05,0-.11-.02-.22-.04-.33-.06-.05,0-.11-.02-.16-.03-.11-.02-.22-.04-.33-.05-.05,0-.1-.02-.16-.02-.11-.02-.23-.03-.34-.04-.05,0-.1-.01-.16-.02-.11-.01-.23-.02-.34-.03-.05,0-.1,0-.15-.01-.12,0-.23-.01-.35-.02-.05,0-.1,0-.16,0-.12,0-.23,0-.35-.01-.05,0-.1,0-.16,0-.12,0-.23,0-.35,0-.05,0-.11,0-.16,0-.12,0-.23,0-.35,0-.05,0-.11,0-.16,0-.12,0-.23.01-.35.02-.05,0-.11,0-.16,0-.11,0-.23.02-.34.02-.06,0-.11,0-.17.01-.11,0-.22.02-.34.03-.06,0-.12.01-.17.02-.1.01-.2.02-.3.04-1.34,11.44.79,28.42,12.49,52.71.02,0,.04.02.05.02.05.02.1.04.15.06.09.04.18.08.27.12.04.02.09.04.13.05.31.13.62.26.93.39.04.02.08.04.13.05.09.04.19.08.28.12.04.02.09.04.13.05.1.04.19.08.29.12.02,0,.04.02.06.02.21.09.42.17.64.25.02,0,.04.02.06.02.1.04.19.08.29.11.04.02.08.03.12.05.1.04.19.07.29.11.03.01.07.03.1.04.32.12.64.24.95.36.03.01.07.03.1.04.1.04.19.07.28.11.04.01.08.03.12.04.1.04.19.07.29.11.02,0,.03.01.05.02.22.08.45.16.67.24,0,0,0,0,.01,0,4.36,1.55,8.46,2.66,11.87,3.24,1.38-5.84,4.26-10.66,7.76-14.9.28-.34.56-.67.85-1.01C46.42,29.34,45.19,12.38,47.19,1.38Z"/>
    </g>
  </g>
</svg>