<?xml version="1.0" encoding="UTF-8"?>
<svg id="_レイヤー_2" data-name="レイヤー_2" xmlns="http://www.w3.org/2000/svg" viewBox="0 0 12.01 8.77">
  <defs>
    <style>
      .cls-1 {
        fill: #721c1b;
      }
    </style>
  </defs>
  <g id="_レイヤー1" data-name="レイヤー1">
    <path class="cls-1" d="M11.34,2.11h-.85l-.73-1.35c-.25-.47-.75-.77-1.28-.77H3.53c-.54,0-1.03.29-1.28.77l-.73,1.35h-.85c-.37,0-.68.3-.68.68,0,.1.08.18.18.18h.88l-.55,1.02h0c-.03.06-.06.11-.09.17h0s-.09.16-.09.16c-.04.08-.07.18-.07.27v3.81c0,.2.17.37.37.37h1.09c.2,0,.37-.16.37-.37v-.75h7.84v.75c0,.2.17.37.37.37h1.09c.2,0,.37-.17.37-.37v-3.81c0-.09-.02-.19-.07-.27l-.09-.16h0c-.03-.06-.06-.12-.09-.17h0s-.55-1.02-.55-1.02h.88c.1,0,.18-.08.18-.18,0-.37-.3-.68-.68-.68ZM1.8,2.94L3.02.81c.1-.18.3-.29.51-.29h4.95c.21,0,.41.11.51.29l1.23,2.13s0,.11-.06.11H1.86c-.06,0-.09-.06-.06-.11ZM3.2,5.4c0,.06-.05.11-.11.11h-1.78c-.22,0-.39-.18-.39-.39v-.44c0-.17.14-.3.3-.3l1.45.25c.31.05.53.32.53.63v.15ZM11.1,4.67v.44c0,.22-.18.39-.39.39h-1.78c-.06,0-.11-.05-.11-.11v-.15c0-.31.22-.58.53-.63l1.45-.25c.17,0,.3.14.3.3Z"/>
  </g>
</svg>