<?xml version="1.0" encoding="UTF-8"?>
<svg id="Layer_3" data-name="Layer 3" xmlns="http://www.w3.org/2000/svg" viewBox="0 0 700 700">
  <path fill="#666" d="m454.427,245.573c-7.148-7.148-18.727-7.148-25.875,0l-78.553,78.553-78.553-78.553c-7.148-7.148-18.727-7.148-25.875,0-7.148,7.148-7.148,18.727,0,25.875l78.553,78.553-78.553,78.553c-7.148,7.148-7.148,18.727,0,25.875,3.574,3.574,8.256,5.361,12.937,5.361s9.363-1.787,12.937-5.361l78.553-78.553,78.553,78.553c3.574,3.574,8.256,5.361,12.937,5.361s9.363-1.787,12.937-5.361c7.148-7.148,7.148-18.727,0-25.875l-78.553-78.553,78.553-78.553c7.148-7.148,7.148-18.727,0-25.875Z"/>
  <path fill="#666" d="m350,75.53c-151.352,0-274.47,123.128-274.47,274.47s123.119,274.47,274.47,274.47,274.47-123.128,274.47-274.47S501.352,75.53,350,75.53Zm0,512.345c-131.16,0-237.874-106.706-237.874-237.874s106.715-237.874,237.874-237.874,237.874,106.706,237.874,237.874-106.715,237.874-237.874,237.874Z"/>
</svg>