<?xml version="1.0" encoding="UTF-8"?>
<svg id="_レイヤー_2" data-name="レイヤー_2" xmlns="http://www.w3.org/2000/svg" viewBox="0 0 420.37 132.62">
  <defs>
    <style>
      .cls-1, .cls-2 {
        fill: #2f2725;
      }

      .cls-3 {
        fill: #b92928;
      }

      .cls-4 {
        fill: #fff;
      }

      .cls-5 {
        fill: #f7f8f8;
      }

      .cls-6 {
        fill: #006134;
      }

      .cls-7 {
        stroke-width: 6px;
      }

      .cls-7, .cls-2, .cls-8, .cls-9 {
        stroke-miterlimit: 10;
      }

      .cls-7, .cls-8, .cls-9 {
        stroke: #f7f8f8;
        stroke-linecap: round;
      }

      .cls-7, .cls-9 {
        fill: none;
      }

      .cls-2 {
        stroke: #2f2725;
        stroke-width: 2px;
      }

      .cls-8 {
        fill: #231815;
      }

      .cls-8, .cls-9 {
        stroke-width: 3px;
      }

      .cls-10 {
        fill: #721c1b;
      }
    </style>
  </defs>
  <g id="_レイヤー_1-2" data-name="レイヤー_1">
    <g>
      <g>
        <g>
          <path class="cls-10" d="M16.26,84.58l-.02-6.4-.04-9.16-.02-6.23,8.58.12.13,7.38.07,9.67.04,4.56c9.87,1.41,16.55,4.33,19.68,10.38,4.29,8.32,2.27,14.09-1.52,19.39-3.05,4.26-8.51,6.79-13.72,7.39h0c7.53-7.12,8.93-21.79,6.91-20.29-.8.59-2.89,3.25-5.46,5.87-1.39,1.41-3.42,3.34-5.45,5.09l-.07,6.42-8.92.5-.02-3.42c-1.42.98-3.09.93-4.82.93-5.53.02-12.39-5.02-11.55-14.45.5-5.66,4.8-14.94,16.19-17.76Z"/>
          <g id="layer1">
            <path class="cls-10" d="M56.61,77.13h0l-10.8-1.6c-.6-.09-.98-.92-.84-1.85s.74-1.62,1.34-1.53h0l10.8,1.6c.6.09.98.92.84,1.85-.14.93-.74,1.62-1.34,1.53Z"/>
            <path class="cls-10" d="M55.78,82.72h0l-10.8-1.6c-.6-.09-.98-.92-.84-1.85s.74-1.62,1.34-1.53h0l10.8,1.6c.6.09.98.92.84,1.85s-.74,1.62-1.34,1.53Z"/>
            <path class="cls-10" d="M54.96,88.3h0l-10.8-1.6c-.6-.09-.98-.92-.84-1.85.14-.93.74-1.62,1.34-1.53h0l10.8,1.6c.6.09.98.92.84,1.85s-.74,1.62-1.34,1.53Z"/>
            <path class="cls-10" d="M47.15,74.01h0l-1.65,11.16c-.14.93-.74,1.62-1.34,1.53s-.98-.92-.84-1.85h0l1.65-11.16c.14-.93.74-1.62,1.34-1.53s.98.92.84,1.85Z"/>
            <path class="cls-10" d="M45.81,75.54h0l-3.6-.53c-.6-.09-.98-.92-.84-1.85s.74-1.62,1.34-1.53h0l3.6.53c.6.09.98.92.84,1.85s-.74,1.62-1.34,1.53Z"/>
            <path class="cls-10" d="M44.16,86.7h0l-3.6-.53c-.6-.09-.98-.92-.84-1.85.14-.93.74-1.62,1.34-1.53h0l3.6.53c.6.09.98.92.84,1.85-.14.93-.74,1.62-1.34,1.53Z"/>
            <path class="cls-10" d="M42.26,75.01h0l-.28-.02h.09s-.29.01-.29.01h.09s-.29.04-.29.04l.09-.02-.29.08.09-.03-.29.11.09-.04-.28.15.09-.05-.28.18.08-.06-.27.21.08-.07-.26.24.08-.08-.25.27.07-.08-.24.29.07-.09-.23.32.07-.1-.21.34.06-.11-.19.36.06-.11-.18.38.05-.12-.16.4.05-.12-.14.41.04-.13-.12.42.03-.13-.1.43.03-.13-.08.44.02-.13-.05.44v-.13s-.02.44-.02.44v-.13s0,.44,0,.44v-.13s.01.43.01.43v-.13s.03.43.03.43v-.13s.04.42.04.42l-.02-.12.08.4-.03-.12.1.39-.03-.11.12.37-.04-.11.14.35-.05-.1.16.33-.05-.1.18.3-.06-.09.2.28-.06-.08.21.25-.07-.07.23.22-.07-.06.24.19-.08-.05.25.16-.08-.04.26.13-.08-.03.27.09-.08-.02.28.06c.6.13.95.98.79,1.91-.16.93-.77,1.58-1.37,1.45h0l-.28-.06s-.06-.01-.08-.02h0l-.27-.09s-.05-.02-.08-.03h0l-.26-.13s-.05-.03-.08-.04h0l-.25-.16s-.05-.03-.08-.05h0l-.24-.19s-.05-.04-.07-.06h0l-.23-.22s-.05-.05-.07-.07h0l-.21-.25s-.04-.05-.06-.08h0l-.2-.28s-.04-.06-.06-.09h0l-.18-.3s-.04-.06-.05-.1h0l-.16-.33s-.03-.07-.05-.1h0l-.14-.35s-.03-.07-.04-.11h0l-.12-.37s-.02-.08-.03-.11h0l-.1-.39s-.02-.08-.03-.12h0l-.08-.4s-.02-.08-.02-.12h0l-.06-.42s-.01-.08-.01-.13h0l-.04-.43s0-.09,0-.13h0v-.43s-.02-.09-.02-.13h0v-.44s.01-.09.01-.13h0l.03-.44s0-.09.01-.13h0l.05-.44s.01-.09.02-.13h0l.08-.44s.02-.09.03-.13h0l.1-.43s.02-.09.03-.13h0l.12-.42s.02-.08.04-.13h0l.14-.41s.03-.08.05-.12h0l.16-.4s.03-.08.05-.12h0l.18-.38s.04-.08.06-.11h0l.19-.36s.04-.07.06-.11h0l.21-.34s.04-.07.07-.1h0l.23-.32s.05-.06.07-.09h0l.24-.29s.05-.06.07-.08h0l.25-.27s.05-.05.08-.08h0l.26-.24s.05-.05.08-.07h0l.27-.21s.06-.04.08-.06h0l.28-.18s.06-.03.09-.05h0l.28-.15s.06-.03.09-.04h0l.29-.11s.06-.02.09-.03h0l.29-.08s.06-.01.09-.02h0l.29-.04s.06,0,.09,0h.29s.06-.01.09,0h0l.28.02c.61.05,1.01.85.89,1.79-.11.94-.7,1.65-1.3,1.6Z"/>
            <path class="cls-10" d="M38.31,83.26l-.3.55-31.9-4.45c-1.74-.03-2.9-2.56-2.45-5.64.46-3.08,2.3-5.16,3.98-4.69h0l32.01,4.42c.18.05-.38,4.14-.52,5.07-.14.93-.63,4.74-.82,4.74Z"/>
            <path class="cls-10" d="M44.74,75.38s0-.01,0-.01,0,0,0,0l-2.49-.37h0s-.22-.02-.22-.02h0s-.2,0-.2,0h0s-.2.03-.2.03h0s-.2.06-.2.06h0s-.2.08-.2.08h0s-.2.1-.2.1h0s-.19.12-.19.12h0s-.19.15-.19.15h0s-.18.17-.18.17h0s-.18.19-.18.19h0s-.17.21-.17.21h0s-.16.22-.16.22h0s-.15.24-.15.24h0s-.14.25-.14.25h0s-.12.27-.12.27c0,0,0,0,0,0h0s-.11.27-.11.27h0s-.1.29-.1.29h0s-.08.3-.08.3c0,0,0,0,0,0h0s-.07.3-.07.3c0,0,0,0,0,0,0,0,0,0,0,0h0s-.05.3-.05.3c0,0,0,0,0,0,0,0,0,0,0,0h0s-.04.3-.04.3c0,0,0,0,0,0h0s-.02.31-.02.31c0,0,0,0,0,0h0s0,.3,0,.3h0s.01.3.01.3h0s.03.3.03.3h0s.04.29.04.29h0s.06.28.06.28h0s.07.27.07.27h0s0,0,0,0l.09.26h0s.1.25.1.25h0s.11.23.11.23h0s.13.21.13.21h0s.14.19.14.19h0s.15.18.15.18h0s.16.16.16.16h0s.17.13.17.13h0s.18.11.18.11h0s.18.09.18.09h0s.19.07.19.07h0s.22.05.22.05h0s2.49.37,2.49.37c0,0,.01,0,.02-.02l1.15-7.78Z"/>
          </g>
          <path class="cls-7" d="M16.73,97.82c-1.5-.07-2.69,2.18-2.93,3.56-.26,1.51.14,2.69,1.86,2.77s4.34-2.05,6.2-3.94c1.8-1.82,2.81-3.39,3.83-5.37"/>
        </g>
        <g>
          <path class="cls-10" d="M89.35,107.79s1.76,11.79.58,17.2c-1.18,5.41-6.55,8.62-12.69,6.92-6.15-1.7-6.18-9.73-10.57-10.98-2.34-.66-7.16,1.45-10.09,5.97-2.45,3.78-4.67,3.89-7.63,3.61-2.96-.28-5.61-3.33-5.61-3.33l19.56-44.91,7.84,3.52s-8.96,20.81-8.93,22.77c.03,1.6,5.92-5.91,11.22-3.49,6.37,2.91,4.06,7.99,8.13,8.97s8.19-6.26,8.19-6.26Z"/>
          <path class="cls-9" d="M75.47,124.72s.56,2,2.82,3.12c2.26,1.11,4.72.1,6.16-.89,1.44-.99,3.14-3.91,2.14-6.89"/>
        </g>
        <g>
          <path class="cls-10" d="M91.99,108.02l-2.4-19.83c-1.2,1.81-3.22,2.98-4.56,3.49-4.82,1.85-12.68-3.06-12.68-3.06,3.69-4.91,8.57-12.18,14.85-14.31l-.79-6.04,7.91-2.12,1.17,6.2c17.47-2.47,18.6,15.13,20.29,32.94l-10.62.21c.12-11.15-1.36-23.37-6.48-20.43l3.64,22.15-10.32.8Z"/>
          <path class="cls-5" d="M76.04,87.93c.01.31.52.79,2.06,1.24.84.24,1.49.4,2.55.37.8-.03,2.09-.7,2.04-2.09s-1.31-1.97-2.17-1.95c-1.09.04-2.07.86-2.89,1.16-1.48.54-1.59.97-1.58,1.27Z"/>
          <path class="cls-10" d="M136.48,79.93c1.01-1.91.9-4.17-.09-6.3-.99-2.12-2.86-4.1-5.38-5.43-2.52-1.33-5.34-1.58-7.52-1.39-1.42.19-5.02.02-6.98-.67s-4.06-1.41-7.59-3.8c-3.61-2.45-4.57-3.04-5.74-3.69-1.69-.93-3.54.07-4.25,1.41s-1.11,4.32.02,4.92c.04.02,15.63,7.36,15.63,7.36.44.23,1.9.2,2.49,1.44-.03,1.08.61,1.51,1.25,2.79,1.06,1.91,2.86,4.1,5.38,5.43,2.52,1.33,5.21,1.77,7.52,1.39,2.31-.38,4.25-1.56,5.25-3.47Z"/>
          <ellipse class="cls-5" cx="127.68" cy="76.67" rx="7.01" ry="9.68" transform="translate(13.24 171.98) rotate(-70.77)"/>
        </g>
        <g>
          <polygon class="cls-10" points="164.54 99.8 161.56 108.94 138.76 96.1 141.02 89.68 164.54 99.8"/>
          <path class="cls-10" d="M146.81,84.57l11.01,1.17c2.48.27,4.11,1.99,3.93,4.56-1.15,16.66-12.14,32.13-18.35,33.7-2.46.62-9.38.4-8.92-5.6l.18-2.34c12.11,5.05,13.25-30.16,12.15-31.49Z"/>
          <path class="cls-9" d="M153.06,89.34s4.05-.06,4.65.49c.48.44.44,3.11.05,5.05-.39,1.91-1.02,4.2-1.02,4.2"/>
          <path class="cls-10" d="M134.89,107.35l.09,4.07c1.35,1.06,3.71-.61,1.56,1.46-2.27,2.18-6.97,5.5-9.49,5.86-4.97.7-7.61-4.7-6.64-7.96,1.26-4.23,4.66-17,4.32-21.98-.34-4.98-2.02-7.1-3.39-7.9-.65-.38,2.57,1.01,7.4-2.56,4.84-3.57,9.19-1.41,8.23.43-3.92,4.1-5.56,7.64-6.8,12.39-2.31,8.85-2.57,13.6-2.64,15.41-.11,2.59,1.46,3.39,2.55,2.96,1.28-.5,3.25-1.54,4.82-2.17Z"/>
        </g>
        <path class="cls-3" d="M196.72,132.62l-19.39-8.99s15.14-19.63,19.39-55.58l11.35,2.48s3.19,46.12-11.35,62.09Z"/>
        <polygon class="cls-3" points="267.62 120.28 233.39 129.17 221.77 83.01 246.18 78.84 267.62 120.28"/>
        <path class="cls-3" d="M298.06,92.95c8.75,4.97,13.62,7.81,13.62,7.81l-13.4,16-34.06-35.48,5.24-3.94c.47,0,9.77,4.65,17.33,8.79,2.61-3.32,4.38-5.86,5.59-10.75l-33.34-4.24-3.8-24.39,70.96,3.78s-7.68,24.79-28.14,42.41Z"/>
        <g>
          <path class="cls-3" d="M328.82,105.77c3.6.3,6.52,1.67,7.02-2.12.31-2.17-2.8-1.19-6.89.25l1.48-15.82-3.47.15c-2.66.11-4.93-1.93-5.08-4.59h0c-.17-2.81,2.07-5.17,4.87-5.17h4.38l.41-5.8,9.91,1.23-.53,4.57h7.11c2.45,0,4.44,1.99,4.44,4.44h0c0,2.37-1.86,4.32-4.23,4.43l-8.43.39-.47,3.81c8.27.41,15.07,8.74,10.67,18.23-4.87,10.49-22.55,5.8-21.74,1.08l.56-5.09Z"/>
          <path class="cls-9" d="M339.76,110.46s2.26.51,4.57-1.79c1.3-1.29,1.93-2.76,1.92-4.11-.01-1.35-.3-2.86-1.17-3.56"/>
        </g>
        <g>
          <path class="cls-3" d="M380.23,84.94c3.84,1.2,6.11,3.93,6.11,7.68,0,3.26-1.34,5.18-2.5,6.2-2.32,2.1-6.11,2.59-7.68.71l-.54-1.47c3.75-1.65,4.19-4.02,3.84-5.27-.18-.45-.45-.8-.85-1.07l-5-.09c-.4.13-.8.22-1.25.36l1.83,15.66-6.52.71-1.92-13.07s0,0-.01,0c-1.63.8-3.6.06-4.34-1.59l-.39-.88c-.71-1.59-.03-3.45,1.53-4.22.9-.44,1.72-.83,2.1-1.04l-.76-5.31,7.27-.8.4,3.44c.54-.13,1.03-.27,1.56-.36l7.1.4Z"/>
          <path class="cls-6" d="M377.14,93.19c-.78,1.29-1.53,1.85-2.29,1.72-1.06-.18-1.16-1.67-1.2-2.71l-.31-7.01c-.11-2.38,1.82-4.36,4.21-4.31l2.14.04c1.22.02,1.58,1.39,1.34,2.75s-1.86,1.97-2.37,4.68-1.13,4.2-1.51,4.84Z"/>
          <path class="cls-5" d="M375.11,88.68c.2.03,1.12-1.83,1.39-3.45.1-.63-.06-1.94-.53-2.02s-1.04,1.06-1.15,1.74c-.27,1.63.09,3.7.28,3.73Z"/>
        </g>
        <g>
          <path class="cls-3" d="M389.68,116.91l-3.34-1.35,14.96-39.49,9.27,3.71-5.22,13.06c7.11.82,8.22,10.25,8.19,14.58-.04,4.44.66,8.29,6.43,7.47l.4,1.61c-3.25,6.37-12.95,4.87-14.66-1.11-.98-3.42-3.3-5.02-7.05-5.19l-1.98,4.04c-1.27,2.6-4.33,3.77-7.01,2.68Z"/>
          <path class="cls-8" d="M405.43,98.19s1.74.48,2.68,2.71.69,3.91.69,3.91"/>
        </g>
      </g>
      <g>
        <g>
          <polygon class="cls-3" points="118.92 36.18 220.94 36.18 220.94 0 118.92 0 129.01 18.09 118.92 36.18"/>
          <path class="cls-4" d="M140.23,28.01c-.07-.22-.15-.41-.22-.55-.37-.81-.55-1.37-.55-1.66s.26-.85.78-1.66c.74-1.33,1.46-3.12,2.16-5.38.7-2.25,1.05-4.05,1.05-5.38,0-2.44.22-3.77.66-3.99.15-.15.37-.29.67-.44,1.33.3,2,1.11,2,2.44,0,3.62-.41,6.8-1.22,9.53l-1.11,4.32c-.44,1.63-.81,2.51-1.11,2.66-.37.15-.92.22-1.66.22-.22,0-.7-.04-1.44-.11ZM158.08,27.57c-.81-.22-1.33-.52-1.55-.89-.22-.37-.37-1.26-.44-2.66-.3-2.51-.8-5.12-1.5-7.82-.7-2.7-1.42-4.71-2.16-6.04-.22-.37-.33-.66-.33-.89,0-.29.17-.61.5-.94.33-.33.65-.5.94-.5.96,0,1.66.41,2.11,1.22,1.26,2.44,2.7,6.39,4.32,11.86.74,2.29,1.11,3.62,1.11,3.99,0,.52-.3,1-.89,1.44-.22.22-.61.48-1.16.78-.55.3-.87.44-.94.44ZM160.41,6.28c.89,0,1.62.33,2.22,1,.59.67.89,1.41.89,2.22,0,.96-.37,1.77-1.11,2.44-.59.52-1.33.78-2.22.78-.52,0-1-.15-1.44-.44-1.11-.59-1.66-1.48-1.66-2.66,0-.96.41-1.77,1.22-2.44.59-.59,1.29-.89,2.11-.89ZM160.19,7.84c-.37,0-.74.15-1.11.44-.37.3-.55.63-.55,1,0,.74.48,1.11,1.44,1.11,1.03,0,1.55-.48,1.55-1.44,0-.74-.44-1.11-1.33-1.11Z"/>
          <path class="cls-4" d="M179.37,11.89l-.2-.2-2.01.3h-4.21c-1.61,0-2.84-.17-3.71-.5-.6-.2-1.04-.67-1.3-1.4.47-.87.83-1.4,1.1-1.6.27-.13,1.07-.2,2.41-.2h6.32c.2,0,1.04.2,2.51.6.4-.07.67-.13.8-.2.47-.2.77-.3.9-.3.33,0,.67.17,1,.5.33.34.5.67.5,1,0,2.21-1.34,5.32-4.01,9.33l.2.1h.4c.6,0,1.24.34,1.91,1,1,1,1.89,2.04,2.66,3.11.77,1.07,1.15,1.81,1.15,2.21,0,.47-.37,1.17-1.1,2.11h-.6c-.47,0-1-.03-1.6-.1-.2-.27-.4-.74-.6-1.4-.6-1.4-1.84-3.08-3.71-5.02h-.4c-3.34,3.34-6.29,5.55-8.83,6.62-1.14-.34-1.97-1.14-2.51-2.41.27-.6.53-1,.8-1.2.13-.13.64-.33,1.5-.6,2.21-.8,4.61-2.57,7.22-5.32,1.6-1.81,2.74-3.95,3.41-6.42Z"/>
          <path class="cls-4" d="M196.84,9.37l2.66-.2,3.94.1c.66.2,1.18.3,1.58.3.33,0,.69-.1,1.08-.3l.3-.2c.2,0,.51.28.94.84.43.56.64.94.64,1.13s-.13.62-.39,1.28l-1.87,4.53c-.26.66-.76,1.44-1.48,2.36.2.13.59.39,1.18.79,1.12.79,1.67,1.44,1.67,1.97,0,.66-.26,1.28-.79,1.87-.46.39-.98.59-1.58.59-.39,0-.95-.36-1.67-1.08-.39-.46-.79-.85-1.18-1.18-1.84,1.84-3.51,3.19-5.02,4.04-1.84.99-3.05,1.48-3.64,1.48-.33,0-.76-.23-1.28-.69-.72-.66-1.08-1.12-1.08-1.38,0-.06.06-.2.2-.39l.79-1.48c.13-.2.36-.3.69-.3.39,0,1.02-.16,1.87-.49,1.97-.79,3.58-1.84,4.83-3.15l-2.56-1.58c-.46-.26-.69-.79-.69-1.58v-.49c.39-.39.92-.59,1.58-.59.46,0,1.81.59,4.04,1.77,1.38-2.1,2.1-3.71,2.17-4.83l-.99.2-3.45.1-3.15-.59c-.46,1.51-1.31,3.09-2.56,4.73-.33.53-.76.79-1.28.79-1.18,0-1.87-.36-2.07-1.08-.07-.2-.2-.49-.39-.89.53-.72.89-1.18,1.08-1.38.79-.92,1.41-1.9,1.87-2.95.53-1.12.82-2.03.89-2.76.06-.66.16-1.08.3-1.28.2-.26.62-.49,1.28-.69,1.12.39,1.67.98,1.67,1.77,0,.26-.03.56-.1.89Z"/>
        </g>
        <g>
          <path class="cls-2" d="M249.24,25.43h6.14v2.44h-6.46c-3.18,0-5.76-2.58-5.76-5.76v-1.57h-3.83c-3.29,0-5.95,2.66-5.95,5.95v1.39h-2.45v-1.82c0-4.4,3.57-7.97,7.97-7.97h10.35c2.04,0,3.69-1.65,3.69-3.69v-3.64h-22.01v-2.45h24.45v7.63c0,2.54-2.06,4.59-4.59,4.59h-5.19v1.25c0,2.01,1.63,3.64,3.64,3.64Z"/>
          <g>
            <polygon class="cls-2" points="260.26 15.65 284.71 15.65 284.71 18.09 277.38 18.09 277.38 27.87 265.15 27.87 265.15 25.43 274.93 25.43 274.93 18.09 260.26 18.09 260.26 15.65"/>
            <rect class="cls-2" x="262.71" y="8.31" width="19.56" height="2.45"/>
          </g>
          <rect class="cls-2" x="289.52" y="16.44" width="19.56" height="2.44"/>
          <g>
            <rect class="cls-2" x="313.9" y="8.31" width="12.23" height="2.45"/>
            <rect class="cls-2" x="313.9" y="15.65" width="12.23" height="2.44"/>
            <polygon class="cls-2" points="335.9 13.2 338.35 13.2 338.35 27.87 318.79 27.87 318.79 25.43 335.9 25.43 335.9 13.2"/>
          </g>
          <polygon class="cls-2" points="344.17 13.2 363.73 13.2 363.73 27.87 344.17 27.87 344.17 25.43 361.29 25.43 361.29 21.1 349.06 21.1 349.06 18.66 361.29 18.66 361.29 15.65 344.17 15.65 344.17 13.2"/>
          <g>
            <polygon class="cls-2" points="377.82 10.76 368.04 10.76 368.04 8.31 380.26 8.31 380.26 15.65 377.82 15.65 377.82 10.76"/>
            <path class="cls-2" d="M390.55,13.2h2.44v10.16c0,2.49-2.02,4.51-4.51,4.51h-15.05v-2.44h13.72c1.88,0,3.4-1.52,3.4-3.4v-8.83Z"/>
          </g>
        </g>
        <g>
          <path class="cls-1" d="M72.28,13.13h7.81c1.82,0,3.02-.33,3.6-.99.5-.58.74-.91.74-.99,0-.58-.45-1.16-1.36-1.74-.66-.33-1.61-.5-2.85-.5h-7.94c0-1.65-.25-2.85-.74-3.6-.58-.83-1.03-1.24-1.36-1.24-.5,0-.95.33-1.36.99-.5.83-.74,2.11-.74,3.84h-5.21l-.99.12c-2.23,0-3.39.04-3.47.12-.41.08-.83.29-1.24.62-.66.58-.99.99-.99,1.24,0,.17.16.45.5.87.58.83,1.82,1.24,3.72,1.24h7.69v4.34l.12.87h-5.33l-.5-.37c-1.65,0-2.48,1.08-2.48,3.22v7.69c0,.91.21,1.67.62,2.29.41.62.87.93,1.36.93s.95-.25,1.36-.74l.74.12h12.77l.74-.12c.41.58.83.87,1.24.87.33,0,.66-.17.99-.5.74-.66,1.12-1.61,1.12-2.85v-7.56c0-.83-.21-1.55-.62-2.17-.41-.62-.87-.93-1.36-.93-.33,0-.74.04-1.24.12-.25.08-.5.12-.74.12l-.74-.12h-3.97l.12-.62v-4.59ZM74.64,24.97c0,1.61-1.94,2.92-4.34,2.92s-4.34-1.31-4.34-2.92,1.94-2.92,4.34-2.92,4.34,1.31,4.34,2.92Z"/>
          <path class="cls-1" d="M53.05,17.22c-.17,0-.29.04-.37.12-.99.41-1.74.62-2.23.62h-5.58c6.2-5.7,9.3-9.09,9.3-10.17,0-.16-.04-.29-.12-.37-1.16-1.49-2.19-2.23-3.1-2.23h-.12c-1.16.33-1.78.5-1.86.5s-.37-.04-.87-.12h-4.46c-.5-1.4-1.49-2.11-2.98-2.11-.41,0-.79.08-1.12.25-.17.08-.66.7-1.49,1.86-.5.58-1.49,1.47-2.98,2.67-1.49,1.2-2.6,1.96-3.35,2.29-.91.5-1.45.91-1.61,1.24-.08.17-.17.95-.25,2.36,0,.25.25.48.74.68.5.21.95.31,1.36.31s.74-.08.99-.25l3.22-2.36c.74,1.82,1.32,3.06,1.74,3.72.17.17.54.33,1.12.5-2.56,1.57-5.08,2.65-7.56,3.22-2.23.5-3.51,1.16-3.84,1.98-.17.25-.25.66-.25,1.24,0,.99.74,1.49,2.23,1.49.99,0,1.98-.21,2.98-.62,1.74-.66,2.85-.99,3.35-.99-.08,1.98-.17,3.47-.25,4.46-.08,1.32-.12,2.36-.12,3.1,0,1.4.83,2.11,2.48,2.11.91,0,1.61-.5,2.11-1.49,1.57.08,2.52.12,2.85.12h7.69c.74.82,1.57,1.24,2.48,1.24.66,0,1.16-.21,1.49-.62.16-.33.25-2.07.25-5.21v-6.82c0-1.82-.62-2.73-1.86-2.73ZM38.79,11.64c-.33-.17-.58-.25-.74-.25h-.62l2.11-2.36h9.18c-1.9,2.48-4.09,4.42-6.57,5.83-.41-1.07-1.53-2.15-3.35-3.22ZM45.49,27.89c-2.4,0-4.34-1.31-4.34-2.92s1.94-2.92,4.34-2.92,4.34,1.31,4.34,2.92-1.94,2.92-4.34,2.92Z"/>
          <path class="cls-1" d="M114.07,28.88c-.58-.74-1.41-1.12-2.48-1.12h-7.69v-1.12l5.21-.12c1.24-.08,1.86-.5,1.86-1.24,0-1.16-.7-1.74-2.11-1.74h-5.08c-.08-.58-.46-.99-1.12-1.24v-.25l4.96-.62c.58.91,1.16,1.36,1.74,1.36.91,0,1.36-.58,1.36-1.74,0-.99-.83-1.98-2.48-2.98-.58-.41-1.07-.74-1.49-.99h.87c2.81,0,4.22-.5,4.22-1.49s-.7-1.49-2.11-1.49h-16.86l-.62.12-.12-1.61.62.12h14.63l.87-.12c.25.41.62.62,1.12.62,1.82,0,2.73-.5,2.73-1.49,0-.25-.04-.58-.12-.99v-.5l-.25-3.35c-.08-1.74-.7-2.6-1.86-2.6-.33,0-.87.21-1.61.62l-.62-.12h-15l-.74.12c-.5-.58-.99-.87-1.49-.87-1.32,0-1.98.33-1.98.99v15.75c-.74,3.8-1.57,6.49-2.48,8.06-.17.33-.25.54-.25.62v.25l.74,1.49h.74c.58,0,1.24-.41,1.98-1.24.08-.08.21-.21.37-.37h.25c.17.74.74,1.16,1.74,1.24h20.46c.58,0,1.07-.12,1.49-.37.58-.41.87-.79.87-1.12,0-.16-.08-.33-.25-.5ZM100.56,7.69c3.29,0,5.95.56,5.95,1.26s-2.66,1.26-5.95,1.26-5.95-.56-5.95-1.26,2.66-1.26,5.95-1.26ZM100.56,17.1h3.47c-.25.41-.37.74-.37.99,0,.17.04.45.12.87l-4.22.37c.17-.66.5-1.4.99-2.23ZM100.06,23.55h-4.22c-2.32,0-3.47.45-3.47,1.36,0,1.16.62,1.74,1.86,1.74h5.83v1.12h-8.56l-1.24.12c1.24-3.06,1.86-5.95,1.86-8.68v-2.23l4.71.12-1.36,2.6c-2.07.25-3.1.74-3.1,1.49,0,1.16.74,1.74,2.23,1.74.25,0,.54-.04.87-.12.25-.08.41-.12.5-.12l4.46-.37-.37,1.24Z"/>
        </g>
      </g>
    </g>
  </g>
</svg>