<?xml version="1.0" encoding="UTF-8"?>
<svg id="_レイヤー_2" data-name="レイヤー_2" xmlns="http://www.w3.org/2000/svg" viewBox="0 0 8.05 12.55">
  <defs>
    <style>
      .cls-1 {
        fill: #721c1b;
      }
    </style>
  </defs>
  <g id="_レイヤー1" data-name="レイヤー1">
    <g>
      <g>
        <polygon class="cls-1" points="1.13 12.55 1.88 10.58 1.48 10.58 .28 12.55 1.13 12.55"/>
        <polygon class="cls-1" points="4.03 11.12 6.23 11.12 6.1 10.79 4.03 10.79 1.95 10.79 1.82 11.12 4.03 11.12"/>
        <polygon class="cls-1" points="4.03 11.72 1.59 11.72 1.39 12.26 4.03 12.26 6.66 12.26 6.46 11.72 4.03 11.72"/>
        <polygon class="cls-1" points="7.77 12.55 6.57 10.58 6.18 10.58 6.93 12.55 7.77 12.55"/>
      </g>
      <path class="cls-1" d="M4.03,0C0,0,0,1.73,0,2.09v7.75c0,.14.05.27.12.37.11.15.29.24.48.24h6.84c.17,0,.32-.07.43-.18s.18-.26.18-.43V2.09c0-.36,0-2.09-4.03-2.09ZM2.66,1.02h2.72c.18,0,.33.15.33.33s-.15.33-.33.33h-2.72c-.18,0-.33-.15-.33-.33s.15-.33.33-.33ZM1.67,9.48c-.38,0-.68-.3-.68-.68s.3-.68.68-.68.68.3.68.68-.3.68-.68.68ZM3.82,5.83c0,.11-.04.21-.12.28-.07.07-.17.12-.28.12H1.25c-.1,0-.18-.03-.25-.09-.09-.07-.15-.19-.15-.31v-2.77c0-.11.04-.21.12-.28s.17-.12.28-.12h2.17c.1,0,.18.03.25.09.09.07.15.19.15.31v2.77ZM6.38,9.48c-.38,0-.68-.3-.68-.68s.3-.68.68-.68.68.3.68.68-.3.68-.68.68ZM7.21,5.83c0,.11-.04.21-.12.28-.07.07-.17.12-.28.12h-2.17c-.1,0-.18-.03-.25-.09-.09-.07-.15-.19-.15-.31v-2.77c0-.11.04-.21.12-.28s.17-.12.28-.12h2.17c.1,0,.18.03.25.09.09.07.15.19.15.31v2.77Z"/>
    </g>
  </g>
</svg>