<?xml version="1.0" encoding="UTF-8"?>
<svg id="_レイヤー_2" data-name="レイヤー 2" xmlns="http://www.w3.org/2000/svg" viewBox="0 0 6500.02 1327.59">
  <defs>
    <style>
      .cls-1 {
        fill: #fff;
      }
    </style>
  </defs>
  <g id="_レイヤー_2-2" data-name=" レイヤー 2">
    <g id="_ロゴタイプ" data-name=" ロゴタイプ">
      <g>
        <g id="layer1">
          <path class="cls-1" d="M875.31,469.69h0l-166.95-24.68c-9.3-1.37-15.11-14.18-12.98-28.6,2.13-14.42,11.4-24.99,20.7-23.62h0l166.95,24.68c9.3,1.37,15.11,14.18,12.98,28.6-2.13,14.42-11.4,24.99-20.7,23.62Z"/>
          <path class="cls-1" d="M862.55,555.98h0l-166.95-24.68c-9.3-1.37-15.11-14.18-12.98-28.6,2.13-14.42,11.4-24.99,20.7-23.62h0l166.95,24.68c9.3,1.37,15.11,14.18,12.98,28.6-2.13,14.42-11.4,24.99-20.7,23.62Z"/>
          <path class="cls-1" d="M849.79,642.28h0l-166.95-24.68c-9.3-1.37-15.11-14.18-12.98-28.6,2.13-14.42,11.4-24.99,20.7-23.62h0l166.95,24.68c9.3,1.37,15.11,14.18,12.98,28.6-2.13,14.42-11.4,24.99-20.7,23.62Z"/>
          <path class="cls-1" d="M729.06,421.4h0l-25.51,172.58c-2.13,14.42-11.4,24.99-20.7,23.62s-15.11-14.18-12.98-28.6h0l25.51-172.58c2.13-14.42,11.4-24.99,20.7-23.62s15.11,14.18,12.98,28.6Z"/>
          <path class="cls-1" d="M708.36,445.01h0l-55.65-8.23c-9.3-1.37-15.11-14.18-12.98-28.6,2.13-14.42,11.4-24.99,20.7-23.62h0l55.65,8.23c9.3,1.37,15.11,14.18,12.98,28.6-2.13,14.42-11.4,24.99-20.7,23.62Z"/>
          <path class="cls-1" d="M682.85,617.6h0l-55.65-8.23c-9.3-1.37-15.11-14.18-12.98-28.6,2.13-14.42,11.4-24.99,20.7-23.62h0l55.65,8.23c9.3,1.37,15.11,14.18,12.98,28.6-2.13,14.42-11.4,24.99-20.7,23.62Z"/>
          <path class="cls-1" d="M653.37,436.87h0l-4.41-.38,1.34.03-4.46.15,1.35-.13-4.48.69,1.36-.29-4.48,1.22,1.35-.45-4.45,1.74,1.34-.6-4.39,2.25,1.32-.76-4.3,2.75,1.29-.9-4.19,3.23,1.25-1.05-4.05,3.69,1.2-1.18-3.89,4.12,1.15-1.31-3.7,4.54,1.09-1.43-3.49,4.92,1.02-1.54-3.26,5.27.95-1.65-3.01,5.6.87-1.74-2.74,5.88.79-1.82-2.45,6.13.7-1.89-2.15,6.35.6-1.95-1.83,6.52.51-1.99-1.51,6.65.41-2.03-1.17,6.75.3-2.05-.83,6.8.2-2.06-.48,6.8.09-2.06-.13,6.77v-2.04l.21,6.7-.12-2.01.57,6.58-.23-1.97.92,6.42-.33-1.91,1.26,6.23-.43-1.85,1.59,5.99-.53-1.77,1.92,5.72-.63-1.69,2.23,5.41-.72-1.59,2.53,5.07-.81-1.48,2.81,4.7-.89-1.36,3.08,4.3-.97-1.24,3.32,3.87-1.04-1.1,3.55,3.42-1.11-.96,3.75,2.95-1.16-.82,3.93,2.46-1.21-.67,4.09,1.96-1.26-.51,4.22,1.44-1.29-.36,4.33.91c9.21,1.94,14.65,15.15,12.15,29.5-2.49,14.35-11.98,24.42-21.19,22.48h0l-4.33-.91c-.44-.09-.87-.21-1.29-.36h0l-4.22-1.44c-.43-.15-.85-.32-1.26-.51h0l-4.09-1.96c-.41-.2-.82-.42-1.21-.67h0l-3.93-2.46c-.4-.25-.78-.52-1.16-.82h0l-3.75-2.95c-.38-.3-.75-.62-1.11-.97h0l-3.55-3.42c-.36-.35-.71-.71-1.04-1.1h0l-3.32-3.87c-.34-.39-.66-.8-.97-1.24h0l-3.08-4.3c-.31-.43-.61-.89-.89-1.36h0l-2.81-4.7c-.28-.47-.55-.97-.81-1.48h0l-2.53-5.07c-.26-.51-.5-1.04-.72-1.59h0l-2.23-5.41c-.23-.55-.43-1.11-.63-1.69h0l-1.92-5.72c-.19-.58-.37-1.17-.53-1.77h0l-1.59-5.99c-.16-.6-.31-1.22-.43-1.85h0l-1.26-6.23c-.13-.63-.24-1.27-.33-1.91h0l-.92-6.42c-.09-.65-.17-1.31-.23-1.97h0l-.57-6.58c-.06-.66-.1-1.33-.12-2.01h0l-.22-6.7c-.02-.68-.03-1.36-.01-2.04h0l.13-6.77c.01-.68.04-1.37.09-2.06h0l.48-6.8c.05-.69.11-1.37.2-2.06h0l.83-6.8c.08-.69.18-1.37.3-2.05h0l1.17-6.74c.12-.68.25-1.36.41-2.03h0l1.51-6.65c.15-.67.32-1.34.51-1.99h0l1.83-6.52c.19-.66.39-1.31.6-1.95h0l2.15-6.35c.22-.64.45-1.27.7-1.89h0l2.45-6.13c.25-.62.51-1.23.79-1.82h0l2.74-5.88c.28-.59.57-1.17.87-1.74h0l3.01-5.6c.3-.56.62-1.11.95-1.65h0l3.26-5.27c.33-.53.67-1.05,1.02-1.54h0l3.49-4.92c.35-.5.72-.97,1.09-1.43h0l3.7-4.54c.37-.46.76-.9,1.15-1.31h0l3.89-4.12c.39-.42.79-.81,1.2-1.18h0l4.05-3.69c.41-.37.82-.72,1.25-1.05h0l4.19-3.23c.42-.33.85-.63,1.29-.9h0l4.3-2.75c.43-.28.87-.53,1.32-.76h0l4.39-2.25c.44-.23.89-.43,1.34-.6h0l4.45-1.74c.45-.18.9-.32,1.35-.45h0l4.48-1.22c.45-.12.9-.22,1.36-.29h0l4.48-.69c.45-.07.9-.11,1.35-.13h0l4.46-.15c.45-.02.9,0,1.34.03h0l4.41.38c9.38.81,15.54,13.19,13.78,27.65-1.76,14.46-10.8,25.53-20.17,24.72h-.05Z"/>
          <path class="cls-1" d="M592.32,564.46l-4.68,8.53-493.22-68.81c-26.98-.46-44.91-39.51-37.87-87.16,7.05-47.66,35.51-79.84,61.47-72.48h0l495,68.27c2.76.78-5.88,64.02-8.02,78.44-2.13,14.42-9.81,73.27-12.68,73.22h0Z"/>
          <path class="cls-1" d="M691.71,442.55c.01-.08,0-.16-.02-.22s-.07-.1-.12-.11l-38.48-5.69h0l-3.4-.29h-.02l-3.11.11h-.02l-3.12.48h-.02l-3.12.85h-.02l-3.1,1.22h-.02l-3.06,1.58h-.01l-3,1.92h-.01l-2.92,2.26h-.01l-2.82,2.58h-.01l-2.71,2.89h-.01l-2.58,3.18v.02l-2.45,3.43v.02l-2.28,3.68v.02l-2.11,3.9v.02l-1.92,4.1s-.02.05-.03.08h0l-1.69,4.21v.02l-1.51,4.43v.02l-1.29,4.54s0,.04-.01.06h0l-1.04,4.6v.06h0l-.81,4.67h0v.06h0l-.58,4.7v.05h0l-.34,4.72v.04h0l-.09,4.71v.02l.16,4.67v.02l.4,4.59v.02l.64,4.48v.02l.88,4.34v.02l1.12,4.18.12.14-.12-.12,1.34,3.99v.02l1.56,3.77v.02l1.77,3.54v.02l1.97,3.28v.02l2.16,3h.01l2.32,2.71h.01l2.48,2.4h.01l2.62,2.07h.01l2.74,1.72h.01l2.85,1.37h.01l2.94,1.01h.01l3.34.71h0l38.48,5.69c.11.02.21-.1.23-.27l17.79-120.37h0Z"/>
        </g>
        <path class="cls-1" d="M690.86,744.42c-48.31-93.62-151.71-138.81-304.29-160.57l-.64-70.57-1.1-149.47-2.02-114.15-132.62-1.84.29,96.3.68,141.69.27,98.93C75.38,628.45,8.86,771.95,1.08,859.41c-12.97,145.9,92.97,223.75,178.54,223.45,26.68-.09,52.56.68,74.54-14.45l.27,52.82,137.88-7.66,1.06-99.22c31.49-27,62.84-56.82,84.32-78.69,39.8-40.54,72.1-81.59,84.41-90.78,31.13-23.23,9.57,203.58-106.88,313.71h0c80.46-9.3,164.99-48.42,212.1-114.31,58.67-82.05,89.89-171.26,23.53-299.86h.01ZM438.46,764.93c-16.85,32.62-34.75,61.13-67.35,94.23-48.88,49.6-91.78,74.72-127.61,74.72-1.16,0-2.33-.03-3.47-.08-30.83-1.41-48.52-15.67-57.91-27.38-9.98-12.44-20.58-34.62-14.47-69.73,7.01-40.37,40.14-96.07,93.3-93.45,25.58,1.27,45.3,23.04,44.02,48.63-.03.81-.09,1.61-.18,2.4.08-.08.15-.14.23-.22,24.48-24.85,37.67-45.87,51.02-71.7,11.73-22.74,39.7-31.71,62.5-19.92,22.76,11.76,31.68,39.74,19.92,62.51h0Z"/>
      </g>
      <path class="cls-1" d="M1381.59,943.69s-63.66,111.94-126.66,96.77-27.2-93.63-125.75-138.66c-81.91-37.42-173.07,78.65-173.47,53.92-.5-30.32,138.09-352.04,138.09-352.04l-121.26-54.46-302.4,694.36s40.86,47.17,86.68,51.45,80.05,2.64,118.01-55.82c45.34-69.84,119.84-102.56,156.02-92.29,67.88,19.26,68.44,143.43,163.48,169.71s178.03-23.42,196.28-107.02-9.02-265.91-9.02-265.91h0ZM1319.06,1259.12c-10.57,7.26-40.47,25.32-75.8,25.32-13.73,0-28.28-2.73-42.85-9.89-43.01-21.16-54.59-58.53-55.76-62.73-3.46-12.33,3.73-25.13,16.05-28.6,12.26-3.44,24.96,3.61,28.54,15.79.42,1.34,7.32,21.94,31.65,33.9,29.4,14.47,62.5-5.57,71.92-12.04,14.04-9.64,36.35-44.1,24.3-80.11-4.06-12.15,2.49-25.29,14.65-29.35,12.16-4.05,25.29,2.51,29.35,14.63,19.34,57.82-13.65,113.58-42.04,133.07h-.01Z"/>
      <g>
        <path class="cls-1" d="M1790.07,905.23c-26.11-275.43-43.69-547.67-313.75-509.41l-18.07-95.81-122.29,32.78,12.15,93.33c-97,32.86-172.59,145.26-229.58,221.23,0,0,121.63,75.85,196.13,47.3,20.74-7.94,51.94-25.97,70.55-54l37.12,306.62,159.62-12.33-56.21-342.49c79.05-45.4,101.97,143.54,100.13,315.97l164.19-3.19h0ZM1247.06,661.42c-16.35.54-26.46-1.93-39.39-5.67-23.77-6.86-31.73-14.41-31.88-19.14-.16-4.68,1.58-11.2,24.5-19.62,12.75-4.68,27.8-17.35,44.7-17.91,13.34-.44,32.89,8.61,33.61,30.08.72,21.48-19.17,31.84-31.53,32.25h0Z"/>
        <g>
          <path class="cls-1" d="M2110.29,512.94c-15.61,29.49-45.51,47.84-81.25,53.66-35.74,5.83-77.3-.87-116.23-21.47-36.93-19.54-63.8-51.07-80.5-79.46,11.99,41.13,51.57,80.19,106.27,99.27,78.03,27.22,157.27,3.45,176.99-53.07,3.2-9.18,4.63-18.66,4.45-28.21-1.6,10.15-4.8,20-9.72,29.29h-.01Z"/>
          <path class="cls-1" d="M1832.99,413.3c19.72-56.53,98.95-80.29,176.99-53.07,65.36,22.8,109.13,74.13,110.04,123.42,3.49-22.07-.58-45.59-11.05-68.07-15.28-32.83-44.2-63.43-83.12-84.03-38.93-20.6-82.58-24.47-116.23-21.47-21.9,2.91-77.63.24-107.96-10.38s-62.81-21.73-117.32-58.75c-55.82-37.9-70.65-47.01-88.77-57.01-26.17-14.45-54.79,1.12-65.74,21.81-10.95,20.68-17.19,66.84.33,76.11.57.3,241.7,113.86,241.7,113.86,6.85,3.62,29.33,3.13,38.49,22.26-.52,16.62,9.43,23.38,19.34,43.12.84,1.51,1.72,3.04,2.63,4.57-5.12-17.54-5.21-35.46.68-52.36h-.01Z"/>
        </g>
      </g>
      <g>
        <path class="cls-1" d="M2482.1,793.5c9.55-39.09,16.19-79.42,19.01-120.22,2.75-39.76-22.45-66.31-60.8-70.53l-170.3-18.07c4.84,5.83,6.86,54.28,2.94,118.77l-92.5-39.83-34.9,99.39,113.89,64.08c-22.91,142.65-74.57,287.31-177.3,244.42l-2.79,36.23c-7.14,92.71,99.91,96.16,137.95,86.59,62.73-15.78,156.83-123.11,219.61-267.38l61.27,34.48,45.96-141.22-62.05-26.71h.01ZM2462.06,748.85c-6.06,30.01-15.69,65-16.1,66.47-2.84,10.28-12.17,17.03-22.35,17.03-2.04,0-4.12-.27-6.19-.85-12.34-3.41-19.58-16.18-16.19-28.52.11-.35,9.62-34.93,15.34-63.31,4.33-21.4,4.76-44.1,3.65-55.39-11.2-1.74-32.99-2.88-53.24-2.6h-.32c-12.67,0-23.01-10.17-23.19-22.87-.18-12.81,10.06-23.34,22.86-23.52,71.98-.94,83.04,9.32,87.85,13.73,23.39,21.43,8.5,96.62,7.87,99.82h0Z"/>
        <path class="cls-1" d="M2085.7,936.83l1.4,62.99c20.86,16.39,57.31-9.41,24.06,22.51-35.12,33.72-107.78,85.1-146.8,90.56-76.92,10.76-117.61-72.69-102.67-123.01,19.43-65.44,72.07-262.86,66.83-339.91s-31.31-109.85-52.48-122.15c-10.1-5.87,39.67,15.58,114.48-39.64,74.8-55.21,142.05-21.82,127.22,6.64-60.64,63.46-85.91,118.08-105.09,191.58-35.71,136.8-39.7,210.32-40.88,238.23-1.69,40.11,22.54,52.4,39.43,45.8,19.79-7.74,50.22-23.82,74.51-33.59h0Z"/>
      </g>
      <g>
        <path class="cls-1" d="M3041.8,1327.58l-299.88-138.97s234.06-303.56,299.88-859.45l175.55,38.41s49.38,713.15-175.55,960.02h0Z"/>
        <polygon class="cls-1" points="4138.07 1136.75 3608.79 1274.27 3429.17 560.58 3806.55 496.13 4138.07 1136.75"/>
      </g>
      <path class="cls-1" d="M4608.78,714.31c135.31,76.8,210.65,120.75,210.65,120.75l-207.15,247.47-526.64-548.58,80.98-60.94c7.3,0,151.01,71.85,268.04,135.86,40.35-51.35,67.7-90.55,86.39-166.22l-515.54-65.51L3946.69,0l1097.17,58.52s-118.73,383.34-435.07,655.8h-.01Z"/>
      <path class="cls-1" d="M5384.42,627.61c36.64-1.69,65.47-31.89,65.47-68.56h0c0-37.91-30.73-68.64-68.64-68.64h-109.94l8.15-70.7-153.19-19.03-6.34,89.73h-67.68c-43.45,0-77.93,36.57-75.38,79.95h0c2.42,41.15,37.4,72.76,78.59,71l53.59-2.28-22.83,244.56c63.34-22.37,111.38-37.54,106.58-3.93-7.68,58.57-52.77,37.43-108.5,32.74l-8.64,78.73c-12.48,72.97,260.91,145.57,336.15-16.7,67.99-146.84-37.16-275.58-164.97-281.92l7.25-58.92,130.34-6.03h0ZM5258.28,962.21c1.62.29,24.55,3.56,49.74-21.37,14.81-14.69,22.89-31.33,22.74-46.86-.18-20.45-5.07-33.67-9.56-37.31-9.95-8.07-11.46-22.67-3.4-32.62,8.06-9.94,22.65-11.47,32.63-3.39,21.71,17.61,26.5,49.37,26.71,72.9.26,28.15-12.68,56.64-36.48,80.23-27.9,27.64-58.17,35.15-78.34,35.15-5.41,0-10.1-.54-13.83-1.38-12.49-2.82-20.34-15.23-17.52-27.72,2.78-12.34,14.81-20.17,27.3-17.62h0Z"/>
      <g>
        <g>
          <path class="cls-1" d="M5777.03,693.86l-4.45-99.61c-.15-3.37-.03-6.68.33-9.93l-3.37-.19c-8.28,1.38-15.86,3.44-24.14,5.52l-6.22-53.13-112.46,12.42,11.73,82.1c-5.81,3.23-18.57,9.3-32.42,16.05-24.18,11.79-34.67,40.64-23.69,65.19l6.09,13.61c11.45,25.59,41.94,37.02,67.08,24.6.06-.03.12-.06.17-.09l29.67,202.17,100.74-11.03-28.28-242.19c6.85-2.07,13.04-3.44,19.21-5.5h.01Z"/>
          <path class="cls-1" d="M5880.98,590.91c-9.03,11.81-21.16,25.32-26.15,52.22-4.15,22.36-8.84,39.36-13.22,51.86l12.8.23c6.22,4.14,10.36,9.66,13.11,16.56,5.53,19.31-1.38,55.88-59.33,81.41l8.28,22.77c24.14,28.99,82.8,21.39,118.68-11.03,17.94-15.88,38.63-45.55,38.63-95.91,0-57.39-34.5-99.21-92.79-118.11h0Z"/>
        </g>
        <path class="cls-1" d="M5870.75,528.21l-33.08-.66c-36.89-.74-66.74,29.85-65.09,66.71l4.84,108.45c.72,16.02,2.16,39.11,18.61,41.85,11.8,1.97,23.36-6.66,35.42-26.63,5.93-9.82,15.6-32.94,23.37-74.79,7.77-41.85,32.82-51.3,36.58-72.35s-1.78-42.2-20.66-42.58h.01ZM5821.61,594.84c-4.19,25.17-18.53,53.92-21.56,53.41-3.03-.5-8.57-32.56-4.38-57.73,1.75-10.5,10.65-28.12,17.81-26.93s9.75,21.51,8.13,31.24h0Z"/>
      </g>
      <path class="cls-1" d="M6493.81,1053.34c-89.15,12.66-100.03-46.85-99.36-115.56.37-66.91-16.7-212.78-126.66-225.4l80.68-202.01-143.32-57.3-231.38,610.63,51.58,20.93c41.41,16.8,88.76-1.3,108.39-41.44l30.55-62.44c57.94,2.62,93.88,27.33,109.02,80.27,26.42,92.41,176.4,115.69,226.7,17.13l-6.19-24.82h-.01ZM6344.02,901.14c-1.72,11.51-11.61,19.77-22.91,19.77-1.15,0-2.3-.08-3.46-.26-12.67-1.89-21.4-13.69-19.51-26.36,0,0,2.46-20.82-9.04-48.11-9.63-22.85-26.08-28.47-26.77-28.7-11.97-3.93-18.89-16.78-15.24-28.84,3.65-12.04,16.01-19.07,28.13-15.71,3.87,1.07,38.29,11.75,56.63,55.24,16.55,39.29,12.67,69.63,12.17,72.96h0Z"/>
    </g>
  </g>
</svg>