<?xml version="1.0" encoding="UTF-8"?>
<svg xmlns="http://www.w3.org/2000/svg" viewBox="0 0 197.02 197.02">
  <path fill="#000" d="M194.68,2.35c-3.13-3.13-8.18-3.13-11.31,0l-84.86,84.86L13.67,2.35C10.54-.78,5.48-.78,2.35,2.35-.77,5.47-.77,10.53,2.35,13.66l84.85,84.86L2.35,183.36c-3.13,3.13-3.13,8.18,0,11.31,1.56,1.56,3.61,2.34,5.66,2.34s4.1-.78,5.66-2.34l84.86-84.85,84.85,84.85c1.56,1.56,3.61,2.34,5.66,2.34s4.1-.78,5.66-2.34c3.13-3.13,3.13-8.18,0-11.31l-84.85-84.85L194.67,13.67c3.13-3.13,3.13-8.19,0-11.32Z"/>
</svg>