<?xml version="1.0" encoding="UTF-8"?>
<svg id="_レイヤー_2" data-name="レイヤー_2" xmlns="http://www.w3.org/2000/svg" viewBox="0 0 300 127.07">
  <defs>
    <style>
      .cls-1 {
        fill: #957852;
      }

      .cls-2 {
        fill: #cede68;
      }
    </style>
  </defs>
  <g id="_ロゴ" data-name="ロゴ">
    <g>
      <g>
        <path class="cls-1" d="M61.61.29h-26.8c-.54,0-1.08.02-1.61.04-.18,0-.36.02-.55.03-.35.02-.7.05-1.04.08-.22.02-.44.04-.65.07-.31.03-.61.07-.91.12-.23.03-.46.06-.7.1-.35.06-.69.12-1.04.19-.43.08-.85.17-1.27.27-.16.04-.32.07-.48.11-.33.08-.67.17-1,.26-.13.04-.26.07-.39.11-.35.1-.7.2-1.05.32h0c-1.25.4-2.46.88-3.64,1.41-.09.04-.19.08-.28.13-.34.16-.67.32-1,.48-.1.05-.21.11-.31.16-.34.17-.67.35-1,.53-.04.02-.09.05-.13.08-1.07.6-2.1,1.26-3.09,1.97-.1.07-.21.15-.31.22-.28.2-.55.41-.82.62-.12.09-.24.19-.36.28-.26.21-.52.42-.78.64-.11.09-.21.18-.32.27-.83.72-1.63,1.47-2.39,2.26-.13.14-.27.28-.4.42-.2.21-.39.43-.59.65-.14.16-.28.32-.42.48-.18.22-.37.43-.54.65-.15.18-.29.36-.43.54-.17.21-.33.42-.49.64-.27.37-.54.74-.8,1.13-.13.19-.26.39-.39.59-.15.23-.3.46-.45.7-.13.21-.25.41-.37.62-.14.24-.28.48-.41.72-.11.2-.23.41-.34.61-.14.27-.28.54-.42.82-.09.18-.18.36-.27.55-.21.44-.42.89-.61,1.35-.06.14-.11.28-.17.42-.14.34-.28.68-.4,1.03-.07.19-.14.38-.2.57-.11.31-.21.62-.32.93-.06.19-.12.38-.18.58-.1.34-.2.68-.29,1.02-.05.17-.09.33-.14.5-.13.5-.25,1.01-.35,1.52-.02.07-.03.15-.04.22-.09.45-.17.9-.24,1.35-.03.18-.05.35-.08.53-.05.36-.1.72-.14,1.09-.02.19-.04.38-.06.57-.04.37-.06.75-.09,1.13-.01.17-.02.34-.03.51-.03.54-.04,1.09-.04,1.64s.02,1.07.04,1.59c0,.14.01.28.02.42.03.47.06.94.11,1.4,0,.06.01.13.02.19.05.52.12,1.03.19,1.54.02.13.04.27.06.4.07.42.14.85.23,1.27.02.1.04.2.06.29.1.49.22.98.34,1.47.03.13.07.25.1.38.1.39.21.78.33,1.17.04.12.07.24.11.36.15.47.31.94.47,1.4.04.12.09.23.13.35.14.37.28.73.43,1.09.05.13.11.26.16.39.19.44.39.88.59,1.32.05.1.1.2.15.3.17.35.35.69.53,1.04.07.14.15.28.22.42.23.41.46.83.71,1.23.05.08.1.16.15.24.21.34.42.67.64,1,.09.14.19.28.28.42.22.32.45.64.68.96.08.11.16.22.24.32.26.34.52.67.79,1,.11.14.23.28.35.42.22.26.45.52.68.78.1.11.19.22.29.33.3.33.61.65.93.97.13.13.27.26.4.39.23.22.46.44.69.66.13.12.26.24.39.36.33.3.66.58,1,.87.15.12.3.24.44.36.24.19.48.38.72.57.15.12.31.24.46.35.35.26.71.51,1.07.76.15.11.31.21.47.31.25.17.51.33.77.49.17.11.34.21.52.32.37.22.75.44,1.13.65.4.22.8.42,1.2.62.09.05.18.09.27.14.38.18.76.35,1.14.52.12.05.24.11.36.16.37.16.75.31,1.13.46.14.05.27.11.41.16.36.14.73.26,1.1.38.13.04.25.09.38.13.04.01.08.02.12.04.24.08.48.15.73.22.26.08.51.15.77.22.24.06.47.13.71.19.3.07.6.14.9.21.2.04.4.09.6.13.49.1.98.19,1.47.26.17.03.34.05.5.07.36.05.73.1,1.09.14.19.02.38.04.58.06.37.03.74.06,1.1.08.17.01.34.02.52.03.54.02,1.08.04,1.62.04h0c.55,0,1.1-.01,1.65-.04.35-.02.7-.05,1.05-.07.17-.01.34-.02.51-.04.46-.04.91-.1,1.36-.15.04,0,.09-.01.13-.02.49-.07.98-.14,1.47-.23h0c2.86-.51,5.6-1.37,8.17-2.54,0,0,0,0,0,0,.51-.23,1.01-.47,1.5-.72.01,0,.02-.01.03-.02.49-.25.96-.51,1.43-.78.02-.01.04-.02.06-.03.46-.27.91-.54,1.36-.83.02-.01.03-.02.05-.03v41.69c0,9.61-7.79,17.41-17.4,17.41h-17.41v3.53h33.43c3.46,0,6.68-1.01,9.4-2.76,4.82-3.1,8.01-8.5,8.01-14.65V.29h-8.01Z"/>
        <path class="cls-2" d="M48.97,6.22h-10.96c-8.52,0-15.43,6.64-15.43,14.82v35.45c-.36,3.52-2,6.68-4.47,9.05v.11h15.43c8.52,0,15.43-6.64,15.43-14.83V15.38c.36-3.52,2-6.68,4.47-9.05v-.11h-4.47Z"/>
        <path class="cls-2" d="M166.45,65.65c8.52,0,15.43-6.64,15.43-14.83V15.38c.36-3.52,2-6.68,4.47-9.05v-.11h-15.43c-8.52,0-15.43,6.64-15.43,14.82v35.45c-.36,3.52-2,6.67-4.46,9.03.07.04.14.08.21.12h15.21Z"/>
        <path class="cls-1" d="M167.95.29c-19.23,0-34.81,15.59-34.81,34.81,0,13.09,7.23,24.48,17.9,30.43,2.46-2.36,4.1-5.52,4.46-9.03V21.05c0-8.19,6.91-14.82,15.43-14.82h15.43v.11c-2.47,2.36-4.11,5.52-4.47,9.05v35.45c0,8.19-6.91,14.83-15.43,14.83h-15.21c4.96,2.72,10.65,4.26,16.7,4.26,19.23,0,34.81-15.59,34.81-34.81S187.17.29,167.95.29Z"/>
        <path class="cls-1" d="M120.21.29h-17.41c-9.61,0-17.41,7.79-17.41,17.41v51.79h15.92V23.29h.02v-1.27c0-8.72,7.35-15.79,16.42-15.79h16.39V.29h-13.94Z"/>
        <path class="cls-1" d="M284.08,0v46.2h-.02v1.27c0,8.72-7.35,15.79-16.42,15.79h-3.95c2.69-3.06,4.32-7.08,4.32-11.47V0h-15.92v46.2h-.02v1.27c0,8.72-7.35,15.79-16.42,15.79h-3.3c2.69-3.06,4.32-7.08,4.32-11.47V0h-15.92v46.2h-.02v1.27c0,8.72-7.35,15.79-16.42,15.79h-2.45v5.93h48.75c.22,0,.43,0,.64-.02v.02h31.35c9.61,0,17.41-7.79,17.41-17.41V0h-15.92Z"/>
      </g>
      <g>
        <path class="cls-1" d="M103.43,106.22c0-.5.2-.75.59-.75s.59.25.59.75v3.11h2.38c.45,0,.68.22.68.66s-.23.66-.68.66h-2.38v2.64c.73.88,1.41,1.89,2.04,3.02.51.88.76,1.6.76,2.17,0,.44-.14.66-.42.66-.34,0-.59-.22-.76-.66-.17-.38-.42-1.04-.76-1.98-.23-.5-.51-1.04-.85-1.6v11.42c0,.5-.2.75-.59.75s-.59-.25-.59-.75v-10.66c-.34,1.07-.71,2.01-1.1,2.83-.23.5-.48.98-.76,1.42-.17.32-.42.47-.76.47-.23,0-.34-.19-.34-.57,0-.25.08-.47.25-.66.62-1.13,1.16-2.29,1.61-3.49.74-2.33,1.1-3.99,1.1-5h-2.46c-.45,0-.68-.22-.68-.66s.23-.66.68-.66h2.46v-3.11ZM112.69,106.41c0-.63.25-.94.76-.94s.76.32.76.94v2.45h3.48c.45,0,.68.22.68.66s-.23.66-.68.66h-3.48v4.43h4.93c.45,0,.68.22.68.66s-.23.66-.68.66h-4.84c.11.5.68,1.54,1.7,3.11,1.02,1.45,2.15,2.83,3.4,4.15.28.32.42.6.42.85,0,.57-.23.85-.68.85-.28,0-.57-.16-.85-.47-.68-.75-1.36-1.63-2.04-2.64-.68-.94-1.36-2.01-2.04-3.21v7.55c0,.63-.25.94-.76.94s-.76-.32-.76-.94v-7.08c-.62,1.13-1.39,2.26-2.29,3.4-.79.88-1.53,1.64-2.21,2.26-.4.31-.71.47-.93.47-.4,0-.59-.22-.59-.66,0-.31.14-.6.42-.85,1.13-.88,2.24-2.04,3.31-3.49,1.02-1.45,1.78-2.86,2.29-4.25h-4.75c-.45,0-.68-.22-.68-.66s.23-.66.68-.66h4.75v-4.43h-2.63c-.11.44-.31,1.01-.59,1.7-.23.5-.51,1.04-.85,1.6-.23.25-.45.38-.68.38-.34,0-.51-.19-.51-.57,0-.25.11-.53.34-.85.23-.38.48-.97.76-1.79.34-1.13.57-2.04.68-2.74.06-.31.14-.66.25-1.04.11-.19.31-.28.59-.28.45,0,.68.28.68.85,0,.25-.11.72-.34,1.42h2.29v-2.45Z"/>
        <path class="cls-1" d="M139.39,105.46c.45,0,.71.28.76.85.06,1.07.14,2.23.25,3.49h5.6c.45,0,.68.22.68.66s-.23.66-.68.66h-5.43c.85,5.54,2.04,9.72,3.57,12.55.28.63.51.63.68,0,.28-1.38.48-2.8.59-4.25.06-.38.25-.57.59-.57.4,0,.59.25.59.75-.11,2.89-.37,4.94-.76,6.13-.51,1.26-1.25,1.29-2.21.09-.57-.75-1.05-1.6-1.44-2.55-1.3-3.08-2.32-7.14-3.06-12.17h-11.12c-.45,0-.68-.22-.68-.66s.23-.66.68-.66h10.95c-.11-1.19-.2-2.33-.25-3.4,0-.63.23-.94.68-.94ZM137.35,114.9c.45,0,.68.22.68.66s-.23.66-.68.66h-3.31v7.08c1.7-.19,3.45-.47,5.26-.85.45,0,.71.22.76.66,0,.38-.2.63-.59.75-3.79.82-7.56,1.29-11.29,1.42-.51,0-.76-.25-.76-.75s.25-.75.76-.75c1.36-.06,2.8-.16,4.33-.28v-7.27h-3.31c-.45,0-.68-.22-.68-.66s.23-.66.68-.66h8.15ZM141.76,106.41c.17-.38.51-.44,1.02-.19.79.38,1.53.85,2.21,1.42.34.38.37.75.08,1.13-.23.25-.57.25-1.02,0-.62-.5-1.3-1.01-2.04-1.51-.28-.19-.37-.47-.25-.85Z"/>
        <path class="cls-1" d="M165.41,106.03c1.07,1.07,2.01,1.86,2.8,2.36,1.58,1.07,3.31,1.98,5.18,2.74.51.32.65.72.42,1.23-.17.38-.48.5-.93.38-1.42-.5-2.75-1.16-3.99-1.98-1.25-.82-2.66-1.95-4.25-3.4-.28-.25-.62-.22-1.02.09-2.21,2.33-5.04,4.21-8.49,5.66-.45.13-.74,0-.85-.38-.11-.38,0-.66.34-.85,2.6-1.19,4.76-2.55,6.45-4.06.45-.44,1.02-.97,1.7-1.6.56-.63,1.05-.94,1.44-.94.28,0,.68.25,1.19.75ZM172.54,116.88c.45,0,.68.22.68.66s-.23.66-.68.66h-10.44c-.74,1.76-2.15,3.93-4.25,6.51,5.94,0,10.13-.19,12.57-.57-.68-1.13-1.59-2.33-2.72-3.58-.28-.38-.31-.72-.08-1.04.17-.19.45-.19.85,0,2.26,1.95,3.88,3.96,4.84,6.04.23.5.14.91-.25,1.23-.45.25-.82.16-1.1-.28-.23-.38-.48-.75-.76-1.13-3.28.38-8.52.72-15.71,1.04-.57,0-.85-.28-.85-.85,0-.63.28-.94.85-.94h.76c1.92-2.39,3.25-4.53,3.99-6.42h-4.93c-.45,0-.68-.22-.68-.66s.23-.66.68-.66h17.24ZM169.65,112.54c.45,0,.68.22.68.66s-.23.66-.68.66h-11.46c-.45,0-.68-.22-.68-.66s.23-.66.68-.66h11.46Z"/>
        <path class="cls-1" d="M185.06,106.13c0-.5.2-.75.59-.75s.59.25.59.75v2.83h2.12c.74,0,1.16.28,1.27.85.06.57-.06,1.13-.34,1.7-.74,1.57-1.76,3.02-3.06,4.34v.19c1.64.88,2.89,1.73,3.74,2.55.34.38.4.79.17,1.23-.34.32-.74.32-1.19,0-.68-.69-1.59-1.42-2.72-2.17v8.68c0,.5-.2.75-.59.75s-.59-.25-.59-.75v-9.34c-1.08.94-2.07,1.7-2.97,2.26-.45.25-.79.19-1.02-.19-.17-.44-.03-.79.42-1.04,3.23-2.2,5.38-4.53,6.45-6.98.17-.5.03-.75-.42-.75h-5.52c-.45,0-.68-.22-.68-.66s.23-.66.68-.66h3.06v-2.83ZM194.32,106.6c0-.63.25-.94.76-.94s.76.32.76.94v3.68h3.74c.45,0,.68.22.68.66s-.23.66-.68.66h-3.74v13.3h4.16c.45,0,.68.22.68.66s-.23.66-.68.66h-10.7c-.45,0-.68-.22-.68-.66s.23-.66.68-.66h5.01v-13.3h-3.14c-.45,0-.68-.22-.68-.66s.23-.66.68-.66h3.14v-3.68Z"/>
        <path class="cls-1" d="M214.9,105.84c.51.06.76.38.76.94l-.17,1.42h7.56c1.7,0,2.55.85,2.55,2.55,0,1.45-.45,3.4-1.36,5.85-.68,1.76-1.67,3.33-2.97,4.72-2.55,2.71-5.89,4.43-10.02,5.19-.45,0-.71-.25-.76-.75,0-.44.2-.69.59-.75,3.68-.75,6.74-2.39,9.17-4.91.91-1.01,1.7-2.3,2.38-3.87.79-1.95,1.22-3.62,1.27-5,.06-.88-.28-1.32-1.02-1.32h-7.81c-.91,2.77-2.63,5.06-5.18,6.89-.45.25-.79.19-1.02-.19-.17-.31-.11-.63.17-.94,2.89-2.33,4.5-5.31,4.84-8.96.11-.63.45-.91,1.02-.85ZM226.62,108.11c.11.44.03.72-.25.85-.28.13-.51,0-.68-.38-.45-1.07-.91-1.95-1.36-2.64-.11-.31-.08-.53.08-.66.23-.19.48-.16.76.09.62.88,1.1,1.79,1.44,2.74ZM226.28,105.37c-.11-.31-.08-.53.08-.66.28-.19.54-.12.76.19.74,1.07,1.22,2.01,1.44,2.83.06.38-.06.63-.34.75-.28.06-.51-.06-.68-.38-.34-.94-.76-1.85-1.27-2.74Z"/>
        <path class="cls-1" d="M250.77,107.92c1.41,0,2.12.75,2.12,2.26v12.64c0,1.51-.71,2.26-2.12,2.26h-11.8c-1.42,0-2.12-.75-2.12-2.26v-12.64c0-1.51.71-2.26,2.12-2.26h11.8ZM239.48,109.62c-.74,0-1.1.41-1.1,1.23v11.32c0,.82.37,1.23,1.1,1.23h10.78c.73,0,1.1-.41,1.1-1.23v-11.32c0-.82-.37-1.23-1.1-1.23h-10.78Z"/>
        <path class="cls-1" d="M271.1,106.6c0-.63.25-.94.76-.94s.76.32.76.94v2.36h6.03c1.13,0,1.7.63,1.7,1.89,0,5.41-1.02,9.25-3.06,11.51-2.1,2.33-4.98,3.77-8.66,4.34-.45,0-.71-.19-.76-.57,0-.44.17-.69.51-.75,3.45-.75,6-2.04,7.64-3.87,1.87-2.08,2.8-5.6,2.8-10.57,0-.31-.14-.47-.42-.47h-13.16c-.28,0-.42.16-.42.47v5.85c0,.63-.25.94-.76.94s-.76-.31-.76-.94v-6.13c0-1.13.51-1.7,1.53-1.7h6.28v-2.36Z"/>
      </g>
      <rect class="cls-1" x="84.22" y="80.57" width="214.35" height="12.7"/>
    </g>
  </g>
</svg>