<?xml version="1.0" encoding="UTF-8"?>
<svg id="_レイヤー_2" data-name="レイヤー 2" xmlns="http://www.w3.org/2000/svg" viewBox="0 0 6500 2050.58">
  <defs>
    <style>
      .cls-1 {
        fill: #fff;
      }

      .cls-2 {
        fill: #fff;
      }

      .cls-3 {
        fill: #fff;
      }

      .cls-4 {
        fill: #fff;
      }
    </style>
  </defs>
  <g id="_ロゴマーク" data-name="ロゴマーク">
    <g id="_ロゴタイプ" data-name="ロゴタイプ">
      <g>
        <g id="layer1">
          <path class="cls-2" d="M875.31,1192.69h0l-166.95-24.68c-9.3-1.37-15.11-14.18-12.98-28.6,2.13-14.42,11.4-24.99,20.7-23.62h0l166.95,24.68c9.3,1.37,15.11,14.18,12.98,28.6-2.13,14.42-11.4,24.99-20.7,23.62Z"/>
          <path class="cls-2" d="M862.55,1278.98h0l-166.95-24.68c-9.3-1.37-15.11-14.18-12.98-28.6,2.13-14.42,11.4-24.99,20.7-23.62h0l166.95,24.68c9.3,1.37,15.11,14.18,12.98,28.6-2.13,14.42-11.4,24.99-20.7,23.62Z"/>
          <path class="cls-2" d="M849.79,1365.28h0l-166.95-24.68c-9.3-1.37-15.11-14.18-12.98-28.6,2.13-14.42,11.4-24.99,20.7-23.62h0l166.95,24.68c9.3,1.37,15.11,14.18,12.98,28.6-2.13,14.42-11.4,24.99-20.7,23.62Z"/>
          <path class="cls-2" d="M729.06,1144.4h0l-25.51,172.58c-2.13,14.42-11.4,24.99-20.7,23.62-9.3-1.37-15.11-14.18-12.98-28.6h0l25.51-172.58c2.13-14.42,11.4-24.99,20.7-23.62,9.3,1.37,15.11,14.18,12.98,28.6Z"/>
          <path class="cls-2" d="M708.36,1168.01h0l-55.65-8.23c-9.3-1.37-15.11-14.18-12.98-28.6,2.13-14.42,11.4-24.99,20.7-23.62h0l55.65,8.23c9.3,1.37,15.11,14.18,12.98,28.6-2.13,14.42-11.4,24.99-20.7,23.62Z"/>
          <path class="cls-2" d="M682.85,1340.6h0l-55.65-8.23c-9.3-1.37-15.11-14.18-12.98-28.6,2.13-14.42,11.4-24.99,20.7-23.62h0l55.65,8.23c9.3,1.37,15.11,14.18,12.98,28.6-2.13,14.42-11.4,24.99-20.7,23.62Z"/>
          <path class="cls-2" d="M653.37,1159.87h0l-4.41-.38,1.34.03-4.46.15,1.35-.13-4.48.69,1.36-.29-4.48,1.22,1.35-.45-4.45,1.74,1.34-.6-4.39,2.25,1.32-.76-4.3,2.75,1.29-.9-4.19,3.23,1.25-1.05-4.05,3.69,1.2-1.18-3.89,4.12,1.15-1.31-3.7,4.54,1.09-1.43-3.49,4.92,1.02-1.54-3.26,5.27.95-1.65-3.01,5.6.87-1.74-2.74,5.88.79-1.82-2.45,6.13.7-1.89-2.15,6.35.6-1.95-1.83,6.52.51-1.99-1.51,6.65.41-2.03-1.17,6.75.3-2.05-.83,6.8.2-2.06-.48,6.8.09-2.06-.13,6.77v-2.04s.21,6.7.21,6.7l-.12-2.01.57,6.58-.23-1.97.92,6.42-.33-1.91,1.26,6.23-.43-1.85,1.59,5.99-.53-1.77,1.92,5.72-.63-1.69,2.23,5.41-.72-1.59,2.53,5.07-.81-1.48,2.81,4.7-.89-1.36,3.08,4.3-.97-1.24,3.32,3.87-1.04-1.1,3.55,3.42-1.11-.96,3.75,2.95-1.16-.82,3.93,2.46-1.21-.67,4.09,1.96-1.26-.51,4.22,1.44-1.29-.36,4.33.91c9.21,1.94,14.65,15.15,12.15,29.5-2.49,14.35-11.98,24.42-21.19,22.48h0l-4.33-.91c-.44-.09-.87-.21-1.29-.36h0l-4.22-1.44c-.43-.15-.85-.32-1.26-.51h0l-4.09-1.96c-.41-.2-.82-.42-1.21-.67h0l-3.93-2.46c-.4-.25-.78-.52-1.16-.82h0l-3.75-2.95c-.38-.3-.75-.62-1.11-.97h0l-3.55-3.42c-.36-.35-.71-.71-1.04-1.1h0l-3.32-3.87c-.34-.39-.66-.8-.97-1.24h0l-3.08-4.3c-.31-.43-.61-.89-.89-1.36h0l-2.81-4.7c-.28-.47-.55-.97-.81-1.48h0l-2.53-5.07c-.26-.51-.5-1.04-.72-1.59h0l-2.23-5.41c-.23-.55-.43-1.11-.63-1.69h0l-1.92-5.72c-.19-.58-.37-1.17-.53-1.77h0l-1.59-5.99c-.16-.6-.31-1.22-.43-1.85h0l-1.26-6.23c-.13-.63-.24-1.27-.33-1.91h0l-.92-6.42c-.09-.65-.17-1.31-.23-1.97h0l-.57-6.58c-.06-.66-.1-1.33-.12-2.01h0l-.22-6.7c-.02-.68-.03-1.36-.01-2.04h0l.13-6.77c.01-.68.04-1.37.09-2.06h0l.48-6.8c.05-.69.11-1.37.2-2.06h0l.83-6.8c.08-.69.18-1.37.3-2.05h0l1.17-6.74c.12-.68.25-1.36.41-2.03h0l1.51-6.65c.15-.67.32-1.34.51-1.99h0l1.83-6.52c.19-.66.39-1.31.6-1.95h0l2.15-6.35c.22-.64.45-1.27.7-1.89h0l2.45-6.13c.25-.62.51-1.23.79-1.82h0l2.74-5.88c.28-.59.57-1.17.87-1.74h0l3.01-5.6c.3-.56.62-1.11.95-1.65h0l3.26-5.27c.33-.53.67-1.05,1.02-1.54h0l3.49-4.92c.35-.5.72-.97,1.09-1.43h0l3.7-4.54c.37-.46.76-.9,1.15-1.31h0l3.89-4.12c.39-.42.79-.81,1.2-1.18h0l4.05-3.69c.41-.37.82-.72,1.25-1.05h0l4.19-3.23c.42-.33.85-.63,1.29-.9h0l4.3-2.75c.43-.28.87-.53,1.32-.76h0l4.39-2.25c.44-.23.89-.43,1.34-.6h0l4.45-1.74c.45-.18.9-.32,1.35-.45h0l4.48-1.22c.45-.12.9-.22,1.36-.29h0l4.48-.69c.45-.07.9-.11,1.35-.13h0l4.46-.15c.45-.02.9,0,1.34.03h0l4.41.38c9.38.81,15.54,13.19,13.78,27.65-1.76,14.46-10.8,25.53-20.17,24.72Z"/>
          <path class="cls-2" d="M592.32,1287.46l-4.68,8.53-493.22-68.81c-26.98-.46-44.91-39.51-37.87-87.16,7.05-47.66,35.51-79.84,61.47-72.48h0l495,68.27c2.76.78-5.88,64.02-8.02,78.44-2.13,14.42-9.81,73.27-12.68,73.22Z"/>
          <path class="cls-2" d="M691.71,1165.55c.01-.08,0-.16-.02-.22s-.07-.1-.12-.11l-38.48-5.69h0s-3.4-.29-3.4-.29h-.02s-3.11.11-3.11.11h-.02s-3.12.48-3.12.48h-.02s-3.12.85-3.12.85h-.02s-3.1,1.22-3.1,1.22h-.02s-3.06,1.58-3.06,1.58h-.01s-3,1.92-3,1.92h-.01s-2.92,2.26-2.92,2.26h-.01s-2.82,2.58-2.82,2.58h-.01s-2.71,2.89-2.71,2.89h-.01s-2.58,3.18-2.58,3.18v.02s-2.45,3.43-2.45,3.43v.02s-2.28,3.68-2.28,3.68v.02s-2.11,3.9-2.11,3.9v.02s-1.92,4.1-1.92,4.1c-.01.03-.02.05-.03.08h0s-1.69,4.21-1.69,4.21v.02s-1.51,4.43-1.51,4.43v.02s-1.29,4.54-1.29,4.54c0,.02,0,.04-.01.06h0s-1.04,4.6-1.04,4.6c0,.01,0,.02,0,.04,0,0,0,.01,0,.02h0s-.81,4.67-.81,4.67c0,0,0,0,0,.01,0,.02,0,.03,0,.05h0s-.58,4.7-.58,4.7c0,.02,0,.03,0,.05h0s-.34,4.72-.34,4.72c0,.01,0,.02,0,.04h0s-.09,4.71-.09,4.71v.02s.16,4.67.16,4.67v.02s.4,4.59.4,4.59v.02s.64,4.48.64,4.48v.02s.88,4.34.88,4.34v.02s1.12,4.18,1.12,4.18l.12.14-.12-.12,1.34,3.99v.02s1.56,3.77,1.56,3.77v.02s1.77,3.54,1.77,3.54v.02s1.97,3.28,1.97,3.28v.02s2.16,3,2.16,3h.01s2.32,2.71,2.32,2.71h.01s2.48,2.4,2.48,2.4h.01s2.62,2.07,2.62,2.07h.01s2.74,1.72,2.74,1.72h.01s2.85,1.37,2.85,1.37h.01s2.94,1.01,2.94,1.01h.01s3.34.71,3.34.71h0s38.48,5.69,38.48,5.69c.11.02.21-.1.23-.27l17.79-120.37Z"/>
        </g>
        <path class="cls-2" d="M690.86,1467.42c-48.31-93.62-151.71-138.81-304.29-160.57l-.64-70.57-1.1-149.47-2.02-114.15-132.62-1.84.29,96.3.68,141.69.27,98.93C75.38,1351.45,8.86,1494.95,1.08,1582.41c-12.97,145.9,92.97,223.75,178.54,223.45,26.68-.09,52.56.68,74.54-14.45l.27,52.82,137.88-7.66,1.06-99.22c31.49-27,62.84-56.82,84.32-78.69,39.8-40.54,72.1-81.59,84.41-90.78,31.13-23.23,9.57,203.58-106.88,313.71h0c80.46-9.3,164.99-48.42,212.1-114.31,58.67-82.05,89.89-171.26,23.53-299.86ZM438.46,1487.93c-16.85,32.62-34.75,61.13-67.35,94.23-48.88,49.6-91.78,74.72-127.61,74.72-1.16,0-2.33-.03-3.47-.08-30.83-1.41-48.52-15.67-57.91-27.38-9.98-12.44-20.58-34.62-14.47-69.73,7.01-40.37,40.14-96.07,93.3-93.45,25.58,1.27,45.3,23.04,44.02,48.63-.03.81-.09,1.61-.18,2.4.08-.08.15-.14.23-.22,24.48-24.85,37.67-45.87,51.02-71.7,11.73-22.74,39.7-31.71,62.5-19.92,22.76,11.76,31.68,39.74,19.92,62.51Z"/>
      </g>
      <path class="cls-2" d="M1381.59,1666.69s-63.66,111.94-126.66,96.77-27.2-93.63-125.75-138.66c-81.91-37.42-173.07,78.65-173.47,53.92-.5-30.32,138.09-352.04,138.09-352.04l-121.26-54.46-302.4,694.36s40.86,47.17,86.68,51.45,80.05,2.64,118.01-55.82c45.34-69.84,119.84-102.56,156.02-92.29,67.88,19.26,68.44,143.43,163.48,169.71,95.04,26.28,178.03-23.42,196.28-107.02s-9.02-265.91-9.02-265.91ZM1319.06,1982.12c-10.57,7.26-40.47,25.32-75.8,25.32-13.73,0-28.28-2.73-42.85-9.89-43.01-21.16-54.59-58.53-55.76-62.73-3.46-12.33,3.73-25.13,16.05-28.6,12.26-3.44,24.96,3.61,28.54,15.79.42,1.34,7.32,21.94,31.65,33.9,29.4,14.47,62.5-5.57,71.92-12.04,14.04-9.64,36.35-44.1,24.3-80.11-4.06-12.15,2.49-25.29,14.65-29.35,12.16-4.05,25.29,2.51,29.35,14.63,19.34,57.82-13.65,113.58-42.04,133.07Z"/>
      <g>
        <path class="cls-2" d="M1790.07,1628.23c-26.11-275.43-43.69-547.67-313.75-509.41l-18.07-95.81-122.29,32.78,12.15,93.33c-97,32.86-172.59,145.26-229.58,221.23,0,0,121.63,75.85,196.13,47.3,20.74-7.94,51.94-25.97,70.55-54l37.12,306.62,159.62-12.33-56.21-342.49c79.05-45.4,101.97,143.54,100.13,315.97l164.19-3.19ZM1247.06,1384.42c-16.35.54-26.46-1.93-39.39-5.67-23.77-6.86-31.73-14.41-31.88-19.14-.16-4.68,1.58-11.2,24.5-19.62,12.75-4.68,27.8-17.35,44.7-17.91,13.34-.44,32.89,8.61,33.61,30.08.72,21.48-19.17,31.84-31.53,32.25Z"/>
        <g>
          <path class="cls-2" d="M2110.29,1235.94c-15.61,29.49-45.51,47.84-81.25,53.66-35.74,5.83-77.3-.87-116.23-21.47-36.93-19.54-63.8-51.07-80.5-79.46,11.99,41.13,51.57,80.19,106.27,99.27,78.03,27.22,157.27,3.45,176.99-53.07,3.2-9.18,4.63-18.66,4.45-28.21-1.6,10.15-4.8,20-9.72,29.29Z"/>
          <path class="cls-2" d="M1832.99,1136.3c19.72-56.53,98.95-80.29,176.99-53.07,65.36,22.8,109.13,74.13,110.04,123.42,3.49-22.07-.58-45.59-11.05-68.07-15.28-32.83-44.2-63.43-83.12-84.03-38.93-20.6-82.58-24.47-116.23-21.47-21.9,2.91-77.63.24-107.96-10.38s-62.81-21.73-117.32-58.75c-55.82-37.9-70.65-47.01-88.77-57.01-26.17-14.45-54.79,1.12-65.74,21.81-10.95,20.68-17.19,66.84.33,76.11.57.3,241.7,113.86,241.7,113.86,6.85,3.62,29.33,3.13,38.49,22.26-.52,16.62,9.43,23.38,19.34,43.12.84,1.51,1.72,3.04,2.63,4.57-5.12-17.54-5.21-35.46.68-52.36Z"/>
        </g>
      </g>
      <g>
        <path class="cls-2" d="M2482.1,1516.5c9.55-39.09,16.19-79.42,19.01-120.22,2.75-39.76-22.45-66.31-60.8-70.53l-170.3-18.07c4.84,5.83,6.86,54.28,2.94,118.77l-92.5-39.83-34.9,99.39,113.89,64.08c-22.91,142.65-74.57,287.31-177.3,244.42l-2.79,36.23c-7.14,92.71,99.91,96.16,137.95,86.59,62.73-15.78,156.83-123.11,219.61-267.38l61.27,34.48,45.96-141.22-62.05-26.71ZM2462.06,1471.85c-6.06,30.01-15.69,65-16.1,66.47-2.84,10.28-12.17,17.03-22.35,17.03-2.04,0-4.12-.27-6.19-.85-12.34-3.41-19.58-16.18-16.19-28.52.11-.35,9.62-34.93,15.34-63.31,4.33-21.4,4.76-44.1,3.65-55.39-11.2-1.74-32.99-2.88-53.24-2.6h-.32c-12.67,0-23.01-10.17-23.19-22.87-.18-12.81,10.06-23.34,22.86-23.52,71.98-.94,83.04,9.32,87.85,13.73,23.39,21.43,8.5,96.62,7.87,99.82Z"/>
        <path class="cls-2" d="M2085.7,1659.83l1.4,62.99c20.86,16.39,57.31-9.41,24.06,22.51-35.12,33.72-107.78,85.1-146.8,90.56-76.92,10.76-117.61-72.69-102.67-123.01,19.43-65.44,72.07-262.86,66.83-339.91-5.24-77.05-31.31-109.85-52.48-122.15-10.1-5.87,39.67,15.58,114.48-39.64,74.8-55.21,142.05-21.82,127.22,6.64-60.64,63.46-85.91,118.08-105.09,191.58-35.71,136.8-39.7,210.32-40.88,238.23-1.69,40.11,22.54,52.4,39.43,45.8,19.79-7.74,50.22-23.82,74.51-33.59Z"/>
      </g>
      <g>
        <path class="cls-4" d="M3041.8,2050.58l-299.88-138.97s234.06-303.56,299.88-859.45l175.55,38.41s49.38,713.15-175.55,960.02Z"/>
        <polygon class="cls-4" points="4138.07 1859.75 3608.79 1997.27 3429.17 1283.58 3806.55 1219.13 4138.07 1859.75"/>
      </g>
      <path class="cls-4" d="M4608.78,1437.31c135.31,76.8,210.65,120.75,210.65,120.75l-207.15,247.47-526.64-548.58,80.98-60.94c7.3,0,151.01,71.85,268.04,135.86,40.35-51.35,67.7-90.55,86.39-166.22l-515.54-65.51-58.82-377.14,1097.17,58.52s-118.73,383.34-435.07,655.8Z"/>
      <path class="cls-4" d="M5384.42,1350.61c36.64-1.69,65.47-31.89,65.47-68.56h0c0-37.91-30.73-68.64-68.64-68.64h-109.94l8.15-70.7-153.19-19.03-6.34,89.73h-67.68c-43.45,0-77.93,36.57-75.38,79.95h0c2.42,41.15,37.4,72.76,78.59,71l53.59-2.28-22.83,244.56c63.34-22.37,111.38-37.54,106.58-3.93-7.68,58.57-52.77,37.43-108.5,32.74l-8.64,78.73c-12.48,72.97,260.91,145.57,336.15-16.7,67.99-146.84-37.16-275.58-164.97-281.92l7.25-58.92,130.34-6.03ZM5258.28,1685.21c1.62.29,24.55,3.56,49.74-21.37,14.81-14.69,22.89-31.33,22.74-46.86-.18-20.45-5.07-33.67-9.56-37.31-9.95-8.07-11.46-22.67-3.4-32.62,8.06-9.94,22.65-11.47,32.63-3.39,21.71,17.61,26.5,49.37,26.71,72.9.26,28.15-12.68,56.64-36.48,80.23-27.9,27.64-58.17,35.15-78.34,35.15-5.41,0-10.1-.54-13.83-1.38-12.49-2.82-20.34-15.23-17.52-27.72,2.78-12.34,14.81-20.17,27.3-17.62Z"/>
      <g>
        <g>
          <path class="cls-4" d="M5777.03,1416.86l-4.45-99.61c-.15-3.37-.03-6.68.33-9.93l-3.37-.19c-8.28,1.38-15.86,3.44-24.14,5.52l-6.22-53.13-112.46,12.42,11.73,82.1c-5.81,3.23-18.57,9.3-32.42,16.05-24.18,11.79-34.67,40.64-23.69,65.19l6.09,13.61c11.45,25.59,41.94,37.02,67.08,24.6.06-.03.12-.06.17-.09l29.67,202.17,100.74-11.03-28.28-242.19c6.85-2.07,13.04-3.44,19.21-5.5Z"/>
          <path class="cls-4" d="M5880.98,1313.91c-9.03,11.81-21.16,25.32-26.15,52.22-4.15,22.36-8.84,39.36-13.22,51.86l12.8.23c6.22,4.14,10.36,9.66,13.11,16.56,5.53,19.31-1.38,55.88-59.33,81.41l8.28,22.77c24.14,28.99,82.8,21.39,118.68-11.03,17.94-15.88,38.63-45.55,38.63-95.91,0-57.39-34.5-99.21-92.79-118.11Z"/>
        </g>
        <path class="cls-3" d="M5870.75,1251.21l-33.08-.66c-36.89-.74-66.74,29.85-65.09,66.71l4.84,108.45c.72,16.02,2.16,39.11,18.61,41.85,11.8,1.97,23.36-6.66,35.42-26.63,5.93-9.82,15.6-32.94,23.37-74.79,7.77-41.85,32.82-51.3,36.58-72.35s-1.78-42.2-20.66-42.58ZM5821.61,1317.84c-4.19,25.17-18.53,53.92-21.56,53.41-3.03-.5-8.57-32.56-4.38-57.73,1.75-10.5,10.65-28.12,17.81-26.93,7.16,1.19,9.75,21.51,8.13,31.24Z"/>
      </g>
      <path class="cls-4" d="M6493.81,1776.34c-89.15,12.66-100.03-46.85-99.36-115.56.37-66.91-16.7-212.78-126.66-225.4l80.68-202.01-143.32-57.3-231.38,610.63,51.58,20.93c41.41,16.8,88.76-1.3,108.39-41.44l30.55-62.44c57.94,2.62,93.88,27.33,109.02,80.27,26.42,92.41,176.4,115.69,226.7,17.13l-6.19-24.82ZM6344.02,1624.14c-1.72,11.51-11.61,19.77-22.91,19.77-1.15,0-2.3-.08-3.46-.26-12.67-1.89-21.4-13.69-19.51-26.36,0,0,2.46-20.82-9.04-48.11-9.63-22.85-26.08-28.47-26.77-28.7-11.97-3.93-18.89-16.78-15.24-28.84,3.65-12.04,16.01-19.07,28.13-15.71,3.87,1.07,38.29,11.75,56.63,55.24,16.55,39.29,12.67,69.63,12.17,72.96Z"/>
    </g>
    <g id="_タグライン" data-name="タグライン">
      <g>
        <g>
          <path class="cls-1" d="M3853.79,393.16h94.88v37.8h-99.96c-49.2,0-89.08-39.88-89.08-89.08v-24.34h-59.25c-50.8,0-91.98,41.18-91.98,91.98v21.44h-37.81v-28.07c0-68.02,55.14-123.16,123.16-123.16h159.98c31.55,0,57.12-25.57,57.12-57.12v-56.29h-340.26v-37.81h378.08v118.04c0,39.22-31.79,71.01-71.01,71.01h-80.23v19.26c0,31.12,25.23,56.35,56.35,56.35Z"/>
          <path class="cls-1" d="M3964.13,446.42h-115.41c-57.65,0-104.55-46.89-104.55-104.54v-8.88h-43.79c-42.19,0-76.51,34.33-76.51,76.52v36.9h-68.74v-43.53c0-76.44,62.18-138.63,138.62-138.63h159.99c22.97,0,41.66-18.69,41.66-41.65v-40.84h-340.26v-68.74h409v133.5c0,47.68-38.79,86.47-86.46,86.47h-64.76v3.81c0,22.54,18.35,40.88,40.89,40.88h110.34v68.73ZM3700.37,302.08h74.72v39.8c0,40.59,33.02,73.61,73.63,73.61h84.48v-6.88h-79.41c-39.59,0-71.82-32.22-71.82-71.81v-34.73h95.69c30.62,0,55.54-24.92,55.54-55.55v-102.57h-347.15v6.89h340.26v71.76c0,40.02-32.56,72.58-72.59,72.58h-159.99c-59.39,0-107.69,48.31-107.69,107.7v12.61h6.89v-5.97c0-59.25,48.2-107.44,107.44-107.44Z"/>
        </g>
        <g>
          <g>
            <polygon class="cls-1" points="4024.27 241.93 4402.35 241.93 4402.35 279.73 4288.93 279.73 4288.93 430.96 4099.88 430.96 4099.88 393.16 4251.12 393.16 4251.12 279.73 4024.27 279.73 4024.27 241.93"/>
            <path class="cls-1" d="M4304.39,446.42h-219.96v-68.73h151.23v-82.51h-226.85v-68.72h409v68.72h-113.42v151.23ZM4115.35,415.5h158.11v-151.23h113.42v-6.87h-347.15v6.87h226.85v144.36h-151.23v6.88Z"/>
          </g>
          <g>
            <rect class="cls-1" x="4062.08" y="128.5" width="302.46" height="37.81"/>
            <path class="cls-1" d="M4380.01,181.77h-333.39v-68.74h333.39v68.74ZM4077.54,150.85h271.54v-6.89h-271.54v6.89Z"/>
          </g>
        </g>
        <g>
          <rect class="cls-1" x="4476.76" y="254.2" width="302.46" height="37.8"/>
          <path class="cls-1" d="M4794.69,307.46h-333.39v-68.72h333.39v68.72ZM4492.22,276.54h271.54v-6.87h-271.54v6.87Z"/>
        </g>
        <g>
          <g>
            <rect class="cls-1" x="4853.62" y="128.5" width="189.05" height="37.81"/>
            <path class="cls-1" d="M5058.13,181.77h-219.96v-68.74h219.96v68.74ZM4869.09,150.85h158.11v-6.89h-158.11v6.89Z"/>
          </g>
          <g>
            <rect class="cls-1" x="4853.62" y="241.93" width="189.05" height="37.8"/>
            <path class="cls-1" d="M5058.13,295.19h-219.96v-68.72h219.96v68.72ZM4869.09,264.26h158.11v-6.87h-158.11v6.87Z"/>
          </g>
          <g>
            <polygon class="cls-1" points="5193.9 204.11 5231.7 204.11 5231.7 430.96 4929.24 430.96 4929.24 393.16 5193.9 393.16 5193.9 204.11"/>
            <path class="cls-1" d="M5247.16,446.42h-333.39v-68.73h264.67v-189.05h68.72v257.77ZM4944.69,415.5h271.54v-195.92h-6.87v189.05h-264.67v6.88Z"/>
          </g>
        </g>
        <g>
          <polygon class="cls-1" points="5321.72 204.11 5624.18 204.11 5624.18 430.96 5321.72 430.96 5321.72 393.16 5586.37 393.16 5586.37 326.29 5397.33 326.29 5397.33 288.47 5586.37 288.47 5586.37 241.93 5321.72 241.93 5321.72 204.11"/>
          <path class="cls-1" d="M5639.64,446.42h-333.39v-68.73h264.66v-35.95h-189.04v-68.74h189.04v-15.62h-264.66v-68.74h333.39v257.77ZM5337.17,415.5h271.54v-195.92h-271.54v6.89h264.66v77.47h-189.04v6.89h189.04v97.8h-264.66v6.88Z"/>
        </g>
        <g>
          <g>
            <polygon class="cls-1" points="5842.01 166.31 5690.78 166.31 5690.78 128.5 5879.82 128.5 5879.82 241.93 5842.01 241.93 5842.01 166.31"/>
            <path class="cls-1" d="M5895.29,257.39h-68.74v-75.62h-151.24v-68.74h219.98v144.36ZM5857.48,226.47h6.89v-82.51h-158.13v6.89h151.24v75.62Z"/>
          </g>
          <g>
            <path class="cls-1" d="M6038.86,204.11h37.8v157.07c0,38.54-31.24,69.78-69.78,69.78h-232.69v-37.8h212.16c29,0,52.5-23.51,52.5-52.5v-136.55Z"/>
            <path class="cls-1" d="M6006.88,446.42h-248.14v-68.73h227.62c20.43,0,37.04-16.61,37.04-37.03v-152.01h68.72v172.53c0,47-38.23,85.24-85.24,85.24ZM5789.66,415.5h217.21c29.94,0,54.31-24.36,54.31-54.31v-141.61h-6.87v121.09c0,37.47-30.49,67.96-67.97,67.96h-196.69v6.88Z"/>
          </g>
        </g>
      </g>
      <g>
        <path class="cls-4" d="M2476.88,121.17c-5.73,0-11.43,2.31-17.14,6.86-5.73,4.58-8.56,9.72-8.56,15.42,0,11.43,7.41,17.15,22.28,17.15,15.98,0,24-7.42,24-22.29,0-11.41-6.86-17.14-20.57-17.14Z"/>
        <path class="cls-4" d="M1838.86,0l156,279.73-156,279.73h1577.43V0h-1577.43ZM2250.62,323.43l-17.15,66.86c-6.84,25.15-12.59,38.85-17.14,41.13-5.73,2.31-14.29,3.44-25.71,3.44-3.42,0-10.87-.56-22.28-1.72-1.15-3.44-2.31-6.27-3.44-8.58-5.73-12.56-8.56-21.12-8.56-25.71s3.99-13.13,12-25.71c11.41-20.56,22.55-48.26,33.43-83.13,10.84-34.85,16.28-62.57,16.28-83.14,0-37.71,3.42-58.29,10.28-61.71,2.28-2.28,5.7-4.55,10.29-6.86,20.56,4.58,30.85,17.14,30.85,37.71,0,56-6.29,105.15-18.86,147.41ZM2476.88,407.43c-3.42,3.42-9.42,7.45-18,12-8.56,4.58-13.45,6.86-14.56,6.86-12.59-3.44-20.57-7.99-24.01-13.72-3.42-5.7-5.73-19.42-6.84-41.13-4.59-38.84-12.29-79.13-23.15-120.85-10.87-41.7-22.01-72.85-33.42-93.42-3.44-5.7-5.15-10.28-5.15-13.72,0-4.55,2.58-9.42,7.72-14.56,5.14-5.15,10-7.72,14.57-7.72,14.84,0,25.71,6.29,32.57,18.86,19.42,37.71,41.7,98.86,66.85,183.41,11.41,35.44,17.14,56,17.14,61.72,0,8-4.58,15.42-13.72,22.28ZM2511.17,184.59c-9.17,8-20.57,12-34.29,12-8,0-15.42-2.28-22.28-6.86-17.14-9.14-25.71-22.84-25.71-41.15,0-14.83,6.27-27.42,18.86-37.7,9.14-9.14,19.98-13.72,32.57-13.72,13.72,0,25.12,5.14,34.28,15.42,9.14,10.29,13.72,21.73,13.72,34.29,0,14.86-5.73,27.42-17.14,37.71ZM2855.78,428.84h-9.31c-7.24,0-15.51-.53-24.81-1.55-3.11-4.14-6.21-11.39-9.31-21.71-9.3-21.71-28.45-47.55-57.39-77.54h-6.19c-51.72,51.7-97.2,85.8-136.49,102.35-17.6-5.18-30.52-17.58-38.77-37.22,4.12-9.3,8.26-15.51,12.4-18.61,2.06-2.05,9.82-5.16,23.27-9.3,34.12-12.41,71.35-39.79,111.68-82.2,24.81-27.92,42.38-61.01,52.72-99.27l-3.1-3.1-31.03,4.65h-65.13c-24.82,0-43.96-2.57-57.39-7.76-9.3-3.1-16.04-10.32-20.16-21.71,7.21-13.43,12.91-21.71,17.05-24.81,4.13-2.06,16.54-3.11,37.23-3.11h97.71c3.1,0,16.02,3.11,38.77,9.3,6.21-1.01,10.32-2.05,12.4-3.1,7.23-3.1,11.88-4.65,13.96-4.65,5.16,0,10.32,2.59,15.51,7.75,5.16,5.19,7.76,10.36,7.76,15.52,0,34.12-20.69,82.2-62.04,144.23l3.1,1.55h6.21c9.31,0,19.12,5.19,29.47,15.51,15.51,15.51,29.2,31.55,41.1,48.09,11.88,16.55,17.84,27.92,17.84,34.11,0,7.25-5.7,18.08-17.06,32.58ZM3209.68,190.64l-28.94,70.04c-4.07,10.17-11.68,22.34-22.84,36.55,3.05,2.04,9.14,6.09,18.28,12.18,17.25,12.17,25.88,22.34,25.88,30.45,0,10.16-4.07,19.8-12.18,28.94-7.11,6.09-15.22,9.13-24.36,9.13-6.09,0-14.72-5.57-25.88-16.75-6.09-7.08-12.18-13.17-18.28-18.26-28.43,28.42-54.32,49.25-77.66,62.43-28.43,15.24-47.21,22.84-56.34,22.84-5.09,0-11.68-3.56-19.79-10.66-11.18-10.16-16.75-17.25-16.75-21.32,0-1,.99-3.05,3.04-6.09l12.18-22.84c2.03-3.04,5.57-4.57,10.66-4.57,6.09,0,15.73-2.53,28.94-7.62,30.45-12.17,55.32-28.41,74.61-48.73l-39.59-24.36c-7.11-4.05-10.66-12.18-10.66-24.37v-7.62c6.09-6.09,14.21-9.13,24.37-9.13,7.09,0,27.91,9.13,62.44,27.41,21.32-32.48,32.48-57.35,33.5-74.61l-15.24,3.04-53.29,1.53-48.73-9.14c-7.12,23.37-20.33,47.74-39.59,73.1-5.09,8.14-11.68,12.18-19.8,12.18-18.26,0-28.92-5.57-31.98-16.75-1.03-3.04-3.04-7.62-6.09-13.71,8.12-11.16,13.71-18.26,16.75-21.32,12.18-14.2,21.82-29.42,28.94-45.67,8.12-17.25,12.69-31.46,13.71-42.65.99-10.13,2.52-16.75,4.57-19.79,3.04-4.04,9.63-7.62,19.79-10.66,17.25,6.09,25.9,15.22,25.9,27.41,0,4.07-.52,8.63-1.53,13.7l41.11-3.04,60.91,1.53c10.15,3.04,18.28,4.57,24.37,4.57,5.07,0,10.66-1.53,16.75-4.57l4.57-3.05c3.05,0,7.86,4.33,14.47,12.95,6.58,8.63,9.9,14.46,9.9,17.51s-2.05,9.66-6.09,19.79Z"/>
      </g>
      <g>
        <path class="cls-1" d="M1117.57,203.03h120.78c28.11,0,46.66-5.1,55.61-15.34,7.67-8.92,11.5-14.05,11.5-15.34,0-8.94-7.03-17.89-21.08-26.85-10.24-5.1-24.93-7.67-44.1-7.67h-122.7c0-25.56-3.84-44.1-11.51-55.6-8.95-12.76-15.99-19.18-21.08-19.18-7.67,0-14.71,5.13-21.1,15.34-7.67,12.8-11.5,32.59-11.5,59.44h-80.54l-15.33,1.92c-34.51,0-52.42.65-53.69,1.9-6.4,1.3-12.78,4.51-19.16,9.59-10.26,8.97-15.34,15.35-15.34,19.18,0,2.57,2.54,7.03,7.67,13.41,8.92,12.8,28.1,19.18,57.52,19.18h118.87v67.11l1.9,13.43h-82.44l-7.67-5.76c-25.57,0-38.34,16.64-38.34,49.85v118.88c0,14.05,3.17,25.88,9.59,35.47,6.38,9.59,13.41,14.38,21.08,14.38s14.68-3.83,21.1-11.49l11.5,1.9h197.49l11.49-1.9c6.38,8.92,12.77,13.41,19.18,13.41,5.1,0,10.21-2.57,15.34-7.67,11.51-10.24,17.26-24.92,17.26-44.1v-116.96c0-12.76-3.21-23.96-9.59-33.55-6.42-9.59-13.42-14.37-21.08-14.37-5.13,0-11.51.65-19.18,1.92-3.84,1.29-7.67,1.9-11.51,1.9l-11.49-1.9h-61.36l1.92-9.59v-70.95ZM1154.06,386.07c0,24.92-30.07,45.13-67.17,45.13s-67.17-20.2-67.17-45.13,30.07-45.13,67.17-45.13,67.17,20.2,67.17,45.13Z"/>
        <path class="cls-1" d="M820.21,266.31c-2.57,0-4.49.65-5.75,1.9-15.33,6.41-26.84,9.59-34.51,9.59h-86.27c95.86-88.19,143.78-140.59,143.78-157.22,0-2.54-.65-4.46-1.9-5.75-17.92-23.02-33.89-34.51-47.94-34.51h-1.9c-17.92,5.11-27.51,7.67-28.77,7.67s-5.75-.63-13.41-1.92h-69.03c-7.67-21.72-23-32.59-46.02-32.59-6.4,0-12.16,1.29-17.26,3.84-2.57,1.29-10.24,10.88-23,28.75-7.67,8.95-23,22.71-46.01,41.22-23.02,18.54-40.28,30.38-51.77,35.47-14.08,7.67-22.39,14.08-24.93,19.18-1.28,2.57-2.57,14.7-3.84,36.42,0,3.84,3.84,7.37,11.51,10.55,7.67,3.21,14.68,4.8,21.08,4.8s11.51-1.27,15.35-3.84l49.85-36.43c11.49,28.13,20.43,47.31,26.83,57.52,2.56,2.59,8.3,5.13,17.26,7.68-39.63,24.29-78.6,40.91-116.96,49.85-34.51,7.67-54.34,17.91-59.44,30.67-2.57,3.83-3.83,10.24-3.83,19.18,0,15.34,11.5,23,34.51,23,15.34,0,30.67-3.17,46.01-9.59,26.84-10.21,44.1-15.34,51.77-15.34-1.29,30.67-2.57,53.67-3.84,69.03-1.29,20.45-1.9,36.42-1.9,47.93,0,21.72,12.76,32.59,38.34,32.59,14.05,0,24.92-7.67,32.59-23,24.27,1.25,38.97,1.92,44.1,1.92h118.87c11.5,12.75,24.26,19.16,38.34,19.16,10.22,0,17.89-3.21,23.02-9.59,2.54-5.11,3.82-31.96,3.82-80.52v-105.45c0-28.1-9.59-42.18-28.77-42.18ZM599.73,180.03c-5.13-2.56-8.96-3.84-11.51-3.84h-9.59l32.59-36.42h141.88c-29.42,38.34-63.27,68.39-101.6,90.11-6.42-16.59-23.67-33.23-51.77-49.85ZM703.33,431.2c-37.09,0-67.17-20.2-67.17-45.13s30.07-45.13,67.17-45.13,67.17,20.2,67.17,45.13-30.07,45.13-67.17,45.13Z"/>
        <path class="cls-1" d="M1763.87,446.53c-8.97-11.49-21.75-17.26-38.36-17.26h-118.87v-17.26l80.54-1.92c19.18-1.25,28.75-7.67,28.75-19.16,0-17.89-10.88-26.85-32.59-26.85h-78.6c-1.28-8.92-7.05-15.34-17.25-19.18v-3.83l76.69-9.59c8.92,14.08,17.88,21.08,26.83,21.08,14.05,0,21.1-8.92,21.1-26.83,0-15.35-12.8-30.69-38.36-46.02-8.95-6.38-16.62-11.51-23-15.34h13.43c43.43,0,65.18-7.67,65.18-23s-10.88-23.02-32.59-23.02h-260.76l-9.59,1.92-1.92-24.92,9.59,1.92h226.24l13.41-1.92c3.84,6.41,9.59,9.59,17.26,9.59,28.1,0,42.18-7.67,42.18-23,0-3.84-.65-8.94-1.9-15.34v-7.68l-3.84-51.75c-1.29-26.85-10.87-40.28-28.77-40.28-5.11,0-13.41,3.21-24.93,9.59l-9.57-1.92h-232l-11.5,1.92c-7.67-8.92-15.35-13.41-23.02-13.41-20.45,0-30.67,5.13-30.67,15.34v243.5c-11.51,58.8-24.29,100.37-38.34,124.62-2.59,5.13-3.84,8.33-3.84,9.59v3.84l11.51,23h11.5c8.94,0,19.18-6.41,30.69-19.18,1.25-1.29,3.17-3.21,5.74-5.75h3.83c2.56,11.49,11.51,17.88,26.84,19.16h316.37c8.92,0,16.59-1.9,23-5.75,8.92-6.41,13.41-12.16,13.41-17.26,0-2.54-1.28-5.1-3.82-7.67ZM1554.96,118.88c50.81,0,92,8.7,92,19.43s-41.19,19.43-92,19.43-92.01-8.7-92.01-19.43,41.19-19.43,92.01-19.43ZM1554.88,264.39h53.68c-3.83,6.41-5.75,11.49-5.75,15.34,0,2.57.63,7.03,1.92,13.41l-65.2,5.76c2.55-10.22,7.68-21.72,15.35-34.51ZM1547.21,364.09h-65.2c-35.8,0-53.68,7.03-53.68,21.08,0,17.92,9.59,26.85,28.75,26.85h90.12v17.26h-132.31l-19.16,1.92c19.16-47.28,28.75-92.03,28.75-134.21v-34.51l72.85,1.92-21.08,40.26c-31.96,3.84-47.93,11.51-47.93,23,0,17.92,11.5,26.85,34.51,26.85,3.83,0,8.29-.63,13.42-1.92,3.84-1.25,6.38-1.9,7.67-1.9l69.03-5.76-5.75,19.18Z"/>
      </g>
    </g>
  </g>
</svg>