<?xml version="1.0" encoding="UTF-8"?>
<svg id="_レイヤー_2" data-name="レイヤー_2" xmlns="http://www.w3.org/2000/svg" viewBox="0 0 500 421.21">
  <defs>
    <style>
      .cls-1 {
        fill: #e6a336;
      }

      .cls-2 {
        fill: #555;
      }
    </style>
  </defs>
  <g id="_レイヤー_1-2" data-name="レイヤー_1">
    <g>
      <path class="cls-2" d="M460.02,13.06c-29.33,26.85-66.98,98.73-144.39,156.68-16.07,15.57-34.33-4.94-51.24,12.48-25.45,24.78-57.32,62.79-58.44,66.23-.12,4.88,1.79,8.9,5.04,12.3,1.67,1.75,29.04-33.76,40.47-43.09,4.93-3.52,9.17,1.7,6.13,5.21-5.25,5.91-29.42,31.37-39.21,41.9,1.3,3.99,6.62,8.38,9.5,6.54,14.11-15.6,25.56-25.29,39.3-39.64,4.52-2.84,9.87,3.37,6.66,6.14-7.85,8.92-26.56,25-38.16,37.72.54,3.61,7.2,7.55,10.98,5.34,16.11-15.16,26.15-25.95,36.38-34.99,4.15-3.64,9.29,1.57,5.85,5.21-7.65,9.1-28.28,26.46-32.41,33.58,3.92,3.89,12.78,2.96,13.17,3.32,21.71-17.07,45.93-41.17,55.01-50.01,18.12-17.14-7.07-35.02,9.18-51.94,38.59-48.05,130.87-114.96,156.49-148.14,27.49-32.52-10.35-52.42-30.31-24.83h0ZM286.09,182.56c4.35-.09,9.6.98,17.31,2.36-18.79,6.27-20.14-1.41-38.72,11.69,9.42-10.53,14.16-13.89,21.41-14.05h0Z"/>
      <path class="cls-1" d="M214.42,194.76c-31.64-.15-69.2,15.78-71.56,53.15-1.92,55.86,69.37,83.11,117.9,60.38,5.09-1.98,3.72-11.23-2.82-8.59-24.15,8.21-75.76,6.53-92.54-39.05-6.91-37.84,33.16-53.24,59.47-46.39,4.5-6.31,10.51-11.87,14.64-16.38-7.63-1.95-16.24-3.07-25.09-3.12h0ZM208.59,222.22c-15.74-.2-34.67,10.47-30.29,35.54,10.19,31.3,52.1,41.45,72.02,34.64-15.04-2.76-36.84-9.59-50.77-25.4-12.83-14.62-4.63-30.23,6.01-29.57,5.7-6.31,8.69-9.22,13.09-13.37-2.97-1.16-6.43-1.79-10.06-1.84h0ZM330,245.22c-6.37,5.74-11.28,9.53-15.33,13.59,16.8,17.2,40.41,65.8-30.14,105.81,72.45-13.13,82.79-79.08,48.12-115.54l-2.64-3.86ZM307.28,263.97c-2.51,2.52-7.26,5.43-14.64,11.81,10.49,13,21.77,56.79-54.82,78.53,27.53,3.17,63.92-10.84,75.47-35.11,10.33-21.7,2.57-43.22-6.01-55.23h0ZM287.34,282.99l-10.07,8.26c4.94,31.84-38.25,35.64-62.89,33.77-26.96-1.9-53.12-15.89-68.24-28.86-7.1-7.8-22.58-3.39-16.65,8.25,9.75,13.74,42.99,37.59,104.02,35.65,39.84-2.94,61.03-26.37,53.82-57.07h0ZM92.67,296.58c-13.18.56-24.66,7.85-16.25,25.81,15.97,24.81,88.2,48.87,181.46,44.04-119.86-10.39-174.82-52.36-143.55-64.47-5.21-3.64-13.74-5.72-21.65-5.38h0ZM347.06,336.79c45.83,16.47,15.59,30.4-99.61,37.86,154.12,11.06,200.05-32.82,99.61-37.86h0Z"/>
      <path class="cls-2" d="M61.98,292.46c-99.24,1.47-62.23,55.07-7.23,77.26,25.28,11.27,53.76,19.9,84.04,26-.14,3.7.42,8.56,1.83,14.99,28.45,15.24,126.45,12.2,170.94,1.64-76.9,1.93-119.77-3.13-134.78-10.39,57.55,7.39,119.27,6.5,176.84-1.99,58.09-3.36,169.28-46.51,22.34-68.36,127.88,30.52-14.62,67.46-163.52,53.34-139.74-11.49-223.68-81.66-140.43-92.46-3.49-.06-6.83-.07-10.03-.02h0Z"/>
    </g>
  </g>
</svg>