<?xml version="1.0" encoding="UTF-8"?>
<svg id="_レイヤー_2" data-name="レイヤー 2" xmlns="http://www.w3.org/2000/svg" viewBox="0 0 22.16 27.75">
  <defs>
    <style>
      .cls-1 {
        fill: none;
        stroke: #555;
      }
    </style>
  </defs>
  <g id="_レイヤー_1-2" data-name="レイヤー 1">
    <path class="cls-1" d="M6.04,17.26h0s0,0,0,0h0l-.05-.07s0,0,0,0c-2.14-3.07-3.5-6.05-4.34-8.45C.83,6.36.51,4.53.5,3.74c-.01-.73.33-1.36.82-1.84.48-.48,1.13-.85,1.81-1.08.68-.24,1.41-.35,2.09-.31.67.04,1.34.25,1.82.72.31.3.6.82.86,1.38.27.58.52,1.27.73,1.95.21.69.37,1.38.46,1.99.04.3.07.59.06.85,0,.25-.04.51-.13.73h0c-.17.4-.51.68-.81.89-.13.09-.27.18-.4.27-.02.02-.05.03-.07.05-.15.1-.3.2-.43.3-.27.21-.46.4-.56.63-.1.21-.14.49-.02.92h0c.45,1.57,1.11,2.8,2.06,4.17.96,1.36,1.89,2.4,3.21,3.36h0c.36.26.64.32.87.3.24-.02.5-.13.78-.31.14-.09.28-.19.43-.3.02-.02.04-.03.07-.05.12-.09.26-.19.39-.28.3-.2.68-.43,1.11-.45h0c.24-.01.49.05.73.13.24.08.51.2.77.35.54.29,1.14.68,1.71,1.11.57.43,1.13.9,1.59,1.35.44.43.83.89,1.01,1.28.28.61.24,1.31.06,1.95-.19.65-.55,1.31-1,1.86-.45.56-1.02,1.04-1.64,1.33-.62.29-1.33.4-2.01.14-.74-.28-2.35-1.2-4.31-2.8-1.97-1.6-4.3-3.91-6.45-6.97,0,0,0,0,0,0l-.05-.07"/>
  </g>
</svg>