<?xml version="1.0" encoding="UTF-8"?>
<svg id="_レイヤー_2" data-name="レイヤー 2" xmlns="http://www.w3.org/2000/svg" viewBox="0 0 1290 1103.87">
  <defs>
    <style>
      .cls-1 {
        fill: #4e525e;
      }
    </style>
  </defs>
  <g id="Layer_1" data-name="Layer 1">
    <g>
      <path class="cls-1" d="M.64,69.17c2.21-.29,4.42-.88,6.61-.82,37.15,1.02,74.3,2.11,111.45,3.2,18.72.55,37.44,1.61,56.17,1.6,14.03,0,28.06-1.48,42.1-2.11,11.53-.52,23.09-1.23,34.62-1.01,23.73.44,47.45,2,71.18,2.11,51.54.25,103.07-.38,154.61-.13,22.47.1,44.94,1.7,67.42,2.16,16.21.33,32.46.44,48.65-.3,36.19-1.65,72.35-3.9,108.53-5.89,21.52-1.18,43.03-2.92,64.56-3.36,38.4-.77,76.82-.68,115.23-1.06,53.41-.54,106.81-1.17,160.23-1.79,40.92-.48,81.82-.93,122.74-1.53,37.47-.55,74.94-1.31,112.42-1.93,3.21-.05,6.44.31,9.65.48.04.73.09,1.45.14,2.18-1.86.43-3.72,1.21-5.59,1.24-71.51,1.17-143.02,2.4-214.54,3.34-64.96.85-129.93,1.4-194.89,2.03-9.68.09-19.37-.01-29.05-.2-46.9-.86-93.66,2.21-140.43,4.99-26.19,1.56-52.4,2.7-78.59,4.13-8.73.47-17.46,1.08-26.16,1.96-22.79,2.32-45.54.49-68.33-.08-40.59-1.02-81.19-2.34-121.77-1.94-50,.49-99.94.48-149.91-1.41-16.18-.61-32.5.02-48.65,1.33-34.38,2.8-68.67.96-103-.28-25.91-.93-51.83-1.21-77.75-1.87-7.5-.19-14.99-.57-22.46-1.12-1.84-.13-3.6-1.23-5.4-1.88.07-.69.14-1.38.2-2.06ZM1290,86.26c-3.26.36-6.52.98-9.78,1.06-86.52,2.16-173.06,4.39-259.58.86-81.86-3.33-163.66-1.71-245.49.89-19.36.62-38.74.72-58.1,1.14-62.47,1.34-124.93,2.94-187.4,4.02-101.82,1.77-203.65,4-305.49,4.53-70.9.36-141.81-1.79-212.71-2.83-2.5-.04-5.08.15-7.46-.43-1.49-.37-2.67-1.98-3.99-3.04,1.23-1.13,2.3-2.85,3.73-3.25,2.03-.57,4.34-.25,6.52-.17,139.62,4.8,279.26,3.65,418.89.7,77.46-1.63,154.9-4.1,232.36-5.89,29.67-.68,59.36-.23,89.04-.76,49.66-.9,99.32-2.63,148.99-3.12,29.34-.29,58.72.73,88.06,1.85,82.13,3.14,164.27,3.89,246.44,1.9,15.93-.38,31.86-.73,47.79-1.01,2.63-.04,5.26.4,7.9.62.09.98.19,1.96.28,2.94Z"/>
      <path class="cls-1" d="M773.75,86.65c.66.12,1.33.25,1.99.36,1.21-6.7,2.48-13.38,3.62-20.09,1.16-6.77,2.14-13.57,3.27-20.34,1.05-6.31,4.65-12.27,2.9-18.98-7.62,19.01-10.34,38.92-11.78,59.06ZM398.4,63.99c-5.97,11.78-2.38,23.62-.57,35.47,1.68-11.77,4.72-23.5.57-35.47ZM300.02,52.11c-5.5,3.2-6.89,7.81-7.21,12.93-.84,13.08-1.68,26.15-2.33,39.24-.11,2.13.73,4.31,1.3,7.33,12.73-14.25,16.91-45.35,8.25-59.5ZM802.52,58c-6.77,7.82-5.93,17.14-6.77,25.64-1.73,17.41-.38,26.29,3.31,30.62,4.69-11.13,7.23-47.08,3.47-56.27ZM403.66,89.57c0,5.3.13,10.61-.06,15.9-.09,2.78-.49,5.61-1.28,8.25-.36,1.19-1.98,2.71-3.11,2.78-1.21.07-2.8-1.17-3.67-2.27-.92-1.16-1.55-2.81-1.68-4.3-1.08-13-2.15-26.02-2.91-39.03-.17-2.72.76-5.55,1.48-8.24.83-3.07,2.15-6.71,5.94-5.78,2.06.5,4.31,3.48,4.96,5.77,1.1,3.82,1.26,7.99,1.3,12.02.04,4.98-.45,9.95-.7,14.93-.09,0-.19,0-.28,0ZM806.02,50.28c.92,5.33,2.46,9.83,2.3,14.28-.53,15.18-1.55,30.35-2.64,45.51-.22,3.02-1.18,6.18-2.6,8.85-.84,1.56-3.33,3.25-4.94,3.12-1.64-.13-3.17-2.36-4.64-3.78-.39-.38-.47-1.14-.57-1.74-2.96-17.89-4.58-35.77.29-53.61,1.93-7.07,4.28-9.56,12.8-12.63ZM586.37,124.31c1.22.13,2.44.26,3.66.39,4.66-20.84,6.81-41.9,4.17-63.39-6.92,20.56-5.94,41.93-7.83,63ZM578.49,103.54c.84-10.54,1.18-21.16,2.68-31.61.92-6.36,3.1-12.68,5.67-18.61,2.2-5.11,6.71-7.1,10.44-5.94,4.4,1.37,5.29,5.22,5.29,8.97,0,14.29.02,28.6-.65,42.87-.37,7.73-1.85,15.45-3.41,23.06-.65,3.21-2.24,6.63-4.42,9.04-4.41,4.91-10.03,4-12.71-1.99-1.47-3.31-2.09-7.16-2.38-10.82-.39-4.95-.1-9.95-.1-14.94-.13-.01-.26-.03-.4-.04ZM976,134.56c2.02,1.36,4.12,1.64,5.14-1,.87-2.27,1.29-4.88,1.21-7.32-.63-20.57-1.39-41.14-2.24-61.71-.05-1.28-1.08-2.51-2.22-4.98-4.85,5.46-5.4,11.06-5.73,16.46-1.2,19.67-.87,39.27,3.84,58.55ZM975.98,134.54c-1.83-4.19-4.32-8.24-5.34-12.62-3.7-15.9-4.71-32.07-3.12-48.31.49-4.89,1.95-9.76,3.56-14.44,1.11-3.24,3.26-6.44,7.37-6.07,4.43.41,6.04,3.93,6.89,7.78.46,2.13.92,4.29,1.05,6.45,1.15,17.41,2.3,34.83,3.24,52.26.22,4.02-.23,8.1-.6,12.13-.41,4.53-2.19,8.37-7.54,11.47-1.92-2.96-3.81-5.88-5.7-8.8.22.15.2.14.2.14ZM948.79,404.73c15.89-99.4,9.46-197.23,3.61-295.09-1.27,5.76-1.77,11.57-1.6,17.37.64,21.82,1.83,43.63,2.16,65.45.34,22.14.2,44.3-.27,66.44-.49,23.07-1.55,46.13-2.48,69.19-1.01,24.92-3.92,49.8-1.42,76.64ZM751.28,463.47c.68.06,1.36.12,2.03.18,5.68-120.36,9.42-240.84,18.37-361.1-3.07,12.08-6.41,24.19-7.54,36.51-2.32,25.17-3.46,50.44-5.11,75.67-.43,6.55-1.02,13.08-1.42,19.62-1.34,21.49-3.23,42.97-3.78,64.48-.81,32.14-.57,64.3-1,96.45-.13,9.67-1.29,19.32-1.48,28.99-.27,13.06-.07,26.13-.07,39.2ZM615.5,35.31c-.87.15-1.75.31-2.62.46,0,4-.17,8.01.03,12,.79,15.58,2.46,31.17,2.38,46.75-.1,17.46-.98,35-2.88,52.36-3.73,34.14-8.24,68.2-12.78,102.25-2.43,18.26-6.5,36.32-8.26,54.63-3.26,33.88-5.8,67.84-7.84,101.82-1.82,30.24-2.56,60.54-3.73,90.81-.07,1.75.32,3.52.49,5.27,1.8-3.92,1.85-7.88,2.11-11.81.9-13.4,1.61-26.81,2.86-40.17,2.78-29.84,6.36-59.63,8.67-89.51,4.49-57.94,9.41-115.84,20.02-173.05,4.8-25.9,8.28-51.8,6.78-78.21-.36-6.23.26-12.5.2-18.74-.08-7.13-.2-14.29-.72-21.4-.53-7.45-1.42-14.89-2.4-22.3-.49-3.76-1.52-7.44-2.3-11.16ZM786.01,627.65c-5.84-8.25-10.89-10.08-18.2-7.13-3.44,1.39-6.97,2.59-10.32,4.18-7.5,3.55-12.67,9.05-14.62,17.07,3.81-3.25,7.63-6.33,11.26-9.62,7.71-7,16.04-10.37,26.23-5.36,1.46.72,3.36.54,5.64.85ZM281.53,81.28c3.65-3.89,2.5-7.87,3.32-11.29,1.45-6.01,2.32-12.28,4.75-17.88,1.93-4.48,5.68-8.86,11.55-7.93,6.1.96,7.69,6.52,7.87,11.4.46,12.12,1.34,24.45-.37,36.35-1.77,12.38-7.77,23.81-16.25,33.24-3.46,3.85-5.01,7.56-5.15,12.44-.99,35.26-2.17,70.52-2.98,105.78-.21,9.03,1.52,18.13.97,27.12-1.71,28.06-3.94,56.08-6.22,84.1-4.02,49.5-8.73,98.94-12.21,148.47-2.67,38-3.86,76.11-5.8,114.17-.55,10.91-1.42,21.82-2.11,32.73-.2,3.24-.19,6.61,4.04,7.19,4.08.55,6.6-1.62,7.23-5.6.54-3.38.72-6.82.98-10.24,3.6-48.27,6.12-96.65,11.11-144.77,3.62-34.83,6.55-69.63,7.42-104.61.75-29.96.27-60.01,2.25-89.89,3.33-50.16,7.95-100.23,12.51-150.3,1.47-16.14,3.01-32.54,7.19-48.1,4.02-14.95,3.91-29.63,2.85-44.52-.38-5.35-2.86-10.82-5.43-15.69-2.59-4.9-6.89-5.61-12.07-3.29-9.68,4.33-14.61,12.56-16.85,22.26-1.34,5.81-1.89,12.11,1.41,18.87ZM757.65,693.96c.78-.09,3.24-.52,5.72-.64,10.29-.51,20.23-2.7,30.19-5.22,9.52-2.41,13.63-7.23,11.09-16.76-2.23-8.4-5.19-16.74-8.94-24.56-2.36-4.91-6.29-9.39-10.4-13.08-9.75-8.8-20.36-7.9-29.89,1.27-9.88,9.51-14.58,21.66-18.09,34.36-5,18.1-.25,24.19,20.32,24.63ZM764.56,699.42c.02.6.05,1.21.07,1.81,2.66.53,5.47,1.9,7.96,1.45,11.56-2.09,23.17-4.14,34.47-7.29,6.17-1.72,6.96-7.29,3.08-14.72-4.33,6.79-10.48,9.76-18.02,11.97-8.08,2.37-15.86,5.1-24.36,5.25-1.08.01-2.13,1-3.2,1.53ZM768.77,707.96c-9.95-2.42-19.97-4.62-29.84-7.34-5.45-1.51-8.45-6.31-8.27-11.39.6-17.06.11-34.25,7.55-50.49,6.74-14.71,19.22-20.86,33.59-23.89,7.98-1.69,14.28,3.64,19.44,9.25,13.97,15.18,20.81,33.77,24.87,53.58.68,3.33.96,6.83.87,10.24-.13,5.19-2.84,9.13-7.84,10.5-11.12,3.04-22.35,5.71-33.58,8.34-2.07.49-4.34.07-6.53.07-.09.39-.17.77-.26,1.15ZM1011.69,787.08c-.45.13-.91.27-1.36.4.46,1.26.92,2.52,1.37,3.78.43-.16,1.24-.42,1.23-.45-.37-1.25-.81-2.49-1.24-3.72ZM720.45,793.47c-.52.12-1.04.24-1.55.36.28,1.03.57,2.07.84,3.1l1-.26-.29-3.2ZM577.07,651.07c-.2,3.35-.5,6.69-.56,10.04-.42,23.1-.58,46.22-1.25,69.31-.49,16.83-1.68,33.64-2.49,50.47-.3,6.23-.53,12.48-.5,18.72,0,1.47,1.23,2.93,2.18,5.04,4.1-8.75,5.7-105.92,2.62-153.58ZM566.95,804.09c1.34-16.32,3.45-31.82,3.75-47.35,1.47-76.22,2.22-152.44,3.71-228.65.78-39.67,2.27-79.32,3.99-118.96.7-16.2,3.03-32.33,4.24-48.52,2.32-31.13,2.77-62.44,9.54-93.12.81-3.65,1.28-7.39,1.75-11.1,3.17-25.1,6.6-50.17,9.37-75.31,2.85-25.75,5.76-51.51,7.26-77.36.92-15.82-.78-31.77-1.3-47.66-.23-7.17-.38-14.36-.74-21.53-.23-4.55-4.61-10.89-8.22-11.59-5.26-1.02-7.05,3.47-8.86,6.81-3.56,6.57-6.81,13.35-9.59,20.28-8.23,20.55-10.38,42.48-12.87,64.13-3.6,31.32-6.24,62.78-8.16,94.26-2.7,44.27-5.01,88.59-6.3,132.92-1.73,59.64-2.16,119.32-3.46,178.98-1.98,90.27-4.23,180.55-6.33,270.82-.12,5.2-.01,10.4-.01,16.22,7.92-1.16,14.63-2.15,22.23-3.26ZM831.41,813.22c.62-1.98,1.66-3.92,1.79-5.93,1.16-17.74,3.57-35.38,2.04-53.28-1.26-14.61-1.77-29.32-1.82-43.99-.07-19.16-2.3-38.05-6.49-56.66-1.76-7.81-5.18-15.31-8.39-22.71-5.59-12.87-15.74-22.61-25.07-32.46-8.36-8.83-11.46-18.13-10.72-29.59,1.77-27.74,3.32-55.49,5.25-83.22,1.99-28.65,4.9-57.26,6.4-85.94,2.5-47.72,4.44-95.46,10.53-142.9,5.45-42.43,11.43-84.79,16.51-127.26,2.19-18.24,3.04-36.68,3.79-55.05.51-12.44.02-24.95-.47-37.41-.34-8.4-1.11-16.82-2.38-25.11-.84-5.46-3.17-6.52-8.72-5.72-9.35,1.36-17.57,9.23-19.38,19.21-3.17,17.49-6.05,35.04-9.04,52.57-6.31,37.01-9.54,74.3-10.74,111.82-.57,17.78-1.56,35.56-2.45,53.34-1.39,27.74-3.01,55.47-4.24,83.21-2.03,45.24-3.67,90.49-5.78,135.72-1.05,22.46-2.75,44.87-4.19,67.31-.97,15.26-2.32,30.5-2.93,45.78-.64,16.08-7.22,29.58-17.02,41.74-6.71,8.32-10.48,17.8-11.63,28.18-1.31,11.78-1.7,23.65-2.7,35.46-3.75,44.5.62,88.59,6.64,132.6.24,1.79,1.42,3.44,2.35,5.6,4.4-4.28,3.71-8.83,3.75-13.11.19-20.3.25-40.6.41-60.9.05-5.93.13-11.87.54-17.78.25-3.63,1.95-6.85,5.89-7.54,4.26-.74,7.45,1.79,8.98,5.33,1.32,3.03,1.58,6.62,1.8,9.99,1.46,22.11,2.72,44.24,4.2,66.34.29,4.34.97,8.72,2.05,12.92.39,1.53,2.51,2.61,4.42,4.46,3.6-7.56,1.55-14.05,1.28-20.41-.79-19.02-1.7-38.04-2.48-57.06-.25-6.12,1.25-11.81,5.3-16.57,2.7-3.15,5.85-6.06,10.38-5.06,4.56,1.01,6.36,4.87,7.1,9.02.82,4.6,1.29,9.28,1.73,13.94,1.93,20.52,3.78,41.05,5.7,61.58.36,3.83.15,7.99,5.27,11.4.53-3.62,1.24-6.22,1.24-8.81.03-12.18-.16-24.36-.22-36.55-.04-10.61-.42-21.26.16-31.84.26-4.8,1.6-10.03,4.03-14.13,3.84-6.49,12.83-5.27,15.52,1.77,1.21,3.16,1.76,6.66,2.06,10.06,1.55,17.41,2.92,34.83,4.4,52.24.73,8.56,1.12,17.19,5.34,25.4ZM811.9,727.94c-4.68,5.72-4.71,10.35-4.73,14.85-.12,19.99,0,39.99-.23,59.98-.07,5.58-.66,11.24-1.82,16.7-.5,2.37-2.74,5.67-4.7,6.08-2.03.42-5.2-1.66-6.97-3.5-4.72-4.94-6.31-11.33-6.95-18.01-2.09-22.08-4.22-44.15-6.4-66.23-.32-3.25-1-6.47-1.63-10.42-5.96,1.71-6.95,5.62-7.37,9.59-.4,3.7-.31,7.49-.19,11.23.6,18.1,1.34,36.2,1.93,54.3.15,4.36.29,8.78-.19,13.1-.6,5.49-3.8,8.68-8.02,8.91-4.14.23-8.55-2.51-9.61-7.4-1.71-7.91-3.04-15.97-3.65-24.04-1.5-19.6-2.49-39.24-3.74-58.86-.12-1.79-.61-3.57-1-5.79-4.44,1.9-3.05,5.44-3.08,8.16-.29,23.12-.24,46.24-.72,69.35-.11,5.51-1.21,11.19-3.01,16.4-.97,2.82-4.1,5.19-6.75,7.07-3.33,2.36-6.89,1.52-8.78-2.08-2.44-4.64-5.25-9.46-6.12-14.5-6.76-39.59-8.65-79.41-4.98-119.46.52-5.59.37-11.24.54-16.86.47-15.7,2.83-31.08,7.61-46.07,2.3-7.21,5.46-13.66,10.53-19.56,8.03-9.37,12.09-20.36,13.64-33.08,4.53-37.12,1.35-74.26,1.84-111.38.27-20.92,1.16-41.83,1.44-62.75.42-32.16.19-64.32.94-96.47.54-23.39,2.11-46.75,3.44-70.11,1.01-17.76,2.07-35.52,3.67-53.24,2.63-29.23,6-58.35,12.49-87.09,2.73-12.1,2.21-24.9,4.32-37.19,2.01-11.65,4.77-23.31,8.6-34.47,3.6-10.53,12.46-16.85,22.33-21.47,2.25-1.05,4.69-1.68,7.05-2.48,8.21-2.82,13.92-.46,15.54,8.07,2.02,10.67,2.82,21.6,3.63,32.45.57,7.75-.51,15.68.52,23.34,2.13,15.98,1.27,31.8-.64,47.65-5.59,46.51-11.57,92.98-16.72,139.54-3.02,27.3-4.96,54.73-7.01,82.13-2.95,39.56-5.5,79.14-8.33,118.71-2.67,37.38-5.5,74.75-8.18,112.13-.29,4.04-.52,8.19.14,12.15.6,3.57,1.79,7.43,3.91,10.28,4.64,6.25,9.78,12.18,15.16,17.81,14.53,15.2,22.35,33.24,26.07,53.89,4.96,27.6,2.72,55.53,5.54,83.13,2.35,22.99-.13,45.5-2.72,68.13-.43,3.72-.81,7.53-1.95,11.05-1.71,5.2-7,6.08-9.96,1.52-2.16-3.31-3.61-7.32-4.41-11.21-1.38-6.72-2.21-13.57-2.91-20.4-1.74-17.06-3.22-34.15-4.94-51.21-.36-3.48-1.35-6.9-2.46-12.34ZM1018.73,838.03c-.46.14-.94.27-1.4.41.28,1.04.57,2.08.85,3.12.33-.1.66-.2.99-.29-.15-1.08-.29-2.16-.44-3.24ZM416.56,861.67c2.79,2.25,5.57,2.21,8.02-.42.41-.45-.16-2.8-.78-3.05-3.35-1.39-5.88-.29-7.24,3.48ZM418.73,896.41c-.36,0-.73,0-1.1,0,.09,1.09.19,2.18.28,3.27.22-.08.62-.15.62-.25.1-1,.14-2.01.2-3.02ZM432.39,887.91l-1.83,18.72c4.83-5.71,3.89-12.07,1.83-18.72ZM410.49,871.62c-7.62,11.87-9.42,25.07-8.78,38.83,2.93-12.94,5.86-25.89,8.78-38.83ZM902.6,867.47c-5.93,6.1-8.94,14.33-9.23,25.88-.15,5.94-1.44,12.35,3.69,17.28,11.25-7.74,14.41-31.88,5.54-43.16ZM981.47,867.2c-6.59,11.06-6.19,22.38-7.37,33.26-.42,3.92-.32,8.08,4.53,11.62,5.23-7.04,6.81-14.67,7.15-22.67.31-7.18,2.23-14.73-4.31-22.21ZM970.88,890.42c1.26-6.44,2.51-14.72,4.66-22.75.68-2.53,3.43-5.64,5.83-6.31,3.9-1.08,6.15,2.6,7.21,5.88,4.92,15.16,4.37,30-4.08,43.87-1.21,1.97-4.64,4.03-6.61,3.67-1.98-.36-4.42-3.47-4.91-5.76-1.18-5.42-1.33-11.06-2.1-18.6ZM887.27,895.69c.31-10.05,3.07-19.27,7.97-27.73,1.36-2.35,4.32-4.68,6.9-5.2,3.78-.76,6.34,2.38,7.5,5.77,5.23,15.27,3.92,30.04-4.16,44.05-1.02,1.78-2.91,3.3-4.73,4.33-4.75,2.7-8.78,1.31-10.18-3.89-1.52-5.66-2.24-11.55-3.31-17.33ZM535.26,829.63c-.64-.37-1.28-.75-1.92-1.12-3.84,4.63-7.44,9.46-11.55,13.83-6.25,6.64-9.36,14.49-10.56,23.38-.92,6.77-2.59,13.45-3.42,20.23-1.36,11.08-2.38,22.21-3.36,33.34-.15,1.78.73,3.65,1.62,7.62.98-3.46,1.41-4.61,1.63-5.8,4.34-23.34,11.06-45.89,20.89-67.59,3.37-7.44,4.5-15.89,6.66-23.88ZM927.88,859.26c-6.95,18.92-3.74,37.29-6.11,56.92-1.99-2.57-3.12-3.36-3.2-4.24-1.45-16.21-2.38-32.43,1.55-48.44,1.08-4.41,1.72-10.12,7.95-9.98,5.74.13,8.41,4.75,10.16,9.69.62,1.76,1.28,3.58,1.45,5.42,1.54,17.32-.2,34.3-5.91,50.76-.89,2.55-2.75,4.89-4.63,6.88-.76.81-3.17,1.08-4.09.47-.9-.6-1.64-3.2-1.1-3.94,10.58-14.49,8.11-31.62,9.77-47.86.52-5.06.7-10.5-5.83-15.67ZM957.83,839.73c2.51.04,5.01,1.81,6.8,5.25,1.69,3.25,2.9,7.02,3.2,10.65,1.55,18.41,1.13,36.81-3.56,54.77-1.46,5.59-4.28,11.1-7.61,15.85-3.71,5.3-7.07,4.14-10.46-3.53,7.13-.11,8.99-5.41,10.52-10.83,5-17.56,6.24-35.56,5.64-53.68-.12-3.71-1.95-7.36-2.99-11.03-.2-.02-.4-.04-.6-.06l-1.21-.12c-.2-.02-.41-.04-.61-.06-1.5,2.82-3.86,5.49-4.37,8.47-2.02,11.93-3.65,23.94-5.05,35.97-.86,7.35-1.04,14.78-1.67,24.43-1.93-2.69-2.96-3.46-3.01-4.28-.98-16.51-1.85-33.07,1.82-49.36,1.35-6.01,3.49-12.04,6.39-17.46,1.8-3.36,4.26-5,6.71-4.99h.06ZM425.2,920c-6.49,8.09-6.91,17.79-15.36,23.74-5.21-11.48-.7-22.67-2.8-34.51-2.91,7.8-4.75,33.97-3.3,39.22,1.05,3.77,3.74,5.09,7.1,4.02,2.21-.7,4.72-2.23,5.88-4.13,4.85-7.97,8.73-16.39,8.48-28.34ZM422.07,850.14c-1-7.96-2.08-14.4-2.53-20.89-.56-8.09-.54-16.23-.86-24.34-1.74-43.37-4.16-86.73-5.03-130.11-.6-29.63.66-59.3,1.56-88.94.98-32.45,2.93-64.88,3.6-97.34.28-13.68-1.21-27.44-2.61-41.09-1.61-15.84-4.71-31.54-5.86-47.4-1.34-18.35-1.34-36.8-1.76-55.21-.65-28.73-1.39-57.45-1.68-86.18-.47-47.48-1.02-94.95-.69-142.42.15-21.1-1.66-42.55,5.75-63.08.5-1.41.45-3.1.34-4.63-.58-7.85-5.59-11.67-13.4-10.34-15.06,2.57-20.36,9.96-17.72,25.03,1.08,6.14,3.19,12.16,3.7,18.33,2.62,31.1,5.71,62.2,7.1,93.37,4.33,96.72,8.25,193.45,11.78,290.2,2.46,67.41,4.19,134.85,5.98,202.28,1.37,51.51,2.15,103.04,3.62,154.56.26,9.21-1.93,16.33-9.12,22.23-6.95,5.7-12.09,13.12-13.04,22.13-2.3,21.7-4.23,43.46-5.54,65.24-.51,8.45,2.1,16.72,7.08,23.88.82,1.18,2.4,1.84,4.61,3.48-1.56-5.65-3.41-9.77-3.75-14-1.95-24.5-.35-48.72,7.95-72.06,3.63-10.18,8.5-19.69,20.5-22.68ZM419.23,59.02c-5.4,4.23-5.67,9.55-5.76,14.74-.49,31.21-1.34,62.42-1.1,93.63.52,67.16,1.48,134.33,2.62,201.49.26,15.27.78,30.7,3.25,45.72,7.58,46.26,7.86,92.71,4.84,139.25-2.77,42.74-4.83,85.49-3.44,128.3,1.55,47.77,3.78,95.53,5.59,143.29.37,9.8,2.24,19.03,6.4,28.06,10.97,23.83,12.35,48.15,2.01,72.68-2.19,5.18-4.77,10.22-6.57,15.52-3.48,10.27-10.17,16.95-20.54,20.02-.35.1-.47.95-.89,1.87,5.6,1.26,11.29,1.17,14.73-3.37,4.66-6.15,8.54-13.01,11.89-19.98,8.04-16.75,12.95-34.52,14.78-53,1.15-11.63.69-23.56-6.47-33.35-7.89-10.79-9.84-22.58-9.55-35.35.56-25.3.95-50.61,1.27-75.92,1.76-138.44-.49-276.81-7.93-415.08-3.71-68.96-6.58-137.94-5.66-207.03.2-15.6,1.43-31.17,1.85-46.77.13-4.9-.84-9.81-1.31-14.73ZM397.97,472.54c-2.93-78.98-5.56-157.96-8.88-236.92-1.84-43.68-4.56-87.33-7.42-130.96-.77-11.78-3.44-23.44-5.27-35.15-.24-1.54-.67-3.05-.97-4.58-1.81-9.21-2.51-18.58,5.75-25.03,9.26-7.23,19.72-10.02,31.65-6.13,12.76,4.16,18.43,12.98,19.48,25.7.9,10.93,1.03,21.72-1.58,32.58-1.66,6.91-2.25,14.23-2.19,21.35.28,36.23.46,72.47,1.68,108.66.56,16.8,4.02,33.49,4.99,50.29,1.25,21.49,1.18,43.06,1.93,64.59.94,26.83,2.23,53.65,3.22,80.48.47,12.79.45,25.6.94,38.39,1.7,44.31,4.36,88.59,5.09,132.91.78,47.45.04,94.94-.51,142.41-.28,24.66-1.45,49.31-2.46,73.95-.34,8.41-1.4,16.8-2.21,25.19-.5,5.25.89,9.62,4.51,13.68,9.85,11.04,13.69,24.47,13.51,38.94-.29,22.2-5.25,43.34-16.21,62.85-5.15,9.16-11.75,16.88-21.48,21.54-13.67,6.54-28.42,2.39-35.21-11.11-3.28-6.53-5.69-14.08-6.2-21.33-1.76-24.75,1.6-49.25,5.89-73.59,1.45-8.26,5.91-15.17,12.46-20.39,5.88-4.7,8.38-10.62,8.3-17.95-.09-8.43.1-16.87-.09-25.29-2.55-108.36-5.15-216.73-7.74-325.09-.32.01-.65.02-.97.03ZM528.09,867.24c-1.97,4.75-3.44,7.42-4.21,10.28-3.73,13.82-7.98,27.56-10.69,41.59-2.48,12.78-3.6,25.86-4.56,38.87-.57,7.75,1.87,15.08,7.4,21.38.92-3.62.92-7.17.92-10.72-.09-28.83,2.41-57.27,12.84-84.5,1.9-4.96,1.39-9.71-1.69-16.89ZM280.2,1011.02c.48-.08.95-.17,1.42-.25-.6-4.92-1.45-9.82-1.74-14.75-1.79-30.82-3.23-61.66-5.24-92.46-1.47-22.71-3.58-45.39-5.54-68.07-.35-3.97-.63-8.12-3.35-12.98-.47,2.46-.79,3.35-.79,4.24-.12,40.29,4.53,80.27,8.18,120.3,1.75,19.23,4.12,38.41,6.23,57.6.23,2.12.55,4.24.83,6.36ZM533.04,889.72c-1.52,3.32-2.37,4.65-2.76,6.11-8.7,32.31-10.35,65.11-6.02,98.18,1.01,7.72,6.28,13.48,12.59,20.3.82-5.4,1.48-8.73,1.82-12.1,2.07-20.45,4.21-40.89,6.04-61.36,1.73-19.39,5.3-14.82-4.61-33.04-1.76-3.23-2.35-7.08-3.62-10.59-.7-1.94-1.71-3.76-3.44-7.51ZM1019.92,865.98c-.75,2.57-1.63,5.11-2.17,7.72-4.1,19.86-8,39.75-12.24,59.58-.87,4.05-2.9,7.86-4.4,11.77,1.69-15.09,4.43-29.73,6.48-44.47,4.24-30.45,6.48-60.92-1.72-91.16-3.26-12.04-6.23-24.17-9.95-36.07-3.05-9.78-6.76-19.38-10.68-28.85-3.23-7.78-6.97-15.37-10.93-22.8-3.04-5.72-6.3-11.43-10.28-16.51-4.85-6.17-7.5-12.36-7.06-20.54,1.34-25.26,1.78-50.56,2.87-75.84,1.27-29.65,1.93-59.35,4.54-88.89,3.33-37.62,8.45-75.09,12.59-112.65,2.25-20.48,3.29-41.13,6.27-61.5,7.38-50.44,12.1-101.12,14.35-152,1.16-26.2-.23-52.52,1.09-78.7,1.26-24.98-2.07-49.23-7.58-73.33-1.58-6.95-4.16-13.76-7.1-20.26-2.43-5.38-6.15-5.6-10.3-1.42-1.29,1.3-2.58,2.89-3.13,4.59-4.66,14.21-11.28,28.01-11.32,43.31-.04,15.28.7,30.56,1.29,45.83.93,24.02,2.16,48.04,3.01,72.07,1.05,29.96,1.85,59.93,2.67,89.89.14,4.99.04,10.01-.33,14.99-2.4,32.07-5.01,64.14-7.37,96.22-4.66,63.23-10.21,126.42-9.23,189.95.53,34.41-2.06,68.61-9.33,102.43-2.5,11.62-7.71,20.81-16.09,28.81-3.81,3.63-7.44,7.65-10.26,12.07-18.03,28.23-30.78,58.53-35.23,92-1.61,12.07-3.78,24.09-4.91,36.2-2.87,30.78-6.51,61.54-3.01,92.56,1.04,9.22,3.75,17.58,8.59,25.47,10.44,17.02,24.72,30.56,39.38,43.7,6.39,5.72,13.85,8.44,22.18,2.82,2-1.35,4.67-1.69,7.03-2.5,13.82-4.73,26.29-12.34,36.28-22.52,16.91-17.24,25.09-39.43,29-62.83,3.01-18.11,4.09-36.54,6.07-54.83.16-1.45.61-2.87.95-4.3.06-.35.06-10.94.06-10.94-.25,0-.51.02-.76.03.25,3.52.51,7.04.76,10.56-.01.17-.04.26-.06.35ZM947.77,254.97c0-20.29.23-40.59-.07-60.87-.29-20.91-1.18-41.8-1.63-62.71-.16-7.48-.3-15.01.4-22.44,2-21.4,1.04-43.26,7.4-64.02,2.97-9.67,7.36-19.32,13.08-27.62,8.27-12.02,18.04-10.69,23.93,2.55,3.15,7.08,5.38,14.65,7.23,22.19,6.44,26.26,8.61,52.83,7,79.91-1.13,18.98.09,38.1-.49,57.13-1.65,54.99-6.81,109.68-14.46,164.18-2.87,20.39-3.75,41.05-6.34,61.49-5.59,44.01-10.71,88.04-11.65,132.44-.78,36.84-1.5,73.68-2.41,110.51-.17,6.85-.93,13.71-1.85,20.51-1.07,7.93,1.18,14.53,5.92,20.91,12.34,16.59,22.06,34.76,31.2,53.26,15.63,31.64,21.87,65.57,24.52,100.34,1.86,24.38.61,48.64-2.46,72.91-2.37,18.71-9.5,35.49-18.55,51.67-14.69,26.29-37.33,42.83-65.08,53.25-10.53,3.95-20.07,1.89-27.98-5.16-14.67-13.07-29.45-26.11-40.47-42.72-6.36-9.59-10-19.89-11.4-31.33-2.58-21.25-1.31-42.41.31-63.6,2.2-28.97,4.58-57.93,11.2-86.32,6.86-29.35,19.54-56.45,38.15-79.7,17.73-22.14,23.85-46.89,24.84-73.85.47-12.76-.93-25.59-.73-38.39.46-30.59,1.31-61.18,2.14-91.78.37-13.74,1.29-27.45,1.56-41.19.59-29.04.79-58.08,1.41-87.12.23-10.6,1.26-21.18,1.82-31.78,1.16-21.82,2.37-43.65,3.29-65.49.38-9.04.06-18.1.06-27.16h.09ZM686.22,1024.89c3.88-9.02,3.55-16.96-.57-24.33-4.4-7.87-9.58-15.31-14.62-22.79-15.82-23.44-34.41-44.33-57.16-61.34-8.25-6.17-16.57-12.14-26.5-15.47-9.31-3.12-18.2-1.25-23.81,5.81,3.73,5.09,7.2,10.7,11.51,15.55,20.54,23.07,40.99,46.23,62.12,68.74,12.23,13.03,27.38,22.61,42.85,31.51,1.54.89,3.37,1.29,6.19,2.33ZM669.95,1027.17c.25-.47.5-.95.76-1.42-2.42-1.79-4.9-3.49-7.24-5.37-11.43-9.16-23.35-17.79-34.08-27.7-10.98-10.15-20.97-21.41-31.08-32.47-18.57-20.31-36.32-41.21-48.99-65.96-10.08-19.69-10.36-40.22-5.72-61.12,1.85-8.31,7.68-15.09,15.36-17.51,9.47-2.98,19.76-2.5,29.35,1.6,20.98,8.97,41.35,19.1,60.68,31.28,1.17.74,2.5,1.22,5.25,2.53-1.39-2.21-1.69-3.1-2.3-3.59-22.62-17.91-48.04-30.13-76.02-37.03-8.1-2-16.14-1.06-23.92,1.89-5.57,2.11-9.51,5.68-11.09,11.71-1.5,5.73-3.9,11.27-5.01,17.06-1.39,7.29-3.31,14.92-2.46,22.1,2.66,22.47,8.27,44.22,21.45,63.19,6.41,9.22,12.84,18.49,20.07,27.06,24.42,28.95,53.48,52.31,86.82,70.29,2.59,1.4,5.46,2.31,8.19,3.44ZM692.63,1027.51c5.56,4.13,11.42,5.64,17.27,5.55,9.6-.16,19.26-.91,28.78-2.22,11.86-1.64,17.69-8.1,20.34-19.93,2.98-13.26,1.44-26.14-3.04-38.63-12.93-36.02-36.83-64.32-65.19-88.91-23.92-20.73-50.94-37.17-79.11-51.49-13.24-6.73-26.54-13.71-42.17-14.18-10.77-.32-15.98,1.42-19.43,11.78-6.73,20.17-7.27,40.44,2.63,59.99,1.92,3.79,4.69,7.15,6.68,10.15,1.74,0,2.48.22,2.96-.03,10.37-5.55,20.94-6.07,31.28-.41,7.61,4.17,15.02,8.8,22.14,13.77,30.01,20.94,51.44,49.79,72.2,79.18,4.73,6.69,7.97,14.28,7.21,22.79-.36,3.98-1.56,7.89-2.54,12.58ZM680.9,867.19c-.44.61-.89,1.21-1.34,1.81,1.34,1.22,2.54,2.68,4.05,3.62,12.92,8.02,22.65,19.47,32.77,30.48,17.7,19.24,31.48,40.99,41.32,65.24,5.2,12.82,4.42,26.14,4.63,39.58.16,10.16-1.71,18.43-9.89,24.77-.15.11.27.96.48,1.64,10.29-3.19,15.87-10.07,17.62-20.71,2.01-12.28.92-24.2-2.38-36.08-8.4-30.26-25.4-55.35-46.83-77.71-12.09-12.62-26.24-22.66-40.42-32.64ZM228.91,765.75c-17,23.13-41.36,65.89-54.32,123.29-4.79,21.24-9.99,78.8-11.41,95.24,2.03,16.46,4.02,32.92,6.14,49.36,1.67,13.01,7.29,24.44,14.57,35.15.69,1.02,1.56,1.97,2.54,2.7.68.51,1.67.59,4.13,1.37-1.06-3.49-1.56-6.03-2.59-8.34-16.29-36.59-21-74.89-17.14-114.49,2.61-26.86,8.21-53.03,17.18-78.53,9.33-26.5,18.07-53.21,27.2-79.79,1.21-3.51,3.06-6.83,4.85-10.11,2.91-5.31,5.88-10.58,8.84-15.87ZM278.28,1075.66c.63.43,1.26.85,1.9,1.28,2.74-3.2,5.78-6.2,8.15-9.65,6.29-9.19,10-19.6,11.05-30.55,1.73-17.99,3.89-36.1,3.4-54.1-.76-28.05-4-56.03-5.41-84.08-1.34-26.67-9.18-52.19-12.6-78.47-.28-2.14-1.2-4.19-1.69-6.32-2.81-12.13-5.69-24.24-8.33-36.41-1.21-5.62-2.11-11.27-6.27-17.92,2.16,15.9,3.61,29.8,6.02,43.53,5.77,33,7.15,66.4,9.66,99.69,2.36,31.12,3.56,62.33,5.79,93.46,1.9,26.57-.41,52.35-11.46,76.92-.33.75-.15,1.73-.21,2.6ZM255.07,773.84c-.74-.06-1.48-.11-2.22-.17-.82,2.79-1.95,5.54-2.42,8.38-2.51,15.1-4.95,30.21-7.21,45.35-4.3,28.73-9.29,57.39-9.81,86.54-.73,40.37,1.63,80.59,7.64,120.51,2.08,13.84,5.88,27.44,9.28,41.05.6,2.4,3.11,6.06,4.74,6.06,2.61,0,6.17-1.94,7.63-4.18,2.86-4.37,4.9-9.38,6.63-14.35,9-25.83,6.67-52.55,4.63-78.92-2.12-27.37-7.18-54.51-9.55-81.87-3.3-38.26-5.27-76.63-7.87-114.95-.31-4.5-.97-8.97-1.47-13.46ZM248.97,764.05c-.79-.27-1.58-.54-2.38-.81-1.84,3.04-4.05,5.93-5.45,9.17-9.18,21.18-18.55,42.28-27.05,63.73-3.31,8.33-5.19,17.38-6.54,26.28-2.01,13.26-2.88,26.68-4.37,40.02-4.33,39-1.64,77.95.57,116.91.91,16.07,4.08,31.61,11.14,46.11,2.85,5.83,6.36,11.49,10.42,16.54,5.26,6.55,12.42,7.22,20.55,4.52-.42-2.21-.7-4-1.11-5.77-2.31-10.02-4.92-19.99-6.94-30.07-6.5-32.57-7.95-65.67-9.2-98.73-.62-16.19-.13-32.47.84-48.65,2.63-43.71,10.1-86.77,18.38-129.7.6-3.15.77-6.36,1.14-9.55ZM711.25,1089.53c20.32-3.55,43.76-28.04,48.09-49.21-9.89,1.36-19.69,2.73-29.5,4.05-7.06.95-7.4,1.39-9.2,8.32-2.65,10.26-5.56,20.44-8.3,30.67-.46,1.69-.62,3.46-1.09,6.17ZM202.1,847.61c-.78.93-1.6,1.49-1.86,2.25-8.11,23.95-16.55,47.74-21,72.83-6.73,38.09-6.99,75.74,3.28,113.27,4.26,15.6,11.96,29.47,20.25,43.08,3.91,6.42,10.08,9.58,18.92,10.78-1.37-2.68-1.87-4.1-2.72-5.27-12.61-17.39-19.57-36.85-21.24-58.21-1.02-13.08-2.45-26.17-2.6-39.26-.29-24.03-.55-48.11.64-72.1,1.1-22.35,4.11-44.61,6.33-67.37ZM279.9,1088.36c.43.72.85,1.43,1.28,2.15,3.12-1.67,6.47-3.02,9.34-5.05,17.9-12.69,27.5-30.38,29.89-51.89,3.23-28.94,2.72-58,.22-86.93-4.35-50.22-16.24-99.04-28.87-147.67-.89-3.46-2.26-6.8-3.4-10.2-.62.17-1.24.34-1.85.51.25,2.33.12,4.8.84,6.98,5,15.17,7.46,30.85,9.88,46.57,2.83,18.48,7.19,36.78,9.07,55.35,2.82,27.92,4.98,55.97,5.63,84,.41,17.99-1.55,36.16-3.95,54.05-2.58,19.3-10.11,36.66-25.92,49.34-.89.71-1.45,1.85-2.16,2.79ZM719.13,1047.14c-8.3-3.03-8.84-2.78-11.44,3.17-5.74,13.11-11.63,26.15-17.32,39.28-.59,1.35-.25,3.09-.36,5.21,5.92-1.33,12.07.31,14.95-5.63,6.51-13.44,11.22-27.5,14.17-42.03ZM550.8,929.31c-1,5.8-1.78,9.03-2.07,12.3-2.11,23.33-3.55,46.73-6.4,69.96-1.34,10.97,2.32,18.51,9.92,25.58,19.8,18.42,41.17,34.61,65.87,45.8,10.75,4.87,22.22,8.23,33.47,11.92,6.33,2.08,11.43.35,14.81-6.02,7-13.24,14.33-26.29,21.39-39.49,1.13-2.11,1.52-4.6,2.4-7.39-58.5-21.69-103.31-59.98-139.39-112.64ZM704.04,1045.6c-6.34-3.9-8.18-.85-10.35,3.28-7.37,14.06-15.14,27.92-22.74,41.87-.7,1.28-1.23,2.66-2.16,4.69,6.31,1.26,12.35,2.39,15.66-3.21,8.58-14.5,14.69-30.12,19.59-46.63ZM238.47,748.2c.48-.92.95-1.82,1.42-2.74,2.18-4.27,3.6-9.38,3.78-14.16,1.27-34.03,2.11-68.08,3.14-102.11,2.79-92.79,8.33-185.36,18.03-277.72,4.76-45.32,9.24-90.73,8.97-136.47-.13-22.77,1.2-45.58,2.78-68.31.99-14.2-1.16-28-2.64-41.93-1.32-12.4-3.71-24.77-4.08-37.19-.57-19.27,10.1-32.13,26.54-40.63,6.01-3.1,18.66.73,22.72,6.82,5.78,8.65,10.35,17.81,10.21,28.67-.17,15.55.95,31.02-4.24,46.35-3.26,9.63-4.02,20.2-5.11,30.43-4.26,40.38-8.39,80.77-12.21,121.19-3.35,35.44-6.05,70.91-8.14,106.48-2.43,41.41-4.54,82.95-11.32,124.07-3.19,19.36-3.87,39.16-5.22,58.79-2.48,36.15-5.02,72.31-6.77,108.51-1.31,27.13-1.53,54.31-1.95,81.48-.05,3.6.7,7.69,2.48,10.75,14.88,25.74,22.34,53.9,29.95,82.42,10.04,37.63,15.83,75.86,20.46,114.26,3.48,28.83,3.2,58.05-.09,87.01-2.58,22.73-12.63,41.51-31.32,55.48-8.49,6.34-17.43,9.77-27.93,7.83-7-1.29-13.38-.65-19.88,2.69-7.95,4.1-16.4,3.14-24.57,0-11.77-4.53-22-11.27-31.68-19.52-12.75-10.87-20.2-24.33-24.26-40.12-.93-3.62-1.69-7.33-2.03-11.04-1.45-16.14-2.72-32.3-4.06-48.45-.8-1.33-2.75-11.52,6.71-87.71,8.97-72.16,53.13-126.41,70.32-145.12ZM628.26,109.41c2.63,29.21-2.32,57.83-7.5,86.44-6.86,37.84-10.72,76.06-14.04,114.33-3.35,38.58-6.06,77.21-9.41,115.79-2.94,33.88-6.39,67.72-9.57,101.59-.29,3.1-.36,6.23-.39,9.36-.75,79.64-1.47,159.3-2.22,238.95-.08,8.12-.19,16.24-.5,24.36-.18,4.78,1.6,7.42,6.45,8.65,24.65,6.23,46.04,18.93,66.47,33.62,15.71,11.31,32.13,21.69,47.39,33.57,32.55,25.34,56.62,56.99,69.12,96.84,6.97,22.19,6.04,43.84-4.32,64.67-5.41,10.87-11.26,21.64-18.03,31.7-10.52,15.65-25.3,25.47-44.03,29.39-17.53,3.67-35.23,4.94-53.05,5.18-1.85.02-3.82-.03-5.55-.6-39.06-13.01-74.79-31.76-103.03-62.38-8.59-9.3-15.07-20.55-22.46-30.95-1.08-1.52-1.7-3.38-2.83-4.85-20.86-27.15-25.25-58.77-23.47-91.48.94-17.37,4.53-34.62,7.27-51.87,1.39-8.8,5.48-16.5,11.33-23.3,5.49-6.38,10.51-13.17,16.08-19.48,2.68-3.03,3.78-6.1,3.86-10.09,1.15-60.89,2.24-121.79,3.68-182.67,1.45-61.2,3.36-122.39,4.86-183.59.54-21.86.41-43.73.7-65.59.89-67.48,3.89-134.86,9.55-202.12,2.72-32.37,6.89-64.56,12.97-96.5,3.06-16.09,8.49-31.32,16.27-45.7,1.63-3.01,3.53-5.91,5.64-8.6,6.24-7.93,10.05-8.16,17.72-1.31.93.83,1.64,2.21,2.7,2.55,10.26,3.29,11.04,12.07,13.07,20.76,4.87,20.86,6.4,41.93,5.27,63.32Z"/>
    </g>
  </g>
</svg>