<?xml version="1.0" encoding="UTF-8"?>
<svg id="_レイヤー_2" data-name="レイヤー 2" xmlns="http://www.w3.org/2000/svg" viewBox="0 0 251.77 103.74">
  <defs>
    <style>
      .cls-1 {
        fill: #231f20;
      }
    </style>
  </defs>
  <g id="Layer_1" data-name="Layer 1">
    <g>
      <path class="cls-1" d="M5.16.42c12.48,15.23,29.85,25.23,47.06,34.25,19.99,10.48,40.29,19.92,61.41,27.88,22.31,8.41,44.77,16.78,68,22.26,23,5.43,46.51,8.14,70.03,10.06.15.01.14-.21,0-.23-23.45-2.16-46.85-5.3-69.81-10.62-22.63-5.24-44.42-13.57-66.15-21.67-21.2-7.91-41.41-17.48-61.54-27.76C36.46,25.55,18.51,15.43,5.5.08c-.2-.24-.54.1-.34.34h0Z"/>
      <path class="cls-1" d="M147.59,74.79s.05.04.07.06c-.04-.1-.08-.19-.12-.29.04.42-.12.92-.19,1.34-.05.3-.07.58,0,.87.05.22.2.3.28.39.1.1.28.05.32-.08.04-.15.19-.29.23-.46.06-.26.08-.53.11-.79.05-.44.17-.93.05-1.37-.11-.4-.67-.38-.79,0-.01.03-.02.07-.03.1-.02.08,0,.19.06.24h0Z"/>
      <path class="cls-1" d="M199.44,87.99c.06.02.03,1.07.03,1.19,0,.52.02,1.05.12,1.56.1.48.89.37.86-.12-.02-.31-.09-.78-.34-.99-.11-.09-.28-.17-.42-.11-.32.13-.38.38-.31.7.09.41.65.35.76,0,0-.02,0-.03.01-.05l-.26.2s.02,0,.03,0c-.16-.07-.33-.13-.49-.2.09.13.14.31.15.47.29-.04.57-.08.86-.12-.17-.69-.14-1.42-.25-2.12-.06-.35-.25-.83-.68-.82-.24,0-.28.34-.06.41h0Z"/>
      <path class="cls-1" d="M148.11,77.71c.19.23.32-.16.35-.3-.08.04-.15.09-.23.13.06,0,.11.02.16.04.27.09.38-.33.12-.42-.7-.26-1.91-.6-2.58-.16-.16.1-.15.36.05.41.38.09.78,0,1.18.03.43.03.86.12,1.29.14-.02-.14-.04-.29-.06-.43-.05.02-.11.03-.16.04-.1.02-.15.14-.13.23.02.1.07.2,0,.29,0,0,0,0,0,0h0Z"/>
      <path class="cls-1" d="M146.1,77.46c-.1.47-.23.93-.36,1.39-.14.51-.36,1.08-.31,1.61.02.19.22.36.41.24.68-.47,1.24-1.02,1.6-1.77.01-.02-.02-.04-.03-.02-.4.71-.98,1.14-1.78,1.3.1.13.21.27.31.4.21-.42.25-.91.36-1.37.13-.54.27-1.07.38-1.62.08-.38-.5-.54-.58-.16h0Z"/>
      <path class="cls-1" d="M148.49,77.8c-.34,1.39-.6,2.77-1.04,4.13-.12.36.44.6.61.26.1-.21.16-.45.27-.66.02-.04-.02-.08-.06-.06-.21.1-.45.16-.66.27.15.15.3.3.46.46.63-1.3.73-2.82,1.06-4.21.09-.4-.52-.58-.62-.17h0Z"/>
      <path class="cls-1" d="M148.51,81.66c-.63-.22-1.21-.57-1.84-.78-.24-.08-.6-.22-.85-.08-.25.15-.22.44-.05.63.08.09.26.02.25-.1,0-.03,0-.05,0-.07-.09.04-.18.07-.27.11.34.25.98.31,1.39.42.41.12.94.34,1.37.24.19-.05.17-.31,0-.37h0Z"/>
      <path class="cls-1" d="M148.63,80.64c-.71-.59-2-1.29-2.9-.76-.34.2.02.7.34.44.29-.23.68-.38,1.02-.52.02,0,0-.04-.02-.04-.31.09-.75.33-1.06.12-.07.17-.14.34-.22.51.86.19,1.72.24,2.53.63.24.11.53-.2.3-.39h0Z"/>
      <path class="cls-1" d="M148.98,78.99c-.57-.08-1.13-.4-1.67-.6-.23-.08-.44-.11-.68-.08-.09.01-.19.11-.23.18-.05.1-.04.1,0,0-.03.04-.05.07-.06.12-.06.2.16.33.33.25-.02,0-.05.02-.07.02-.08-.06-.16-.12-.23-.18.12.4.69.45,1.03.54.5.14,1.06.28,1.58.25.35-.02.33-.49,0-.53h0Z"/>
      <path class="cls-1" d="M148.52,78.01c-.53-.33-1.89-.65-2.14.23-.07.26.11.39.34.42.49.07.86-.13,1.33.14.51.29.96-.48.46-.79h0Z"/>
      <path class="cls-1" d="M147.34,79s-.07.07-.11.13c-.1.13.12.16-.13-.06-.15-.13-.38-.08-.44.12-.11.33.08.63.39.77.14-.24.28-.48.42-.72-.32-.18-.71-.25-1.07-.29-.61-.06-.6.89,0,.95.23.02.42.05.63-.06.1-.05.17-.18.17-.29-.02-.44-.42-.58-.8-.6v.95c.33.02.64.19.97.1.46-.13.36-.81-.11-.82-.07-.02-.12-.05-.16-.11-.09.15-.17.29-.26.44.16.07.36.15.52.05.16-.09.1-.28.17-.42.06-.13-.08-.24-.19-.15h0Z"/>
      <path class="cls-1" d="M147.63,81.33c.04,1.48.93,2.93-.32,4.21-.82.85-2.44.83-2.82-.38-.33-1.07.12-4.28,1.73-4.19.12,0,.21-.14.14-.24-.72-1.03-1.75.2-2.12.89-.61,1.16-.95,2.86-.39,4.1.68,1.51,2.56,1.4,3.76.59,1.42-.95,1.64-4.06.23-5.11-.09-.06-.22.02-.21.12h0Z"/>
      <path class="cls-1" d="M107.9,59.57c-.24.9-.78,1.71-.8,2.65,0,.24.23.4.46.35.31-.08.62-.06.94-.04-.1-.1-.21-.21-.31-.31,0,.06-.01.11-.02.17.14-.11.28-.21.42-.32-.76-.27-1.44-.54-2.25-.37-.46.1-.26.76.19.69.13-.02,1.41-.18,1.27.27-.17.56-.36,1.1-.62,1.63.17-.02.35-.04.52-.07-.35-.39-.66-.82-1.02-1.21-.11.19-.22.39-.34.58.33.12.61.18.95.19.42.01.44-.55.09-.69-.37-.12-.64-.36-.82-.7-.13.17-.27.35-.4.52.64.17,1.22.33,1.73.78.09-.21.17-.42.26-.62-.82-.07-1.58-.45-2.41-.35-.27.03-.48.3-.32.56.41.68,1.03,1.09,1.61,1.62.09-.21.17-.42.26-.63-.33,0-.62-.07-.93-.17-.37-.12-.63.37-.37.63.29.3.57.55.93.76.18.11.43.04.53-.14.21-.36.16-.92-.35-.83-.18.03-.26.21-.28.37-.02.02-.03.05-.05.07.18-.05.36-.09.53-.14-.3-.17-.54-.38-.79-.62-.12.21-.25.42-.37.63.39.11.73.17,1.13.18.32,0,.5-.41.26-.63-.52-.48-1.11-.85-1.49-1.47-.11.19-.21.37-.32.56.81-.09,1.6.28,2.41.34.31.02.5-.42.26-.62-.62-.52-1.28-.75-2.06-.95-.28-.07-.59.25-.4.52.35.5.67.8,1.25,1.02.03-.23.06-.46.09-.69-.27.01-.53-.04-.77-.16-.34-.12-.56.34-.34.58.37.38.68.81,1.04,1.2.13.14.44.13.52-.07.31-.7.5-1.41.65-2.16.02-.11-.01-.24-.12-.3-.56-.29-1.14-.37-1.76-.47-.03.24-.06.47-.1.71.7-.04,1.31.16,1.98.3.19.04.45-.09.42-.32,0-.06-.01-.11-.02-.17-.02-.16-.13-.32-.31-.31-.32.02-.62.04-.94-.04.08.15.17.29.25.44.15-.91.67-1.74.6-2.68-.02-.28-.43-.36-.51-.07h0Z"/>
      <path class="cls-1" d="M108.44,65.3c-1.04-.61-2.26-1.4-3.5-1.1.11.27.23.55.34.82.18-.12.33,0,.54-.02.26-.03.54-.32.34-.59-.33-.45-.88-.48-1.32-.17-.39.28-.17.96.34.82,1.07-.3,2.06.48,3.09.65.24.04.41-.28.17-.41h0Z"/>
      <path class="cls-1" d="M106.81,65.36c.24,1.28,1.01,2.52-.39,3.43-.68.44-1.36.42-1.91-.19-.49-.55-.57-1.41-.41-2.09.09-.41.33-.74.62-1.03.37-.36.91-.42,1.25-.79.15-.17.1-.47-.14-.53-1.18-.28-2.23,1.15-2.51,2.13-.3,1.06.03,2.3.82,3.06.89.86,2.01.53,2.91-.09,1.46-1,.91-2.82.03-4.01-.1-.13-.3-.05-.27.11h0Z"/>
      <path class="cls-1" d="M73.76,45.06s.06-.07.07-.12c.01-.08,0-.19-.09-.22-.68-.3-1.21,1.76-1.41,2.18-.1.2-.02.47.21.52.36.09.63.3.94.49.06-.23.12-.46.19-.69-1.01-.09-1.84-.81-2.83-1.02-.42-.09-.63.44-.29.68.78.55,1.57,1.07,2.19,1.81.11-.19.22-.37.32-.56-.89-.21-1.73-.54-2.57-.89-.39-.16-.62.46-.28.66.69.4,1.19.91,1.58,1.6.11-.19.22-.38.33-.57-.56-.04-1.04-.2-1.52-.49-.45-.27-.83.4-.41.69.51.35,1.02.7,1.54,1.05.14-.25.29-.49.43-.74-.61-.39-1.21-.69-1.94-.77-.44-.05-.62.65-.23.83.7.34,1.42.56,1.9,1.22.21-.21.42-.42.62-.62-.36-.15-.46-.21-.83-.08-.24.09-.32.43-.07.57.16.08.31.18.44.3.37.28.88-.26.62-.62-.58-.84-1.34-1.13-2.23-1.53-.08.28-.15.56-.23.83.56.05,1.04.32,1.51.61.47.29.89-.44.43-.74-.52-.34-1.04-.67-1.56-1.01-.14.23-.27.46-.41.69.61.34,1.23.52,1.92.55.29.01.47-.33.33-.57-.46-.79-1.07-1.4-1.87-1.84-.09.22-.19.44-.28.66.85.33,1.7.64,2.59.83.33.07.55-.3.32-.56-.68-.77-1.47-1.36-2.29-1.98-.1.23-.19.45-.29.68,1.06.26,1.91.96,3.02,1.04.38.03.49-.51.19-.69-.38-.22-.69-.46-1.12-.54.07.17.14.35.21.52.16-.37.29-.75.43-1.13.09-.25.19-.49.29-.74.03-.1.08-.2.13-.3.14-.28-.14.05-.2,0,.06.05.13.03.17-.02h0Z"/>
      <path class="cls-1" d="M72.88,48.18c.04-.05.08-.09.13-.13.04-.05.03-.05-.03,0-.04-.15-.08-.31-.12-.46-.31.49-.55,1-.79,1.53-.17.37-.48.84-.18,1.22.07.09.22.12.33.09.39-.12.48-.65.61-.99.22-.53.44-1.06.64-1.6.12-.33-.34-.55-.56-.33-.19.19-.09.34-.2.53-.06.1.09.23.17.13h0Z"/>
      <path class="cls-1" d="M71.59,50.22c.31.84.66,1.76.03,2.56-.44.55-1.68.9-2.15.22-.39-.56-.23-1.38-.03-1.98.23-.67.88-1.03,1.14-1.66.04-.1-.04-.22-.14-.24-1.1-.28-1.8,1.28-2,2.11-.22.9-.11,2.16.73,2.73.93.62,2.44.19,3.08-.68.71-.95.62-2.56-.4-3.28-.13-.09-.34.06-.28.21h0Z"/>
      <path class="cls-1" d="M40.1,27.99c.25,0,.25-.4,0-.4s-.25.4,0,.4h0Z"/>
      <path class="cls-1" d="M39.91,26.74c-.78.76-1.51,1.84-1.62,2.95-.02.14.09.31.22.38.27.13.53.28.77.45.18-.23.36-.47.54-.7-.64-.44-1.26-.84-2-1.08-.36-.12-.73.34-.51.66.49.7,1.45,1.11,1.67,1.96l.56-.56c-.7-.23-1.31-.64-1.96-.99-.35-.19-.77.12-.67.51.29,1.15,1.19,1.83,1.99,2.63.16-.27.31-.54.47-.81-.91-.23-1.62-.79-2.46-1.16-.59-.26-1,.46-.5.85.14.25.28.5.42.75-.18.32.2.78.54.54.87-.64.33-1.51-.37-2.07-.2.26-.4.51-.6.77.91.43,1.7,1.04,2.7,1.25.45.09.85-.46.47-.81-.71-.65-1.54-1.21-1.8-2.19-.22.17-.45.34-.67.51.72.38,1.4.82,2.18,1.07.33.11.64-.24.56-.56-.28-1.04-1.19-1.35-1.77-2.17-.17.22-.34.44-.51.66.67.22,1.21.6,1.79.99.49.33.9-.43.45-.77-.1-.08-.62-.31-.59-.46.1-.41.36-.8.56-1.16.21-.39.48-.76.58-1.2.06-.26-.26-.45-.45-.26h0Z"/>
      <path class="cls-1" d="M37.93,33.02c.38.86.71,1.9.23,2.78-.65,1.22-2.49,1.09-3.19.07-.79-1.14.37-2.22,1.26-2.77.55-.34,1.23-.66,1.45-1.31.03-.1-.06-.22-.16-.21-1.25.11-2.77,1.21-3.38,2.27-.75,1.3-.09,2.81,1.15,3.47,1.23.66,2.87-.02,3.61-1.1.76-1.1.08-2.57-.77-3.36-.11-.1-.25.03-.2.15h0Z"/>
      <path class="cls-1" d="M200.63,90.77c-.34-.94-1.96-1.16-2.78-.84-.26.1-.37.4-.16.61.32.34.6.29,1.05.33.67.07,1.35.26,1.85.73-.02-.16-.04-.33-.06-.49-.42.61-1.11.58-1.67.19-.11.25-.21.51-.32.76.71.16,1.47.17,2.14.48v-.72c-.68.44-1.61.13-2.37.11-.32,0-.52.36-.36.63.47.82,1.37,1.06,2.26,1.07l-.11-.83c-.7.29-1.4-.01-2.13,0-.54,0-.52.77,0,.82.79.08,1.58.32,2.35,0,.42-.18.4-.82-.11-.83-.58,0-1.21-.1-1.53-.65-.12.21-.24.42-.36.63.95.02,1.94.32,2.79-.23.24-.15.31-.59,0-.72-.75-.34-1.55-.38-2.34-.56-.47-.11-.71.49-.32.76.96.66,2.15.48,2.8-.5.1-.15.07-.38-.06-.49-.48-.43-1.04-.68-1.66-.82-.33-.08-1.11-.01-1.29-.18-.02.19-.05.38-.07.58.63-.29,1.77-.09,2.34.29.07.05.19-.03.15-.12h0Z"/>
      <path class="cls-1" d="M199.63,93.71c1.59.5,2.53,4.77.09,4.29-.77-.15-1.37-.83-1.59-1.56-.33-1.06.46-2.13,1-2.98.1-.16-.09-.29-.23-.23-2.78,1.22-1.97,5.51,1.06,5.66,3.16.16,2.34-5.33-.29-5.5-.19-.01-.21.26-.04.32h0Z"/>
      <path class="cls-1" d="M238.99,93.38c-.03.25-.16.49-.18.75-.02.24.03.49.1.72.22-.09.44-.19.66-.28-.09-.21-.11-.38-.14-.6-.07-.44-.66-.27-.71.1-.04.31.09.6.22.87.2.42.84.05.63-.37-.09-.17-.13-.34-.17-.52-.05-.2-.19-.48-.22-.67-.01-.12-.18-.12-.19,0h0Z"/>
      <path class="cls-1" d="M239.17,95.36c.15-.24.14-.33-.04-.29-.12,0-.25,0-.37,0-.23,0-.47-.03-.7-.04-.42-.01-.55.56-.21.77.61.37,1.32.39,1.98.59-.04-.27-.07-.55-.11-.82-.46.3-.93.61-1.45.8-.46.17-.43.73,0,.91.59.24,1.02.65,1.67.72-.11-.27-.23-.55-.34-.82-.3.26-.64.35-1.04.36-.65.02-.62.93,0,.99.29.03.56.15.86.18v-1.01c-.27,0-.48.03-.7.18-.24.16-.24.48,0,.64.22.15.44.18.7.18.66,0,.64-.95,0-1.01-.29-.03-.56-.14-.86-.17v.99c.66-.03,1.22-.23,1.72-.67.34-.31.04-.79-.34-.82-.49-.05-.96-.48-1.42-.66v.91c.6-.23,1.12-.56,1.65-.93.31-.21.29-.71-.11-.82-.59-.16-1.26-.13-1.81-.44-.07.26-.14.51-.21.77.48,0,1,.07,1.47-.07.49-.14.46-.64.18-.95-.33-.36-.83.16-.53.53h0Z"/>
      <path class="cls-1" d="M239.87,99.14c.82.67,1.73,2.1.83,3.06-.67.72-2.48.92-3.22.2-.55-.55-.17-1.58.13-2.14.44-.83,1.27-1.16,1.77-1.89.11-.16,0-.46-.2-.49-1.3-.18-2.31,1.43-2.71,2.46-.42,1.09-.26,2.4.78,3.05,1.16.73,3.43.29,4.2-.84.99-1.45-.3-2.77-1.44-3.59-.11-.08-.24.1-.14.18h0Z"/>
      <path class="cls-1" d="M.08,8.83c4.3,2.35,9.01,4.01,13.62,5.63,7.3,2.57,14.72,4.79,22.17,6.87,19.59,5.47,39.47,9.96,59.45,13.74,18.62,3.52,37.4,6.4,56.28,7.99,14.77,1.24,30.18,2.03,44.81-.88.1-.02.06-.17-.04-.15-16.73,3.24-34.55,1.7-51.37.02-21.59-2.17-43.03-5.9-64.27-10.32-16.72-3.48-33.35-7.47-49.76-12.19C20.71,16.58,9.67,13.78.25,8.54c-.19-.1-.35.18-.17.29H.08Z"/>
      <path class="cls-1" d="M169.98,44.73c.08.49,0,1.61.5,1.92.06.04.14.04.2,0,.52-.35.2-1.64.05-2.12-.16-.48-.82-.28-.74.2h0Z"/>
      <path class="cls-1" d="M171.8,46.62c-.12-.16-.1-.36-.23-.53-.06-.09-.17-.16-.28-.12-.59.23-1.23.36-1.72.78-.13.11-.13.37,0,.48.28.24.59.41.96.3.22-.07.31-.42.07-.53-.18-.08-.39-.12-.55-.25v.48c.39-.35.98-.53,1.44-.8-.1-.01-.2-.03-.31-.04.13.14.14.34.28.49.17.18.49-.06.34-.26h0Z"/>
      <path class="cls-1" d="M171.36,47c-.31.37-.36.81-.36,1.28,0,.46.71.46.71,0,0-.25-.02-.57.15-.78.28-.35-.21-.85-.5-.5h0Z"/>
      <path class="cls-1" d="M171.24,47.76c0,.26.04.56-.15.77.09-.04.18-.07.26-.11-.61.03-1.21.2-1.81.28l.35.35c-.04-.63.14-1.11.41-1.66-.18-.05-.36-.1-.53-.14.04.63.44,1.18.44,1.81,0,.47.77.45.72,0-.08-.64-.55-1.17-.59-1.81-.02-.26-.4-.42-.53-.14-.31.63-.54,1.25-.62,1.95-.02.2.18.34.35.35.54.03,1.1-.15,1.63-.22.31-.04.45-.1.64-.37.2-.29.17-.71.17-1.05,0-.48-.75-.48-.75,0h0Z"/>
      <path class="cls-1" d="M170.72,48.65c.74.72,1.51,1.41,1.81,2.43.39,1.31-.83,2.83-2.18,2.18-1.24-.59-.97-2.05-.63-3.09.24-.74.89-1.62.82-2.42-.02-.19-.22-.28-.37-.15-.46.38-.65,1.07-.87,1.61-.32.76-.56,1.55-.61,2.37-.08,1.32,1.01,2.47,2.3,2.55,1.25.08,2.19-1.19,2.29-2.31.14-1.57-1.11-2.74-2.35-3.45-.16-.09-.34.13-.2.26h0Z"/>
      <path class="cls-1" d="M131.68,40.79c0-.06.02-.12.02-.17.01-.09-.1-.13-.17-.1-.2.1-.15.52-.16.71-.02.28-.08.67.04.93.06.14.31.14.37,0,.11-.25.05-.58.04-.85,0-.2.04-.69-.17-.8-.07-.03-.18,0-.17.1,0,.06.02.12.02.17.01.11.16.11.18,0h0Z"/>
      <path class="cls-1" d="M132.74,42.4c-.85-.58-1.57-.74-2.37.01-.18.17-.03.45.19.46.65.03,1.17.47,1.81.51v-.53c-.64.02-1.1.15-1.68-.22-.07.16-.13.32-.2.48.23.08,1.47.53,1.1,1-.34.44-1.07,0-1.39-.24-.26-.2-.61.18-.44.44.28.44.74.92,1.27,1.02.12.02.23-.07.19-.19-.13-.49-.68-.69-.91-1.15-.17.13-.34.26-.51.39.64.54,1.73.86,2.3.06.66-.92-.86-1.64-1.49-1.83-.29-.09-.45.33-.2.48.68.41,1.18.31,1.94.3.34,0,.34-.5,0-.53-.31-.02-.58-.19-.86-.31-.31-.13-.61-.2-.94-.22.06.15.13.31.19.46.26-.24.52-.46.9-.41.31.04.6.26.86.42.26.16.48-.24.24-.4h0Z"/>
      <path class="cls-1" d="M131.28,45.01c.82.42,1.43,1.2,1.62,2.11.23,1.05-.79,1.87-1.76,1.65-.83-.19-1.13-1.09-1.13-1.84,0-.52.26-1.03.51-1.47.23-.41.4-.85.67-1.24.07-.1-.07-.25-.18-.18-1.04.77-1.99,2-1.69,3.41.25,1.16.91,2.01,2.17,2.07,1.17.05,2.03-1,2.1-2.09.08-1.2-1.1-2.46-2.25-2.61-.1-.01-.14.14-.05.19h0Z"/>
      <path class="cls-1" d="M89.86,32.48c-.16.54-.13,1.15-.13,1.71,0,.5-.12,1.08.15,1.51.07.11.22.11.29,0,.28-.44.16-1.02.15-1.51,0-.56.02-1.17-.13-1.71-.05-.16-.28-.16-.33,0h0Z"/>
      <path class="cls-1" d="M90.62,35.22c-.46-.29-1-.39-1.47-.64-.22-.12-.46.03-.48.27,0,.09-.01.17-.01.26,0,.11.06.23.16.29.61.33,1.18.73,1.8,1.05.06-.22.12-.44.18-.66-.34,0-.69,0-1.03-.01-.3,0-.51.41-.26.63.24.2.53.32.77.52.09-.21.18-.42.26-.63-.67.02-1.3.2-1.97.01-.42-.12-.64.46-.29.68.4.26.81.48,1.21.73.35.23.59.7,1.04.68.09,0,.15-.05.18-.13.31-.85-1.52-1.58-2.05-1.92-.1.23-.19.46-.29.68.74.2,1.42.03,2.17.01.3,0,.53-.42.26-.63-.24-.2-.53-.32-.78-.51-.09.21-.17.42-.26.63.34,0,.69,0,1.03-.01.34,0,.5-.5.18-.66-.62-.31-1.2-.7-1.82-1.01.05.1.11.19.16.29,0-.09,0-.17-.01-.26-.13.1-.27.2-.4.31.52.18,1.06.23,1.59.37.19.05.29-.21.13-.31h0Z"/>
      <path class="cls-1" d="M90.21,37.73c.49.7,1.05,1.35,1.06,2.25.02,1.1-1.29,1.43-2.09,1.05-1.99-.96-.2-3.08.44-4.3.07-.13-.07-.27-.2-.2-2.08,1.15-2.73,4.55,0,5.31,1.07.3,2.03-.41,2.41-1.37.42-1.07-.76-2.29-1.51-2.85-.06-.05-.15.04-.1.1h0Z"/>
      <path class="cls-1" d="M146.6,81.08c-.38.42-.63.9-.86,1.41-.18.4-.55.99-.38,1.44.02.06.08.08.14.06.41-.2.54-.84.71-1.23.21-.48.42-.99.74-1.42.15-.2-.18-.45-.34-.27h0Z"/>
      <path class="cls-1" d="M145.81,82.58c.16.42.4,1,.8,1.24.07.04.14-.01.15-.08.03-.46-.4-.93-.64-1.29-.1-.15-.37-.06-.3.13h0Z"/>
      <path class="cls-1" d="M131.45,44.61c-.56.71-.52,1.67-.18,2.48.02.06.12.06.12-.02,0-.83-.27-1.6.17-2.37.04-.07-.06-.15-.11-.09h0Z"/>
      <path class="cls-1" d="M89.61,37.42c-.16.88-.57,1.89-.34,2.79.01.06.09.05.11,0,.15-.49.19-1,.29-1.5.08-.42.12-.83.07-1.26,0-.07-.11-.1-.13-.02h0Z"/>
      <path class="cls-1" d="M89.43,39.2c.19.36.42.6.74.85.03.02.06-.02.04-.04-.22-.29-.47-.56-.65-.89-.05-.09-.19-.01-.14.08h0Z"/>
      <path class="cls-1" d="M70.28,52.1c.3-.43.6-.87.87-1.32.29-.48.49-.93.69-1.45.02-.06-.07-.11-.11-.06-.32.38-.56.7-.79,1.16-.26.54-.5,1.08-.77,1.61-.04.07.06.12.1.06h0Z"/>
      <path class="cls-1" d="M105.16,67.48c.61-.97,1.4-2.04,1.64-3.17.02-.07-.08-.14-.13-.08-.78.86-1.41,2.03-1.85,3.11-.08.21.24.32.35.15h0Z"/>
      <path class="cls-1" d="M105.42,66.38c.12.5.34,1.22.72,1.58.06.06.14.01.14-.06.05-.54-.46-1.13-.69-1.6-.05-.1-.19-.03-.17.07h0Z"/>
      <path class="cls-1" d="M199.25,94.41c.04.69.24,1.32.08,2.02.11.01.22.03.33.04.02-.3.21-.39.46-.5-.11-.04-.21-.09-.32-.13.05.31.41.59.65.75.08.05.21-.02.21-.12-.03-.36-.36-.45-.45-.75-.04-.13-.19-.2-.32-.13-.34.22-.55.46-.58.87,0,.19.29.23.33.04.14-.72.03-1.48-.27-2.15-.03-.07-.14-.03-.14.04h0Z"/>
      <path class="cls-1" d="M170.1,48.97c0-.06,0-.11,0-.17,0-.03-.05-.03-.05,0,0,.06,0,.11,0,.17,0,.04.07.04.06,0h0Z"/>
      <path class="cls-1" d="M170.08,48.84c.21-.09.31-.14.42-.34-.06,0-.13-.02-.19-.03.32,1.1.84,2.45-.04,3.45.1.08.21.16.31.24.21-.36.48-.68.69-1.03h-.33c.33.47.73.78,1.15,1.16.07.06.16-.02.12-.09-.24-.52-.59-.81-.93-1.26-.08-.11-.25-.14-.33,0-.21.36-.48.67-.69,1.03-.11.19.16.41.31.24.84-.94.78-2.89-.06-3.83-.07-.07-.17-.01-.18.08-.08.1-.17.2-.25.29-.07.01-.03.13.03.1h0Z"/>
      <path class="cls-1" d="M36.38,35.04c.31-.85.61-1.69,1.09-2.47.24-.39.54-.68.92-.93.12-.08.15-.21.09-.33-.05-.1-.17-.13-.27-.11-.72.11-1.19.96-1.49,1.55-.34.68-.69,1.53-.47,2.29.02.07.11.06.13,0h0Z"/>
      <path class="cls-1" d="M36.67,33.57c.13.27.37.48.61.67.06.05.18.03.17-.07-.04-.36-.18-.68-.52-.85-.17-.08-.34.08-.25.25h0Z"/>
      <path class="cls-1" d="M70.4,51.65c.16.26.21.64.45.83.04.03.1.04.14,0,.26-.3-.06-.76-.24-1.03-.14-.21-.48-.02-.34.2h0Z"/>
      <path class="cls-1" d="M238.65,102.01c.2-1.39.99-2.88.7-4.31-.03-.15-.25-.14-.29,0-.18.72-.18,1.48-.31,2.21-.13.68-.19,1.39-.24,2.08,0,.08.13.1.14.02h0Z"/>
      <path class="cls-1" d="M239.15,99.88s-.09.14-.08.19c.01.19.06.36.11.54.09.35.24.77.5,1.04.14.15.42,0,.35-.21-.11-.33-.25-.64-.37-.96-.05-.15-.12-.29-.19-.43-.04-.08-.22-.16-.23-.2-.03-.06-.1-.01-.09.04h0Z"/>
      <path class="cls-1" d="M199.51,93.98c-.02-.11-.03-.21-.03-.32.02-.13-.15-.29-.26-.15-.21.26-.11.52-.07.83.06.41.12.79.38,1.13.11.14.39.12.38-.1-.02-.35-.1-.69-.17-1.03-.06-.33-.02-.67-.33-.85-.06.08-.12.16-.19.24.07.08.13.18.18.28.03.07.12.04.11-.03h0Z"/>
    </g>
  </g>
</svg>