<svg xmlns="http://www.w3.org/2000/svg" viewBox="0 0 1233.24 354.59">
	<defs>
		<style>
			.cls-1 {
				fill: #4e525e;
			}
		</style>
	</defs>
	<path class="cls-1" d="M921.98,122.67c3.25.04,5.9,2.72,5.9,5.97s-2.64,5.86-5.9,5.82c-3.25-.04-5.89-2.72-5.89-5.97s2.64-5.86,5.89-5.82ZM752.18,171.49c-1.07-8.43-2.71-16.1-8.49-22.15-5.75-6.02-11.59-6.36-16.19.17-3.14,4.45-5.34,10.05-6.31,15.45-1.21,6.74,4,14.14,9.87,16.32,5.71,2.12,16.37-.63,19.62-5.33.94-1.35,1.11-3.25,1.5-4.47ZM617.99,167.39c-1.53,6.33-.91,9.47-.08,13.75,1.1,5.63,2.35,7.3,6.51,9.19,7.8,3.55,15.66,3.96,24.19,1.68-.44-11.19-5.29-19.79-14.16-26.18-7.06-5.1-10.11-4.59-16.46,1.57ZM95.38,191.59c.95.17,47.15-87.51,56.11-136.72,1.82-9.96-.02-47.26-9.29-47.61-4.85-.18-18.96,31.88-22.48,42.96-11.59,36.4-16.59,74.23-21.54,112.03-1.27,9.73-1.88,19.56-2.8,29.34ZM1127.92,214.88c3.76.5,22.3-43.93,31.39-63.39,2.08-4.44,1.98-12.33-4.8-12.76-6.73-.44-16.53,18.7-21.99,37.91-5.39,18.96-6.49,37.99-4.6,38.25ZM194.17,167.94c-4.76-3.12-8.57,3.71-9.23,9.63-.78,7.08-1.24,14.23-1.26,21.36,0,6.36,4.6,11.43,9.27,11.15,4.85-.29,10.77-6.13,10.85-11.38.15-10.93-1.2-25.24-9.63-30.77ZM367.2,175.76c-10.54-5.95-20.79,33.45-23.52,52.01,12.58-2.89,31.97-47.24,23.52-52.01ZM725.69,252.64c10.79,2.03,25.13-42.7,24.5-67.23-13.04,6.97-24.55,4.78-34.92-9.02-1.77,23.43,1.88,74.65,10.42,76.25ZM618.82,197.49c-3.52,24.33,2.83,60.29,13.13,59.96,8.24-.26,20.99-40.5,16.41-56.02-10.2,1.5-19.59,1.05-29.54-3.94ZM405.23,227.57c.4-2.77,8.37-6.7,7.82-1.5-.33,3.1-22.56,54.95-50.74,54.8-5.72-.03-10.96-2.94-15.52-7.56-4.17-4.22-7.83-9.61-9.9-15.13-10.53-28.14-5.38-54.38,10.16-78.91,2.23-3.52,5.52-6.47,8.72-9.23,3.84-3.31,8.34-5.99,13.64-3.44,5.26,2.54,6.31,7.83,6.23,12.84-.08,5.28-.66,10.75-2.21,15.76-4.5,14.54-12.11,27.36-23.91,37.08-1.74,1.43-4.95,4.4-4.95,4.4,0,0-.64,5.03-.31,8.38.83,8.49,3.29,16.14,9.23,22.38,6.01,6.32,10.74,7.26,18.18,3.09,3.96-2.22,7.87-5.04,10.79-8.46,5.96-7,11.39-14.49,16.75-21.97,2.82-3.93,5.36-8,6.02-12.55ZM203.4,216c-6.62,2.56-13.24,4.89-19.92-.26-3.68,19.58-1.73,78.08,5.94,78.51,2.58.14,12.57-52.46,13.98-78.25ZM1125.91,283.98c-21.9,5.38-42.99,14.46-60.7,27.29-3.11,2.25-5.96,5.14-8.19,8.26-6.06,8.46-4.1,17.15,4.75,22.99,10.27,6.77,23.59,5.87,33.6-3.14,16.06-14.46,23.84-35.34,30.55-55.4ZM832.25,192.32c0,.57-.56,45.47-1,64.28-.16,6.76-.56,13.56-1.45,20.25-.26,2-11.1,2.71-12.17.39-1.41-3.03-1-6.97-1.02-10.52-.04-7.24-.82-52.22,2.92-97.41,4.55-55.01,13.74-111.39,13.02-113.77-1.19,2.09-25.48,52.47-37.14,75.21-8.44,16.48-33.47,46.73-33.47,46.73,0,0-4.71,82.59-36.21,81.58-19.3-.62-21.55-32.9-22.55-43.77-1.3-14.17-.31-28.51-.31-42.79v-10c-1.55,5.54-41.48,35-45.51,35.88,0,0-.3,3.65-.36,6.15-.36,13.98-4.28,61.02-26.37,61.47-32.74.68-24.85-70.61-24.85-76.72-2.14,4.26-17.86,46.31-25.5,64.66-4.61,11.09-10.58,21.69-16.83,31.96-3.05,5.01-7.64,9.44-12.42,12.93-7.85,5.73-15.88,4.22-21.27-4-3.49-5.33-6.21-11.39-8.11-17.48-9.04-29.07-11.66-58.95-10.66-89.07.78-23.57,3.64-46.95,9.73-69.75,3.69-13.83,8.67-27.16,17.36-38.65,3.17-4.21,6.83-8.3,11.04-11.39,7.45-5.46,14.83-3.68,18.22,5.05,2.67,6.85,4.22,14.55,4.31,21.87.28,23.06-5.21,45.23-11.52,67.16-2.16,7.51-4.71,14.92-7.33,22.29-.62,1.72-2.25,3.07-3.8,5.09-4.1-3.79-1.93-7.02-1.06-10.21,4.21-15.44,9.02-30.74,12.35-46.37,3.25-15.27,4.79-58.31.12-59.38-11.38-2.57-26.18,44.5-28.97,61.42-6.84,41.5-.28,155.94,12.7,155.95,8.27,0,25.17-29.31,29.96-41.07,9.52-23.35,18.05-47.13,26.49-70.9,2.73-7.71,7.34-13.59,13.23-18.78,6.97-6.14,14.45-6.81,22.6-1.87,7.61,4.61,13.09,11.16,16.43,19.4,1.33,3.3,2.31,6.73,3.84,11.25,19.85-10.72,34.5-27.27,44.32-36.49,2.06-1.93,3.72-4.3,5.72-6.31,5.19-5.22,5.72-5.15,11.67.84.53-.19,1.35-.22,1.61-.62,8.17-12.6,24.77-12.87,33.98,5.11,2.42,4.73,3.66,10.05,5.92,16.43,5.6-6.01,29.15-39.61,36.96-55.45,13.33-27.05,24.93-54.97,37.28-82.51,2.11-4.7,2.94-10.91,10.25-10.27,4.34.38,5.85,3.89,4.78,13.57-2.43,21.96-5.28,43.87-7.93,65.8-2.48,20.52-7.37,71.2-7.37,78.17,2.86-3.8,4.56-5.88,6.07-8.09,12.45-18.15,24.83-36.35,37.35-54.45,7.42-10.71,10.27-4.05,8.41-1.26-15.14,22.74-30.32,45.45-44.7,66.97,1.96,8.46,3.49,15.72,5.35,22.9,2.88,11.08,12.15,43.9,15.92,44.4,3.92.52,25.35-50.52,33.23-68.01,3.5-7.77,15.52-36.75,24.65-35.96,5.06.44,5.54,5.56,5.51,10.12-.1,12.86-.25,25.72.04,38.58.23,9.97,2.31,31,5.98,30.83,1.85-.08,8.06-9.08,10.37-13.51,11.01-21.09,21.48-42.47,32.66-63.47,7-13.15,14.75-25.91,22.53-38.62,2.46-4.02,5.01-10.13,10.98-8.23,5.7,1.8,5.39,8.18,5.06,13.03-1.52,21.7-3.64,43.36-5.17,65.06-1.93,27.4-4.95,85.4-3.48,87.21,1.55-3.44,3.17-6.86,4.64-10.34,11.1-26.6,23.4-52.6,38.77-76.99,2.99-4.74,6.54-9.39,10.75-13.01,4.9-4.21,9.73-2.28,10.85,4.23.95,5.53,1.29,11.43.45,16.93-3.88,25.54-6.23,81.39-3.25,82.59,2.29.92,35.39-60.91,47.56-83.79,6.49-12.21,13.19-24.31,19.96-36.37,1.72-3.08,3.78-6.04,6.1-8.68,7.86-8.96,13.66-9.5,24.4-2.23,2.16-3.42,3.25-5.78,5.39-9.18,2.08-3.3,10.82,2.38,9.41,8.04-7.94,31.74-17.68,65.68-25.7,97.39-2.95,11.67-6.77,23.12-10.57,35.92,3.14-.58,54.12-18.27,74.89-34.89,5.19-4.15,8.81-9.2,7.8-16.53-.21-1.51,5.55-2.83,6.11-1.25,2.4,6.74.61,13.01-4.14,17.76-4.98,4.97-10.46,9.65-16.4,13.4-19.3,12.2-70.43,31.25-70.43,31.25,0,0-19.02,75.46-63.5,75.16-7.43-.05-14.49-2.65-21.2-7.3-7.06-4.88-10.73-11.86-10.35-19,1.82-34.04,83.14-54.21,83.14-54.21,0,0,19.08-63.17,26.54-90.54-17.14,32.71-24.59,42.79-30,42.34-4.12-.34-7.47-4.5-7.58-8.21-.21-7.05-.06-14.11-.06-22.95-2.35,3.42-4.07,5.47-5.29,7.79-9.09,17.29-17.89,34.74-27.19,51.91-3.53,6.52-7.95,12.59-12.39,18.54-2.57,3.45-6.16,6.25-10.99,5.07-5.54-1.35-7.19-6.38-7.26-10.85-.23-14.97-.13-29.97.68-44.91.84-15.19,2.67-30.32,4.13-46.23-12.86,11.39-43.52,73.34-55.99,112.21-7.71,1.5-8.95,1.34-9.76-4.79-1.31-9.89-1.98-19.91-2.14-29.88-.5-30.76,7.61-119.81,6.89-134.5-2.06,3.1-29.12,53.42-40.62,75.45-3.94,7.55-7.9,15.1-12.05,22.54-1.72,3.08-3.73,6.06-5.99,8.78-8.68,10.52-16.54,9.32-20.84-3.59-2.24-6.73-3.65-13.9-4.23-20.95-.81-9.95-.68-36.1-.68-41.85-2.78,4.36-24.09,50.27-33.54,70.94-2.95,6.44-6.02,12.95-9.97,18.79-5.96,8.79-13.84,8.58-17.81-1.31-5.44-13.55-8.91-27.88-12.99-41.95-1.45-4.98-2.22-10.15-3.57-16.48-4.18,3.24-4.35,2.94-4.35,2.89,0,0,0,0,0,0ZM331.27,71.17c6.92,4.16,4.55,8.75,3.86,12.56-3.05,16.82-5.96,33.69-9.82,50.32-11.24,48.54-22.78,97.01-34.52,145.43-2.17,8.95-5.65,17.59-8.94,26.2-1.38,3.6-3.56,7.4-8.34,7.07-4.73-.33-6.73-4.31-7.56-8.09-3.25-15.02-6.8-30.03-8.89-45.22-5.83-42.3-4.95-135.5-7-140.02-1.27,3.08-15.05,39.97-21.32,55.05-3.39,8.16-7.72,16.03-12.55,23.41-3.25,4.98-4.72,9.98-5.39,15.77-2.3,20.17-3.94,52.68-14.27,81.78-1.86,5.23-4.93,10.04-11.42,9.26-5.59-.67-8.87-5.22-9.77-10.24-8.78-49.14-8.13-70.97-6.68-87.22-.89,2.09-17.52,55.29-25.97,79.44-5.15,14.7-12.1,28.77-18.71,42.9-1.9,4.08-5,7.82-8.26,10.98-5.22,5.04-10.19,4.77-14.6-1.12-3.17-4.23-5.54-9.24-7.41-14.22-8.94-23.77-11.97-48.57-13.24-73.65-.25-4.89-.7-9.77-1.21-16.58-2.54,2.66-3.73,3.79-4.79,5.04-15.38,18.12-30.66,36.34-46.15,54.37-9.87,11.48-20.89,22.13-23.47,38.39l-2.43-.11c-.84-1.82-2.81-4.07-2.32-5.39,2.43-6.59,4.54-13.63,8.54-19.22,6.81-9.49,15.05-17.92,22.51-26.95,13.8-16.67,27.39-33.52,41.26-50.13,5.5-6.58,7.42-13.8,7.73-22.48,1.76-48.65,7.5-96.75,22.55-143.12,4.71-14.5,10.99-28.49,17.09-42.48,2.38-5.47,5.71-10.71,9.48-15.34,9.34-11.49,20.85-9.79,26.17,4.34,2.84,7.56,4.16,15.97,4.57,24.06.82,15.85-2.93,31.18-7.1,46.3-11.83,42.8-29.23,83.15-53.07,120.52-3.38,5.3-5.43,10.55-5.09,16.95,1.29,24.24,1.82,48.52,3.71,72.72,1.08,13.87,4.85,27.4,14.48,40.66,2.67-3.88,5.28-6.63,6.71-9.91,5.99-13.65,12.45-27.16,17.2-41.26,11.24-33.36,21.55-67.03,32.34-100.54,2.07-6.43,2.68-13.88,7.08-18.98,11.49-13.32,25.47,3.6,27.1,6.77,3.36,6.5,5.52,13.61,8.93,22.4,3.14-5.98,6.18-10.63,8.16-15.71,8.14-20.85,15.97-41.82,23.9-62.75,1.39-3.65,2.19-7.69,4.29-10.86,1.53-2.31,4.58-4.46,7.29-4.93,3.78-.65,5.56,2.74,6.09,6.14.6,3.86,1.1,7.79,1.1,11.68.11,30-.23,59.99.2,89.98.43,29.7,10.32,90.85,14.22,90.85,2.8,0,20.7-72.63,29.34-110.5,8.58-37.6,16.16-75.42,24.42-114.36Z"/>
</svg>