<?xml version="1.0" encoding="UTF-8"?>
<svg id="_レイヤー_2" data-name="レイヤー 2" xmlns="http://www.w3.org/2000/svg" viewBox="0 0 410.55 286.15">
  <defs>
    <style>
      .cls-1 {
        fill-rule: evenodd;
      }
    </style>
  </defs>
  <g id="Layer_1" data-name="Layer 1">
    <g>
      <path class="cls-1" d="M358.82,209.37c-2.01-3.36-2.38-5.01-5.49-4.85-1.17.06-1.82.88-1.24,1.81.37.6,1.08,1,1.42,1.62,2.85,5.19-4.48,1.71-5.71,9.14-.87,5.23-5.16,2.61-4.03,8.26.16.78-1.91,1.9-2.7.58-3.3-5.46-3-8,1.4-12.67,1.47-1.56,2.58-3.4,4.66-4.42,1.54-.75,2.59-5.53,1.68-5.61-2.91-.26-3.11-3.44-5.19-4.73-2.5-1.55-1-2.04,2.11-5.4-1.23-1.8-3.04-1.36-4.57-1.34-1.71.02-3.14-1.45-4.91-.8-1.8.66-2.87-1.73-4.66-1.1v.02c.38-1.01-.37-2.52,1.24-2.99,2.27-.65,4.47-3.47,6.9-.08.95,1.33,3.39-.74,6.28-2.58-.11-2.05-2.15-1.22-3.08-2.01-3.73-3.14-.2-6.07,1.14-5.06,3.48,2.63,6.54-2.91,3.76-3.25q-6.23-.75-3.21-6.4c-.42.42,3.83,3.26,3.43.46-.42-2.94.9-4.82,3.3-5.78,3.1-1.24,4.7-3.87,6.78-6.82,2.17,2.41,4.58,4.11,2.32,7.5-.19.28-.04,1.06.23,1.31,3.13,2.97,1.23,6.3.7,9.5-.3,1.78-1.58,2.93-3.01,3.91-2.41,1.65-5.88-3.32-6.82.59-2.66,10.98-1.85,9.4-1.3,11.17-.38-.35-.65-1.18-1.2-.21.37.02.74.04,1.12.06,1.54-1.55,3.99-1.65,5.43-3.47.67-.85,1.78-.65,2.48.21,1.19,1.46.3,4.28-2.17,3.63-1.75-.46-1.04,1.41-.7,1.48,11.46,2.33,4.26,3.09,10.66,1.97l-.17-.11c.76.87,1.38,2.53,2.6,2.08,5.08-1.88,4.76,7.08,9.9,4.01,1.49-.88,2.38,3.42,1.67,5.27-1.37,3.62-8.47,4.29-8.25.76.13-2.09-1.73-1.92-2.76-2.68.09.56-.32.52-.23.23.3-.91-.5.04.46-.08-.14.91-.25,1.82-.41,2.72-1.02,5.78-5.69-3.46-6.97,1.74-.7,2.81-3.89,1.56-2.91,2.38ZM356.21,202.39c3.42-4.01,2.86-7.33-5.48-8.27-2.49-.28-3.55,5.37-.81,4.9,2.95-.5,4.58,1.56,6.29,3.37ZM351.31,169.24c6.67,4.32,5.8,4.81,4.95-7.1-1.95,2.8-3.27,4.7-4.95,7.1ZM363.49,198.98c.08-1.75-2.21-2.31-2.42-.25-.22,2.13,2.19,1.96,2.42.25Z"/>
      <path class="cls-1" d="M321.21,146.88c4.01-3.98,1.67-8.86-1.67-5.84-2.8,2.51-5.58.58-3.82-2.65.48-.87.81-1.89-.24-2.43-.61-.32-2.51.84-2.59.86-1.64.46-3.13-.34-3.2-1.77-.55-11.73,6.51-.97,10.84-11.33.74-1.76,2.31-1.73,3.28-.22,6.34,9.83-1.07,4.82-2.04,5.43-1.03.64-.31,1.73-.23,2.64.15,1.71,1.49,2.57,2.76,3.08,7.25,2.93,1.32,6.65,7.96-.86,1.74-1.97,4.49,4.22,4.97,5.61,1.07,3.1,1.47,6.4,3.54,9.16.73.97-.63,2.38-1.9,2.27-2.27-.2-3.57-2.26-5.65-2.86-1.05-.3-.67-4.33-.85-5.47-.11-.76-1.2-1.26-1.62-.81-9.84,10.56-5.25,11.27-10.97,9.77-1.07-.28-1.86.74-1.42,1.69,4.45,9.67,3.91.61,8.59,6.25,1.83,2.2-2.62,6.66-3.82,3.85-.88-2.08-2.42-2.54-4.21-3.26-1.43-.58-5.28-7.49-5.32-.44-.02,3.94-4.6,12.28-7.2,9.37-2.2-2.47.85-3.69,2.03-5.22,1.02-1.32.73-2.94-2.1-2.92-2.4,0-3.31,3.77-5.6,1.29-3.72-4.03,8.91-4.58,4.77-10.28-.54-.74.45-2.35,1.29-2.07,7.01,2.36,6.39-9.46,14.57-2.75.09-.02.93-.37-.11-.06Z"/>
      <path class="cls-1" d="M305.04,207.9c7.33-3.16,5.92-9.57,7.2-15.2.39-1.68,2.08-2.91,3.02-2.02,2.25,2.15,3.71,1.35,5.27-.68,1.14-1.49,2.67-.17,2.76,1.49.26,4.76-2.98,3.68-6.51,4.34-3,.56-2.43,8.75-1.16,10.34,5.25,6.59,3.96,4.09,7.15,1.85,1.02-.72,2.17-1.33,3.23-.22,2.77,2.9,1.35,3.66-1.62,8.19-7.39-2.7-4.23-4.14-7.58-.04-2.9,3.56-5.43-1.53-9.45,3.66-2.7,3.49-7.89-2.43-10.58,5.09-1.47,4.11-3.06-3.06-5.67-2.45-6.73,1.59-3.88,1.8-8.45,7.91-1.29,1.73-4.73.25-3.98-3.41.35-1.73,5.92.31,5.65-4.48-.42-7.48-3.21-10.03,1.9-12.1,1.28-.52,2.47.43,2.18,1.84-.24,1.16-.73,2.27-1.07,3.42-1.12,3.74,3.94,3.36,4.67,3.52,9.2,1.94-1.95-6.34,5.29-10.28,2.89-1.57-1.47-3.23.39-6.37,1.22-2.04,3.28-1.5,3.19-.31-.34,4.52,5.8,5.27,3.82,5.85l.36.06ZM302.98,214.36c4.66,2.12,5.62-2.02,5.16-2.92-.39-.76-1.39-.61-1.56.14-.45,2-2.8,1.32-3.6,2.78Z"/>
      <path class="cls-1" d="M268.65,93.07c-.28-7-.34-3.75,9.63-5.98,1.15,2.16-1.15,3.51-.27,5.22,7.35,1.87,3.94-3.92,7.12-3.41.91.15,1.53,1.67,2.43,2.37,3.64,2.82,1.12-6.1,9.35-3.13.89.32,2.08.35,1.62,1.67-.79,2.29-2.16,2.73-3.71,2.4-4.79-1.02-4.07,5.69-10.9,2.61-1.06-.48-2.34,2.52-.63,3.09.44.15.95.06,1.42.14,7.83,1.45-2.8,4.66,1.44,9.72,1.66,1.98,3.62,1.07,5.78-.35,3.9-2.58,5.11-2.08,8.75,1.41,1.94,1.87,3.1,4.27,4.28,6.62,1.59,3.17-3.17,4.69-4.08,2.61-1.65-3.79-5.49-3.33-8.37-4.72-2.9-1.4-4.25,2.43-6,1.08-1.86-1.44-4.17-2.46-5.28-4.7-.72-1.45,2.35-2.76.32-4.36-3.73-2.93.92-8.53-5.42-8.74-2.58-.08-8.94-5.16-7.46-3.58Z"/>
      <path class="cls-1" d="M342.02,157.55c1.61,1.86-.64,4.49.71,5.38,1.97,1.29.78,5.68,1.87,4.59-5.67,2.74-3.24,1.54-8.01,1.66-7.09,11.11-7.25,13.43-10.76,9.5-.52-.59-.02-.74-.75-.46l.55-.05c-.16,1.65-.22,3.33-.5,4.96-.91,5.33-6.94,5.14-9.2,1.7-1.34-2.05,2.18-1.91,2.61-2.05,3.92-1.31-1.19-3.61-.84-5.57,1.34-7.38-6.42-5.8-3.98-10.3.58-1.07,1.46-2.14,2.77-1.95,1.35.2,3.3.13,3.8,1.49,2.12,5.73,4.85-3.29,7.55,2.93.14.31.48,1.88,1.87,1.64.34-.06.91-.62.86-.83-1.27-4.77,2.64-7.29,4.56-10.66-.28.28-1.32.54,6.88-1.98Z"/>
      <path class="cls-1" d="M201.35,208.58c1.12.85,2.68,1.43,2.57,3.19-.16,2.46-3.28,6.44-6.47,3.27-2.03-2.01-2.03-1.91-4.05-.25-6.28,5.16-5.86,4.42-7.01,4.1-.61-.17-.83-.67-.37-1.12,3.74-3.74,3.35-9.26,5.88-13.54,1.57-2.66-.63-6.42.81-7.56,2.72-2.15,7.52-.26,7.68-5.53.11-3.65,5.39-5.33,8.73-6.75,2.85,1.52,3.37,5.12,5.99,6.92.73.5.35,1.85-.46,2.53-3.03,2.59-2.59-2.53-4.73-2.11-.18.04-.48.32-.46.38,1.22,2.85-3.17,3.04-2.64,5.97.75,4.14-3.92,2.04-4.35,2.06-2.61.12-2.67,1.03-1.71,2.29,1.48,1.94,3.04,2.48.77,6.36-.38.2-.78.38-1.14.6-.06.04-.04.38-.02.39.97.14.78-.69.98-1.2ZM196.04,206.68c1.98-.04,1.09-2.27.17-2.13-.66.1-1.44.45-1.19,1.35.09.33.67.53,1.02.78Z"/>
      <path class="cls-1" d="M255.21,192.46c4.78,2.73,6.53-4.3,10.41-5.82,1.97-.78,3.16.85,2.65,1.98-1.09,2.39-3.19,3.5-.25,6.15,4.22,3.82-3.22,7.7-3.99,3.87-.09-.46.08-.97.02-1.44-.29-2.02-1.41-2.81-2.66-1.7-1.75,1.55-4.02,2.36-5.29,4.68-1.38,2.53-2.43,2.29-3.86-.26-1.37-2.44-1.6-2.51-3.51-.99-.19.15-.38.33-.48.54-.88,2-3.43.83-4.17,1.85-.86,1.18-.5,3.22-.8,4.86-.29,1.55-2.88.63-2.81.01.8-6.56-5.5-7.66,4.56-19.51,1-1.18,2.82-2.02,4.38-2.26,3.59-.56,6.79-6.3,7.19,3.57.07,1.75-1.05,2.37-2.89,1.69-.73-.27-1.27-1.89-2.22-.54-1.19,1.68-1.12,4.39,1.49,3.9.7-.13,1.38-.35,2.24-.58ZM244.43,196.88c1.86-.49,3.57-5.02,1.96-4.71-1.53.29-3.63,3.43-1.96,4.71Z"/>
      <path class="cls-1" d="M365.86,193.06c-3.62-3.37-.7-7.91-3.07-9.09-4.31-2.15-2.74-3.1-.14-5.37,4.46-3.88,2.26-5.15,4.41-9.45.5-1,1.93-1.25,2.25-.34,1.2,3.5,3.32,4.48,6.62,2.78,2.44-1.26,4.26,2.21,3.42,3.62-1.36,2.3-2.56,1.07-8.77.62-2.91-.21-2.47,4.72.77,5.45,2.7.61,5.24,1.25,4.93,4.87,0,.03,1,.28,1.08.15,1.18-1.94,2.24-6.23,4.25-3.12,2.31,3.59,5.6,8.15,2.38,8.3-2.06.09-4.08.65-6.18-.79-2.35-1.62-5.13-2.47-7.59.29-2.17,2.44-5.09,1.57-4.36,2.06Z"/>
      <path class="cls-1" d="M337.19,119.19q-4.5,3-7.3-1.8c-1.99-3.41-1.63-9.71.67-12.09,1.03-1.06,4.58-1.41,6.06-.59.72.4,1.06,2.05.42,2.54-.23.18-7.26,3.12-4.17,9.05.7,1.35,3.94,1.45,3.51-.74-.54-2.72.35-4.7,3.47-5.92,1.52,1.12.75,3.49,2.06,4.82,1.36,1.38-.3,4.21,1.82,5.1,1.44.61,3.29.18,4.95.33,1.52.13,2.3,1.66,1.35,3.15-.81,1.28-1.2,2.2-.79,3.86,1.08,4.39-5.67,5.7-5.77,3.79-.25-4.86-4.18-7.68-6.29-11.5Z"/>
      <path class="cls-1" d="M211.34,11.07c.71-2.27.98-4.53,3.37-5.16.63-.17,1.97.11,1.98.22.2,4.9,2.76,3.52-2.84,10.89-2.29,3.02-3.84-.57-5.76-3.67-2.19,0-2.38,3.12-4.62,3-1.88-.11-2.92,1.77-4.53,1.97-1.92.24-3.96-1.52-5.7,1.12-1.28,1.94-4.19.38-6.04,1.77-2.89,2.18-11.13-2.34-5.48-4.89,2.64-1.19,5.09,1.32,7.74.26,13.83-5.54,9.73,1.85,13.99-7.09,2.23-4.66,5.03-2.63,7.9,1.59Z"/>
      <path class="cls-1" d="M283.81,135.88c2,2.37,5.49,1.28,7.7,3.36.82.77,2.15,1,3.25,1.46,6.46,2.7,3.51,5.76,5.16,5.19,2.32-.8-.27-2.14,1.15-4.05,2.91-3.9,6.23,2.22,4.48,5.71-3.31,6.57-7.25,1.53-12.87,1.71-1.95.06-3.03-1.27-4.03-2.66-1.09-1.5-.02-2.63.59-3.93,1.79-3.74-5.2.23-12.86-.93-2.59-.39-2.97-2.58-1.29-4.17,5.49-5.19,5.1.8,8.95-1.46l-.23-.22Z"/>
      <path class="cls-1" d="M201.68,166.95c-5.57-4.9-2.6,4.59-11.13-.92-1.75-1.13-.07-4.03,1.12-5.6,1.38-1.82,1.99-4.46,4.75-5.01.95,1.95-2.62,6.57.57,7.04,7.23,1.08,3.2-7.54,6.12-8.39,1.05-.31,3.44,1.65,3.18,5.42-.35,5.18,3.62,2.09,7.93,1.65,2.32-.23,1.77,2.36,1.4,2.92-4.18,6.27-9.09-2.31-9.44,2.38,1.11-1.23-2.65,2.14-4.49.53Z"/>
      <path class="cls-1" d="M274.46,41.32c2.44.05,4.07,2.37,6.67,2.24,2.05-.1,3.6,5.09,1.68,4.88-2.93-.31-3.67,3.64-5.91,3.25-3.15-.55-1.28-4.31-2.74-6-1.68-1.95-1.6-5.15-4.56-6.18-.54-.18-1.22-1.15-1.16-1.68.28-2.32-1.23-4.08-1.66-6.14-.58-2.76,2.68-4.48,3.83-.57.34,1.16-.98,3.18,1.46,3.29,1.39.07,1.63-1.62,2.62-2.18,2.74-1.55,4.45,3.16,4.42,6.32-.02,1.69-3.05,2.23-4.68,2.76.07-.09,1.52-1.53.59-1.92-.59-.24-.41.45-.57,1.92Z"/>
      <path class="cls-1" d="M260.48,215.42c5.25-.05,3.43,2.31,1.14,7.42,1.39.4,4.89,1.25,3.54,2.59-3.8,3.82-1.64,9.9-5.03,7.96-1.45-.83-4.32-5.13-5.84-1.12-.72,1.91-1.55,2.8-3.71,2.01-1.32-.48-2.82-.42-4.18-.79-3.45-.92,3.06-3.67,4.83-7.34,1.1-2.29,8.62,3.73,7.3-4.36-.48-2.94,2.52-4.06,2.09-6.55l-.15.17Z"/>
      <path class="cls-1" d="M96.56,205.1c-.24,2.96-4.04,3.69-4.11,5.5-.05,1.4.43,3.31-1.29,3.76-2.37.61-3.88,2.98-6.47,2.87-.96-.04-2.33-1.32-1.24-2.49,1.43-1.53,4.13-2.7,2.3-5.94-.75-1.32.18-3.34-2.02-4.2-1.28-.5-.77-1.36.34-1.81,4.02-1.61.83-3.09,1.36-5.2.3-1.22,2.16-2.61,3.12-1,1.14,1.92,1.3,4.21,5.04,6.73.95.64,2.38.51,2.97,1.78ZM89.52,204.92c-.33-1.12-.99-.83-1.08-.07-.09.76.87,1.07,1.08.07Z"/>
      <path class="cls-1" d="M43.79,184.64c4.09.02.78,3.42,2.6,8.55,2.41,6.83,10.6-3.54,12.95-.04,1.61,2.38-5.16,4.16-1.83,7.33.78.75,4.58,3.15,2.53,5-2.24,2.03-2.6-2.9-3.58-2.96-5.82-.36-8.52-7.54-14.35-4.33-.86.47-1.9.74-2.7,0-.93-.87-.04-1.61.35-2.44.04-.08,5.95-12.26,4.04-11.11Z"/>
      <path class="cls-1" d="M259.93,53.63c-.24.91-.63,1.82-.67,2.75-.08,1.59,1.11,2.86,2.54,2.65,1.94-.29,4.42-2.36,5.02-.18.58,2.12-.62,3.59-1.64,2.95-2.87-1.81-6.23.57-9.11-1.16-.49-.29-1.58-.2-2.03.16-4.8,3.78-10.05,1.84-12.26,4.84-1.52,2.06-3.77-.64-2.02-2.53.47-.51,1.3-.69,1.74-1.21,2.24-2.66,2.93-3.02,6.1-2.87,6.06.3,1.3-6.97,6.32-5.31,1.88.62,4.14.11,6.24.1l-.22-.19Z"/>
      <path class="cls-1" d="M272.72,132.96c-3.29,0-3.77-5.58-5.89-2.51-.41.58-.54,1.36-.96,1.92-2.95,3.86-8.85-3.36-1-5.71,10.1-3.02.39-6.79,9-7.54,2.07-.18,4.74,1.81,3.67,3.11-2.16,2.61-4.1,2.94-2.13,4.83,3.05,2.93,1.17,3.46-2.69,5.9Z"/>
      <path class="cls-1" d="M268.13,148.26c3.95,3.25-7.58,3.64-3.93,9.58,2.29,3.72-2.47,4.27-.62,6.16,1.03,1.05,4.66-1.82,4.53,2.46-.16,5.24-6.49,1.87-11.1-.65-1.83-1,1.72-4.38,2.41-5.3,2.43-3.21-1.97-3.59.12-5.73,1.66-1.7,1.98-4.5,4.43-5.46,1.33-.52,2.8-.72,4.16-1.05Z"/>
      <path class="cls-1" d="M265.56,250.91c3.99-4.65,3.92-5.75,6.51-2.72,2.14,2.49,2.22-.42,4.98-1.32.76-.25,3.25.6,2.24,2.42-2.41,4.36-4.34,8.89-6.58,7.34-3.32-2.29-9.08-1.67-7.01-5.88,0,0-.13.15-.13.16Z"/>
      <path class="cls-1" d="M178.45,209.15c.07,2.09.15,3.55-.68,4.83-2.48,3.82,4.75,1.26,3.79,6.74-.26,1.48,1.04,1.92,1.81,2.77,2.47,2.72-4.55,6.16-4.05,1.35.17-1.64.33-2.67-1.62-3.15-2.86-.69-4.91-2.64-3.99-4.45,1.28-2.53,1-8.15,2.63-9.2,2.59-1.65,2.11,1.58,2.11,1.09Z"/>
      <path class="cls-1" d="M217.03,205.73c-3.88,9.62-4.47,5.11-8.38,3.31-1.31-.6-1.35-2.32.9-2.67,4.72-.74-1.34-1.84-.32-4.86,1.83-5.42,9.75-.6,7.8,4.22Z"/>
      <path class="cls-1" d="M222.91,45.44c4.89,2.66.25-4,5.61-4.93,3.16-.54,4.75-1.08,5.21.39.59,1.87-2.27,1.59-2.16,6.13.07,2.85-3.98,4.76-6.37,3.24-1.28-.81-2.7-.88-3.86-1.62-1.3-.84-1.41-4.01,1.57-3.21Z"/>
      <path class="cls-1" d="M324.31,96.12c0,.62-.2,1.62.04,2.5.4,1.45,1.13,2.68,3.06,1.76,1.95-.93,4.16,3.19,1.14,3.82-2.01.42-3.97-1.6-6.05-.19-1.29.88-4.5-6.51-3.74-8.58,1.32-3.6,6.54-4.02,5.56.69Z"/>
      <path class="cls-1" d="M294.44,199.68c-.19-.6-.75-1.55-.53-1.8,2.61-2.99,4.47-6.59,7.86-8.97,2.44-1.71,6.03-.39,6.36.57.62,1.75-4.6,5.11-5.85,5.58-5.17,1.92-4.84,4.2-7.84,4.62Z"/>
      <path class="cls-1" d="M279.86,53.83c4.42,5.62,7.48-2.61,8.45.46.69,2.18,2.61,1.65,4.1,2.15,2.2.75.74,4.53-.88,4.13-3.66-.9-7.45-.49-11.1-1.28-1.7-.37-3.31-3.36-2.93-5.17.12-.55,1.83-.98,2.37-.3Z"/>
      <path class="cls-1" d="M289.79,63.8c.99,2.98.59,4.49,3.6,3.65,4.92-1.39.6,2.99,3.96,7.83.82,1.17-1.94,3.83-3.68,1.19-.92-1.39.13-7.08-6.54-6.95-4.26.09-.6-5.65,2.66-5.72Z"/>
      <path class="cls-1" d="M211.14,225.1c-3.65,2.3-8.34,2.09-11.81,4.87-.64.51-2.24-.62-2.01-1.39,1.2-3.98,2.37-9.76,6.12-7.07,2.98,2.15,1.13,3.7,4.94,2.4,1.22-.42,2.38-.39,2.76,1.22v-.03Z"/>
      <path class="cls-1" d="M356.98,144.9c-7.51-1.97-7.81-9.14-4.81-8.37,1.02.26,2.26,2.16,3.82.77,2.18-1.96-1.09-2.38-.63-5.07.23-1.32,1-2.21,2.19-2.61.77-.26,2.15,1.64,1.76,2.71-1.34,3.71-.73,7.56-1,11.35l.21-.2c-1.75.1-1.98,2.06-1.53,1.42Z"/>
      <path class="cls-1" d="M101.5,209.23c3.87-.47,1.61,2.32,9.26,4.69,2.69.83.59,4.09-1.19,3.56-8.94-2.68-12.49-3.84-11.69-6.28.46-1.4,2.15-1.78,3.62-1.96Z"/>
      <path class="cls-1" d="M309.76,102.17c4.09-.19,8.21-1.05,8.05,1.85-.08,1.4-1.63,3.04-2.77,2.59-4.08-1.58-4.68,1.36-7.54.05-2.99-1.37-.28-4.42-1.82-6.45-1.05-1.38,4.63-4.47,4.71-.74.02.88-.39,1.76-.62,2.7Z"/>
      <path class="cls-1" d="M152.75,227.25c-3.49.2-3.19-2.54-3.01-2.82,1.33-2.09-2.14-4-.24-6.09,1.39-1.52,3.73-.54,5.23-2.05,2.13-2.15,3.98,2.67,3.16,5.18-1.31,3.97-4.03-1.08-4.49,2.37-.39,2.89-1.17,3.91-.65,3.42Z"/>
      <path class="cls-1" d="M304.27,93.9c-1.75,5.7-1.97,7.84-3.87,7.42-5.62-1.23-7.43-2.08-7.12-4.49.14-1.09.98-2.05,1.8-1.9,3.24.61,6.69-4.59,9.2-1.04Z"/>
      <path class="cls-1" d="M225.14,228.3c1.94,1.51,2.21,2.71,4.78,2.52,6.56-.5-1.2,9.92-4.31,4.28-1.02-1.86-2.58-.35-3.85-.6-3.7-.74,1.45-6.53,3.39-6.19Z"/>
      <path class="cls-1" d="M252.06,139.61c-1.94-1.56-3.5.18-5.18.92-2.47,1.08-3.57-2.58-1.43-3.23,2.72-.83,5.1-3.48,8.45-1.31,1.49.96,3.12-.88,4.78-.87,3.3.03-1.85,8.34-6.62,4.49Z"/>
      <path class="cls-1" d="M200.29,83.08c1.15-2.03,3.08-3.59,3.19-6.25.15-3.68,5.49,1.72,11.28.51.88-.18-.22-.31.25.52.13.23-.19.95-.5,1.14-3.49,2.23-6.81-1.69-8.12,2.51-1.67,5.34-7.38,3.83-6.1,1.57Z"/>
      <path class="cls-1" d="M43.7,165.87c-.52-.41-2.46-1.34-.9-2.9,1.83-1.84,5.35.59,7.45-5.17.48-1.31,2.4-.22,2.67.57,2.21,6.51,1.89,6.89-4.99,5.89-1.57-.22-.9.69-4.23,1.61Z"/>
      <path class="cls-1" d="M368.56,158.92c-1.75,8.96-8.31,3.7-4.69-6.95,1.06-3.13,4.39,2.98,4.69,6.95Z"/>
      <path class="cls-1" d="M220.55,4.68c2.88-1.09,5.03-.35,7.13-.48,1.24,1.4-.27,2.13-.7,3.06-1.03,2.18.83,2.95,1.83,4.2,1.09,1.37.4,2.71-1.43,3.01-4.07.68-3.83-.98-6.83-9.79Z"/>
      <path class="cls-1" d="M275.2,68.74c-4.14,5.42-5.65,6.41.66,6.6,1.23.04,3-1.74,3.58.51.67,2.6-7.56,6.95-9.51.91q-2.31-7.16,5.3-8.02h-.03Z"/>
      <path class="cls-1" d="M296.01,163.6c.34,4.75-3.5,3.57-5.12,5.88-1.66,2.37-4.39.16-3.23-2.33,1.2-2.56-.61-4.01,1.06-5.41,2.06-1.72,4.08.65,6.19.16.75-.17.97.84,1.09,1.69Z"/>
      <path class="cls-1" d="M68.31,214.43c-.5.84-1.36,1.38-1.79.91-2-2.15-4.57-2.29-7.21-2.5-1.24-.1-1.73-1.65-1.02-2.77,1.63-2.55,7.34-2.99,7.6-2.06.62,2.25,2.74,3.98,2.42,6.41Z"/>
      <path class="cls-1" d="M247.11,105.64c6.23-.43,7.58-4.84,9.21-3.49,2.04,1.72-2.05,4.2-2.05,6.88,0,1.63-3.51.3-8.07.9-1.79.24-.89-4.17.91-4.29Z"/>
      <path class="cls-1" d="M255.01,89.46c-9.62,5.46-9.74-5.57-3.93-5.83,5.9-.27,6.16,4.57,3.93,5.83Z"/>
      <path class="cls-1" d="M225.08,204.94c.43-4.95,4.07.15,7.31-1.98,3.28-2.15,3.04,3.38,1.5,4.04-4.96,2.15-9.3,3.48-8.82-2.06Z"/>
      <path class="cls-1" d="M184.39,201.24c-1.73-1.37-3.58,2.54-4.97.03-1.32-2.36,5.74-11.37,7.11-7.36.38,1.11-.19,2.22.36,3.44,1.9,4.17,1.8,4.22-2.49,3.89Z"/>
      <path class="cls-1" d="M254.36,43.52c-7.23-2.17-9.9-2.29-9.73-5.24.09-1.52,1.38-1.76,1.68-1.46,1.48,1.46,2.89,2.64,4.7.41.12-.15,1-.01,1.14.22,2.96,5.07,6.43,3.09,5.03,5-.42.56-.22.41-2.83,1.08Z"/>
      <path class="cls-1" d="M275.24,228.01c.16,2.04.65,3.95-1.52,4.09-3.91.26-1.24-5.24-5.37-8.2-1.32-.94,1.33-4.78,3.72-2.88,2.23,1.77,4.07,3.9,3.17,6.98Z"/>
      <path class="cls-1" d="M123.17,218.84c-1.39,4.56-5.44-1.45-5.92,4.85-.35,4.56-7.91-2.43-4.74-4.3,7.44-4.38,10.98-1.64,10.65-.55Z"/>
      <path class="cls-1" d="M237.5,162.19c-3.52.66-3.13-6.22,3.95-10.54.6-.37,1.9.31,1.86,1.4-.14,3.7-2.25.54-4.43,8.12-.15.51-1.06.79-1.38,1.01Z"/>
      <path class="cls-1" d="M335.14,159.54c-2.32.69-4.16-.47-6.03-1.56-2.65-1.52-2.93-2.52-1.38-5.14,2.45-4.13,2.98,1.93,5.91,2.4,3.26.53,2.52.63,1.31,4.49,0,0,.19-.19.19-.19Z"/>
      <path class="cls-1" d="M197.68,169.28c-5.78,7.48-7.93.96-12.64,2.83-1.1.44-2.18-1.25-1.7-2.38,1.12-2.66,3.73-3.77,5.54-1.98,2.21,2.19,4.66,2.96,8.8,1.54Z"/>
      <path class="cls-1" d="M136.38,224.8c-.42-.57-3.08-3.62-1.3-4,3.45-.74,5.44-5.21,7.6-5.92,2.24-.74,3.39,1.79,2.44,2.74-8.37,8.34-6.93,6.86-8.74,7.19Z"/>
      <path class="cls-1" d="M239.89,133.38c-2.69-.57.1.22-4.55-3.94-1.23-1.1-.57-3.07,1.02-3.01,1.81.07,3.21-.78,4.79-1.23,1.06-.3,2.09.54,1.75,1.46-2.28,6.06-.75,6.28-3,6.72Z"/>
      <path class="cls-1" d="M313.6,116.48c1.83,2.19-.03,6.04-2.2,5.11-5.05-2.17-5.75-14.66,2.2-5.11Z"/>
      <path class="cls-1" d="M146.5,232.44c-5.43-3.27-8.79.45-8.8-1.7,0-.42.19-1.14.45-1.21,2.72-.84,5.38-2.21,8.38-1.43,1.36,2.99,4.16.72,6.08,1.68-1.02-1-1.69,5.32-6.1,2.67Z"/>
      <path class="cls-1" d="M374.75,143.86c10.85,12.18,2.63,14.23,2.53,11.93-.21-4.66-7.02-7.68-2.53-11.93Z"/>
      <path class="cls-1" d="M284.67,126.05c-2.3,1.97-4.18-.17-3.01-2.64,1.52-3.2,2.2-6.13,4.63-5.1,4.41,1.88,2,4.64-1.62,7.73Z"/>
      <path class="cls-1" d="M201.6,92.45c3.38-6.44,9.68-8.06,7.62-2.63-2.85,7.52-9.19,5.62-7.62,2.63Z"/>
      <path class="cls-1" d="M189.65,108.39c-1.1,1.53.71,1.3-8.39,3.67-1.19.31-1.72-1.97-1.31-2.61,1.93-3.02,9.6-5.07,9.7-1.06Z"/>
      <path class="cls-1" d="M163.36,172.91c-.42,3.16-6.76,1.44-7.84,1.55-1.21.12-7.3,3.16-6.72-1.23.22-1.69,1.79-3.45,2.57-2.82,3.58,2.91,8.09,1.38,11.99,2.49Z"/>
      <path class="cls-1" d="M129.04,226.95c-.42,3.45-1.94,3.32-4.35,2.82-2.17-.46-1.6-3.47-3.85-3.88-1.72-.31-.1-2.94,1.7-3.5.95-.3,6.1,2.39,6.5,4.56Z"/>
      <path class="cls-1" d="M248.85,168.45c-.35.52-.76,1.37-1.39,2.02-.82.85-2.67.45-2.96-.64-1.85-7.04-1.81-7.57-1.06-8.13,1.42-1.08,4.59,2.48,5.41,6.75Z"/>
      <path class="cls-1" d="M352.4,145.7c.64,2.78.07,5.74,1.32,8.45.36.77-.57,1.75-1.62,2.02-4.5,1.16-5.2-9.84.3-10.47Z"/>
      <path class="cls-1" d="M284.05,136.1c.88-1.89-1.06-3.51-.81-5.26,2.02-.93,3.8.37,5.67-.49,2.22-1.01,4.5,3.79,2.33,4.71-6.9,2.9-8.18.12-7.19,1.04Z"/>
      <path class="cls-1" d="M226.83,71c2.02,1.61,1.62,3.75,2.5,5.38.76,1.41-.28,2.65-1.3,3.7-1.91,1.96-4.62.31-3.79-2.13.75-2.19.66-4.69,2.59-6.95Z"/>
      <path class="cls-1" d="M264.01,115c-1.75.79-3.28,1.67-4.04,3.6-.03.09-2.27,1.02-2.6-1.95-.25-2.27,2.4.31,3.9-6.88.28-1.36,2.12-.32,2.26-.02.63,1.38,1.87,4.62.47,5.25Z"/>
      <path class="cls-1" d="M115.68,76.8c1.21.69,2.81.95,3.07,2.68.2,1.29-.45,2.28-1.29,3.19-1.13,1.23-2.91,4.67-5.67,2.15-2.36-2.15,2.87-4.18,2.57-6.6-.53.32,2.25-2.28,1.32-1.42Z"/>
      <path class="cls-1" d="M97.48,195.01c-.84-2.55,3.5-1.42,7.29-4.41.76-.6,1.83.2,1.89,1.25.19,3.19-.4,3.89-3.33,3.94-3.97.06-5.32.79-5.84-.78Z"/>
      <path class="cls-1" d="M71.28,139.49c-2.17-.22-4.83-.03-4.52-1.95.4-2.41,2.82-5.29,3.86-3.33,1.45,2.74,4.35-1,4.66,2.64.13,1.61-1,2.9-2.45,2.92-.23,0-.47-.08-1.54-.28Z"/>
      <path class="cls-1" d="M139.87,54.8c-1.76.01-2.65-1.55-2.24-2.19.38-.58.8-1.4,1.36-1.55,6.99-1.89,7.59-1.56,7.88-.59.39,1.33-.33,1.3-7,4.33Z"/>
      <path class="cls-1" d="M247.64,18.46c-4.95-.29-2.93-5.82-1.04-6.6,2.24-.93,8.02,7.48,1.04,6.6Z"/>
      <path class="cls-1" d="M260.16,53.82c-2.33-2.05-1.96-4.65-1.4-7.24.66-3,4.11,2.62,5.61,5.05.16.26-.52,1.45-.99,1.59-2.11.64-3.87.04-3.22.6Z"/>
      <path class="cls-1" d="M315.26,86.55c-.63,1.24-.68,2.45-2.92,2.78-.24.03-.74-.58-.85-.98-.41-1.46.52-3.31-1.65-4.23-2.14-.91-.39-4.26,1.05-4.18,5.45.29,3.06,4.83,4.37,6.62Z"/>
      <path class="cls-1" d="M383.9,163.17c1.49,2.04,2.83,6.27.3,7.59-1.91,1-5.33-1.5-3.94-4.73.68-1.58,1.71-2.77,3.65-2.86Z"/>
      <path class="cls-1" d="M395.45,209.68c6.88.1,6.49,8.47,3.06,6.9-2.3-1.05-3.86-2.68-3.86-5.34,0-.55.55-1.1.8-1.56Z"/>
      <path class="cls-1" d="M159,228.66c-.45-.42-1.51-1.2-1.11-1.67,3.88-4.52,5.58-6.99,7.16-4.98,2.58,3.3-2.24,4.75-6.05,6.65Z"/>
      <path class="cls-1" d="M235.05,8.32c.99-.69,2.08-1.61,3.26-.75,1.35.97,3.44.59,4.25,2.37.66,1.43-3.34,4.59-5.83,1.45-1.25-1.57-1.18-3.63-1.68-3.06Z"/>
      <path class="cls-1" d="M72.31,215.48c-2.78-2.55-2.22-2.6,2.06-6.75.78-.76,1.62-.78,2.49-.09,4.07,3.25-2.59,6.84-4.55,6.84Z"/>
      <path class="cls-1" d="M358.44,252.74c.47.05,1.12-.07,1.37.19,1.97,2.02,2.59,4.49,1.9,7.19-.29,1.14-2.66,2.11-3.22.25-1.05-3.5-2.81-7.16-.06-7.63Z"/>
      <path class="cls-1" d="M358.58,209.18c-.03,4.18,4.94,3.18,3.98,5.94-.5,1.43-3.15,1.25-4.49.97-3.89-.82-3.33-6.07-.61-6.99.59-.2,1.82.65,1.13.08Z"/>
      <path class="cls-1" d="M261.88,74.47c-.94,4.56-.87,5.51-2.22,5.72-2.48.4-4.71-3.67-3.31-5.69.74-1.06,1.58-.64,5.53-.04Z"/>
      <path class="cls-1" d="M170.07,208.39c2.55,2.27,3.19-.36.09,11.21-.11.42-1.6,1.03-2.08-.4-1.07-3.15,1.4-4.17.3-8.16-.36-1.31,2.49-3.46,1.69-2.65Z"/>
      <path class="cls-1" d="M385.45,206.87c-2.61-2.38-2.72-9.82,2.69-7.57.72.3,1.26,1.03.86,1.62-1.3,1.9-.89,4.87-3.64,5.83l.1.11Z"/>
      <path class="cls-1" d="M335.03,214.8c1.1.42,1.28,2.14.43,2.95-1.71,1.64-5.78,2.64-6.44-.2-.75-3.26,2.82-3.97,6.01-2.74Z"/>
      <path class="cls-1" d="M265.69,250.76c-3.42,2.26-6.28.17-9.2-1.24-1.85-.9-.7-3.56,1.28-2.73,2.71,1.14,6.28.73,7.78,4.13,0,0,.13-.16.13-.16Z"/>
      <path class="cls-1" d="M148.44,45.39c1.07-4.43,10.94-8.18,10.32-5.7-.31,1.21-1.2,2.14-2.45,2.27-4.17.43-3.3,6.36-7.87,3.43Z"/>
      <path class="cls-1" d="M300.44,131.8c-.21,6.3-7.4,4.8-4.81-.09.62-1.17,1-3.18,2.71-2.54,1.11.42,2.11,1.93,2.09,2.63Z"/>
      <path class="cls-1" d="M134.38,54.81c-1.69,4.83-1.79,7.58-4.67,6.22-3.43-1.62-.45-5.83,3.27-7.04.27-.09.74.42,1.41.83Z"/>
      <path class="cls-1" d="M280.49,164.91c5.3-.18,4.74,6.51,2.13,6.25-3.61-.36-6.75-6.09-2.13-6.25Z"/>
      <path class="cls-1" d="M206.17,166.43c3.56,1.29,6.37,6.46,3.03,8.21-3.11,1.63-4.43-4.17-2.87-8.39.01-.01-.16.18-.16.18Z"/>
      <path class="cls-1" d="M67.24,175.74c3.28,4.08,5.93,5.99,2.75,8.01-2.23,1.42-5.36-1.61-2.75-8.01Z"/>
      <path class="cls-1" d="M326.75,206.27c-1.65-.39-1.34-1.7-1.1-1.95,9.03-9.08,5.57-3.17,9.01-4.88-.77-.33-4.34,7.67-7.91,6.82Z"/>
      <path class="cls-1" d="M358.3,143.68c2.94-.45,3.14,2.33,4.33,3.83.54.69-1.34,2.43-2.84,2.6-4.62.56-1.81-6.62-3-4.94,1.19-.08,2.14-2.11,1.51-1.5Z"/>
      <path class="cls-1" d="M219.69,216.57c-1.55,8.09-6.07-.54-3.73-3.75.95-1.31,2.86-1.32,3.19.26.25,1.14.36,2.31.53,3.49Z"/>
      <path class="cls-1" d="M210.86,161.73c-4.46-6.55-2.66-6.35,5.28-7.42-6.06,8.42-5.5,7.56-5.28,7.42Z"/>
      <path class="cls-1" d="M202.6,144.38c.9,2.51-.02,4.92-2.33,5.88-.71.29-3.33-.41-2.72-2.16,1.68-4.82,4.59-5.01,5.06-3.72Z"/>
      <path class="cls-1" d="M334.66,199.45c-.65-1-1.68-1.92-1.88-3-.93-5.01,7.47-4.76,6.04-.68-.78,2.23-5.11,3.28-4.17,3.68Z"/>
      <path class="cls-1" d="M324.03,256.78c-.36,7.5-8.44-1.68-3.68-3.46,2.8-1.05,3.28,2.02,3.68,3.46Z"/>
      <path class="cls-1" d="M241.82,114.69c4.82.93,5.89.84,5.87,2.42-.04,3.3-4,2.04-6.39,1.43-2.18-.56-2.09-3.19.52-3.85Z"/>
      <path class="cls-1" d="M304.47,132.05c4.84-.21,1.95,5.95-.87,5.73-2.71-.21-3.25-5.55.87-5.73Z"/>
      <path class="cls-1" d="M9.61,190.89c.06,1.57-5.84,2.79-8.99,2.09-.65-.14-.95-1.59-.1-2.23,1.83-1.38,9.03-1.26,9.08.14Z"/>
      <path class="cls-1" d="M251.41,70.46c-.36-.9-2.52-2.35,4.24-6.56,1.36-.85,3.02,1.6,2.03,2.43-.28.23-4.87,4.05-6.27,4.14Z"/>
      <path class="cls-1" d="M222.58,84.93c8.22.53-3.15,9.07-3.63,2.07-.22-3.25,3.6-1.54,3.63-2.07Z"/>
      <path class="cls-1" d="M270.79,111.58c-3.05-1.55,1.36-6.41,3.96-6.61.69-.05,1.88,1.35,1.66,1.98-.98,2.83-4.27,4.82-5.62,4.63Z"/>
      <path class="cls-1" d="M118.32,63.73c2.6-.1,3.36.58,3.45,2.03.57,8.72-11.35-1.62-3.45-2.03Z"/>
      <path class="cls-1" d="M336.03,205.04c2.31.28,5.38,2.2,3.56,3.63-4.95,3.88-8.5-2.31-3.56-3.63Z"/>
      <path class="cls-1" d="M255.66,151.06c-.72,6.18-5.28,3.6-3.72-1.42.63-2.05,3.72-2.57,3.72,1.42Z"/>
      <path class="cls-1" d="M406.18,207.67c2.55,1.62,5.1,2.61,4.18,4.8-.88,2.09-7.08,2.27-5.06-2.51.04-.09,1.85-3.26.88-2.29Z"/>
      <path class="cls-1" d="M232.16,129.03c.56,2.94-4.57,4.91-5.7,1.84-1.11-3.03,5.03-4.08,5.7-1.84Z"/>
      <path class="cls-1" d="M211.91,227.69c2.94,5.46-5.92,7.9-4.5,3.44.73-2.28,3.48-3.35,3.72-6.01.04-.09-.48.24.77,2.57Z"/>
      <path class="cls-1" d="M80.02,126.9c-.76,1.93-.34,6.76-3.8,6.21-.7-.11-1.35-.93-1-1.55.95-1.67,1.3-3.47,1.73-5.28.24-1.02,2.4-1.78,3.07.62Z"/>
      <path class="cls-1" d="M219.61,110.2c-.41-.23-1.03-.36-1.2-.7-.69-1.43.47-4.67,1.94-5.67,1.78-1.21,5.11,6.58-.74,6.37Z"/>
      <path class="cls-1" d="M257.74,19.45c1.79-.72,6.55,1.75,3.99,3.98-3.16,2.77-8.38-2.21-3.99-3.98Z"/>
      <path class="cls-1" d="M189.75,28.59c.51-5.66,5.45-1.81,5.67-1.27.76,1.78-6.04,6.01-5.67,1.27Z"/>
      <path class="cls-1" d="M274.6,218.53c-.06-.08.47-.79.83-.91,2.03-.73,3.63.68,5.36,1.3,1.27.45.64,9.32-6.19-.38Z"/>
      <path class="cls-1" d="M177.9,193.13c-1.93,8.87-4.87,4.19-4.71,3.67.58-1.85,1.67-3.45,3.19-4.71.6-.5,1.05.42,1.51,1.04Z"/>
      <path class="cls-1" d="M192.09,228.7c-1.35,1.24-5.79,2.02-6.13-.57-.17-1.23,1.7-3.02,2.84-2.67,1.61.49,3.05,1.29,3.29,3.24Z"/>
      <path class="cls-1" d="M223.13,188.7c-4.91,6.46-6.81-3.16-4.79-2.56,5.56,1.66,4.69,1.68,4.79,2.56Z"/>
      <path class="cls-1" d="M33.1,193.73c-.21-2.47,4.41-6.98,4.92-.9.27,3.14-4.14,3-4.92.9Z"/>
      <path class="cls-1" d="M217.07,83.86c.36,2.01-1.99,4.18-4.06,3.83-1.1-.19-1.87-1.98-1.23-2.86,1.72-2.34,5.03-2.41,5.29-.97Z"/>
      <path class="cls-1" d="M229.62,63.52c-2.16-1.77,1.04-4.64,4.03-5.58,2.88-.9-.81,8.22-4.03,5.58Z"/>
      <path class="cls-1" d="M101.75,101.83c-.23-.25-.77-.56-.79-.92-.16-1.84,1.77-4.47,3.88-5.28,2.52-.96.34,6.65-3.09,6.19Z"/>
      <path class="cls-1" d="M92.05,140.23c1.27-.25,5.11,2.94,3.77,3.84-3.24,2.2-7.07-.66-3.77-3.84Z"/>
      <path class="cls-1" d="M36.77,184.29c-.3.27-.97.57-1.21.42-4.18-2.59-4.44-2.89-3.8-4.65.82-2.24,7.55,1.91,5,4.23Z"/>
      <path class="cls-1" d="M268.01,65.13c-1.9,3-6.66,4.18-7.81,1.1-.57-1.54.83-2.07.96-1.95,1.91,1.73,4.31.74,6.84.85Z"/>
      <path class="cls-1" d="M126.88,66.28c1.03.37,4.7,1.14,3.81,3.8-.38,1.14-2.5,1.8-5.26-1.22-1.51-1.64.77-2.27,1.45-2.58Z"/>
      <path class="cls-1" d="M320.16,261.34c4.9,4.32,2.61,6.48,1.18,6.21-3.69-.68-2.65-7.5-1.18-6.21Z"/>
      <path class="cls-1" d="M152.76,65.78c-5.4,3.63-7.87-5.38-3.69-2.54.95.64,2.17.86,3.2,1.39.29.15.34.75.5,1.15Z"/>
      <path class="cls-1" d="M272.73,63.32c.86-1.49,2.06-.36,3.12-.09,5.28,1.35.03,2.54-.65,5.51.51-.17-4.1-2.6-2.47-5.42Z"/>
      <path class="cls-1" d="M303.13,73.72c4.1.35,3.12,4.47-.54,4.45-2.85-.02-3.96-4.3.54-4.45Z"/>
      <path class="cls-1" d="M132.03,82.47c-.86-.38.96-3.05,1.35-3.67,2.62-4.17,4.43,6.25-1.35,3.67Z"/>
      <path class="cls-1" d="M176.67,120.84c-.69-.2-1.61-.4-2.45-.78-.19-.08-.28-1.01-.08-1.21,1.9-1.84,6.04-1.67,6.8.19.56,1.37-.74,1.24-4.26,1.8Z"/>
      <path class="cls-1" d="M228.15,175.87c2.27-.26,3.7,5.15.64,5.39-2.64.21-3.48-3.5-.64-5.39Z"/>
      <path class="cls-1" d="M301.34,179.99c-.05,2.05-3.34,3.45-4.9-1.55-.77-2.48,5.22-1.24,4.9,1.55Z"/>
      <path class="cls-1" d="M175.05,40.01c-.14,2.44-4.31,5.87-5.54,2.78-.83-2.1,1.37-2.54,4.65-3.57.19-.06.59.51.88.79Z"/>
      <path class="cls-1" d="M79.66,183.21c-4.94,3.33-5.03-4.57-2.81-4.43,1.43.09,3.09,2.57,2.81,4.43Z"/>
      <path class="cls-1" d="M279.66,183.57c.06,2.15-5.06,3.32-5.27.41-.17-2.38,3.36-4.31,5.27-.41Z"/>
      <path class="cls-1" d="M180.58,22.18c.12.42.48.99.32,1.23-3.27,5.21-6.54,3.84-6.49,3.19.2-3.04,3.06-3.18,4.91-4.39.29-.19.83-.03,1.25-.03Z"/>
      <path class="cls-1" d="M70.23,200.55c.24.12.43.96.28,1.12-6.26,6.36-6.99-1.62-3.72-1.72.57-.02,2.66.22,3.43.6Z"/>
      <path class="cls-1" d="M170.24,208.22c-9.94,2.45-1.46-8.42-.7-3.92.72,4.24.26,4.37.7,3.92Z"/>
      <path class="cls-1" d="M273.4,209.21c.44.41,1.04.71,1.03,1-.08,7.22-12.59,5.34-1.03-1Z"/>
      <path class="cls-1" d="M384.83,211.86c1.38-2.08,3.96.72,4.62,3.17.76,2.82-6.98.38-4.62-3.17Z"/>
      <path class="cls-1" d="M215.6,178.98c-3-2.01-.21-5.73,1.14-5.8,2.8-.13,1.13,7.33-1.14,5.8Z"/>
      <path class="cls-1" d="M311.66,175.54c-.77,5.04-5.22,1.98-3.2-.96,1.15-1.67,3.18-1.46,3.2.96Z"/>
      <path class="cls-1" d="M337.18,130.93c-3.29-.13-2.23-4.21.72-4.36,2.72-.15,3.05,3.92-.72,4.36Z"/>
      <path class="cls-1" d="M183.79,98.63c-1.96-.73-.57-2.26.86-3.77,3.98-4.19,4.4,4.2-.86,3.77Z"/>
      <path class="cls-1" d="M268.45,92.86c-3.94,10.03-7.8-3.67-1.69-.79,1.85.87,2.15,1.28,1.69.79Z"/>
      <path class="cls-1" d="M343.78,149.93c3.63.61,3.01,6.97-.18,5.09-1.33-.78-1.92-4.98.18-5.09Z"/>
      <path class="cls-1" d="M300.67,124.85c-3.47.08-2.72-4.51.87-4.5,2.37,0,2.47,4.42-.87,4.5Z"/>
      <path class="cls-1" d="M201.1,50.8c-3.07-.04-3.13-4.12.39-4.01,1.82.06,4.27,2.66-.39,4.01Z"/>
      <path class="cls-1" d="M234.51,195.01c2.99.45.35,4.78-2.01,4.25-2.02-.45-2.17-4.05,2.01-4.25Z"/>
      <path class="cls-1" d="M164.54,36.34c3.23,0,2.77,1.52.04,3.17-2.95,1.78-5.21-3.78-.04-3.17Z"/>
      <path class="cls-1" d="M84.77,119.79c-.59,1.63-1.07,4.64-3.07,3-3.1-2.54,3.39-9.19,3.07-3Z"/>
      <path class="cls-1" d="M323.45,116.95c.04,3.08-5.12,3.2-4.7.47.54-3.54,4.6-2.73,4.7-.47Z"/>
      <path class="cls-1" d="M262.66,260.42c-2.77-.21-1.77-4.7.25-4.33,2.35.42,2.45,4.3-.25,4.33Z"/>
      <path class="cls-1" d="M61.66,153.21c-1.67-.96.64-5.55,2.66-4.8,1.21.45.69,6.71-2.66,4.8Z"/>
      <path class="cls-1" d="M208.81,106.75c-.2,4.02-3.99,2.88-4.18.76-.11-1.18,1.24-2.45,2.75-2.58,1.36-.12,1.2,1.05,1.43,1.82Z"/>
      <path class="cls-1" d="M237.92,103.21c-.47,1.1-.55,3.02-4.08,2.22-3.42-.77,2.46-6.09,4.08-2.22Z"/>
      <path class="cls-1" d="M110.33,104.34c-2.84-.42-1.23-5.37.79-4.54,1.68.69,1.84,4.33-.79,4.54Z"/>
      <path class="cls-1" d="M184.85,208.96c-.82,3.02-4.18,1.88-4.2.19-.02-2.28,4.29-3.93,4.2-.19Z"/>
      <path class="cls-1" d="M385.36,206.76c-2.01,2.36-2.68,3.91-4.58,2.94-1.81-.93-.83-3.91.51-3.75,2.29.29,4.32,1.1,4.07.81Z"/>
      <path class="cls-1" d="M26.15,201.72c-.49,3.2-3.33,3.65-4.24,2.48-1.52-1.94,3.83-5.95,4.24-2.48Z"/>
      <path class="cls-1" d="M224.2,91.1c2.99.07,3.37,3.83,1.13,4.05-2.74.28-4.54-3.26-1.13-4.05Z"/>
      <path class="cls-1" d="M174.96,189.81c-2.17.37-3.11-2.34-.79-3.71,1.76-1.05,5.03.86.79,3.71Z"/>
      <path class="cls-1" d="M199.78,125.83c-3.46-.36,1.76-7.4,2.58-4.3.46,1.75-.77,3.66-2.58,4.3Z"/>
      <path class="cls-1" d="M214.27,46.41c.28,3.3-3.63,3.56-4.23,1.53-.79-2.67,3.89-4.15,4.23-1.53Z"/>
      <path class="cls-1" d="M172.99,36.05c-.5,1.66-3.17,1.07-3.43-1.03-.3-2.46,5.59-6.18,3.43,1.03Z"/>
      <path class="cls-1" d="M87.36,186.26c-.16,1.94-4.23,2.26-3.82-.09.35-1.99,3.8-3.08,3.82.09Z"/>
      <path class="cls-1" d="M195.82,221.22c-.18,3.99-4.22,2.86-3.8.49.22-1.22,1.1-2.01,2.29-2.22,1.33-.24,1.26.95,1.51,1.72Z"/>
      <path class="cls-1" d="M225.66,223.95c-2.84-.33-2.49-3.68-.29-4.33,2.02-.61,2.98,3.26.29,4.33Z"/>
      <path class="cls-1" d="M260.63,215.25c-2.67-2.5-3.67-3.95-.33-5.69,1.13-.59,1.98.42,1.78,1.13-1.19,4.2-1.94,5.13-1.45,4.56Z"/>
      <path class="cls-1" d="M299.56,244.04c.05,2.37-3.26,3.48-3.62.26-.26-2.35,3.05-3.47,3.62-.26Z"/>
      <path class="cls-1" d="M185.25,181.27c.56,2.73-3.82,5.31-4.03,2.59-.13-1.68,1.15-3.1,2.97-3.28.33-.03.71.45,1.07.69Z"/>
      <path class="cls-1" d="M310.19,256.37c.27-3.39,4.43-2.8,4.4-.72-.04,2.91-4.46,4.67-4.4.72Z"/>
      <path class="cls-1" d="M281.35,210.29c-.32,4.4-4.17,3.42-4.06.83.12-2.91,4.66-2.8,4.06-.83Z"/>
      <path class="cls-1" d="M138.65,202.83c-.84,2.3-1.37,4.31-3.05,3.68-2.24-.85-.52-4.91,2.08-4.64.32.03.59.57.98.97Z"/>
      <path class="cls-1" d="M273.44,179.53c-.38-.46-1.08-.94-1.17-1.52-.55-3.17,4.51-4.43,3.66-1.52-.99,3.36-1.25,2.69-2.49,3.04Z"/>
      <path class="cls-1" d="M250.78,26.14c-.05,4.4-3.88,3.06-3.65,1.26.2-1.55,1.8-3.13,2.77-2.61.49.26.7,1.05.88,1.35Z"/>
      <path class="cls-1" d="M294.25,191.4c-3.3.46-3.11-3.62-.94-3.98,2.35-.4,3.28,3.57.94,3.98Z"/>
      <path class="cls-1" d="M123.51,176.38c-.7,3.06-4.41,2.49-4.15.27.35-2.96,3.66-3.8,4.15-.27Z"/>
      <path class="cls-1" d="M329.77,264.34c-1.12,2.76-5.02.85-4.57-1.7.47-2.64,5.15-.69,4.57,1.7Z"/>
      <path class="cls-1" d="M86.83,160.67c-.38-.22-.98-.36-1.08-.66-.45-1.35.48-3.52,1.76-4.12,1.74-.81,2.34,4.55-.68,4.78Z"/>
      <path class="cls-1" d="M319.02,205.27c-2.86-.67-2.17-4.2,1.26-3.69,2.62.39,1.27,3.83-1.26,3.69Z"/>
      <path class="cls-1" d="M237.93,186.17c1.88.18,2.89,4.14-.42,3.84-3.21-.29-1.68-4.05.42-3.84Z"/>
      <path class="cls-1" d="M116.62,156.85c-2.45,4.28-7.86-4.09-1.58-1.83.85.31,1.92.49,1.58,1.83Z"/>
      <path class="cls-1" d="M102.11,107.63c-.28,3.3-3.54,3.96-3.95,2.22-.49-2.13,3.22-5.67,3.95-2.22Z"/>
      <path class="cls-1" d="M38.8,206.27c2.72-.37,3.58,3.14.78,3.83-2.86.71-2.77-3.46-.78-3.83Z"/>
      <path class="cls-1" d="M232.63,3.61c-.81-.64-2.22-1.48-.88-2.63,1.74-1.5,3.19-.96,3.52-.38.38.67-.39,3.29-2.64,3.01Z"/>
      <path class="cls-1" d="M171.75,49.18c-.66,3.06-3.97,1.9-3.79.67.31-2.15,3.8-3.03,3.79-.67Z"/>
      <path class="cls-1" d="M124.95,71.78c.22.25.69.53.73.86.16,1.44-.08,2.81-1.46,3.6-2.62,1.5-2.98-4.22.74-4.46Z"/>
      <path class="cls-1" d="M234.7,82.26c-2.37-.47-1.66-4.91,1.63-3.93,2.33.69.62,4.25-1.63,3.93Z"/>
      <path class="cls-1" d="M111.35,89.92c.87,2.29-.89,4.69-2.34,3.82-3.16-1.9,1.41-6.28,2.34-3.82Z"/>
      <path class="cls-1" d="M97.31,91.62c.35.29.88.52.98.87.25.98.04,2-.81,2.59-3.07,2.14-4.43-3.52-.17-3.46Z"/>
      <path class="cls-1" d="M265.94,101.65c2.98,1.72,2.1,4.2-.22,4.01-1.95-.16-2.14-3.39.22-4.01Z"/>
      <path class="cls-1" d="M223.23,115.84c-.04,3.45-4.44,4.52-5.1,3.01-.76-1.74,2.87-3.26,5.27-2.83l-.17-.18Z"/>
      <path class="cls-1" d="M255.58,127.93c-3.44.61-.43-7.88.94-4.11.56,1.55.68,3.82-.94,4.11Z"/>
      <path class="cls-1" d="M180.13,135.41c-.61-1.53,1.39-5.21,2.27-4.19,2.75,3.19-1.46,6.23-2.27,4.19Z"/>
      <path class="cls-1" d="M235.15,140.95c2.81,1.24-.17,4.79-1.65,3.66-1.45-1.11-.49-4.03,1.65-3.66Z"/>
      <path class="cls-1" d="M368.36,141.98c.23,2.41-3.7,3.5-4.02.81-.32-2.78,3.72-2.89,4.02-.81Z"/>
      <path class="cls-1" d="M157.45,149.75c-.29,2.44-3.9,2.41-3.73-1.39.08-1.83,2.04-1.59,2.42-1.02.61.92,1.07,1.95,1.31,2.42Z"/>
      <path class="cls-1" d="M157.72,164.46c-1.73,3.6-6.81.94-5.03-.32,1.35-.95,2.92-1.35,4.55-.81.26.08.33.74.48,1.13Z"/>
      <path class="cls-1" d="M121.19,164.09c2.67.62,1.79,4.55-.84,3.86-2.17-.56-1.19-3.59.84-3.86Z"/>
      <path class="cls-1" d="M133.1,171.61c2.34-.03,4.04,2.67,1.31,3.66-2.68.97-3.46-2.94-1.31-3.66Z"/>
      <path class="cls-1" d="M98.84,177.84c-2.1.05-2.59-3.8.65-3.88,2.46-.06,1.64,3.75-.65,3.88Z"/>
      <path class="cls-1" d="M28.77,178.81c-.32,3.12-3.54,2.85-3.27-.22.29-3.28,3.05-3.75,3.27.22Z"/>
      <path class="cls-1" d="M293.11,182.75c-.47,2.47-4.4,1.81-3.93-.42.73-3.44,4.25-2.86,3.93.42Z"/>
      <path class="cls-1" d="M204.06,183.04c-.35,2.34-3.83,2.14-3.58.36.38-2.69,3.79-2.42,3.58-.36Z"/>
      <path class="cls-1" d="M137.48,186.67c4.58,2.41,1.43,5.41-.4,4.68-2.15-.86-1.62-5.06.4-4.68Z"/>
      <path class="cls-1" d="M26.24,191.55c-3.02-.4-1.9-4.08.55-4.01,2.41.07,1.68,3.9-.55,4.01Z"/>
      <path class="cls-1" d="M21.41,193.46c-.82,3.01-4.49,2.44-4.02.21.52-2.43,3.45-3.18,4.02-.21Z"/>
      <path class="cls-1" d="M290.21,201.38c-.67,4.29-3.72,2.72-3.68.25.03-2.05,3.7-2.8,3.68-.25Z"/>
      <path class="cls-1" d="M117.08,205.74c-.23,2.29-3.08,1.92-3.25.36-.21-2.14,2.98-3.1,3.25-.36Z"/>
      <path class="cls-1" d="M271.98,206.26c.16,2.78-3.44,2.99-3.79.36-.16-1.22,1.29-3.24,2.16-3.2.7.04,1.55,1.51,1.63,2.83Z"/>
      <path class="cls-1" d="M245.25,213.88c-2.04-.2-1.99-3.89.81-5.46,3.03-1.7,1.18,5.65-.81,5.46Z"/>
      <path class="cls-1" d="M206.63,215.69c1.98-.08,2.35,3.18-.28,3.68-2.35.45-2.84-2.98.28-3.68Z"/>
      <path class="cls-1" d="M367.17,219.82c-2.34-.64-1.13-3.64,1.07-3.45,2.4.22.88,3.43-1.07,3.45Z"/>
      <path class="cls-1" d="M248.57,223.02c-.03,3.48-5.62,4.06-5.4,1.67.12-1.28,1.03-1.47,2.03-1.36,1.15.13,2.14-1.34,3.37-.31Z"/>
      <path class="cls-1" d="M352.58,255.21c-.35,4.51-4.16,3.49-3.91,1.73.2-1.47,1.52-2.68,2.78-2.4.7.15,1.13.71,1.13.67Z"/>
      <path class="cls-1" d="M289.43,286.15c-.79-.28-1.89-.24-1.8-1.58.09-1.28.69-2.37,1.92-2.55,1.77-.26,3.11,3.38-.12,4.13Z"/>
      <path class="cls-1" d="M278.58,199.96c-.71.08-3.21-1.12.3-4.06,1.91-1.59,3.65,3.61-.3,4.06Z"/>
      <path class="cls-1" d="M397.15,228.6c-.52,2.5-3.65,2.52-3.87.82-.29-2.33,3.83-3.57,3.87-.82Z"/>
      <path class="cls-1" d="M110.67,206.55c-.37,2.68-3.2,2.65-3.76.65-.34-1.24.62-2.6,1.75-2.53.75.05,1.89,1.1,2.01,1.88Z"/>
      <path class="cls-1" d="M229.71,152.22c-1.86-1.2,2.02-4.38,3.62-2.36.44.55-1.13,2.7-3.62,2.36Z"/>
      <path class="cls-1" d="M69.92,151.82c.24,2.43-3.03,3.27-3.57,1.07-.6-2.44,2.99-2.99,3.57-1.07Z"/>
      <path class="cls-1" d="M330.83,257.15c-.36,2.26-3.36,2.56-3.47-.09-.08-2.09,3.34-2.58,3.47.09Z"/>
      <path class="cls-1" d="M278.55,152.1c-2.34.28-3.21-2.82-1.61-3.72,1.83-1.03,4.52,2.78,1.61,3.72Z"/>
      <path class="cls-1" d="M275.08,193.15c-1.65-.33-1.48-3.84.66-3.82,2.23.03,2.62,4.34-.66,3.82Z"/>
      <path class="cls-1" d="M14.19,196.34c-.54,2.82-3.7,1.76-3.62.01.07-1.75,3.11-2.89,3.62-.01Z"/>
      <path class="cls-1" d="M224.77,195.54c-.16,3.35-3.6,2.71-3.57.58.02-2.07,3.35-3.32,3.57-.58Z"/>
      <path class="cls-1" d="M124.02,192.28c2.23.85,2.27,3.69-.37,3.56-2-.09-2.38-3.17.37-3.56Z"/>
      <path class="cls-1" d="M282.05,79.66c2.54,1.46,1.55,4.06-.43,3.76-1.5-.23-1.53-3.1.43-3.76Z"/>
      <path class="cls-1" d="M60.29,185.36c-.41,2.36-4.53,2.75-4.13.13.35-2.3,3.69-3.02,4.13-.13Z"/>
      <path class="cls-1" d="M135.25,183.56c-.18.3-1.29,2.99-2.59,1.08-1.67-2.47,3.29-4.58,2.59-1.08Z"/>
      <path class="cls-1" d="M235.23,8.12c-2.02,1.18-3.69,2.62-4.78.64-1-1.84,1.15-4.68,3.4-2.18,1.43,1.59.93,2.06,1.37,1.54Z"/>
      <path class="cls-1" d="M327.95,247.63c-.48,2.71-3.46,2.01-3.87.12-.22-1.03,1.03-2.07,2.33-2.06,1.35.02,1.31,1.1,1.54,1.94Z"/>
      <path class="cls-1" d="M43.11,175.54c-.32.73.03,2.09-1.49,1.62-2.05-.63-1.84-4.03,0-4.11,1.84-.08,1.19,1.52,1.48,2.5Z"/>
      <path class="cls-1" d="M301.51,175.2c-2.92-.37-1.89-4.36.59-3.88,1.93.37,1.64,4.04-.59,3.88Z"/>
      <path class="cls-1" d="M227.41,173.31c-.53,1.89-4.25,1.09-3.63-.75.42-1.25,3.86-1.21,3.63.75Z"/>
      <path class="cls-1" d="M62.7,173.79c-.88,2.69-4.19,2.39-3.47-1,.46-2.17,2.93-2.22,3.47,1Z"/>
      <path class="cls-1" d="M33.91,170.86c.33,2.34-3.04,3.39-3.65,1.15-.56-2.09,3.01-3.17,3.65-1.15Z"/>
      <path class="cls-1" d="M241.76,22.88c-2.1-.54-1.42-3.66.85-3.78,2.29-.12,2.34,4.28-.85,3.78Z"/>
      <path class="cls-1" d="M103.21,169.27c-1.7-1.16-2.54-1.33-.89-2.85.92-.85,2.58-1.36,2.96-.26.74,2.17-1.36,2.7-2.06,3.11Z"/>
      <path class="cls-1" d="M145.67,167.77c-2.86-.6-.54-4.24,1.04-3.23,1.41.91,1.01,3.48-1.04,3.23Z"/>
      <path class="cls-1" d="M357,226.9c-.31,2.31-3.54,2.07-3.35-.38.13-1.79,3.1-2.53,3.35.38Z"/>
      <path class="cls-1" d="M127.02,215.18c2.52-.31,2.36,3.35-.17,3.58-1.53.14-2.31-2.96.17-3.58Z"/>
      <path class="cls-1" d="M252.72,241.86c-2.67.03-2.46-3.23-.07-3.25,1.67-.02,2.06,2.94.07,3.25Z"/>
      <path class="cls-1" d="M288.6,158.64c-.83,1.96-4.2.95-3-1.49,1.18-2.4,4.65-2.42,3,1.49Z"/>
      <path class="cls-1" d="M148.24,112.21c-.76-.98-.79-2.15-.42-3.27.37-1.14,2.97-.91,2.99,1.71.01,2.1-1.85,2.48-2.57,1.57Z"/>
      <path class="cls-1" d="M75.99,154.4c-.84,2.44-4.13,1.77-3.35-.41.84-2.36,3.27-1.42,3.35.41Z"/>
      <path class="cls-1" d="M104.19,85.62c-3.73-2.32,1.36-4.24,2.32-2.52.86,1.54-1.34,2.1-2.32,2.52Z"/>
      <path class="cls-1" d="M404.41,223.29c-2.25-1-.93-3.88.76-3.94,2.13-.08,1.65,4.55-.76,3.94Z"/>
      <path class="cls-1" d="M265.95,85.03c-.25-.81.84-1.96,1.74-1.78,4.65.94-.56,5.62-1.74,1.78Z"/>
      <path class="cls-1" d="M142.43,125.97c.44.74-.51,1.6-1.64,1.53-2.95-.17-.15-4.5,1.64-1.53Z"/>
      <path class="cls-1" d="M124.22,134.42c-1.9,4.24-6.69-.08-1.13-1.25.34-.07.81.29,1.15.55.11.08,0,.46-.01.7Z"/>
      <path class="cls-1" d="M117.5,121.84c-.75,2.24-4.67,1.47-3.59-.07.74-1.06,1.8-1.52,3.05-1.08.28.1.36.75.54,1.14Z"/>
      <path class="cls-1" d="M276.59,272.93c3.59.95,1.81,4.65.19,3.63-2.15-1.36-.37-3.69-.19-3.63Z"/>
      <path class="cls-1" d="M176.64,225.43c-.68,2.06-3.61,1.23-3.75-.87-.11-1.62,3.37-1.64,3.75.87Z"/>
      <path class="cls-1" d="M102.2,137.82c-1.19,2.1-4.04.87-2.97-.61,1.01-1.4,3.75-.75,2.97.61Z"/>
      <path class="cls-1" d="M384.19,238.86c-1.98-.43-1.54-3.04.09-3.49,2.09-.57,2.48,3.46-.09,3.49Z"/>
      <path class="cls-1" d="M168.87,137.99c-2.89-.47-2.64-2.9-.3-3.04.94-.06,1.86.23,2.01,1.37.18,1.3-.9,1.39-1.71,1.68Z"/>
      <path class="cls-1" d="M160.59,190.11c2.35.04,1.43,2.81-.89,3.23-1.78.32-1.94-2.9.89-3.23Z"/>
      <path class="cls-1" d="M129.02,204.86c.54,3.29-2.83,3.26-2.96,1.13-.08-1.31.98-2.66,1.9-2.28.52.21.85.9,1.06,1.15Z"/>
      <path class="cls-1" d="M114.37,78.22c-1.02-.69-2.84-.85-2.04-2.79.74-1.8,3.78-2.2,3.36,1.37.92-.85-1.85,1.75-1.32,1.42Z"/>
      <path class="cls-1" d="M309.55,283.22c-.03-1.08,1.04-2.25,1.69-1.79,1.19.86,1.27,2.42.07,3.51-.54.49-1.73-.69-1.76-1.72Z"/>
      <path class="cls-1" d="M151.25,207.76c-1.12,2.37-3.46.91-3.07-.48.68-2.37,3.66-1.14,3.07.48Z"/>
      <path class="cls-1" d="M170.33,177.68c3.1,1.47,1.26,3.47-.26,3.12-1.65-.37-1.82-3.25.26-3.12Z"/>
      <path class="cls-1" d="M80.56,161.9c1.68-.24,2.52,2.47.38,3.27-1.47.54-2.38-2.46-.38-3.27Z"/>
      <path class="cls-1" d="M308.27,182.11c.08-2.95,3.75-3.03,3.49-.14-.2,2.18-3.57,2.95-3.49.14Z"/>
      <path class="cls-1" d="M92.14,178.25c-1.52-.05-2.54-2.15.31-2.84,1.58-.38,2.11,2.56-.31,2.84Z"/>
      <path class="cls-1" d="M224.17,157.19c2.16.11,2.1,2.68-.32,2.79-1.86.08-2.39-2.26.32-2.79Z"/>
      <path class="cls-1" d="M310.37,236.36c-.11,1.58-2.79,2.04-2.71-.55.05-1.88,2.69-1.81,2.71.55Z"/>
      <path class="cls-1" d="M276.02,200.87c-1.27,5.28-4.64,1.28-2.46-1.03.89-.94,2.19-.87,2.46,1.03Z"/>
      <path class="cls-1" d="M35.23,203.23c-.24,2.04-3.02,1.34-3.07-.86-.02-.78,2.62-1.5,3.07.86Z"/>
      <path class="cls-1" d="M406.42,207.42c-1.17.03-3.28.37-3.05-1.83.22-2.14,2.94-1.63,2.94.63,0,1.47-.37,1.68.12,1.2Z"/>
      <path class="cls-1" d="M238.46,218.63c-.38,1.95-2.98,2.44-3.23.6-.24-1.75,2.77-2.24,3.23-.6Z"/>
      <path class="cls-1" d="M134.07,229.78c.36,1.1-.52,1.58-1.32,1.94-2.01.91-2.55-1.3-1.22-2.04.84-.47,2.41-.29,2.54.1Z"/>
      <path class="cls-1" d="M253.93,263.42c-.48,1.3-3.37,1.19-2.84-.7.6-2.13,3.3-1.43,2.84.7Z"/>
      <path class="cls-1" d="M194.36,37.84c2.21.03,2.1,2.8.21,2.85-2.05.05-2.11-2.49-.21-2.85Z"/>
      <path class="cls-1" d="M167.5,162.31c-1.93-.59-.55-3.3.97-3.1.93.12,1.7,3.05-.97,3.1Z"/>
      <path class="cls-1" d="M324.64,242.07c.1,1.85-2.75,2.42-2.79-.17-.02-2.01,2.84-1.47,2.79.17Z"/>
      <path class="cls-1" d="M235.53,172.22c-.31,2.58-2.72,2.83-3.19,1.49-.58-1.63,2.43-2.77,3.19-1.49Z"/>
      <path class="cls-1" d="M190.43,177.88c-.4.31-.88.94-1.44,1.03-.67.1-1.44-.53-1.32-1.21.21-1.11,2.37-2.27,2.76.19Z"/>
      <path class="cls-1" d="M44.03,184.5c-.64-.22-1.4-.29-1.89-.7-.81-.66-.95-1.61.1-2.16,2.9-1.54,4.83,1.25,1.58,2.99-.02,0,.21-.13.21-.13Z"/>
      <path class="cls-1" d="M159.98,184.65c-.67,1.63-3.44,1.04-2.96-.97.21-.87,2.72-1,2.96.97Z"/>
      <path class="cls-1" d="M288.4,246.42c-.08,2.93-2.69,2.68-2.79.86-.15-2.67,2.95-1.85,2.79-.86Z"/>
      <path class="cls-1" d="M331.58,189.87c-3.13.14-5.1.76-5.01-1.33.04-.86,1.23-1.75,1.93-1.26,1.4.97,3.08,2.71,3.08,2.59Z"/>
      <path class="cls-1" d="M208.2,129.16c-1.04,2.3-3.31,1.11-2.54-.19.8-1.35,1.63-.39,2.54.19Z"/>
      <path class="cls-1" d="M173.8,150.22c.09,1.34-1.9,2.3-2.41.33-.3-1.17,1.89-2.21,2.41-.33Z"/>
      <path class="cls-1" d="M96.94,162.31c.36.02.7.55,1.06.85-3.93,2.99-7.23-1.14-1.06-.85Z"/>
      <path class="cls-1" d="M114.03,181.4c.16,1.41-2.26,1-2.17.61.63-2.74,1.86-1.81,2.17-.61Z"/>
      <path class="cls-1" d="M77.02,195.31c-.41-.61.74-1.71,1.66-1.59,3.04.38.1,4.21-1.66,1.59Z"/>
      <path class="cls-1" d="M150.62,196.86c-1.31.35-2.4-2.09-.37-2.5,1.36-.27,2.38,1.75.37,2.5Z"/>
      <path class="cls-1" d="M211.27,141.42c-1.36.83-.81.83-2.09-.06,1.36-.82.82-.83,2.09.06Z"/>
      <path class="cls-1" d="M223.39,116.02l.03-.18c-.25.02-.25-.05-.03.18Z"/>
      <path class="cls-1" d="M152.73,227.26s-.15.14-.12.12c.61.78.84,1.55-.19,2.2.77.73-.92-.57.32-2.32Z"/>
    </g>
  </g>
</svg>