<?xml version="1.0" encoding="UTF-8"?>
<svg id="_レイヤー_2" data-name="レイヤー 2" xmlns="http://www.w3.org/2000/svg" viewBox="0 0 330.25 1064.03">
  <defs>
    <style>
      .cls-1 {
        fill-rule: evenodd;
      }
    </style>
  </defs>
  <g id="Layer_1" data-name="Layer 1">
    <g>
      <path class="cls-1" d="M41.49,1023.24c-2.02-1.71-1.53-3.97-4.6-10.86-5.26-11.81-6.39-24.6-5.51-46.13.39-9.63,4.61-13.83.01-17.84-12.24-10.68-15.93-24.92-17.45-39.85-.47-4.68.57-9.52,1.07-14.26.3-2.9,7.05-8.45,2.16-13.49C7.65,870.99-.43,851.35.02,850.27c1.39-3.4.4-7.05,1.25-10.49,2.42-9.74,5.49-19.23,10.92-27.91,4.18-6.68,31.93-63.71,40.32-93.12,10.07-35.3,30.45-87.85,6.18-190.88-21.5-91.25-44.09-92.59-32.06-117.53,6.04-12.52,30.35-29.8,41.21-35.32,8.84-4.49,3.59-7.81,8.15-13.26,1.55-1.85,1.63-3.92,1.11-5.92-1.39-5.42-2.26-11-6.32-15.51-4.04-4.48-3.94-10.31-10.78-13.69-8.59-4.24-5.18-6.08-7.91-6.97-4.61-1.49-7.52-5.4-11.8-7.5-9.71-4.75-6.72-22.57,3.13-28.49,8.12-4.88,15.54-10.59,20.16-18.96,19.03-34.46-3.62-30.54,2.3-44.54,1.75-4.13-1.93-2.94-19.07-20.66-13.96-14.42-20-32.33-24.48-44.37C4.33,106.74,63.68,42.24,123.34,36.48c5.17-.5-1.49-4.35.39-22.39,1.01-9.69,24.71-20.52,46.6-9.35,7.58,3.86,7.03,18.65,2.13,28.83-.11.22-2.44,3.41.19,3.42,13.2.07,44.65,9.33,67.16,25.04,27.26,19.06,42.98,59.32,37.32,86.71-1.06,5.14.42,12.17-5.21,24.96-5.96,13.54-10.11,24.93-20.92,34.07-6.31,5.35-6.86,6.57-6.12,8.78,1.02,3.09.5,13.01-6.11,18.94-4.16,3.73-3.67,8.78.7,19.17,5.4,12.82,13.75,26.74,27.67,27.95,13.35,1.16,20.8,25.66-2.68,35.77-9.67,4.16-25.26,30.92-19.42,39.79,6.86,10.44-.25,14.52,7.93,16.31,17.79,3.9,45.98,25.98,44.08,48.22-1.04,12.22-4.64,23.66-9.48,34.87-55.63,128.84-27.84,274.62,39.74,391.77,3.43,5.94,4.2,11.57.56,17.67-8.63,14.45-9.08,9.16-15.8,15.82-5.48,5.43,17.52,25.32,2.76,61.12-3,7.29-4.36,9.96-8.54,10.79-8.07,1.61,4.21,11.85-3.66,52.68-.59,3.05-3.08,11.67-5.02,13.45-1.55,1.44-.31,3.92-1.83,5.18-56.71,47.1-186.14,54.98-254.27-2.84ZM48.43,195c-.12-1-.99-1.3-1.74-1.72.34-1.06,1.42-2.16-.19-3.12-.76-3.09-2.31-5.71-4.91-7.72.23-1.84-5.58-9.15-5.48-15.68,0-.54,1.3-.6,1.51-.36,2.64,3.09-3.08.08,16.32,28.2,2.39,3.47,8.67,7.92,15.12,15.45,1,1.17,2.3.86,3.53.34-.21.52-.52.34-.27.11.61-.56-.41-.19.39.13-6.02-3.8-28.43-31.86-25.02-34.84.45-.39,2.37,1.81,2.68,2.45,6.14,12.68,28.37,37.76,31.29,34.43-2.6-2.75-12.81-10.36-19.48-27.49-.19-.5-.17-2.34.33-2.31,3.69.21,2.21,10.83,17.38,24.02,5.98,5.2,5.72,8.2,9.27,8.25,1.27.02.43-1.49-4.11-6.8-7.16-8.39-3.24-8.87-2.28-7.36,3.19,5.01,7.56,9.14,11.22,13.79,2.01,2.55,4.36,2.99,7.26,2.4.38-2.5-7.23-8.45-10.63-14.84-8.84-16.59-15.8-28.57-16.8-48.72,0-.27.44-.75.74-.79,3.44-.58-3.62,6.45,15.09,42.39,3.88,7.44,11.07,17.28,18.16,22.54.29.21,2.49.2,1.77-1.18-1.39-2.67,2.24,4.55-10.08-16.03-4.38-7.33-1.34-10.32-.26-6.57,2.42,8.46,8.66,14.84,13.18,22.15,1.88,3.05,6.31,3.64,5.07.95-2.11-4.58-12.22-16.89-16.06-50.28-.18-1.58,1.48-1.52,1.77-.46,1.71,6.16.2,12.46,8.1,33.32,1.59,4.2,8.89,20.2,13.33,19.82,6.26-.52-4.84-6.52-4.06-19.04.07-1.05,1.43-.27,1.45-.2,1.69,4.94.79,7.5,4.17,13.03,4.76,7.8,2.1,6.41,11.25,6.79,7.47.32,10.8,2.94,10.05-5.74-2.54-29.62-6.03-44.23-3.19-44.11,1.02.05,1.23,1.45,1.34,2.46,5.5,50.98,3.33,47.51,6.73,47.66,3.34.15,4.32-.57,4.47-3.81,1.34-29.69-4.31-49.7-1.1-48.86.7.19,1.52.25,1.61,2.22.63,13.94,2.68,27.81,2.29,41.81-.04,1.49-1.23,3.75.98,4.34,1.33.35,2.14-1.78,3.17-2.81,4.22-4.28.68-25.01,2.37-28.2,3.05-5.76,2.91,21.88,1.21,30.2-1.74,8.52,7.6-4.12,8.74-11.7,1.73-11.56,2.82-23.15,2.25-34.84-.13-2.54,4.78-7.7,1.58,22.28-2.56,23.98,2.97-.49-5.06,26.48-.64,2.14,2.94,2.95,5.45-2.76,4.33-9.84,9.03-34.52,8.08-45.23-.06-.65.66-1.24,1-1.25,4.62-.12-1.41,27.78-2.06,33.12,4.27.21,2.16-5.2,6.5-4.13,2.11.52,1.91-.96,5.61-20.33,2.72-14.26-1.97-16.88.91-18.9,1.23-.86,2.77,1.91,2.85,5.44.23,10.55-.08,8.41-5.84,37.53-.64,3.26,7.73-5.02,9.91-18.62,4.89-30.43-4.9-37.98-2.25-40.47,1.63-1.53,3.07,2.65,3.74,4.78,4.86,15.65,1.19,27.66,1.91,32.84.92,6.66-2.76,8.85-6.8,26.68,13.19-11.21,15.02-41.42,11.67-56.6-.16-.73.18-1.6.42-2.36.05-.14.91-.28,1.09-.11,2.26,2.11,3.35,17.32,2.49,23.86-1.46,11.02-3.4,13.71-1.79,16.18,6.74-7.46,6.01-15.67,6.56-19.7,1.04-7.55,7.36-6.04-4.74,32.2-.79,2.48,1.38,3.46-.08,2.62.55.36.3.65,1.99-1.7,8.98-12.49,5.51-19.98,8.88-20.66.83-.17.61.36,1.96,2.5,2.76-4.95,5.7-9.63,6.12-16.46-3.51,4.02-5.54,7.86-9.01,10.7-1.68-3.59,10.91-14.68,10.3-19.87-.74-6.25-4.9,10.93-9.33,10.19.09.08,1.75-3.17,1.42-5.85-.33-2.68-1.44-17.13-1.62-19.86-.05-.71,1.48-.96,1.83-.19,1.55,3.42,1.25,7.17,2.04,15.4.02.2,1.19.8,1.46.12,3.74-9.57,4.02-9.98,3.95-12.42-.7-24-13.26-34.71-10.49-36.5,2.94-1.88,14.06,21.9,12.97,35.62-.19,2.41-.36,6.48,1.51,8.01,6.02-9.41,3.69-9.58,2.24-21.98-.54-4.62,2.18-4.73,2.65-1.24.3,2.26.39,4.56,1.91,6.83,1.52-2.52,4.89-10.06,2.7-10.95-2.32-.94-2.52-3.13-4.32-8.73-.48-1.5-1.95-.75-1.62.39,1.09,3.75,2.4,5.14,1.01,6.42-.74.67-2.09-.21-2.75-1.86-.31-.77-.47-1.6-.74-2.39-14.23-41.76-28.86-45.87-40.6-56.26-.26-.23-.54-1.44,1.08-1.51,2.74-.12,4.8,3.17,8.94,5.92,20.44,13.57,27.33,39.72,30.23,40.49.8-1.14.71-2.23.08-3.46-7-13.72-12.83-28.18-25.68-36.89-.52-.35-.93-1.78-.8-2.18.68-1.98,8.16,3.89,11.59,8.61,17.15,23.6,18.73,34,24.57,48.69.61,1.52,3.56,1,3.68-1,.44-7.69-12.17-32.86-18.83-41.4-1.25-1.6-3.51-2.58-3.21-5.08,7.28-1.79,25.58,38.55,24.37,46.49-1.01,6.63.84,3.32,4.23,26.2,1.38-1.49,1.19-2.98,1.21-4.36.19-17.24-5.72-18.92-1.17-21.56-.81-.79.37.45,2.25,6.18,2.33,7.06,1.5,20.79.12,21.47-4.57,2.26-.12,15.53-11.11,42.99-6.37,15.9,19.95-20.81,17.37-50.76-2.17-25.19-3.15-33.09-10.39-44.55-6.33-10.02-11.75-20.27-29.57-32.65-17.05-11.84-42.1-19.87-59.12-20.78-6.04-.32-2.22,8.26-.19,10.88,4.03,5.17-1.46,11.8-4.86,13.16-2.78,1.11-5.35,2.71-7.98,4.15-2.91,1.6,4.31,7.17,2.27,8.58-1.91,1.32-5.14-5.85-7.56-6.91-1.92-.84-4.63.04-7,.16-13.42.64-14.01-6.63-20.28-8.42-3.48-.99,4.06-6.91-.08-21.75-2.36-8.46-57.71,6.1-86.98,45.68-3.1,4.19-11.76,18.56-13.32,23.53-4.49,14.33-5.72,33.55-.12,46.68,1.12,2.61,10.66,23.45,13.51,24.68.37,2.54,3.2,8.29,5.41,7.3-.81,1.1.49,2.15.07,3.25,1.17.02,1.64.67,1.7,1.71,2.27-.19,3.92-.5,3.97.71.04.9-.7.86-1.1,1.22.67.9,1.33,1.8,2.09,2.83.12-1.61-1.3-1.88-2.02-2.67-.33-2.94.43-2.3-2.92-2.12ZM57.69,202.41c.37.75.67-.46.34.31-.05.11-.27.27-.27.26-.79-.68,1.19-.78.6.14-.06.09-.45.12-.45.1-.11-.27-.17-.54-.21-.81ZM239.32,207.78c-2.31-1.53-1.93,2.83-.22-.15.03-.84.67.14.12-.51-.41-.49-.11.15.09.65ZM264.22,383.61c.07-.45.35-.36.21-.17-.5.68.48.02-.39.03.07-1.24.13-.99-.38-1.08.41.78.39.67.56,1.21ZM237.42,289.21c-.81,2.45,1.66.48,1.75,1.84.36,5.8.54,5.92,5.64,3.59.76-.35,1.51-.72,1.79-1.58q-8.32-13.38-7.5-17.58c1.67.94,1.87,2.74,2.71,4.13,6.61,10.92,5.86,13.43,13.18,9.32,1.97-1.11,4.55-2.51,2.49-3.68-15.89-9.07-25.28-29.53-26.47-44.41-.14-1.75-.89-2.03-2.57-1.52-2.08.63-3.27,1.63-3.2,3.98.23,8.04,3.95,32.44,16.75,47.02,3.44,3.92-3.59,4.26-3.12.2-3.04-.08-13.92-21.23-15.75-44.99-.52-6.76-10.41-5.85,6.37,32.74,1.18,2.71,1.83,5.97,4.96,7.6.15,2.76.56,3.2,2.96,3.33ZM259.99,141.64c-1.17-.27-2.5,2.47-1,4.17-.75-.7-1.42-.66-1.48.4,4.5-1.69,3.52-4.33,2.48-4.57ZM199.71,216.08c-.06.08.03,1.3.99,1.02,1.81-.51,2.55-1.28,6.26-7.55-1.98-1.12-3.44.87-7.25,6.52ZM207.54,238.72c.06-2.81,4.5-6.15,4.83-13.92.09-2.23-.32-2.74-1.25-3.09-2.11-.8-.77.75-4.2,14.71-.17.69.43,1.56.64,2.3-.42.09-.45-1.19-1.09-.29.36.1.71.19,1.07.29ZM239.76,337.9c-.22,1.44-1.09,2.91-.04,5.1,6.77-11.5,7.15-11.53,6.5-13,.71.38.86-.46.26-.31-4.28,1.03-5.5.17-6.72,8.21ZM227.7,365.15c5.32,1.8,4.47,6.86,4.67,16.4,3.14-4.67,3.5-13.88,1.97-17.39-1.39-3.17-4.05,1.56-6.51,1.07-2.74,4.92-.16-1.68-.75,23.46,4.23-3.98,2.58-17.52.63-23.53ZM221.99,363.23c1.13.44,2.38.31,2.78-.72,12.22-32.14,5.86-30.03,4.67-26.02-8.14,27.44-7.77,25.51-7.31,26.87-.8.32-.16-.77-.46.02-.15.4.03.53.41.29.72-.46-.27.38-.09-.43ZM260.42,147.88c-2.65,4.21-4.03,8.52-4.64,13.09,2.13,3.9-4.54,14.2-3.2,23-1.38.39-1.07.14-.84,1.24,6.15-5.9,12.8-32.38,8.68-37.32ZM243,180.95c11.53-48.39-1.26-23.92-1.16-17.95.1,5.79-4.41,32.13-6.49,25.12-.48-1.62,1.2-3.09.48-4.79-.42.17-.96.22-1.1.47-13.1,22.87-6.75,20.87-9.4,20.99,1.49.76,15.82-16.06,17.68-23.84ZM266.3,440.34c5.22-3.76,6.67-4.09,5.55-7.08-3.24-8.6-13.13-28.45-19.23-33.38-9.86-7.97-10.68-8.58-13.12-9.04-.6-.12-.41.73.24.29-1.26,3.25,12.13,6.57,23.52,45.86.84,2.92,1.38,4.49,3.11,3.27l-.07.08ZM34.6,946.07l.36-.17-.48.06c1.59-1.95-2.02-7.33-2.86-13.08-3.57-24.53,1.41-30.09,2.79-36.89.55-2.7-2-3.55-3.01-.28-6.03,19.63-1.38,17.23-4.38,19.14-2.84-3.63.41-16.95,1.97-21.26,1.32-3.62-1.09-2.9-1.14-2.82-4.76,6.9-3.88,22.33-4.01,23.65-.02.21-1.38.67-1.55.11-1.67-5.22-.54-15.11.82-20.93.5-2.14,2.56-6.35.14-6.72-3.74-.56-7.99,18.39-1.11,39.15-.05-.54.35-.54.27-.23-.2.79.4-.05-.45.11,6.46-12.74,2.88,8.45,12.64,20.17ZM309.19,910.63c-.43.27.64,1.84.18,2.46-3.34,4.58.58,8.65-4.14,29.71-.4,1.79-1.09,3.58-.47,5.47-1.18.36-2.34.92-3.55,1.05-3.23.34-3.23,3.83-2.6,4.45.78.77,6.04-1.86,6.03-5.62,5.37-3.12,10.38-22.02,10.02-28.64,3.15-8.67-1.77-21.1-6.06-29.16-1.05-1.98-2.29-2.23-4.25-1.16-2.06,1.12-2.41,1.83-1.74,4.03,5.88,19.07,4.38,18.54,6.59,17.41ZM302.06,985.43c.5-7.91-.98-15.73-1.83-23.57-.1-.95-.93-1.48-1.87-1.06-6.44,2.89-7.71,3.78-7.55,5.94,4.53,65.34-1.45,54.94-1.28,51.88.26-4.78,1.5-38.39-2.11-44.85,2.96,19.32-2.25,50.81-2.61,53.82,6.04-3.49,10.82-6.84,11.99-13.23-.93.79,3.35,1.52,5.26-28.92ZM120.79,400.71c-.97-.97,2.1,2.25,8.48,3.32,22.18,3.72,21.24,7.14,25.13-3.35.61-1.63,2.17-1.65,2.44.82.41,3.75-6.11,7.2,9.9,4.67,4.68-.74,4.56-7.51,3.27-10.45-.47-1.07,1.83-2.69,2.9-.52.96,1.93.53,3.67.5,7.37-.03,3.11,4.52,1.49,5.07-1.02,2.16-9.89,2.75-11.65,4.15-11.06,2.63,1.11-1.53,8.99.19,11.41,10.49-2.98,12.21-3.97,15.57-3.03,4.48,1.25,3.91-18.43,3.47-23.44-.08-.93-.82-1.47-1.78-1.38-.08,0-57.76,11.02-96.36-2.45-1.56-.54-3.32-1.55-4.04,0-5.15,10.94-4.89,19.5-1.83,20.35,3.41.96.92-10.27,5.93-13.11,2.27,5.18-5.33,15.53,2.53,17.21,1.85-3.39,1.97-10.87,3.61-13.04.77-1.02,1.91.24,1.89.54-.07,1.7-.84,6.64-1.32,10.47-.33,2.6,1.75,4.55,2.67,4.28,1.77-.52.1-11.5,3.03-11.94,2.91-.44-2.26,16.15,4.61,14.35ZM54.21,313.16c-.33-.76.51,0-.36-.03,1.68-5.25.77-3.71,1.5-9.17.35-2.62,2.84-2.06,2.55.13-2.02,15.31,2.6,14.5,2.77,12.8.23-2.32.16-9.35,2.08-9.28,3.3.12-2.64,10.61,3.77,12.25,2.01-2.71-.43-9.71,2.27-9.9,1.79-.13.92.78,1.31,9.12.02.47,1.8,1.82,2.12-.07.68-4.09.42-7.13,2.17-6.42.91.37.89,1.9.71,2.72-.88,4.06,1.93,9.93,3.18,10.19,2.82.59-1.02-10.57,2.14-11.1,1.92-.32.58,13.29,4.22,12.47,1.52-.34-1.11-9.46,1.03-9.88,1.78-.34,1.36,2.2,1.96,4.68,1.69,7.08,1.71,7.22,4.23,7.6,3.58.53.34-3.38,1.48-9.2.05-.27,1.68-1.43,1.87-.1.8,5.51-.51,4.04,3.18,9.86.13.2,1.95.87,2.03-.35.46-8.04.29-8.72,1.16-8.95,2.07-.56,1.01,3.21,1.6,6.61.91,5.28,4.78,5.45,5.97,4.63,1.9-1.32-1.8-7.25.47-8.06,1.21-.43,1.86,2.04,2.33,3.78.92,3.42-.1,5.97,4.74,5.97,2.68,0,1.48-2.09,2.85-7.42.11-.42.94-.67,1.44-1,1.92,3.18-2.08,8.96,4.08,9.56,2.98.29,1.47-11.14,4.65-10.4,1.03.24.25,2.64-.18,6.58-.52,4.82,6.16,7.76,6.5,2.56.03-.51.7-8.28,1.06-8.63,5.39-5.16-1.86,12.84,5.51,11.85,3.32-.45-.77-5.77,2.23-10.19.31-.45.58-.69,1.04-.37.86.59,1.16.94.77,3.32-.33,2.02.07,7.16,2.13,7.27,12.85.71,6.27.59,8.51-7.14.08-.29.6-.52.96-.67,2.18-.9-1.6,8.27,5.77,8.23,4.47-.03,1.14-7.64,4.31-8.99,1.21-.52.75.69.69,6.82-.04,3.46,5.69,3.01,5.91-.35.17-2.51.2-5.02,2.08-7.02.25-.27.82-.48,1.15-.39,1.18.33.21,2.45-.15,7.14-.19,2.45,4.62,2.81,7.09,1.58,1.68-.84.19-2.83.57-6.55.13-1.29.98-3.96,2.65-3.54,1.4.35.33,2.18.49,7.77.06,2.14,3.88,2.08,4.18.22,1.72-10.64,1.29-10.78,2.89-11.02,3.43-.51-2.65,12,2.53,11.5,2.09-.2,1.25-.44,2.62-9.61.47-3.11,2.82-3.85,2.57.43-.34,5.83-1.51,8.9,1.52,8.64,5.93-.49,2.85-8.98,5.62-12.46.06-.08,2.18-1.09,1.55,4.37-.96,8.29-.65,7.3,7.39,5.6,8.44-1.78,7.73-3.82,7.4-13.01-.15-4,1.68-2.67,1.76-2.49,2.73,5.64-1.49,12.5,1.24,12.99,1.33.24,3.09-.85,3.55-2.95,2.02-9.23-1.12-11.07.55-14.04.53.31,1.33.51,1.53.95,1.94,4.23.73,8.53.93,12.32.12,2.28,5.72,2.11,3.18-11.58-.21-1.14,1.14-1.74,2.01-.53,1.25,1.76.96,3.12.78,11.06,4.63-.8,8.12-1.45,7.69-7.55-.26-3.65-1.82-6.81-1.98-7.81-.2-1.27,1.29-2.12,2.4-.72,2.81,3.54,1.94,9.28,1.97,11.46,0,.57,1.57,1.03,2.06.35,2.04-2.84,2.61-9.83-.12-14.3-.48-.78-1.31-2,.33-2.47,3.65-1.04,3.6,8.99,3.75,12.68.1,2.64,6.77,2.46,2.08-16.13-.34-1.37,1.45-1.51,2.03-.74,3.84,5.11,1.38,11.56,2.56,14.48,3.09.92,4.54-3.6,4.58-6.91.1-7.83-2.35-10.94-1.22-12.91,1.98-3.48,4.44,7.78,3.69,12.37-.08.51,1.17,1.29,1.73.29,4.25-7.61-2.03-25.02-9.83-17.59-5.66,5.4-13.52,8.79-18.36,11.67-11.07,6.6-22.68,8.58-35.64,11.09-26.83,5.19-41.09,8.8-57.14,6.74-31.73-4.07-61.57-8.33-89.87-22.91-4.76-2.46-9.88-4.17-13.21-8.59-.33-.43-1.24-.92-1.64-.77-4.36,1.57-5.65,2.05-8.16,10.96-.9,3.19-.26,6.06,1.77,9.17.39-16.82,5.41-15.84,3.76-10.49-1.64,5.34-2.16,13.36,2.28,16.88,1.51-2.01-.97-1.8,1.23-11.88.15-.67.93-3.36,2.24-3.32,1.84.07.38,2.38-.12,4.91-2.14,10.77,2.92,11.72,2.75,11.32ZM202.77,246.34c-3.58.22-3.64.21-3.83,2.72-.67,8.82,3.54,23.73,5.81,32.43.21.83-1.12,1.35-1.64.58-1.75-2.62-7.38-24.26-6.88-32.83.09-1.63-2.19-2.19-2.23,2-.21,19.06,6.67,37.78,10.63,43.89.74,1.13,2.48,1.9,1.79,3.63-1.97,4.98-11.12-15.87-13.48-29.47-3.63-20.95.62-22.05-5.41-21.5-14.31,1.3-15.38-.37-15.76,3.5-2.22,22.71,3.43,24.63,1.41,29.04-.5,1.11-2.89-3.41-3.65-11.85-1.58-17.53,1.64-18.71-2.48-19.3-2.32-.33-3.41.32-3.49,2.43-1.06,26.04,3.73,32.96.99,34.67-2.85-7.29-4.03-29.92-3.65-35.14.12-1.62-.57-2.11-2.37-2.23-1.8-.12-2.42.33-2.47,1.97-.64,19.36-.08,18.85-1.87,19.09-1.25-22.99-.49-21.08-3.63-21.29-46.95-3.07-25.98-2.79-34.89,7.31-1.82-2.51,1.7-9.22-1.44-9.4-2.85-.17-1.52,4.89-4.69,8.14-1.87-1.27-.66-2.42.85-7.02.86-2.63-4.12-3.05-4.59-.63-1.46,7.58-.81,9.39-2.82,9.62-3.21.37,2.88-10.72-2.04-11.89-2.54-.61-1.97.58-6.75,16.52-.39,1.32-.71,3.68-2.16,3.27-2.27-.63.26-1.26,3.48-16.27,1.12-5.23.82-4.24-11.84-7.88-6.21-1.78-1.49,3.16-5.57,8.68-1.14-4.26.01-7.57-1.37-10.79-.06-.15-1.01-.2-1.11-.02-1.44,2.47.86,9.07-2.24,15.94-8.35,18.53-12.96,21.81-19.78,28.1-1.92,1.77,1.17,4.5,2.91,3.21,2.13-1.57,11.22-15.37,12.87-18.64,2.26-4.48,4.54-2.21,1.71,2.02-11.65,17.42-11.8,17.61-12.27,19.01-2.48,7.38,16.28-14.92,21.35-32.78.25-.9,1.2-2.8,2.28-2.5.93.26.97,1.08-2.56,10.32-3.57,9.34-9.04,15.41-16.53,26.75-.84,1.27.79,2.94,2.53,1.91,5.88-3.49,9.22-16.18,11.38-15.15,2,.96-3.97,10.34-5.17,12.19-3.81,5.85-6.81,5.18,11.38,11.45,5.54-7.09,4.16-11.9,6.66-12.66,2.71-.82-.74,6.88-1.79,9.48-.7,1.73-1.97,3.18-.92,4.56,1,1.32,3.47,1.21,4.48-.04,1.08-1.33,1.16-3.51,3.74-4.1-1.47,6.62-1.88,5.95,1.45,7.43,3.68,1.64,2.54-3.88,6.23-4.96,1.07,2.11-2.85,5.8.65,6.59,14.17,3.21,20.88,4.14,30.75,4.78,3.17.21,2.26-.12,3.69-13.68.1-1,.21-2.1,1.69-2.49,1.12,2.45.13,4.89-.17,7.27-.37,2.88-.37,9.78,2.94,9.85,2.55.05,1.98-1.32,3.15-3.98.13-.31,1.64-1.36,1.74.03.09,1.22-.41,2.6.48,3.63,3.94,4.53,76.1-3.45,78.84-10.99-2.9-4.99-11.4-10.58-19.27-53.65-.71-3.88-6.5.23-5.05-.87ZM257.21,446.19c-6.98-2.02,1.33-9.13-23.15-46.12-3.01-4.55-3.61-4.5-8.29-2.02-6.26,3.32.38,3.78,3.58,11.22.38.89,1.2,1.74-.35,2.87-8.28-9.45-9.16-11.27-13.39-9.39-11.11,4.93-22.11,5.29-24.11,6.64-.65,1.43.54,1.96,1.35,5.38.2.84-1.05,1.48-1.63.7-3.49-4.68-2.68-5.93-6.01-5.44-4.07.6-16.48,3.3-29.7,2.63-27.65-1.4-50.76-8.69-68.56-19.18-7.02-4.14-1.83-3.01-12.93,7.32-.1-5.49,5.34-7.42,6.3-11.76-4.33-2.42-6.89-6.23-8.75-10.25-2.39-.38-10.11,4.98-11.9,6.54-8.41,7.31-17.52,10.2-27.27,27.07-4.53,7.84-4.25,15.56-.75,8.26,4.55-9.48,6.18-12.9,23.43-28.74,2.47-2.27,5.58-3.9,8.46-5.75,1.49-.96,3.12,1.46-.06,3.27-15.46,8.77-33.78,34.33-29.52,37.74.98.79,2.07-.04,3.48-2.59,9.85-17.79,24.66-33.37,26.63-30.44,1.2,1.78-18.91,16.03-25.15,34.77-.6,1.81,2.23,3.89,3.24,1.36,4.7-11.73,14.09-20.81,17.22-20.97,3.74-.19-8.88,7.28-14.18,21.41-1.04,2.79-.73,3.24,3.1,5.3,1.05-7.11,8.26-15.13,13.5-19.22.85-.67,1.62.69,1.29,1.14-7.49,9.93-9.41,10.22-11.58,17.78-.55,1.92-.58,1.92,2.73,3.22.72-1.71,1.42-3.43,2.15-5.14,3.28-7.67,9.03-11.06,8.68-8.84-.4,2.45-7.52,7.03-6.4,13.06-4.62,8.21,56.9,24.92,116.92,24.58,11.94-.07,9.51,1.77,9.39-8.01-.03-1.98,2.09-2.3,2.41-.32,1.42,8.9-.03,8.68,5.12,7.5,4.21-.96,2.87-1,1.68-13.19-.27-2.79,1.86-1.57,2.22-.44,4.19,13.1-3.17,13.39,15.08,9.7,3.17-.64,4.39.82-2.1-26.55-1.51-6.38-3.57-8.22-4.89-11.53-.71-1.77,1.23-2.26,2.09-1.37,7.28,7.57,9.01,37.63,11.29,38.42,2.36.82,5.04-1.07,4.8-3.37-.42-4.18-3.77-11.49-4.24-15.6-.05-.47,1.39-.69,1.57-.45,2.07,2.81,1.14,1.33,5.09,15.33.81,2.89,2.28,2.46,7.02,1,1.45-.45,2.02-1.49,1.84-2.89-.97-7.66-1.91-15.33-6.2-22.14-2.12-3.37,3.79-7.73,8.19,20.52.58,3.69,1,3.92,21.2-3.14,3.81-3.92,5.44-1.86,4.07-7.03-7.94-30-24.02-47.63-26.91-45.45-3.2,2.41,13.91,13.27,22.94,52.61ZM69.16,1004.26c3.13-.12,2.3,4.61,1.69,8.67-.68,4.54-.18,22.76.03,23.01.95,1.13,2.07,2.64,3.54,2.39,1.92-.33.57-1.99.54-3.05-.56-23.91-.86-15.76.57-28.01.12-.96,1.4-.31,1.43,0,.16,1.22.49,2.47.35,3.67-.72,6.24-.11,12.48-.14,18.72-.03,3.61,1.01,6.97,1.45,10.46.16,1.24,2.51,1.83,2.65.21,1.03-12.38,1.08-1.05-.89-19.14-.16-1.4,2.17-2.07,2.35-.35,1.56,14.9,1.05,4.81,1.37,21.97,55.09,18.5,85.26,16.88,106.61,14.01,2.67-.36,1.9-1.2,1.59-14.53-.08-3.33.05-3.31,1.1-3.63,1.87-.56,1.25,5.34,1.29,8.65.07,6.91-.73,9.61,3.26,8.99,17.92-2.8,19.5-2.77,19.42-5.71-.76-27.49-.16-27.25.81-27.57,1.55-.5,1.49,2.5,1.47,4.71-.16,28.08-3.01,24.86,10.13,22.1,20.19-4.23,22.07-7.92,32.53-9.7-.75-2.63-.96-5.07-.74-7.51.04-.44.75-.89,1.26-1.17.92-.52,1.5,2.61,1.75,3.65.28,1.16-.26,3.27.98,3.28,1.96.02,1.51-2.1,1.68-3.47,1.77-14.11,4.79-68.51-.42-59.52-1.28,2.22-.23,62.42-3.36,52.12-.9-2.96.89-44.69-.37-50.34-.14-.62-1.77-.75-2.01.08-1.05,3.79.29,56.38-2.18,58.22-2.17-1.03.02,3.58-.87-49.11-.18-10.3-3.61-7.93-3.62-6.53-.28,39.01.98,27.82-1.27,53.01-.12,1.36-1.36,2.36-1.29-.42.1-3.89.53-49.57-.75-51.77-6.21-10.71.28,47.42-3.75,49.65-.88-1.81-.29,3.13-1.32-28.59-.58-17.87-.37-20.44-2.87-19.95-3.39.67-1.16,3.72-2.65,43.45-.05,1.21-1.93,1.46-1.95.08-.44-41.64,1.29-43.64-3.86-42.23-4.06,1.11-3.38,3.16-3.22,7.64.27,7.62.46,6.94-.76,7.37-.53.19-1.32-2.06-1.35-2.62-.51-7.97.59-10.74-2.72-10.17-12.53,2.18-11.65,2.36-11.32,5.34.34,3.05,1.9,27.62-.23,28.78-2.7-1.96-.32-16.51-2.65-29-.5-2.67-5.18-2.74-5.09.35.02.5,2.48,33.06-.73,33.56-2.26-1.54.37-10.23-1.96-32.83-.23-2.25-3.58-2.35-3.79-.03-.77,8.8,1.98,27.99-1.57,34.31-1.13-5.3.28,3.44-1.11-32.13-.07-1.79-.44-3.18-2.24-3.1-2.94.12-2.72.95-2.76,8.37-.14,28.59.39,27.12-1.31,27.48-.95-1.74-.55-.49-1.54-30.4-.09-2.48-.29-5.4-2.65-4.58-1.86.64-1.43,1.85-1.52,3.56-1.61,31.11-1.29,29.2-2.37,30.13-.23-.39-.61-.73-.62-1.08-.05-4.98-.88-9.92-.23-14.94.38-2.97.84-13.33-.07-16.16-.6-1.86-4.21-1.76-4.34.24-.08,1.25.05-2.02-.45,19.12-6.19-8.81,2.15-21.29-6.75-21.28-4.96,0-1.68,3.7-3.81,12.92-2.02-1.28-.84-7.67-2.04-11.64-.73-2.42-4.81-2.52-4.9.39-.59,19.49-.22,18.87-1.64,19.32-1.08-1.53-.3-.72-.88-19.22-.06-2.03-1.03-2.92-2.68-2.69-1.83.26-1.62,1.66-1.63,2.86-.32,30.01.13,28.09-1.46,29.07-1.58-15.21-.64-15.43-1.3-30.62-.09-2.04-3.66-2.49-3.87,0-1.81,21.79-1.1,19.87-2.45,21.04-4.27-5,4.4-25.08-3.71-23.49-1.09.21-1.34,1.01-1.32,1.83.08,5.46-1.34,10.74-2.11,16.1-.18,1.28-.03,2.95-2.2,3.59,0-13.29,4.96-22.55-2.56-22.32-3.85.12-.97,1.27-3.08,18.49-.15,1.25-1.89,1.44-1.95.05-.27-7.69,1.86-19.72-2.49-19.21-2.56.3-.56,18.8-3.25,18.85-2.07.04-.98-1.02-.54-15.39.13-4.18.48-5.52-7.33-6.02-3.72-.24-.28,4.7-1.37,12.46-.1.72-1.74,1.8-1.99,0-.92-6.6-.51-7.24-2.18-12.9-.22-.74-2.19-.89-2.31.51-.13,1.51-.26,13.44-.27,14.96,0,1.36-1.61,2.08-2.3.24-1-2.65.28-4.53-.74-16.16-.15-1.71-3.55-2.56-3.64.35-.97,32.72-.4,30.65-1.94,31.29-2.79-10.4,2.11-35.41-3.3-34.75-2.55.31-1.61.37-2.85,24-.91,17.41-.99,16.62-1.8,17-.97.46-.99-1.3-.95-2.48.01-.46,1.01-36.36.96-36.82-.45-4.47-5.08-4.61-6.39-4.15-1.56,2.08.89,12.45-1.1,12.49-2.62.05.06-13.49-4.69-15.01-10.38-3.32-8.04-5.53-7.97,28.5-1.63-.33-1.86-1.59-1.95-2.85-1.94-25.87.25-28.78-3.62-29.27-.54-.07-.97,1.69-.95,2.07.41,9.75-1.2,19.55.64,29.28.32,1.71-1.85,2.14-2.06.58-.42-3.08-1.45-6.04-1.34-9.24.17-4.96.17-19.2-.03-23.08-.14-2.78-2.74-3.03-2.9-.29-.31,5.25-.11,2.5.24,26.83.16,10.94,2.06,10.91.16,11.79-5.07-5.56-1.41-52.94-5.47-43.2-4.33,10.42,2.66,44.67.24,45.41-1.65-1.52-2.78-14.5-3.54-21.91-1.64-16.09.02-18.11.18-25.5.05-2.22-2.78-3.47-3.27-.45-1.88,11.63-.61,36.13,1.96,48.47.35,1.7-1.38,1.31-1.68.37-1.23-3.96-5.3-26.52-3.12-49.61.21-2.25.42-3.66-.81-3.75-2.87-.22-4.29,34.31.67,52.86,1.49,5.6,8.57,12.77,9.4,9.64.55-2.08-.54-1.64,1.02-3.34,2.03,1.74-1.98,5.85,8.25,12.07,12.47,7.57,3.75,2.06,7.8-27.04ZM273.64,414.92c-.06.34-.03.72-.2,1.01-.31.53-.12.84.19.54.59-.56-.39.83.06-1.52-1.87-.98-3.46-8.08-7.52-12.96-4.3-5.17-7.72-11.06-13.43-15.09-.48-.34-.78-1.04-.22-1.56.93-.85,5.3,2.33,5.98,3.05,13.36,14.03,16.02,22.34,20.94,38.22.68,2.19,4.72-.68,3.82-4.67-1.88-8.34-9.41-19.68-14.41-24.91-6.02-6.3,4.98-5.31,16.46,21.1,1.59,3.67,1.43,7.39-1.36,11.1-18.47,24.66-24.54,78.01-26.77,81.38-3.51,5.31.28-12.97,3.76-30.46,3.45-17.29,10.64-31.21,11.12-36.5-3.05.83-4.71,2.43-5.66,5.01-1.86,5.09-4.13,10.04-5.29,15.37-7.33,33.73-6.66,31.56-8.08,32.01-2.47-6.03,9.11-43.49,9.64-45.23.16-.55-4.11-13-13.68,48.66-3.08,19.87-1.55,15.63-3.31,18.9-4.84,8.88,6.27-52.85,9.73-65.25.35-1.27-4.44-.86-5.67,2.9-3.83,11.75-.57-2.65-8.11,34.62-.27,1.33.34,2.93-1.2,3.91-.94.59-1.28-1.03-.9-4.24,3.54-29.77,9.74-35.63,5.05-34.62-2.67.57-2.94,2.92-3.55,4.8-10.99,34.2-9.36,61.08-12.37,55.76-1.6-2.81,0-6,.29-9.15,3.29-36.17,13.32-51.71,6.88-48.63-1.31.63-1.52,1.96-1.82,3.16-2.35,9.72-5.08,19.38-6.92,29.2-5.83,30.97-3.32,49.89-4.53,52.75-.15.37-1.57,1.17-1.94.05-1.29-3.87.06-10.57.06-17.43,0-24.67,6.38-46.05,10.82-65.74-7.71.38-10.91,50.16-12.83,54.53-3.53,8.07-.96-24.09,6.86-52.17.64-2.28-5.33-1.57-5.95,2.73-.66,4.62-5.53,17.14-6.85,35.55-1.13,15.66-.94,30.64-1.77,33.61-.18.65-1.46.23-1.5.09-.57-2.05-.79-1.53-.28-16.14,1.51-43.27,9.99-50.06,7.49-54.72-7.17-.36-5.27,7.4-7.97,17.71-8.61,32.97-4.46,84-5.35,84.74-5.03,4.17-2.03-50.33-1.46-56.81,3.87-43.73,12.92-45.9.11-42.86-2.29.54-2.37,1.7-3.25,5.54-3.17,13.87-1.12,15.76-3.21,15.34-2.08-.42-.7-7.6-.33-9.42,1.85-8.89,2.33-10.44-.72-10.15-9.44.9-7.94-1.36-10.88,39.42-.15,2.11-2.53,1.88-2.38-.08,2.15-29.75,1.79-28.94,2.86-34.82.32-1.75.28-3.22-1.48-3.51-2.61-.44-3.13.7-3.52,3.24-5.81,37.62,1.13,79.35-1.83,80.07-2,.49-.69-3.16-1.53-12.32-5.21-57.18,3.84-69.08-.87-70.38-2.55-.71-4.1.34-4.68,2.81-.37,1.58.37,3.47-1.61,5.55-.45-8.75.12-9.37-3.28-9.46-27.94-.8-34.72-5.73-34.21-1.33,4.3,36.63,8.11,64.27,6.07,64.9-1.57.49-1.34.2-4.51-27.01-4.89-41.96-3.97-35.25-3.85-40.24-74.41-10.64-92.9-34.12-95.65-31.19.26,1.74,2.78,7.58,4.14,7.17,2.6-.8,3.62.89,4.45,2.61,2.86,5.83,14.49,30.84,11.38,36.6-.03-.08-8.55-29.01-14.74-36-2.38,5,13.37,31.16,25.06,85.27,2.36,10.92,4.16,15.98,4.31,19.53.78,17.94,8.08,33.25,6.74,51.26-2.52,33.84,12.88,42.02-32.56,156.89-3.8,9.62-4,10.11-1.69,12.75l.21-.21c-5.77-1.95-4.36,4.72-27.38,47.72-4.75,8.89-5.03,14.36-7.39,19.93-4.4,10.42,1.7,16.47,5.4,26.57,10.17,27.77,79.18,56.89,145.66,57.24,24.94.13,57.71-4.05,58.26-4.17.07-.02,26.26-5.72,27.45-7.25.11-2.69-4.28-11.51-6.54-20.14-.98-3.75-18.17-82.59-17.11-86.35.65-2.28,1.71-.49,1.75-.21,1.6,11.3,15.39,91.87,25.85,105.74,2.04-3.44-.62,9.06-16.43-80.19-.17-.97-.07-1.58.83-2.04,1.88-.96,9.79,60.69,17.53,76.75,2.31,4.8,1.55,5.53,7.52,3.17,3.2-1.27,13.39-4.11,17.98-8.06-.96-7.78-3.48,1.19-25.31-88.83-1.33-5.51,1.95-3.56,2.74-.34,24.32,99.71,24.64,90.04,33.16,83.19-.37.3.81.62,2.22-.34,12.06-8.2,12.57-7.7,10.82-10.48-11.68-18.51-27.5-60.84-28.39-70.11-.03-.27.87-1.14,1.21-.43,2.11,4.31,4.81,18.66,15.05,41.16,15.09,33.16,15.38,30.22,19.3,27.45,4.79-3.38-2.09-5.05-24.38-54.33-5.02-11.1-11.23-31.98-12.71-32.63-2.09-.92-1.76-.45-11.12-26.3-1.27-3.52-6.56-16.83-3.17-15.17,1.62.79.91,1.98,11.24,30.42,4.74,13.04,4.41,7.41,6.02,11.52,28.7,73.08,23.68,55.61,37.23,80.94,1.23,2.3,2.11,1.94,9.11-3.97,1.42-1.2,1.91-2.68.88-4.46-2.19-3.78-17.39-31.64-17.85-35.99-.14-1.26,1.05-1.42,1.46-.86,3.4,4.67,3.35,9.53,17.77,34.66,1.34,2.35,4.31,1.84,4.89-3.79,1.6-15.53-35.67-57.98-54.24-140.31-2.4-10.64-11.88-52.74-12.95-63.68-1.74-17.72-1.74-40.69-3.81-44.65-.51-.99-.57-1.09-.37-13.03,1.27-76.12,34.64-150.84,39.7-175.39,1.37-6.63-2.28-15.74-3.36-11.69-.87,3.3,2.28,2.99.04,8.38-1.99-1.85-1.56-6.44-8.13-13.93-1.72-1.96-1.02-3.02-.48-3.88.42-.69,2.66,1.69,5.52,4.04,1.4,1.15,2.82-1.88-.75-4.61-3.74-2.84-7.37-5.86-11.39-8.29-.08-.05-21.63-12.55-21.71-12.58-2.87-1.35-8.48,1.98-4.43,5.68,2.48,2.27,11.23,8.71,16.4,17.59,7,12.02,7.72,12.24,9.54,11.77ZM106.5,921.4c-1.09,1.75.44,5.92-.65,5.92-.61,0-1.43.38-2.27-3.07-.53-2.21.51-4.18-2.24-4.47-3.54-.37-.26,10.89-2.54,10.94-2.98.07-.79-13.63-3.78-12.7-4.18,1.29-.3,16.31-4.08,14.72-3.1-1.31,1.92-16.25-2.06-16.81-1.83-.25-2.16,1.71-2.59,2.92-2.79,7.82-.51,12.21-1.87,14.63-6.8-3.88,3.01-17.93-2.49-19.8-3.1-1.05-5.01-1.67-5.34,1.61-1,9.99-.25,10.22-1.52,10.62-3.22.99.32-14.79-2.54-14.88-4.78-.16-1.84,18.01-1.53,21.83.02.26-1.31,1.49-1.79.15-2.94-8.07-1.8-17.26-1.82-21.66,0-2.32-3.57-3.44-3.88-.37-2.46,24.28,2,25.86.08,29.76-3.17-.88-3.6-18.39-3.43-21.69.51-9.84.79-8.51,0-11.11-.15-.48-2.85-1.37-3.13,1.37-.69,6.82-3.82,22.27,3.38,46.97.55,1.9,3.82,10.51,5.78,9.68,1.22-.51-4.58-18.66-2.09-19.3,2.56-.67,2.86,23.02,8.64,21.85,3.04-.61-2.05-3.83-2.02-23.4,0-.69.68-1.06,1.38-.89,1.88.44-.88,9.98,5.97,25.7.31.72,1.2,1.28,2.13,1.16,1.89-.25.54-2.2-.47-8.67-.3-1.92-1.56-10.95.34-11.38,2.63-.6.96,10.67,4.07,20.15.48,1.46,3.94,3.27,5.39,2.56,3.39-1.64-4.04-11.34-.55-13.06,1.15-.57,2.62,6.17,4.42,12.11.54,1.8,3.15,3.37,5.12,2.72,2.22-.73.59-2.95.49-5.64-.28-6.99-.46-8.26,1.02-7.95,2.23.47-.17,3.64,1.99,11.25.28,1,.45,2.06,1.38,2.75,4.89,3.58.75-11.87,3.72-12.41,3.29-.61-.53,12.71,3.03,14.24,3.56,1.53,2.04-.86,2.61-10.62.1-1.76,2.04-1.39,2.14.22.61,9.85.07,10.67,1.98,11.99,4.72,3.27.79-12.75,4.07-12,.97.22.7.98,1.16,8.22.21,3.32-.03,4.84,2.42,4.88,4.17.06.13-8.79,3.25-11.5,2.33,1.32,1.13,2.22,1.58,8.58.27,3.99.51,4.2,5.27,4.25,2.82.03-1.97-11.38,2.04-11.62,1.11-.06.81,1.3,1.88,10.58.26,2.27,3.96,3.41,3.67-.59-.07-1.01-1.55-7.01.97-7.45,1.84-.32.88,9.9,4.69,10.47,2.23.33.39-11.4,2.49-10.6,1.21.46.92-.28,1.42,7.4.19,2.97,3.18,5.27,3.03.2-.08-2.62-.71-5.22,1.49-5.5,2.56,5.43.53,9.46,3.9,9.65,3.17.18.6-4.24,2.57-6.14,3.68,1.22-.23,6.14,4.17,6.72,4.9.64,4.83-1.11,5.46-8.92.15-1.83-.15-3.89.81-4.01,4.05-.48-.94,13.2,3.58,12.87,16.04-1.17,17.65-.89,17.86-3.91.7-10.07.28-10.81,1.55-12.25,2.35-2.65,1.38,10.1,1.29,13.72,3.46.32,6.43-.17,9.37-.72,5.13-.95.14-12.96,4.55-13.65.84,1.71.05,2.25.12,10.49.03,2.53,3.11,2.35,4.07.6,1.21-2.2,1.54-12.23.51-16.03-1.23-4.57,5.52-5.01,2.38,13.81-.27,1.58.62,2.28,2.29,2.06,2.37-.31,3.05-.86,3.38-3.05,1.44-9.42-1.3-11.17.73-11.22,1.74-.04,2.45,5.51,2.27,7.95-.19,2.66-.32,5.61,2.12,4.34,2.81-1.46,2.01-9.14,1.46-11.8-.59-2.83,1.82-5.01,2.58-.46.58,3.46.4,7.71.5,9.34.13,1.97,2.76,1.62,3.2.44,1.43-3.81.68-7.62,1.42-12.33,1.98-12.45-2.29-21.48-.46-23.42.64-.68,1.83.79,2.29,3.11,3.93,19.94-4.17,33.83,2.8,32,8.19-2.15,6.26-36.36,3.4-53.55-.41-2.48-1.42-2.93-4.18-2.3-5.14,1.16-.68,4.78-3.08,7.67-2.26-.92-.91-2.44-2.03-5.38-.55-1.44-4.62-.79-4.33,1.97.91,8.67,3.31,21.22-.69,23.25-.18-9.78.1-11.25-1.89-22.18-.19-1.03-.77-1.93-2.16-1.87-5.6.2-.17,7.23-1.99,25.28-.09.91-.34,2.05-1.99,2.02.24-10.11.41-9.57-1.34-23.03-.67-5.15-6.29-1.94-5.8.68.56,2.99,1.84,16.83.1,20.22-1.53-2.13-.5,1.45-2.02-14.37-.58-6.02-.74-8.21-4.06-7.59-3.89.73,0,2.2-1.77,23.19-4.06-2.43.56-21.8-4.94-22.27-4.52-.38-4.83.66-4.17,3.94,3.64,18.1-.29,15.14-.4,14.28-1.49-11.63-1.29-12.68-3.17-16.47-.99-2-4.82-1.13-4.74,1.16.11,3.09.8,8.58-.51,11.07-3.05-3.18-.24-14.08-5.59-12.39-3.67,1.15,1.03,8.37-2,7.88-.85-.14-.21.69-.62-.04-1.46-2.6-.51-5.4-2.48-6.86-1.74-1.29-4.21-.22-6.35-.34-1.48-.09-3.04-.41-4.8.63-.12,4.89.26,7.57-1.41,6.91-.34-.13-.79-.51-.82-.81-.76-7.85,2.17-7.91-11.56-7.35-3.92.16-2.94.66-4.47,10.24-.29,1.8-2.23,1.04-2.3-.37-.08-1.62-.06-1.27.7-9.15-1.5-1.01-6.82-1.7-7.13,1.43-.95,9.45-.56,10.6-2.24,10.22-1.17-.27-.8-3.74-.69-5.2.49-6.85,2.05-8.43-8.68-8.68-5.08-.11-.9,6.04-3.94,8.3-4.32-2.51,2.04-8.41-4.61-9.9-15.07-3.36-14.61-3.35-15.83-2.68ZM119.31,352.9c-1.44-.49-1.03.83-2.4-6.5-1.02-5.48-.56-6.77-2.91-6.83-5.11-.13,1.35,13.93-.91,14.6-2.35.7-3.33-6.84-3.54-9.29-.36-4.1.83-6.39-2.7-6.47-1.08-.02-1.59.65-1.59,1.54-.02,4.36-.37,8.76,1.32,12.97.99,2.45-1.56,2.09-2.16.73-1.83-4.12-1.35-5.41-1.75-14.15-.09-2.11-4.92-3.8-5.19-1.5-.98,8.35,4.98,20.33,4.74,21.8-.34,2.05-2.17.46-2.98-1.71-7.08-18.89-2.58-20.51-5.56-22.14-6.61-3.64.49,18.15,2.91,24.88,3.97,10.99,92.26,15.43,93.68,9.34,2.78-11.86,4.29-6.14,7.46-28.97.24-1.74-2.11-1.68-2.48-.49-2.51,7.96-.82,6.84-5.89,22.34-2.17,6.62-5.12,6.48-3.54,2.19,4.49-12.29,5.07-18.82,5.34-23.67.03-.57-1.25-1.14-1.88-.4-1.07,1.25-.91,1.99-3.41,10.02-.25.79-1.45.66-1.69-.2-.4-1.45-.11-1.89.95-8.63.34-2.19-4.18-2.19-4.78.46-1.68,7.37-1.88,8.55-3.25,7.95-.96-.42.14-2.67,1.1-7.79.4-2.13-4.61-3-5.19.62-1.38,8.57-.74,11.75-3.82,14.16-.28-4.32.33-4.47,1.08-12.84.45-5.07-2.28-3.7-7.28-3.28-4.8.4-2.48,16.46-5.51,15.82-2.94-.64,3.71-14.84-.54-15.57-2.13-.37-2.05,1.06-3.48,5.85-2.41,8.12-2.3,8.34-3.35,8.38-2.59.1,4.23-13.99.29-13.94-3.08.04-2.43,9.67-5.9,13.22-1.48-3.42,4.05-12.84-.55-13.5-6.45-.92-5.7,2.37-6.46,10.03-.12,1.23-1.71.26-1.87-.24-.61-1.8.15-3.01.64-8.02.32-3.23-5.85-2.73-6.07.29-.57,7.63.27,9.69-1.19,9.28-1.38-.38-1.29-3.63-1.21-5.07.36-7.39,2.43-7.16-6.99-7.43-3.93-.11-.26,4.4-1.49,12.16ZM260.26,912.56c-4.76.83-5.61.05-3.67,9.25,4.93,23.36-.35,41.35-.87,46.42-.13,1.31,1.42,1.49,1.84.12,2.42-7.85,4.13-22.94,2.82-37.71-.42-4.67,1.94-3.26,2.39-.3.68,4.49.91,22.49-2.12,35.99-.74,3.27,3.48,2.36,4,.77.36-1.1,1.37-8.43,2.42-12.86,3.02-12.72-1.19-17.56.55-19.71,3.06-3.79-1.21-8.24.57-10.04,1.19-1.21,4.3,5.38,2.09,9.77-1.66,3.3,2.73,3.85-2.48,29-.11.52-1.57,3.98.66,3.37,2.05-.57,4.09-.92,4.82-3.48,7.93-27.65,2.45-55.57-3.56-54.28-4.8,1.03.67,11.97-2.17,12.01-1.59.03-.7-3.73-2.12-8.09-.71-2.19-3.08-1.99-2.93.27.11,1.64.63,1.09.6,7.41,0,.65-1.45,1.03-1.64-.02-.45-2.62-.82-5.25-1.22-7.88ZM297.74,908.14c-2.4-1.47.4-3.03-3.35-10.1-1.1-2.06-2.58.44-2.61.75-.15,1.71,1.68,4.72,2.12,10.34.88,11.42,2.73,8.94,2.14,21.69-1.14,24.55-3.8,23.8-2.14,24.59,3.35,1.6,3.84-19.9,3.8-23.6-.14-12.74-.62-13.13.68-13.09,2.94.09,1.86,19.6,1.43,22.45-1.07,7.09,1.67,5.55,1.95,4.6,1.1-3.8,2.56-7.57,3.02-11.46,1.63-13.61.73-27.03-4.68-39.92-.93-2.22-3.5-.65-3.47.88.05,2.82,2.58,4.67,1.11,12.88ZM170.31,227.92c.05-1.18,1.8-.44,1.87.03,1.52,10.16-.08,15.22,3.09,12.75,2.49-1.95,1.43-10.65.71-13.93-.7-3.21-.15-2.42-27.15-.32-1.44.11-1.62,1.13-1.44,2.25.24,1.47.4,2.9,2.67,2.68,3.96-.38-.02,10.25,3.21,10.71,3.66.53,1.72-7.78,3.52-10.32.14-.2,1.15-.63,1.59-.1,1.1,1.32.37,2.97.36,8.6,0,2.12,3.18,2.05,3.75.62,1.74-4.45.25-11.35,2.61-10.06,1.74.94,1.07,3.64,1.05,8.81-.01,3,3.67,2.6,3.83.09.17-2.57.17-7.97.33-11.8ZM53.44,921.03c.58-8.35.84-11.26.83-14.28,0-2.31-3.17-3.84-3.7-2.12-3.91,12.55-4.14,52.89,7.51,58.2,4.22,1.91-6.4-16.36-4.64-41.8ZM33.1,916.11c-.28,20.7,1.83,17.67,6.21,32.69.84,2.87,3.62,4.46,8.92,7.83.3.19.87.25,1.17.11.84-.39.25-1.06.19-1.62-.22-1.95-2.5-2.13-3.31-3.66-2.94-5.56-5.92-11.13-6.77-17.41-4.82-35.79,5.56-34.2-.16-36.79-3.62-1.64-6.45,12.87-6.25,18.87ZM212.37,392.08c-.3,1.82-1.01,4.76-.17,4.91,2.15.37,3.03-.73,3.7-2.56,2.48-6.81,3.34-13.72,1.27-20.8-.96-3.3-1.45-3.65-4.91-2.92-8.02,1.69-7.53,3.03-7.37,5.9.78,14.33-.32,13.11-1.64,21.63-.25,1.57,1.01,2.64,2.94,1.64,3.94-2.02,4.66-14.83,3.4-21.39-.74-3.89-.94-4.87.03-5.2,3.77-1.27,3.74,13.51,2.73,18.78ZM207.48,367.93c1.61.66,4.49-.41,4.88-1.92,6.74-25.96,9.5-30.93-2.17-28.15-4.35,1.04-1.23,1.97-9.72,29.44-.74,2.4,2.17,2.61,3,1.08.83-1.54,7.58-18.73,7.77-28.14.02-.69,1.81-1.39,2.39-.09,2.45,5.45-8.59,26.75-6.14,27.78ZM251.15,949.8c.33,8.28-.77,11.59-1.68,19.92-.23,2.06,1.94,2.02,2.65.28,1.79-4.38,4.38-16.64,4.35-29.4-.02-8.34-3.1-22.6-4.15-24.42-.86-1.49-2.89-.28-3.09.33-1.24,3.79,3.01,18.84,1.91,33.29ZM277.54,971.8c-2.35.32.05,4.31-2.16,50.4-1.85,3.48.24,6.86.33,10.29.03,1.42,3.53,1.2,3.59-2.54.65-41.32,1.68-58.61-1.76-58.15ZM287.42,900.63c-2.34.65-2.02,2.67-.81,6.55,10.43,33.19-4.82,56.13,2.6,51.02,5.94-4.12,5.2-59.5-1.8-57.57ZM46.43,944.46c1.45-6.11-3.33-10.02.64-39.54.26-1.95.24-3.74-1.69-4.11-6.18-1.19-6.57,37.48,1.05,43.65ZM283.83,956.08c2.73-.83,8.45-32.94-.88-51.24-1.01-1.97-4.43-.2-3.77,1.53,9.38,24.61,3.97,46.61,4.65,49.71ZM276.12,907.58c-1.58,5.19,4.64,12.71,3.21,33.16-1.46,20.84-4.91,21.67-2.59,22.41,6.69,2.12,9.1-35.34-.62-55.57ZM186.89,234.49c-.39,3.01-1.15,5.14.95,5.25,2.72.15,1.71-2.3,2.45-8.07.19-1.52-.97-3.38,1.01-4.49,3.01-1.68,1.64,9.85,1.74,10.66.08.63,4.56,5.46,7.3-11.77.32-2.04-.77-3.2-2.9-3.09-13.35.65-11.26-.23-10.56,11.51ZM282.5,969.62c-.86,4.42,1.3,26.85-1.33,54.69-.14,1.44-.12,2.91-.09,4.36,0,.32.38.64.59.96.44-.39,1.23-.76,1.26-1.19.27-3.49,5.98-58.05-.43-58.83ZM211.44,244.96c-4.76,5.54,14.47,59.59,20.71,54.34,1.13-.96-2.25-2.07-6.59-10.89-14.81-30.07-10.86-42.6-14.11-43.45ZM150.04,62.56c-.46-2.64,1.64-4.56,2.16-6.93.02-.06.94-.13,1.09.06,1.02,1.3.97,3.12,2.43,8.35.52,1.85,3.54,1.39,3.04-.93-.87-4.07-2.46-7.99-2.6-12.21-.02-.77-.72-1.04-1.35-1.02-2.28.06-2.57-1.73-3.49-4.57-.52-1.6-3.17-1.84-3.48.49-.3,2.23-.44,21.23,1.8,21.11,1.99-.1.4-4.27.38-4.34ZM275.7,431.94c-.17-9.31-23.96-45.87-31.7-44.18-2.99.65,6.72,7.15,6.8,7.22,8.15,5.99,17.94,24.46,21.39,33.73,2.02,5.42,2.67,3.92,3.5,3.23ZM215.68,243.51c-.39,16.38,8.95,40.69,19.09,53.27,1.38,1.71,4.11.36,2.15-1.39-5.29-4.71-10.32-16.91-13.02-23.48-8.81-21.49-4.75-24.96-8.22-28.4ZM244.56,369.02c-1.05-4.88-6.5-9.55-7.96-8.12-1.78,1.76,3.88,3.43-.09,19.43-2.54,10.23,6.27,1.42,8.05-11.32ZM143.8,15.87c1.39-2.62,3.58-4.59,5.32-6.91.67-.88-.04-1.8-.62-1.78-3.83.14-16.67,1.56-17.94,5.14-1.26,3.54,11.39,7.03,13.24,3.55ZM215.28,366.37c3.44-.83,2.74.37,6.16-11.38,5.31-18.23,5.86-18.63,3.48-19.04-2.04-.34-3.63.26-3.57,1.52.54,10.42-6.28,22.34-6.07,28.89ZM200.59,342.61c-1.21,7.67-.97,9.96-6.48,23.43-2.85,6.96,2.45,4.37,2.96,2.96,11.65-32.51,4.48-32.53,3.53-26.39ZM83.75,335.54c.98,8.51,6.19,27.85,9.86,25.51,1.69-1.09-2.41-2.63-5.08-23.28-.65-4.98-5.04-4.47-4.78-2.23ZM125.69,233.13c.05,2.51-.12,5.22,1.36,7.68.71,1.16,3.12,1.93,4.53,1.25,1.42-.68.79-1.48,0-6.99-.92-6.48,3.97-2.73,3.55-7.53-.12-1.36-1.28-1.45-2.36-1.54-5.43-.45-7.67.15-7.09,7.12ZM272.97,980.19c-.83,7.07-.32,26.21-2.65,44.7-.41,3.24.1,6.6.25,9.9.01.23.61.61.91.59,1.9-.09,3.36-46.21,1.49-55.19ZM241.91,219.8c-.98-3.21-.97-4.46-2.8-4.68-1.8-.22-4.22,1.31-4.29,2.92-.22,4.83-1.47,9.34-3.69,13.65-.33.64.66,1.58,1.52.69,2.69-2.78,1.28-6.69,5.91-5.92.17.03.5-.05.55-.16.88-2.05,2.59-3.76,2.8-6.49ZM94.13,236.72c1.53-.41,1.77-1.07,2.52-12.17.2-2.92-5.16-3.76-5.94-1.02-1.57,5.58-2.08,14.66,3.41,13.19ZM139.5,46.29c.04-2.19-3.69-2.49-3.79-.35-.67,13.68-4.71,12.9-.78,16.02,5.72,4.55,4.28,1.43,4.58-15.67ZM84.98,220.07c-4.44-.46-4.45,7.72-3.2,11.59,1,3.11,4.8,3.41,5.03,1.63,1.44-11.3,2.14-12.91-1.83-13.22ZM219.32,393.92c1.74.38,2.47-.49,2.84-1.39,2.94-7.11,3.19-14.41,1.36-21.82-.33-1.35-1.46-2.12-3.52-1.18-3.37,1.55,4.4-.79-.68,24.38ZM141.08,226.24c-6.55-.23-.2,7.43-6.05,7.18-1.4-.07-.14,5.94,1.18,7.99.93,1.45,4.08,1.59,4.28-.77.54-6.39.06-9.21,2.19-9.83,1.79-.51,1.63-1.62,1.32-2.86-.38-1.51-1.64-1.72-2.91-1.71ZM123.63,228.41c.4-4.54-4.64-4.28-4.78-.65-.4,10.06-.44,11.7.92,13.44,1.1,1.41,4.82.84,3.86-1.38-1.72-3.96-.62-7.43,0-11.41ZM83.94,378.8c.08,2.29,0,5.21,2.18,5.96,1.16.4.76.65,4.61-16.8.23-1.03-2.01-3.14-2.85-1.5-2,3.91-3.97,7.82-3.93,12.34ZM85.93,357.33c1.97-1.86-1.73-1.58-3.81-17.53-.81-6.27-.62-7.39-3.09-7.16-.95.09-1.64.52-1.49,1.58.82,6.04,4.49,20.18,8.39,23.1ZM207.43,215.1c4.45-2.85,3.84-.8,10.88-20.34.39-1.1,1.51-2.13.57-3.67-6.97,6.6-7.49,16-11.45,24.01ZM141.83,55.29c1.28.04-2.51,10.88,2.71,11.7,2.41.38.29-15.66.3-20.64,0-1.48-2.68-1.98-2.78.21-.13,2.91-.16,5.82-.23,8.73ZM249.82,178.22c-3.57,2.99-5.21,5.86-6.01,9.12-1.03,4.19-3.43,8.13-3.15,12.83,2.03-.7,2.67-2.09,3.2-3.4,2.28-5.73,5.08-11.31,5.96-18.56ZM228.28,360.51c5.3-1.38,3.35-3.38,4.83-6.81,2.61-6.04,2.94-12.53,4.26-18.83.12-.56.11-1.21-1.21-1.26-6.49,26.71-6.2,19.67-7.88,26.89ZM110.51,225.79c-.04-1.78-3.37-1.96-3.73-.29-3.39,15.52,3.52,16.54,3.67,13.22.15-3.33.1-11.48.06-12.93ZM98.63,232.2c-.05,2.02-.75,5.32,2.87,6.71,1.43.55,2.37-.45,2.14-1.33-1.73-6.7.81-11.26.06-12.93-.46-1.03-2.55-2.17-3.53-.5-1.43,2.45-1.28,5.21-1.54,8.04ZM167.61,49.9c-.96-7.7-.82-8.61-2.4-9.08-1.14-.34-2.87,1.27-2.37,4.9.31,2.24,1.41,10.55,2.07,12.25.38.99,1.87,1.95,2.43,1.54,2.64-1.96-2.19-5.9.27-9.61ZM179.62,234.18c-.1,4.36-.57,6.77,1.19,6.47,1.21-.2,2.18-.59,2.33-1.63.63-4.34.75-8.69-.15-13.01-.27-1.3-1.39-1.39-2.54-1.19-2.72.47-.41,1.73-.83,9.37ZM247.82,173.88c2.84-.69,4.84-7.76,5.19-12.71.17-2.43-.3-4.89,1.24-8.05-3.73,2.65-4.87,5.5-5.11,8.64-.6,7.77-2.56,9.88-1.32,12.12ZM230.87,217.62c-2.26-.66-2.62,1.73-2.79,3.88-.97,12.52-5.7,12.29-3.48,13.45,2.6,1.36,9.91-16.25,6.27-17.32ZM217.93,236.26c4.96-1.35,10.47-17.15,4.99-16.72-2.53.2.38,3.96-5.24,15.59-.14.28.15.75.25,1.13ZM192.57,203.41c-2.27,2.54-9.54,12.19-9.35,13.81.44,3.89,8.77-2.74,9.35-13.81ZM91.95,387.85c1.55-2.18.34-6.99,4.55-16.63,1-2.29-1.78-3.52-2.92-.96-1.66,3.75-5.39,17.05-1.63,17.59ZM200.9,202.94c-2.46,2.31-12.01,13.8-8.71,14.49.56.12,1.48.09,1.79-.25,3.53-3.91,6.11-8.27,6.93-14.25ZM211.76,237.61c4.39-3.97,6.87-10.75,6.63-15.6-.07-1.47-2.39-1.83-2.52-.33-.51,5.51-2.1,10.75-4.11,15.93ZM206.12,226.56c-.19-1.84-.11-3.8-1.68-3.4-.42.11-.92.87-.94,1.35-.2,4.59-2.18,8.73-3.51,13.03-.72,2.34,4.38,2.92,6.12-10.97ZM252.12,190.52c-4.7,3.84-6.76,8.92-8.3,14.27-.79,2.76,5.43-.67,5.27-3.94-.19-3.79,3.79-7.06,3.03-10.33ZM144.1,240.85c.27,2.54,7.1,4.05,4.34-6.37-.08-.32-5.67-6.13-4.34,6.37ZM162.44,62.35c1.97-1.61-1.36-3.26-2.35-16.85-.15-1.96-1.97-1.19-1.72.47,2.48,16.61,2.7,16.06,4.07,16.38ZM78.16,224.75c-.23-1.92,2.84-5.39-.68-5.08-4.28.36-3.45,6.66-1.23,10.32.42.71,1.7.6,1.75-.17.1-1.42.1-2.84.15-5.07ZM115.9,233.68c-.59-.01-.14.72-.16-7.41,0-.68-1.59-.87-1.79-.1-2.29,8.62,1.6,22.56,1.95,7.5ZM229.02,205.81c-5.11,3.77-5.86,4.59-7.64,8.43,9.98-1.79,7.13-.31,7.2-5.05.02-1.12,1.5-2.09.44-3.38ZM221.51,204.31c-1.4,1.43-9.01,9.27-7.06,10.69,1.91,1.39,6.22-3.4,7.06-10.69ZM256.63,140.07c4.73-6.68.7-11.89-.04-11.45-1.87,1.1-1.76,3.12-2.13,4.87-.08.39-.18-.15,2.17,6.59ZM155.94,7.12c-2.97-2.13-3.74.13-8.56,7.14-1.47,2.14,1.06,1.76,1.43,1.41,2.77-2.54,5.61-5.05,7.13-8.55ZM252.85,138.21c-3.74,6.22-2.3,13.09-.81,11.69,3-2.8,1.86-5.25.81-11.69ZM154.72,15.81c7.36-.84,10.34-18.43-.59-.92-.09.14.38.61.59.92ZM232.71,208.2c4.22-5.12,6.54-13.71,3.11-10.45-3.01,2.85-2.71,6.71-3.11,10.45ZM85.34,364.09c-.37-.53-.54-1.04-.81-1.1-1.69-.33-4.83,6.99-3.74,9.64,2.87-.46,1.84-3.2,2.93-4.72.83-1.14,1.13-2.63,1.61-3.83ZM155.49,32.76c.14-2,.09-4.03.04-6.04-.02-.75-1.69-.71-1.83-.1-2.53,11.65,1.44,10.99,1.79,6.14ZM71.8,219.67c-.03-.81-1.5-.89-1.79-.26-2.09,4.57-2.24,5.47-.45,7.32.28.29,1.89.91,1.92-.33.12-4.11.44-3.94.32-6.73ZM135.93,34.86c.38-7.34,1.01-8.95-1.38-8.89-3.61.08-1.12,5.97,1.38,8.89ZM162.19,34.82c2.92-4.3,3.27-6.85,1.6-11.89-.58,4.32-1.03,7.67-1.6,11.89ZM162,14c3.14-.35,7.37-3.25,5.38-5.26-2.14-2.17-4.46,2.48-5.38,5.26ZM167.88,27.54q1.89-4.74.19-8.11c-.07,2.97-.13,5.54-.19,8.11ZM36.83,965.21c-.61-.01-.43-1.26-.7,10.29.62.01.43,1.25.7-10.29ZM146.66,32.3c-.16,0-.07.28.18-3.71.16-2.41-1.64-2.12-2.04-.3-1.49,6.77,1.69,11,1.85,4.01ZM129.21,30.38c1.33-4.54-.3-7.46-1.44-6.68-1.15.79-.5,1.63,1.44,6.68ZM75.58,337.12c-1.32-3.63-.84-4.54-3.43-5.67-.14.34-.5.77-.39,1,.67,1.46,1.13,3.08,3.82,4.68ZM141.31,34.71c.15-6.46.44-7.18-.67-6.9-2.27.57-1.18,4.76.67,6.9ZM162.99,219.76c1.55-.06,1.25-2.22.79-2.22-.93,0-1.5.59-1.6,1.44-.03.21.5.49.81.78ZM143.93,4.35c-.32-.34.06-.31-1.41-.19.33.36-.05.33,1.41.19ZM77.06,375.94c-.06-.54-.05-1.17-.24-1.74-.13-.4-.56-.23-.59.38-.02.57.17,1.15.27,1.73.15-.1.3-.21.55-.37ZM154.5,44.62c-.49,2.31.72,2.03.44.08,0-.05-.28-.05-.44-.08ZM159.35,26.58c-.03-.15-.07-.3-.1-.45-.12.04-.35.06-.35.11-.07.61.27.4.45.35ZM195.42,402.23c-.16-.43.02-.4-.64-.24.15.44-.02.4.64.24ZM172.12,16.4c.3-.35.32-.25-.1-.33l.1.33Z"/>
      <path class="cls-1" d="M249.23,740.67c-.19,2.21-1.92,1.54-2.11.85-10.84-40.9-5.24-13.61-14.19-60.79-.84-4.44-9.68-64.14-6.6-63.69,1.69.25.8,2.24,2.05,13.19,10.36,91.17,18.89,94.99,20.86,110.45Z"/>
      <path class="cls-1" d="M258.1,708.31c.34.14.95.21,1.01.42.93,3.2,2.05,6.39,2.61,9.65,7.52,44.53,33.82,84.4,37.86,100.54,3.85,15.56-25.45-48.47-33.82-73.66-1.8-5.4-9.96-35.54-7.66-36.96Z"/>
      <path class="cls-1" d="M258.91,740.75c.35.49.87.93,1.02,1.47,3.46,12.26,8.47,24.03,12.65,36.05,25.57,73.57,42.99,87.75,39.25,89.5-6.17,2.87-53.16-111.2-52.91-127.02Z"/>
      <path class="cls-1" d="M239.9,627.68c.2.25.62.54.62.82.36,40.12,20.38,102.96,17.27,104.29-4.15,1.76-21.84-93.28-19.04-104.45.07-.26.66-.4,1.16-.66Z"/>
      <path class="cls-1" d="M237.32,508.2c2.79,2.39-2.9,28.66-4.83,75.52-.65,15.89.17,17.22-1.26,18.49-3.78,3.37.75-51.55.75-51.62.66-7.45,1.82-14.85,2.65-22.29,2.13-19.14,1.25-19.3,2.68-20.09Z"/>
      <path class="cls-1" d="M244.1,592.18c3.26-48.06,1.3-32.86,8.26-71.95.28-1.6.86-5.24,2.49-5.27,4.16-.06-6.09,10.9-8.34,87.24-.03.76-.53,1.54-.95,2.24-.09.15-1.01.12-1.13-.07-.75-1.21-.6-.79-.33-12.18Z"/>
      <path class="cls-1" d="M244.14,526.76c.52,1.52-1.8,24.08-2.8,29.68-1.37,7.61.41,5.8-2.44,33.61-1.71,16.66,2.07,30.16-1.11,29.66-4.67-.73,2.74-103.47,6.35-92.95Z"/>
      <path class="cls-1" d="M217.37,625.3c3.88,32.1,7.17,36.33,4.56,36.36-4.83.06-11.23-81.54-9.27-97.45,2.93-23.78,2.2,40.42,4.7,61.09Z"/>
      <path class="cls-1" d="M195.88,493.57c.09-.37,2.17-1.38,2.22.2.38,10.6-2.05-13.1-1.83,82.12,0,2.39-2.63,1.6-2.46-1.51.33-5.82-2.35-61.49,2.08-80.81Z"/>
      <path class="cls-1" d="M75.9,582.8c-.44-.56-.89-.86-.9-1.17-.33-10.63-2.67-21.04-3.73-31.59-2.66-26.29-16.55-57.37-13.77-57.93,4.74-.97,23.11,75.54,18.41,90.69Z"/>
      <path class="cls-1" d="M256.94,697.37c-3.34-4.16-16.12-95.54-9.38-85.52,1.24,1.84-.65,9.43,4.01,39.6.95,6.16,1.77,12.37,2.12,18.58.5,8.81,4.68,19.8,3.24,27.34Z"/>
      <path class="cls-1" d="M210.53,672.96c-4.2-5.94-12.6-87.14-11.15-89.28,2.25-3.38,2.19,8.96,4.97,35.81,3.22,31.02,7.4,47.45,6.18,53.46Z"/>
      <path class="cls-1" d="M232.28,613.48c2.1-.03.4,3.67,2.65,28.49,3.54,39.01,13.07,50.96,8.52,53.85-4.57,2.91-15.42-82.27-11.17-82.34Z"/>
      <path class="cls-1" d="M284.47,892.24c-3.45.39-3.83,1.1-5.7-5.42-21.15-73.61-19.04-69.24-17.61-69.81,2.07-.82,20.13,77.79,23.31,75.23Z"/>
      <path class="cls-1" d="M178.6,600.13c3.97,63.31,4.9,48.31,8.18,81.23.18,1.81-4.51,15.11-9.74-74.49-.13-2.28-.21-4.56,1.56-6.74Z"/>
      <path class="cls-1" d="M167.37,491.09c3.34,7.58.17,4.68,1.48,44.74,1.17,35.63,4.59,34.57,3.23,43.49-.06.41-1.74,1.51-1.68.09.35-8.43-2.03-15.22-2.38-20.43-1.07-16.02-3.01-59.66-.66-67.88Z"/>
      <path class="cls-1" d="M77.34,525.28c-2.09.83-1.59-13.81-9.78-43.96-4.56-16.82-12.34-36.64-7.2-31.03,3.88,4.22,20.88,73.43,16.98,74.99Z"/>
      <path class="cls-1" d="M186.18,547.64c.07,36.56,3.32,44.58,2.15,47.13-4.55,10.04-5.78-79.19-1.62-79.41,1.78-.09,1.01-.74-.53,32.28Z"/>
      <path class="cls-1" d="M129.56,526.31c-.22,1.8-.1,2.87-1.16,3.17-2,.55-1.02-2.18-2.27-15.23-3.78-39.55-7.55-47.31-4.2-46.09,3.92,1.42,7.3,54.07,7.63,58.16Z"/>
      <path class="cls-1" d="M241.9,742.29c.52-.08.82.14.91.67,3.32,19.54,21.39,63.36,18.95,68.77-2.29-1.55.14,4.12-11.45-34.56-10.26-34.22-10.45-34.53-8.41-34.87Z"/>
      <path class="cls-1" d="M40.3,769.72c2.4-.77,2.26-3.62,3.13-5.14,1.03-1.79,2.61-.59,2.26.59-2.22,7.52,1.3-1.14-23.58,56.58-.68,1.56-3.12,7.02-4,5.54-1.33-2.25,28.32-63.61,22.18-57.56Z"/>
      <path class="cls-1" d="M154.26,471.42c1.35,3.41.61,39.92,2.49,63.13.16,2.04-1.81,1.13-2.1-.04-.65-2.62-4.63-53.8-.39-63.09Z"/>
      <path class="cls-1" d="M267.41,486.98c-.57-2.55,7.87-27.52,9.16-30.95,6.75-17.98,6-22.37,8.58-22.1,2.96.32-13.98,46.43-15.54,50.23-1.52,3.72-2.79,2.27-2.2,2.82Z"/>
      <path class="cls-1" d="M96.79,461.94c.4.38,1.1.72,1.21,1.19.91,3.63,2.01,7.26,2.47,10.95,6.57,52.55,6.12,35.3,5.85,41.39-.01.25-.87,1.03-1.25.34-3.4-6.16-5.66-35.4-9.43-50.18-.77-3.02-.17-2.91,1.14-3.7Z"/>
      <path class="cls-1" d="M225.47,668.65c2.92,3.32,1.16,11.21,12.3,55.79,1.14,4.56-1.78,3.96-2.16,2.18-4.18-19.33-11.38-51.8-10.14-57.97Z"/>
      <path class="cls-1" d="M34.43,805.35c-2.2,8.39-19.93,51.81-20.74,52.48-1.13.94-1.79-1.78-1-3.27,12.42-23.44,18.51-54.81,21.73-49.21Z"/>
      <path class="cls-1" d="M220.23,912.09c-3.22.31-4.07-25.81-8.51-45.21-.39-1.67,3.12-8.55,5.8,17.92,1.93,19.07,5.25,27.04,2.72,27.29Z"/>
      <path class="cls-1" d="M243.38,852.14c.5.45,1.01.68,1.06.98,3.21,19.02,13.73,50.55,10.84,50.99-.86.13-1.4-.77-1.61-1.62-11.38-47.68-11.58-46.68-10.3-50.35Z"/>
      <path class="cls-1" d="M196.49,758.82c1.87.65,1.14-1.76,8.33,43.66,1.36,8.6-1.91,5.32-1.97,3.98-.7-13.99-8.11-41.88-6.35-47.63Z"/>
      <path class="cls-1" d="M71.6,688.5c3.57-19.95,5.46-27.5,5.79-39.73.05-1.96-.7-4.6,1.92-5.99,3.63,4.55-4.38,39.74-4.51,40.33-.39,1.8-.51,4.09-3.19,5.38Z"/>
      <path class="cls-1" d="M229.01,909.61c-.42,3.71-2.37,1.84-2.59.57-4.65-26.82-7.55-38.72-4.24-37.42,1.56.61,1.03,2.04,1.22,3.15,6.14,35.27,5.2,30.3,5.61,33.7Z"/>
      <path class="cls-1" d="M56.91,848.08c-.03.07-13.36,35.42-13.57,35.84-1.01,1.99-3,.29-2.33-1.12,7.66-16.16,12.8-41.07,15.9-34.71Z"/>
      <path class="cls-1" d="M16.25,862.48c.06-1.02.09-2.11.47-3.04,14.2-35.44,13.91-34.71,15.54-36.23,4.74-4.43-11.36,28.44-13.62,38.86-.37,1.71-2.47,1.82-2.38.41Z"/>
      <path class="cls-1" d="M206.33,731.76c-.68-1.04-1.37-1.68-1.52-2.41-.02-.08-6.48-30.38-5.3-38.08.07-.45,1.55-1.69,1.74-.33,3.84,27.57,3.55,30.36,5.61,38.79.11.47-.26,1.05-.53,2.04Z"/>
      <path class="cls-1" d="M209.82,614.26c-.43.97-.59,2.15-1.83,1.49-.33-.18-.69-.62-.71-.95-.52-10.33-4.17-34.13-1.14-34.27,2.09-.08.68,8.99,3.69,33.74Z"/>
      <path class="cls-1" d="M277.38,850.29c3.09,1,7.91,18.23,14.06,27.29,2.08,3.06,2.84,15.49-14.77-25.82-.24-.55-.1-1.2.71-1.47Z"/>
      <path class="cls-1" d="M30.35,848.33c-5.34,9.43-6.31,15.78-7.98,19.68-1.49,3.48-7.65,4.69,8.92-26.81,1.38-2.62,4.57-2.61-.95,7.13Z"/>
      <path class="cls-1" d="M222.46,606.71c-2.76-1.82-1.52-21.37-2.25-33.02-.08-1.29.71-4.05,1.75-3.38.34.22.29-1.68,1.11,35.45,0,.32-.4.64-.61.95Z"/>
      <path class="cls-1" d="M80.09,629.09c-3.31-1.71-1.48-2.24-1.18-11.91.61-19.54-.92-12.39-.4-19.19.06-.72,1.22-.37,1.44-.09,2.05,2.59,1.51,3.19.14,31.19Z"/>
      <path class="cls-1" d="M139.77,486.66c.38,8.99.61,8.24-.64,8.74-2.53,1.03-1.19-13.39-2.81-19.71-.65-2.53,2.61-4.31,3.12,1.01.05.46.79,9.94.33,9.95Z"/>
      <path class="cls-1" d="M160.3,473.84c3.07-1.15,1.5,17.52,1.03,20.76-.19,1.31-1.72.03-1.73-.21-.07-1.76-.93-19.93.7-20.55Z"/>
      <path class="cls-1" d="M50.12,885.32c-.58-.35-.81-.93-.63-1.5,7.96-23.97,11.32-21.12,9.49-16.85-7.99,18.72-7.71,18.12-8.86,18.35Z"/>
      <path class="cls-1" d="M75.13,477.55c-.41.72-.6,1.08-.8,1.43-.55-.28-1.46-.46-1.58-.86-5.21-17.02-4.9-16.61-4.25-17.11,2.8-2.12,5.78,13.6,6.63,16.54Z"/>
      <path class="cls-1" d="M226.66,737.93c2.86.49,5.55,16.16,5.9,19.03.23,1.88-1.59,2.15-1.95.67-5.26-21.45-4.56-18.37-3.95-19.7Z"/>
      <path class="cls-1" d="M107.46,476.77c-.41,2.5-.32,2.58-.86,2.6-.9.03-1.61-1.88-1.65-2.33-.88-10.43-3.58-13.03-1.37-13.67,2.22-.65,2.36,2.02,3.67,10.9.22,1.52-.33,2.46.2,2.5Z"/>
      <path class="cls-1" d="M240.17,800.07c-1.76-.12-1.4-.5-4.61-19.3-.35-2.05,1.61-4.22,2.85,3.57,2.28,14.25,2.96,14.7,1.76,15.73Z"/>
      <path class="cls-1" d="M171.4,633.9c-.88-.15-1.45-.91-1.55-1.65-.25-1.84-1.73-14.15.12-14.38,1.65-.2,1.29,1.39,1.86,9.72-.67.02,1.44,6.63-.43,6.31Z"/>
      <path class="cls-1" d="M145.42,481.82c.61,6.91,1.12,7.38-.54,7.49-1.45.09-1.44-1.08-2.08-14.72-.11-2.24,3.44-6.4,2.63,7.23Z"/>
      <path class="cls-1" d="M79.99,541.09c.59-2.66,2.21-1.54,2.34-.76,2.58,15.18,2.91,15.54,1.46,15.3-1.05-.18-.82-.07-3.79-14.54Z"/>
      <path class="cls-1" d="M222.23,857c-.38-.06-.99-.17-1.05-.39-.57-2.07-2.26-9.82-2.53-12.67-.13-1.38-2.21-3.61.03-4.01,1.85-.33,1.4,2.58,1.77,4.02.29,1.13,3.18,13.3,1.78,13.05Z"/>
      <path class="cls-1" d="M187.13,626.42c-.55-4.45-.98-5.33.25-6.61,2.07-2.16,2.18,9.39,1.74,12.58-.11.8-.14,1.91-1.31,1.69-1.05-.19-.84-.69-.68-7.67Z"/>
      <path class="cls-1" d="M55.43,462.54c-1.6-.6-.82,1.39-5.62-10.9-.24-.6,1.29-1.44,1.8-.73,2.48,3.47,3.93,7.24,3.83,11.63Z"/>
      <path class="cls-1" d="M243.75,814.99c1,1.21.81-.89,3.28,12.21.34,1.78-1.65,2.64-2.23.44-1.63-6.2-3.7-12.84-1.05-12.65Z"/>
      <path class="cls-1" d="M56.95,734c-.28-.12-.62-.71-.54-.96,10.83-31.31,3.54,2.2.54.96Z"/>
      <path class="cls-1" d="M212.27,901.16c-3.04,6.11-3.22-2.91-3.73-9.76-.12-1.58,1.99-1.14,2.11-.44.59,3.46,1.12,6.93,1.62,10.19Z"/>
      <path class="cls-1" d="M36.92,865.02c-.65,2.4-2.78,12.09-4.56,10.06-1.06-1.21-.04-2.28.31-3.41,2.77-9.09,1.36-6.72,3.53-8.1.24.49.48.98.72,1.45Z"/>
      <path class="cls-1" d="M193.65,890.08c5.38,19.01-4.37,10-1.2.37.07-.21.73-.24,1.2-.37Z"/>
      <path class="cls-1" d="M61.56,484.06c-.23.11-.93-.14-1-.36-3.64-10.55-3.89-11.08-2.8-11.46,2.25-.77,5.48,11,3.81,11.82Z"/>
      <path class="cls-1" d="M80,470.61c-.13,2.9-2.05,2.16-2.37.96-2.02-7.66-2.52-9.01-1.58-9.23,1.76-.41,3.88,5.82,3.94,8.27Z"/>
      <path class="cls-1" d="M194.86,851c-1.86-.23-2.08-.86-2.96-10.77-.15-1.66,1.73-2.66,2.16-.15.62,3.61,1.53,7.21.8,10.93Z"/>
      <path class="cls-1" d="M158.35,577.11c-.59-.39-1.1-.54-1.24-.85-1.64-3.6-1.71-10.97-.5-10.51.54.2,1.4.53,1.46.91.57,3.42.85,6.85.28,10.45Z"/>
      <path class="cls-1" d="M77.66,497.16c-.8-9.85-3.83-14.94-2.39-15.42,2.55-.85,4.24,9.29,2.39,15.42Z"/>
      <path class="cls-1" d="M286.15,879.46c1.81,2.38,2.84,5.02,2.71,7.99-.01.3-1.33,1.6-1.9.46-1.21-2.41-2.13-4.91-2.21-7.61,0-.34,1.2-1.11,1.41-.85Z"/>
      <path class="cls-1" d="M257.81,850c-1.07,2.29.64,3.96-1.41,4.04-1.72.07-1.49-2.24-1.93-3.5-.68-1.93-.98-4-1.36-6.02-.04-.21,1.01-1.58,1.79-.39,1.24,1.91.93,4.53,3.05,6.04.01.02-.14-.17-.14-.17Z"/>
      <path class="cls-1" d="M182.01,829.9c-.67-4.29,4.02-5.57,2.75,6.75-.07.64-1.44.88-1.85.08-1.11-2.13-.67-4.46-.9-6.83Z"/>
      <path class="cls-1" d="M46.01,843.09c-.43-.69-.84-1.03-.79-1.3.71-3.64,2.03-7.1,3.53-10.49.17-.38,1.01-.47,1.54-.69.14.37.5.82.4,1.1-1.45,3.74-2.06,7.84-4.69,11.38Z"/>
      <path class="cls-1" d="M32.55,854.74c.24.25.73.56.69.76-.81,4.33-4.89,15.8-5.77,11-.12-.68-.49-.17,4.08-11.02.14-.31.64-.48,1-.74Z"/>
      <path class="cls-1" d="M262.29,898.14c-1.4-2.24-4.99-10.25-2.83-11.38.93-.49,1.07.14,3.59,8.82.23.79.16,1.65-.76,2.56Z"/>
      <path class="cls-1" d="M213.22,758.68c-.03-.2.52-.57.86-.72,3.66-1.52,2.62,25.2-.86.72Z"/>
      <path class="cls-1" d="M210.03,546.55c.39-3.17.16-3.02,1.34-3.54,1.92-.85,1.03,9.23-.63,7.77-1.31-1.15-.48-2.68-.71-4.23Z"/>
      <path class="cls-1" d="M222.96,708.86c-3.24-2.01-3.74-6.97-2.52-7.43,1.04-.4,1.18,1.32,2.52,7.43Z"/>
      <path class="cls-1" d="M61.53,875.32c.28,2.22-.89,3.97-2.17,5.65-.2.26-1.54.36-1.5-.28.39-6.16,3.53-6.52,3.67-5.37Z"/>
      <path class="cls-1" d="M11.04,839.13c-1.96,6.5-1.89,6.95-2.92,6.97-1.41.03-1.02-4.28,1.73-7.7.4.24.8.49,1.2.73Z"/>
      <path class="cls-1" d="M90.13,532.76c-3.35-2.8-2.67-9.13-1.33-8.29,1.01.64.83.91,1.33,8.29Z"/>
      <path class="cls-1" d="M111.74,466.16c3.35,4.03,1.61,6.45.98,6-2.15-1.49-1.59-3.37-.98-6Z"/>
      <path class="cls-1" d="M88.77,481.68c-.03,2.48-1.98,2.41-2.34.87-.24-1.03-.98-4.32.03-4.61,1.59-.46,1.74,1.73,2.31,3.75Z"/>
      <path class="cls-1" d="M85.91,468.08c-3.83-1.77.98-6.85.79-.52,0,.19-.53.36-.79.52Z"/>
      <path class="cls-1" d="M267.27,486.84c.27,1-.82.56-.35.27.39-.25.67.03.35-.27Z"/>
      <path class="cls-1" d="M58.26,148.65c.99-.93,1.92,1.22,2.05,2.03,3.1,18.94,18.76,41.22,18.63,42.74-.96,11.04-24.38-41.3-20.68-44.77Z"/>
      <path class="cls-1" d="M71.32,64.35c-.19.55-.24,1.23-.61,1.67-1.5,1.77-2.97,3.59-4.68,5.16-21.57,19.77-25.43,35.62-27.22,33.51-3.87-4.51,28.26-39.43,31.46-40.94.18-.09.63.35,1.05.6Z"/>
      <path class="cls-1" d="M205.28,113.35c-1.9-2.8.07-.55-5.98-12.7-9.53-19.12-18.6-21.55-16.33-23.75,5.06-4.9,29.73,38.58,22.32,36.45Z"/>
      <path class="cls-1" d="M203.99,66.04c17.17,8.27,34.55,42.79,27.7,37.11-2.67-2.21-1.04-4.03-11.18-18.23-11.39-15.94-20.68-17-16.52-18.88Z"/>
      <path class="cls-1" d="M129.88,169.18c1.04.11,1.26,1.03,1.06,1.84-1.39,5.68,5.38,41.39,8.59,45.02.75.85,1.38,1.77-.06,2.44-5.13,2.36-14.05-49.75-9.59-49.29Z"/>
      <path class="cls-1" d="M232.42,133.13c-3,4.7-.87.56-14.35-30.96-2.94-6.88-5.9-9.54-4.27-9.95,4.47-1.15,17.21,36.22,18.62,40.91Z"/>
      <path class="cls-1" d="M32.26,112.72c.49,6.14-3.2,6.42-2.61,24.78.57,17.82,3.93,17.97,4.42,23.88-5.08-1.2-11.33-35.51-1.81-48.66Z"/>
      <path class="cls-1" d="M200.26,118.9c-5.36,4.29-1.07-8.89-16.77-27-.99-1.14-1.8-2.32-.76-3.07,1.54-1.14,3.24,1.23,4.39,2.71,7.75,10.04,9.53,16.75,13.15,27.36Z"/>
      <path class="cls-1" d="M33.79,126.4c4.07,1.39-1.22,1.02,6.3,30.15,1.4,5.43,4.6,12.28,5,14.73,1.36,8.29-13.13-19.85-11.3-44.88Z"/>
      <path class="cls-1" d="M40.97,123.2c.72-22.59,12.89-30.16,10.64-24.87-.94,2.21-7.37,7.79-8,27.17-.03,1,.28,5.34-1.6,5.59-1.67.22-1.2-1.21-1.04-7.9Z"/>
      <path class="cls-1" d="M45.43,152.37c-.96-2.69-4-16.4-1.83-16.78,1.99-.35,1.15,1.97,3.14,12.63,2.3,12.32,11.17,24.4,10.38,27.31.87-.62-2.35,3.09-11.69-23.16Z"/>
      <path class="cls-1" d="M223.29,143.92c-3.37,6.4-2.89-9.85-8.99-22.04-1.45-2.9-1.21-5.17-.09-4.92,2.14.47,1.99,2.53,2.58,3.96,3.42,8.26,5.3,15.41,6.5,22.99Z"/>
      <path class="cls-1" d="M264.26,120.45c-4.53-21.29-7.84-19.98-7.12-22.37.08-.26.53-1.16,1.32-.8,1.85.86,2.54,2.24,5.33,11.04,3.83,12.16,3.69,11.44.24,11.9l.23.22Z"/>
      <path class="cls-1" d="M197.01,57.99c-2.55.69-4.4-4.38-14.79-6.67-3.77-.83-3.34-2.62-2.46-2.85,5.52-1.4,20.87,8.53,17.25,9.51Z"/>
      <path class="cls-1" d="M86.19,160.23c.88-.29,1.2.11,1.74,3.44,2.69,16.48,6.92,17.41,4.54,18.1-.25.07-.79-.35-1-.67-3.9-5.96-5.17-12.69-6.26-19.48-.1-.6.43-1.28.97-1.39Z"/>
      <path class="cls-1" d="M118.53,189.05c-3.69,1.27-6.78-12.83-6.43-19.47.07-1.4,1.76-.99,1.91.21.3,2.34.22,9.42,4.35,19.39l.17-.12Z"/>
      <path class="cls-1" d="M195.31,156.23c-1,1.8-.75,1.98-2.07,1.6-.86-.25.5-1.9-3.33-13.04-.27-.77-.36-2.39.75-2.55,2.58-.37,4.35,12.19,4.65,13.99Z"/>
      <path class="cls-1" d="M194.71,64.46c-1.56,1.79-4.48-3.16-12.31-5.52-1.04-.32-1.33-1.43-1.21-2.42.27-2.07,13.18,4.11,13.51,7.94Z"/>
      <path class="cls-1" d="M51.71,139.66c1.12-6.79,1.01-9.73,2.79-9.17,1.28.41,1.08,2.39.86,3.23-2.17,8.39,1.08,10.92-1.78,10.98-1.84.04-1.69-3.05-1.87-5.03Z"/>
      <path class="cls-1" d="M165.18,173.04c.45-5.27.3-6.13,1.35-6.16,1.36-.04,1.69,1.61,1.55,3.47-.71,9.16-.79,9.25-1.98,9.03-1.85-.35-.12-6.3-.92-6.34Z"/>
      <path class="cls-1" d="M206.03,126.29c1.63.58,4.6,7.96,5.4,11.06.35,1.34-1.36,1.85-1.9.89-1.95-3.48-3.29-7.19-4.15-11.05-.06-.25.42-.6.65-.91Z"/>
      <path class="cls-1" d="M208.54,81.3c1.41,1.41-2.79,3.67-9.55-6.99-.14-.22.17-.74.34-1.09.4-.83,3.28,2.1,9.21,8.08Z"/>
      <path class="cls-1" d="M92.71,51.8c-7.64,6.27-12.32,6.24-11.69,5.42,2.84-3.72,7.62-3.79,11.69-5.42Z"/>
      <path class="cls-1" d="M209.02,54.16c5.23,1.11,6.33,6.44,4.77,5.84-1.65-.64-7.19-3.59-5.97-5.13.24-.29.69-.42,1.2-.71Z"/>
      <path class="cls-1" d="M187.67,68.39c-.37.26-.75.71-.97.65-.8-.23-1.69-.48-2.29-.99-1.13-.96-4.11-1.22-2.95-3.03.97-1.51,3,.47,4.5,1.06,1.04.4,1.72,1.17,1.72,2.31Z"/>
      <path class="cls-1" d="M174.56,75.16c-.36.18-.78.57-1.05.49-3.01-.93-5.38-3.34-4.77-4.76.82-1.92,5.69,1.2,5.82,4.27Z"/>
      <path class="cls-1" d="M184.25,161.02c-2.95-.07.34-8.13,1.1-4.76.18.79.27,4.8-1.1,4.76Z"/>
      <path class="cls-1" d="M57.11,175.54c1.62.65,1.15,1.73.65,2.83.71.79-1.15-1.42-.51-2.92l-.13.1Z"/>
      <path class="cls-1" d="M230.41,166.92c.7,1.02-.66,1.71-.78,1.06-.26-1.46,1.31-.59.78-1.06Z"/>
      <path class="cls-1" d="M118.36,189.17c.18.61.17.43-.05.66.23-.95.27-.82.05-.66Z"/>
      <path class="cls-1" d="M57.76,178.36c.14.03.41.09.41.07.11-.37,0-.35-.26.07,0,.01-.14-.15-.14-.15Z"/>
      <path class="cls-1" d="M229.79,1004.9c3.93-.35-.02,20.97,2.1,39.51.25,2.17-2.1,2.88-2.65.41-.42-1.84-1.15-39.78.56-39.93Z"/>
      <path class="cls-1" d="M175.03,1051.46c-.12.45-1.61,1.47-1.76.19-.33-2.67-2.47-32.13.2-32.33.63-.05,1.38.91,1.24,1.74-1.01,5.91.89,28.25.32,30.39Z"/>
      <path class="cls-1" d="M142.22,1025.82c3.26.09.14,15.74,1.85,20.85,1.06,3.15-2.51,3.16-2.67.14-.08-1.44-1.07-21.06.82-20.99Z"/>
      <path class="cls-1" d="M181.68,1052.87c-.98.11-1.61-1.29-1.65-2.22-.94-22.89-.88-21.62-.36-22.24,2.36-2.8,2.64,5.63,2.49,6.95-.48,4.19,1.3,17.32-.48,17.51Z"/>
      <path class="cls-1" d="M223.24,1045.46c-.65-23.66-1.51-26.39.44-26.34,1.37.03,1.56,6.73,1.56,6.81.31,18.47.31,17.85-1.99,19.53Z"/>
      <path class="cls-1" d="M75.07,1000.01c-1.56-1.14.31-7-2.01-20.19-.35-2.01.08-2.23.79-2.65,2.95-1.78,4.14,21.73,1.22,22.84Z"/>
      <path class="cls-1" d="M150.21,1031.71c2.41,2.63.21,11.9,2.11,16.79,1.3,3.36-2.95,5.46-3.21.78-.15-2.68-.91-19.77,1.1-17.58Z"/>
      <path class="cls-1" d="M211.23,1040.98c-.21,9.12.06,9.38-.92,9.35-.52-.01-.85-.19-.95-.68-.12-.6-.33-1.2-.32-1.79.22-18.63-.51-19.82.56-20.02,2.76-.53,2.11,10.35,2.04,13.16-.13,0-.27,0-.4,0Z"/>
      <path class="cls-1" d="M202.06,1044.66c-.52,2.43.61,5.35-.72,8.07-3.38-2.27-1.48-5.62-1.7-8.45-.27-3.48.18-7.02.38-10.53.01-.21.59-.56.89-.55,1.69.07,1.35,2.82,1.14,11.46Z"/>
      <path class="cls-1" d="M238.8,1038.41c0,.4.84,8.36-.77,7.9-1.66-.47-1.77-.85-1.82-3.24-.23-12.24-.64-13.49.89-13.55,1.47-.05,1.19,1.46,1.7,8.89Z"/>
      <path class="cls-1" d="M187.7,1053.24c-.63-.05-.93-.46-.94-.66-.66-13.75-1.07-15.02.57-14.9,1.88.14,2.79,15.73.37,15.55Z"/>
      <path class="cls-1" d="M223.5,1007.28c-1.11.36-.88.15-1.74-10.46-.58-7.23-2.48-8.28-.49-8.6,3.37-.54,4.2,18.41,2.23,19.06Z"/>
      <path class="cls-1" d="M246.67,1038.6c-.08,2.52.02,4.31-1.94,3.94-.88-.17-.96-5.99-.85-7.87.02-.33.42-.65.64-.97,1.69,1.17,1.23-.27,2.16,4.9Z"/>
      <path class="cls-1" d="M160.37,1041.56c-.84,1.59-1.2,2.52-1.67,2.4-3.44-.92-.58-8.54.72-5.39.38.93.62,1.91.95,2.99Z"/>
      <path class="cls-1" d="M115.94,1019.1c-.2,1.85-.21,4.3-1.19,4.23-.36-.03-1.22-.76-1.31-1.19-1.25-5.41,2.32-9.66,2.5-3.04Z"/>
      <path class="cls-1" d="M106.57,1032.53c-.11.38-.19,1-.49,1.5-.14.24-.89.47-1.05.34-2.62-2.07-1.51-7.37-.12-6.86,1.23.46.92-.12,1.66,5.03Z"/>
      <path class="cls-1" d="M133.44,1028.44c-1.39,4.73-4.15-3.91-1.64-4,1.8-.07,1.6,3.4,1.64,4Z"/>
      <path class="cls-1" d="M236.02,421.25c4.48.54,11.71,24.12,8.77,22.33-2.65-1.62-2.29-4.64-3.01-7.07-3.47-11.79-8.42-13.56-5.76-15.26Z"/>
      <path class="cls-1" d="M69.13,429.84c.63,1.11,1.57-.58-4.46,10.31-.29.53-2.14.73-2.08-1,.04-1.11-.6-.34,5.38-9.03.16-.24.77-.2,1.17-.29Z"/>
      <path class="cls-1" d="M196.26,431.99c-.34-.09-.75-.44-.86-.76-2.96-8.39-3.03-8.61-2.27-9.19,2.94-2.22,5.82,10.69,3.13,9.95Z"/>
      <path class="cls-1" d="M131.98,426.16c2.19-7.34,2.37-9.31,3.78-8.99,1.97.43-.86,3.74-1.75,11.07-.13,1.06-2.14,2.56-2.03-2.08Z"/>
      <path class="cls-1" d="M237.84,413.12c-1.92-.07-2.74-3.05-3.06-4.95-.23-1.38-2.14-2.59-.53-4.18,1.8.78,2.05,2.47,2.34,4,.33,1.72,2.14,3.14,1.25,5.12Z"/>
      <path class="cls-1" d="M80.08,403.21c.22-2.84,1.51-5.11,4.07-6.63.7-.41,1.2.73,1.11.89-1.24,2.18-2.54,4.33-3.85,6.48-.22.36-1.35-.48-1.33-.73Z"/>
      <path class="cls-1" d="M218.8,415.45c-.1.13-1.11,1.63-1.44,1.06-1.04-1.74-4.66-4.96-2.77-6.17,1.46-.95,3.71,3.3,4.21,5.11Z"/>
      <path class="cls-1" d="M90.89,398.62c.31,1.49-2.97,6.82-3.74,5.24-1.03-2.11.91-4.36,2.75-5.67.51-.36.87.29.99.43Z"/>
      <path class="cls-1" d="M139.81,420.22c.24-.88.83-3.98,2.01-3.92,1.55.09.36,3.44-.32,5.22-.1.27-.67.38-1.03.56-.75-1.39-.54-.88-.66-1.87Z"/>
      <path class="cls-1" d="M181.27,458.62c-1.15,4.22-3.39.63-2.52-1.7.62-1.64,2.24-2.46,2.52,1.7Z"/>
      <path class="cls-1" d="M180.4,939.32c2.79.7,1.65,25.74,1.11,28.54-.1.53-.44.72-.94.43-.94-.54-.83-.06-.87-7.6-.12-21.16-.44-20.58.71-21.37Z"/>
      <path class="cls-1" d="M110.05,933.94c-1.18,8.59-1.38,17.07-.63,25.61-3.45.29-4.32-13.76.63-25.61Z"/>
      <path class="cls-1" d="M157.05,943.13c1.29,1.14,2.5,19.64-.4,20.08-.75.12-.85-.28-.49-18.6,0-.49.57-.97.89-1.48Z"/>
      <path class="cls-1" d="M97.85,953.88c-.03.24-.68.6-.95.54-3.9-.89,5.15-30.41.95-.54Z"/>
      <path class="cls-1" d="M187.22,956.17c.97-1.4-.99-4.07,1.76-5.4,1.53,1.79.8,3.89.81,5.85.05,6.14-2.88,6.63-2.57-.44Z"/>
      <path class="cls-1" d="M118.69,948.94c2.22.88,2.13,9.08,2.09,11.21,0,.47-.84,1.23-1.82.2-1.26-1.33-.8-8.89-.27-11.41Z"/>
      <path class="cls-1" d="M173.37,960.09c-.97-.65-.49-.01-1.7-10.8-.35-3.15,2.28-2.51,2.71-.02.4,2.29.96,12.14-1.01,10.82Z"/>
      <path class="cls-1" d="M202.57,957.46c1.05.62.96-.89,2.22,8.39.06.44-1.47,1.77-2.19.03-.92-2.18-1.86-8.84-.03-8.42Z"/>
      <path class="cls-1" d="M184.43,973.32c1.55.64,1.12,2.05,1.25,3.18.7,6.01-2.52,5.86-2.62,4.69-.19-2.09-.59-8.69,1.37-7.88Z"/>
      <path class="cls-1" d="M230.58,954.96c-.69,4.11-.55,4.89-1.65,4.57-1.12-.32-2.12-4.82,0-7.68.13-.17,1.01-.11,1.03-.03.25.97.4,1.96.61,3.14Z"/>
      <path class="cls-1" d="M119.34,934.06c-1.58.04-2.44-5.45-.36-7.68.19-.21.97-.17,1.02.17.03.24,1,7.46-.65,7.5Z"/>
      <path class="cls-1" d="M89.96,947.38c-.04,1.57.29,4.58-1.14,4.2-2.12-.55-1.17-8.86.02-8.94,2.16-.13.66,4.73,1.12,4.73Z"/>
      <path class="cls-1" d="M149.38,958.69c-.14,5.93.19,7.95-1.45,7.54-2.25-.57-.34-5.6,1.45-7.54Z"/>
      <path class="cls-1" d="M160.32,934.69c-.28.93-.54,2.18-1,2.1-.38-.07-.95-.15-1.06-.39-2.59-5.55,2.34-10.02,2.06-1.7Z"/>
      <path class="cls-1" d="M195.06,952.51c-1.73-.89-.35-2.95,1.08-2.67,1.31.25.63,3.11-1.08,2.67Z"/>
      <path class="cls-1" d="M221.33,298.98c-8.35-2.6-20.39-38.68-14.81-36.56,2.07.79,0,12.9,14.17,33.54.53.78,1.39,1.64.64,3.02Z"/>
      <path class="cls-1" d="M184.14,278.7c.71-.14,1.24.36,1.41.97,2.47,9.29,2.82,10.31,1.98,10.71-2.6,1.25-5.44-11.28-3.38-11.68Z"/>
      <path class="cls-1" d="M178.48,258.75c.15,2.53.67,4.5-.87,4.47-1.76-.03-1.21-2.37-1.16-11.78,0-1.05,1.23-.83,1.67.14.9,2,.04,4.09.36,7.16Z"/>
      <path class="cls-1" d="M187.23,260.91c.71,6.11.74,4.68-.2,5.72-1.78-1.51-1.94-5.45-2.5-11.04-.12-1.13,2.15-1.23,2.28-.21.27,2.14.56,5.51.42,5.53Z"/>
      <path class="cls-1" d="M202.57,246.49c2.84.8,2.58,3.27,2.94,10.73.02.38-1.46,1.5-1.81.18-2.6-9.79-.17-11.65-1.14-10.91Z"/>
      <path class="cls-1" d="M199.32,300.53c1.27.32,3.04,3.32,2.36,6.26-.36,1.56-4.08-1.81-3.36-5.68.04-.24.65-.38,1-.57Z"/>
      <path class="cls-1" d="M88.97,249.72c-.52,2.07-1.82,3.5-2.52,2.84-1.25-1.16,0-2.27.2-3.36.85-4.56,4.02-6.27,2.33.52Z"/>
      <path class="cls-1" d="M135.93,250.26c2.91,1.41-.42,7.94-1.37,5.22-.51-1.45-.16-5.97,1.37-5.22Z"/>
      <path class="cls-1" d="M217.16,323.97c.06-2.5-.27-4.49,1.3-4.91,2.73-.73,2.06,6.44.45,9.18-.45.75-2.01.99-2.05-.61,0-.15-.08-3.67.3-3.66Z"/>
      <path class="cls-1" d="M178.41,369.04c-.72.77-1.84.08-1.62-.64,2.66-8.93.67-13.39,3.26-13.08,2.72.32.13,11.84-1.63,13.71Z"/>
      <path class="cls-1" d="M164.47,358.03c-.86-.16-1-.09,2.04-12.9.04-.15,1.12-.88,1.38.02.38,1.35-.64,13.4-3.42,12.88Z"/>
      <path class="cls-1" d="M120.79,400.71c-1.48-4.13-.29-8.14.67-12.14.12-.52.63-1.07,1.45-.89,2.13.48-.74,6.85.87,11.79.81,2.48-3.67.57-3,1.24Z"/>
      <path class="cls-1" d="M131.1,399.55c-.7,3.32-3.84,2.4-3.78-5.73.02-2.3,2.36-3.34,2.91-.09.34,2.05.62,4.1.87,5.81Z"/>
      <path class="cls-1" d="M194,386.35c-.56,3.18-.49,4.09-1.65,4.1-2.03.01-1.32-7.94.39-7.3,1.23.46.97.5,1.25,3.2Z"/>
      <path class="cls-1" d="M144.21,403.68c-.23-.3-.72-.66-.66-.9,1.3-5.3,4.59-6.16,4.45-4.71-.2,2.11-1.14,3.9-2.64,5.41-.22.22-.76.14-1.15.2Z"/>
      <path class="cls-1" d="M60.52,1026.17c.79-14.4.4-15.3,1.87-15.49,2.71-.36.08,11.98-.57,15.58-.43-.03-.87-.05-1.3-.08Z"/>
      <path class="cls-1" d="M296.8,1014.35c-2.11-.29-2.7-1.16-2.28-13.88.49-15.11-2.93-41.57,1.03-34.46,1.92,3.43,1.18,48.41,1.25,48.35Z"/>
      <path class="cls-1" d="M233.53,265.66c-1.79-.05-2.83-4.23-6.09-15.04-.61-2.03,1.57-2.77,2.2-.92,4.5,13.08,5.93,16.02,3.89,15.96Z"/>
      <path class="cls-1" d="M309.19,910.63c.78.09-.24.05-.16.11,0,0,.16-.11.16-.11Z"/>
      <path class="cls-1" d="M266.38,440.27c-4.18-17.96-2.58-12.26-6.72-20.61-3.29-6.63,3.53-6.27,7.64,15.84.5,2.66-1.15,5-.92,4.77Z"/>
      <path class="cls-1" d="M142.93,12.84c-2.19-.21-.49-3.9.85-3.3.9.4,1.3,2.84-.85,3.3Z"/>
    </g>
  </g>
</svg>